/* XPM */
static char *ZmlyZTQ_[] = {
/* columns rows colors chars-per-pixel */
"50 50 207 2 ",
"   c #FE0400",
".  c #FD0B00",
"X  c #FD1301",
"o  c #F31C01",
"O  c #FD1C00",
"+  c #FC1F11",
"@  c #EC2C01",
"#  c #EE2601",
"$  c #FE2301",
"%  c #F22C03",
"&  c #FE2B01",
"*  c #FD230B",
"=  c #FD2E0D",
"-  c #F42102",
";  c #EA3201",
":  c #E43D02",
">  c #EA3D03",
",  c #E73502",
"<  c #F33601",
"1  c #FE3301",
"2  c #F23D02",
"3  c #FD3C01",
"4  c #F93B0E",
"5  c #FD2413",
"6  c #FD3816",
"7  c #DE4501",
"8  c #DE4C02",
"9  c #DC5103",
"0  c #E34A05",
"q  c #EA4C0D",
"w  c #E44506",
"e  c #F54102",
"r  c #FE4301",
"t  c #FE4B01",
"y  c #FC440D",
"u  c #FE4E0C",
"i  c #F24A06",
"p  c #E45304",
"a  c #EA5A0B",
"s  c #FF5400",
"d  c #FF5C00",
"f  c #FE5708",
"g  c #FD5D0D",
"h  c #F65804",
"j  c #FC4413",
"k  c #FC4F12",
"l  c #F94A19",
"z  c #EC5514",
"x  c #E55F18",
"c  c #E6561B",
"v  c #FE5512",
"b  c #FE561E",
"n  c #F05015",
"m  c #D6690B",
"M  c #DE6818",
"N  c #DC6210",
"B  c #D37410",
"V  c #DB761A",
"C  c #FF6400",
"Z  c #FF6B00",
"A  c #FC630A",
"S  c #FF6E08",
"D  c #F36109",
"F  c #FF7401",
"G  c #FF7B01",
"H  c #FE730A",
"J  c #FD7E0C",
"K  c #E26B1C",
"L  c #EE641D",
"P  c #FE6D13",
"I  c #F8661A",
"U  c #FF7F15",
"Y  c #FE7116",
"T  c #FC4A20",
"R  c #FD5D2C",
"E  c #FB5537",
"W  c #EC6720",
"Q  c #F36029",
"!  c #E87524",
"~  c #FF7025",
"^  c #FC7A28",
"/  c #E97932",
"(  c #FB7334",
")  c #FB7B37",
"_  c #ED7E49",
"`  c #FD7D44",
"'  c #FC6F55",
"]  c #FE7F59",
"[  c #FD7259",
"{  c #FC7762",
"}  c #D9811E",
"|  c #FF8401",
" . c #FF8C01",
".. c #FF830B",
"X. c #FF8C0D",
"o. c #EE930C",
"O. c #FF9201",
"+. c #FF9C02",
"@. c #FF8312",
"#. c #FF801E",
"$. c #FF891F",
"%. c #FD8F11",
"&. c #FF9312",
"*. c #FF9B13",
"=. c #FD941A",
"-. c #FF9D1B",
";. c #FFA302",
":. c #FFAA02",
">. c #FFAC0B",
",. c #FFB303",
"<. c #FFBA03",
"1. c #FDAB14",
"2. c #FFAF19",
"3. c #FEBE13",
"4. c #FFB512",
"5. c #E88428",
"6. c #FE8424",
"7. c #F18F28",
"8. c #FF882A",
"9. c #FF9425",
"0. c #FF992C",
"q. c #ED833E",
"w. c #FD823A",
"e. c #FE8C3C",
"r. c #FD8831",
"t. c #EB9D33",
"y. c #E59A38",
"u. c #FD9830",
"i. c #FF9F3D",
"p. c #F89639",
"a. c #FEA325",
"s. c #FFA429",
"d. c #FAAE22",
"f. c #F7B721",
"g. c #FABE2A",
"h. c #E7A53B",
"j. c #FFA334",
"k. c #FAB63D",
"l. c #FFC204",
"z. c #FFCC02",
"x. c #FFC208",
"c. c #FFCE0E",
"v. c #FFD404",
"b. c #FFDB02",
"n. c #FFD609",
"m. c #FFC312",
"M. c #FFCE19",
"N. c #FFCA14",
"B. c #FFE404",
"V. c #FFE802",
"C. c #FFF302",
"Z. c #FFF901",
"A. c #FCC334",
"S. c #FFCF31",
"D. c #FFC23B",
"F. c #FFF828",
"G. c #FFFA27",
"H. c #FFE33E",
"J. c #E88E48",
"K. c #FE8C4D",
"L. c #FE8844",
"P. c #E89743",
"I. c #FE944C",
"U. c #FE9B4F",
"Y. c #F09844",
"T. c #FE8C5A",
"R. c #EA955E",
"E. c #FD9A59",
"W. c #FF9655",
"Q. c #FEA544",
"!. c #FFAB46",
"~. c #FEA24A",
"^. c #FDAA4C",
"/. c #F5B942",
"(. c #FCB645",
"). c #FEA553",
"_. c #FDAD53",
"`. c #FFA75C",
"'. c #FCBD57",
"]. c #FD816A",
"[. c #EFA86B",
"{. c #F9A569",
"}. c #FEBE60",
"|. c #FEAD75",
" X c #FFC442",
".X c #FFC357",
"XX c #FFED49",
"oX c #FBCD64",
"OX c #FFC677",
"+X c #FEC278",
"@X c #FFF469",
"#X c #FFFC77",
"$X c #FEB990",
"%X c #FDCB93",
"&X c #FBD89B",
"*X c #FFE587",
"=X c #FFFA87",
"-X c #FFE596",
";X c #FFFB95",
":X c #FFDAA3",
">X c #FEECC1",
",X c #FFFECE",
"<X c #FFFEC4",
"1X c #FFF7DA",
"2X c #FFFAEC",
"3X c None",
"4X c black",
/* pixels */
"3X3X3X3X3X3X3X3X3X3X3X3X3X3X3X3X3X3X. 3X3X3X3X3X3X3X3X3X3X3X3X3X3X3X3X3X3X3X3X3X3X3X3X3X3X3X3X3X3X3X",
"3X3X3X3X3X3X3X3X3X3X3X3X3X3X3X3X3X3X3X3X3X3X3X3X3X3X3X3X3X3X3X3X3X3X3X3X3X3X3X.   3X3X3X3X3X3X3X3X3X",
"3X3X3X3X3X3X3X3X3X3X3X3X3X3X3X3X3X3X3X3X3X3X3X3X3X3X3X3X3X3X3X3X3X3X3X3X3X3X3X3X. 3X3X3X3X3X3X3X3X3X",
"3X3X3X3X3X3X3X3X3X3X3X3X3X3X3X3X3X3X3X3X3X3X3X3X3X3X3X3X3X3X3X3X3X3X3X3X3X3X3X3X3X3X3X3X3X3X3X3X3X3X",
"3X3X3X3X3X3X3X3X3X3X3X3X3X3X3X3X3X3X3X3X3X3X3X3X3X3X3X3X3X3X3X3X3X3X3X3X3X3X3X3X3X3X3X3X3X3X3X3X3X3X",
"3X3X3X3X3X3X3X3X3X3X3X3X3X3X3X3X3X3X3X3X3X3X3X3X3X3X3X3X3X3X3X3X3X3X3X3X3X3X3X3X3X3X3X3X3X3X3X3X3X3X",
"3X3X3X3X3X3X3X3X3X3X3X3X3X3X3X3X3X3X3X3X3X3X3X3X3X3XX 3X3X3X3X3X3X3X3X3X3X3X3X3X3X3X3X3X3X3X3X3X3X3X",
"3X3X3X3X3X3X3X3X3X3X3X3X3X3X3X3X3X3X3X3X3X3X3X3X3X. X 3X3X3X3X3X3X3X3X3X3X3X3X3X3X3X3X3X3X3X3X3X3X3X",
"3X3X3X3X3X3X3X3X3X3X3X3X3X3X3X3X3X3X3X3X3X3X3X3XO   O 3X3X3X3X3X3X3X3X3X3X3X3X3X3X3X3X3X3X3X3X3X3X3X",
"3X3X3X3X3X3X3X3X3X3X3X3X3X3X3X3X3X3X3X3X3X  1 d &     3X3X3X3X3X3X3X3X3X3X3X3X3X3X3X3X3X3X3X3X3X3X3X",
"3X3X3X3X3X3X3X3X3X3X3X3X3X3X3XO 1 3 r 3 1 O C d O   X 3X3X3X3XO O O O 3X3X3X3X3X3X3X3X3X3X3X3X3X3X3X",
"3X3X3X3X3X3X3X3X3X3X3X3X3X3Xr Z s.:X-.Z C d Z C O X $ . & s G  . .F d t 3 & 3X3X3X3X3X3X3X3X3X3X3X3X",
"3X3X3X3X3X3X3X3X3X3X3X3X1 d C ;.=X,XN.C C Z | ;.Z = 6 r | N.@XG.Z.V.:...F r $ 3X3X3X3X3X3X3X3X3X3X3X",
"3X3X3X3X3X3X3X3X3X3X3XC | F C +.b.l.| g t d | <.G b v Z :.#X1XH.C.v.c.%.Z Z t $ 3X3X3X3X3X3X3X3X3X3X",
"3X3X3X3X3X3X3X3X3X3XY a.z.| Z Z s r 1 T j 3 s F 9.8.Z F +.,.S ;.+.&.1.G  . .F t & 3X3X3X3X3X3X3X3X3X",
"3X3X3X3X3X3X3X3X3X3XC ..i.H F t $ 4X4Xr ` 1 & d _._.| H F 1 O r v U F F  .,.| C 1 O . 3X3X3X3X3X3X3X",
"4X4X4X4X4X4X4X4X3Xt d t g U.H s 3X3X3X3X] 4 $ t {.).G U d t 1 b ~ d Z s & d Z r X X X 3X3X3X3X3X3X3X",
"4X4X4X4X4X4X4X4Xr s O 3Xt t {.u.3X3X3X3XL y.t.5.L d s r h d ^ w.3 f d $   X $   O 1 O   3X3X3X3X3X3X",
"4X4X4X4X4X4X4Xt d & 3X3X3Xr r +XoX3X3XX 5.3.<.,.t.q e q 5.Q.!.h & ^.A & . O   & d 1 O X   X X   X 3X",
"4X4X4X4X4X4X1 C t 3X3X3X3X3Xt f %XI $   L g.l.m.A.5.t M 2.D.>.7.q 4 * & t 1 3 d d & . . .       . 3X",
"4X4X4X4X3X3X1 C t 3X3X3X3X3X3Xu P Y.9 w z P.(. X'.J.m V f.<.<.k./ = O O 1 t C d r O .       . 3X3X3X",
"4X4X4X4X3X3Xs r 3X3X3X3X3X3Xl & e p 8 8 M J.R.[.[._ M V h.A.oXh.m O 3X3X. & d C s $       . 3X3X3X3X",
"4X4X4X4X3X3XC 3 3X3X3X3XO O Q p i e t n z _ J.( ) ' E ! q M } B : 3X3X.   O r 1 . X O $ X 3X3X3X3X3X",
"4X4X4X4X3X3XC 3X3X3X3X. X X e D O.,.;.6.L.] ` e.!.'.|.) + 7 7 #   & $ .   O X $ r d d d X 3X3X3X3X3X",
"4X4X3X3X& t d $ 4X4X4X3X& 1 s +.XX;XB.@.8.E.~.`.Q.A.}.K.b 1 . o 9 i K K o $ d C C C C t & 3X3X3X3X3X",
"4X4X3X3 C C 3 1 4X& = k R ) e.m.;X-X+.U w.T.I._.j.k.~.I.=.P + w m y.4.=.Q & C C C d d s 3X3X3X3X3X3X",
"4X4X4XZ C s 3X3 j l 6 T y A F  .O.G S g E { K.!.s.).L.) A P * @ B k.:.O.H 4 C C Z d & . 3X3X3X3X3X3X",
"4X4X4XC C $ . . . X $ 1 < u Z C 2 ; ; q = [ ].E.U.W.R * $ 3X3X. N /.:.| Z k C d d C 3 . 3X3X3X3X3X3X",
"3X3X3Xt 3 3X3XO 3X3X3X. s C Z Z t @ : # * 3X3X[ { [ 3X3X3X3X3X3X% Y.O.G C t s X & t s O   3X3X3X3X3X",
"3X3X3X3X3X. X X . 3X3X3 G :.| H C w w # 3X3X3X3X3X3X3X3X3X3XT.6 - ! &.C t s C s 1 1 1 1 3X3X3X3X3X3X",
"3X3X3X3X3X. .   . . . $ O.B.O.F Z a a c 3X3X3X3X3X3X3X3X3Xs y = , n I f r C G <.:.C C 3 3X3X3X3X3X3X",
"3X3X3X3X        . X O 3 +.+.Z G 6.q./ 0 3X3X:X3X3X3X{.6.f F C 1 < y 4 r d C O.:.G C C 3 3X3X3X3X3X3X",
"3X3X3X3X3X3X3X3X3X3X3X$ d Z F U w.e b O 3 a.>X..% 1 E.r.U.G F C d s C C t r t & O $ t 1 3X3X3X3X3X3X",
"3X3X3X3X3X3X3X3X3X3X3X3X1 d G 0.F u % X 1 %.&Xo.0 < f ^.H 0.F Z Z  .<.<.4.x.Q.Z $     . X 3X3X3X3X3X",
"3X3X3X3X3X3X3X3X3X3X3X3XX t $.F Z H s % i | OXF : t F X.a.| 9.Z G b.<X1XD.n.XXl.Z s 1 .   . 3X3X3X3X",
"3X3X3X3X3X3X3X3X3X3Xs . O u 1 r C C Z d F O..XF < C F O.2.*.F F | C.1X2X*XO. .G C C t X 3X3X3X3X3X3X",
"3X3X3X3X3X3X3X3X3X3X3X3X3XX . t s d | >.;. .(.G < C | B.C.N.G Z G z.F.S.,.v.O.Z C C 1 3X3X3X3X3X3X3X",
"3X3X3X3X3X3X3X3X3X3X3X3XX   X s r s 9.$Xb. .u.F < d | B.H.B...Z Z F ;.z.| r C C Z s O 3X3X3X3X3X3X3X",
"3X3X3X3X3X3X3X3X3X3X3X3X  X 3X1 s 1 H *.:.| 9.f ; e Z ;.z.:.Z C d d 3 s C & $ s C 1 3X3X3X3X3X3X3X3X",
"3X3X3X3X3X3X3X3X3X3X3X3X. 3X3X3X& $ s C C C Y > % X r Z Z Z C C 3 s C d C d t & r $ 3X3X3X3X3X3X3X3X",
"3X3X3X3X3X3X3X3X3X3X3X3X3X3X3X3X3X  O $ & 1 j $ .   . 1 s d d 3 $ $ r C C C C r & 3X3X3X3X3X3X3X3X3X",
"3X3X3X3X3X3X3X3X3X3X3X3X3X3X3X3X3X3X  3X3X3X3X3X3X3X3X3XO $ & $ 3X  O 1 r r & & 3X3X3X3X3X3X3X3X3X3X",
"3X3X3X3X3X3X3X3X3X3X3X3X3X3X3X3X3X3XX . 3X3X3X3X3X3X3X3X3X3X3X3X3X3X3X3XX O X . 3X3X3X3X3X3X3X3X3X3X",
"3X3X3X3X3X3X3X3X3X3X3X3X3X3X3X3X3X3X. X 3X3X3X3X3X3X3X3X3X3X3X3X3X3X3X3X3X3X. X 3X3X3X3X3X3X3X3X3X3X",
"3X3X3X3X3X3X3X3X3X3X3X3X3X3X3X3X3X3X. 3X3X3X3X3X3X3X3X3X3X3X3X3X3X3X3X3X3X3XX   X 3X3X3X3X3X3X3X3X3X",
"3X3X3X3X3X3X3X3X3X3X3X3X3X3X3X3X3X3X3X3X3X3X3X3X3X3X3X3X3X3X3X3X3X3X3X3X3X3X3X3X  3X3X3X3X3X3X3X3X3X",
"3X3X3X3X3X3X3X3X3X3X3X3X3X3X3X3X3X3X3X3X3X3X3X3X3X3X3X3X3X3X3X3X3X3X3X3X3X3X3X3X3X3X3X3X3X3X3X3X3X3X",
"3X3X3X3X3X3X3X3X3X3X3X3X3X3X3X3X3X3X3X3X3X3X3X3X3X3X3X3X3X3X3X3X3X3X3X3X3X3X3X3X3X3X3X3X3X3X3X3X3X3X",
"3X3X3X3X3X3X3X3X3X3X3X3X3X3X3X3X3X3X3X3X3X3X3X3X3X3X3X3X3X3X3X3X3X3X3X3X3X3X3X3X3X3X3X3X3X3X3X3X3X3X",
"3X3X3X3X3X3X3X3X3X3X3X3X3X3X3X3X3X3X3X3X3X3X3X3X3X3X3X3X3X3X3X3X3X3X3X3X3X3X3X3X3X3X3X3X3X3X3X3X3X3X"
};
