/* XPM */
static char *ZmlyZTE_[] = {
/* columns rows colors chars-per-pixel */
"50 50 188 2 ",
"   c #FF0300",
".  c #FE0B00",
"X  c #F51700",
"o  c #FE1301",
"O  c #FE1B01",
"+  c #FE2301",
"@  c #FE2B00",
"#  c #FF2D08",
"$  c #FE3301",
"%  c #FF3B01",
"&  c #FE320B",
"*  c #FE3B09",
"=  c #FF4400",
"-  c #FF4B01",
";  c #FE430A",
":  c #FF4E09",
">  c #FF5300",
",  c #FF5C00",
"<  c #FE5409",
"1  c #FD5B0D",
"2  c #FF4714",
"3  c #FE5813",
"4  c #FF6400",
"5  c #FF6C00",
"6  c #FF610A",
"7  c #FF690C",
"8  c #FF7400",
"9  c #FF7C01",
"0  c #FF740A",
"q  c #FF7C09",
"w  c #FF6512",
"e  c #FF7711",
"r  c #FF7C1B",
"t  c #FF741B",
"y  c #FE6426",
"u  c #FF8201",
"i  c #FF8B01",
"p  c #FF850E",
"a  c #FF8A09",
"s  c #FF9401",
"d  c #FF9B03",
"f  c #FF940E",
"g  c #FF9C0C",
"h  c #FF8614",
"j  c #FF8C14",
"k  c #FE871A",
"l  c #FF9316",
"z  c #FF9F17",
"x  c #FF971E",
"c  c #FFA303",
"v  c #FFAB03",
"b  c #FFA70B",
"n  c #FFAA0C",
"m  c #FFB403",
"M  c #FFBD03",
"N  c #FFB009",
"B  c #FFBD0C",
"V  c #FFAD1D",
"C  c #FFA314",
"Z  c #FFB114",
"A  c #FFB31A",
"S  c #FFBA1B",
"D  c #FFBC14",
"F  c #FF8824",
"G  c #FF8525",
"H  c #FF9E21",
"J  c #FFAC27",
"K  c #FFBC26",
"L  c #FFB727",
"P  c #FFA739",
"I  c #FFB838",
"U  c #FFC303",
"Y  c #FFCB03",
"T  c #FFC50B",
"R  c #FFC808",
"E  c #FFD303",
"W  c #FFDC04",
"Q  c #FFD50C",
"!  c #FFDE0E",
"~  c #FFC110",
"^  c #FFC41C",
"/  c #FFCD18",
"(  c #FFD413",
")  c #FFDA12",
"_  c #FFD31A",
"`  c #FFDE1C",
"'  c #FFE303",
"]  c #FFEB03",
"[  c #FFE30D",
"{  c #FFED0B",
"}  c #FFF202",
"|  c #FFFC03",
" . c #FFF40C",
".. c #FFFD0B",
"X. c #FFE316",
"o. c #FFEB14",
"O. c #FFE41B",
"+. c #FFEB1C",
"@. c #FFF210",
"#. c #FFFE14",
"$. c #FFFD1C",
"%. c #FFC127",
"&. c #FFCA21",
"*. c #FFC628",
"=. c #FFCC2C",
"-. c #FFD124",
";. c #FFDA22",
":. c #FFDC2D",
">. c #FFC237",
",. c #FFCB33",
"<. c #FFC63B",
"1. c #FFD232",
"2. c #FFDC35",
"3. c #FFD03F",
"4. c #FFDF3D",
"5. c #FFE627",
"6. c #FFEC21",
"7. c #FFE129",
"8. c #FFEB2C",
"9. c #FFF522",
"0. c #FFFD23",
"q. c #FFF32B",
"w. c #FFFD2C",
"e. c #FFEC33",
"r. c #FFEB3C",
"t. c #FFF435",
"y. c #FFFD35",
"u. c #FFF43C",
"i. c #FFFC3D",
"p. c #FE844D",
"a. c #FFAE4F",
"s. c #FFBC4C",
"d. c #FFB65F",
"f. c #FFB46C",
"g. c #FFAC74",
"h. c #FFD741",
"j. c #FFD64F",
"k. c #FFDA4A",
"l. c #FFDC44",
"z. c #FFE443",
"x. c #FFE14D",
"c. c #FFEB4D",
"v. c #FFF544",
"b. c #FFFD44",
"n. c #FFF34B",
"m. c #FFFD4B",
"M. c #FFE657",
"N. c #FFEA55",
"B. c #FFE35B",
"V. c #FFF353",
"C. c #FFFD53",
"Z. c #FFF55C",
"A. c #FFF95A",
"S. c #FFFD5F",
"D. c #FFFB5D",
"F. c #FFDA63",
"G. c #FFE260",
"H. c #FFEB65",
"J. c #FFED6C",
"K. c #FFF363",
"L. c #FFFD66",
"P. c #FFF06A",
"I. c #FFFD6C",
"U. c #FFEC7D",
"Y. c #FFF375",
"T. c #FFFC73",
"R. c #FFFC7A",
"E. c #FFF383",
"W. c #FFFE84",
"Q. c #FFFE8B",
"!. c #FFE093",
"~. c #FFF595",
"^. c #FFFE94",
"/. c #FFFE9D",
"(. c #FFFC9C",
"). c #FFFEA4",
"_. c #FFFEAC",
"`. c #FFFEB1",
"'. c #FFFEB4",
"]. c #FFF7BD",
"[. c #FFFEBC",
"{. c #FFFEC2",
"}. c #FFFECA",
"|. c #FFFED3",
" X c #FFFEDB",
".X c #FFFEE1",
"XX c None",
"oX c black",
/* pixels */
"XXXXXXXXXXXXXXXXXXXXXXXXXXXXXXXXXXXXXXXXXXXXXXXXXXXXXXXXXXXXXXXXXXXXXXXXXXXXXXXXXXXXXX. o XXXXXXXXXX",
"XXXXXXXXXXXXXXXXXXXXXXXXXXXXXXXXXXXXXXXXXXXXXXXXXXXXXXXXXXXXXXXXXXXXXXXXXXXXXXXXXXXXXXXXXXXXXXXXXXXX",
"XXXXXXXXXXXXXXXXXXXXXXXXXXXXXXXXXXXXXXXXXXXXXXXXXXXXXXXXXXXXXXXXXXXXXXXXXXXXXXXXXXXXXXXXXXXXXXXXXXXX",
"XXXXXXXXXXXXXXXXXXXXXXXXXXXXXXXXXXXXXXXXXXXXXXXXXXXXXXXXXXXXXXXXXXXXXXXXXXXXXXXXXXXXXXXXXXXXXXXXXXXX",
"XXXXXXXXXXXXXXXXXXXXXXXXXXXXXXXXXXXXXXXXXXXXXXXXXXXXXXXXXXXXXXXXXXXXXXXXXXXXXXXXXXXXXXXXXXXXXXXXXXXX",
"XXXXXXXXXXXXXXXXXXXXXXXXXXXXXXXXXXXXXXXXXXXXXXXXXXXXXXXXXXXXXXXXXXXXXXXXXXXXXXXXXXXXXXXXXXXXXXXXXXXX",
"XXXXXXXXXXXXXXXXXXXXXXXXXXXXXXXXXXXXXXXXXXXXXXXXXX. o XXXXXXXXXXXXXXXXXXXXXXXXXXXXXXXXXXXXXXXXXXXXXX",
"XXXXXXXXXXXXXXXXXXXXXXXXXXXXXXXXXXXXXXXXXXXX. XX+   . . XXXXXXXXXXXXXXXXXXXXXXXXXXXXXXXXXXXXXXXXXXXX",
"XXXXXXXXXXXXXXXXXXXXXXXXXXXXXXXXXXXXXXXXXXXX. @ o   . + XXXXXXXXXXXXXXXXXXXXXXXXXXXXXXXXXXXXXXXXXXXX",
"XXXXXXXXXXXXXXXXXXXXXXXX. o XXXXXXXXXXXXXXXXO % O o O & XXXXXXXXXXXXXXXXXXXXXXXXXXXXXXXXXXXXXXXXXXXX",
"XXXXXXXXXXXXXXXXXXXXXXXXO   . o XX. XXo o o + = - - < 3 O . + $ - - $ 5 4 6 XXXXXXXXXXXXXXXXXXXXXXXX",
"XXXXXXXXXXXXXXXXXXXXXXXX.     . + @ $ : 4 = % , a 9 j 1 % > 5 9 c $ , ' ] Y i % XXXXXXXXXXXXXXXXXXXX",
"XXXXXXXXXXXXXXXXXXXXXXXX* o . O = , u u n u i s &.v <.8 4 4 , d % o g.D...| ] s % XXXXXXXXXXXXXXXXXX",
"XXXXXXXXXXXXXXXXXXXXXXXXr = @ = , u p Y C v .. .W ;.4.m u 4 4 = $ $ d.!.' } E v 5 $ XXXXXXXXXXXXXXXX",
"XXXXXXXXXXXXXXXXXXXXXXXX< k 4 8 i c U ]  .b.$.w. .D.q.W B c u 8 5 G a.p.T 5 O o > > @ XXXXXXXXXXXXXX",
"XXXXXXXXXXXXXXXXXXXXXXXX> d ,.b m Y ] ..$.S.y.#.0./.0.] 5.Y m c I P : y +     , c > @ + XXXXXXXXXXXX",
"XXXXXXXXXXXXXXXXXXXXO $ 5 M =.j.;.] | 0.w.m.^.m./.`.T.B.Q ] [ N.3.u - o . o . @ > - O   . . XXXXXXXX",
"XXXXXXXXXXXXXXXX$ = - = > s s R D.L.$.0.0.m.[.}.}.L.u.&.{ y.W.x.M i , @ O O .           o XXXXXXXXXX",
"XXXXXXXXXXXXXX1 ; : - , , 8 d E [ T.^.I.b.Q.I.C.W.C. .O.0.`.L.W v c q w # .             . XXXXXXXXXX",
"XXXXXXXXXXXXXXXX< 6 r F f c M ' Y ! /.^.$.$...T.T.^.m.| $./...| O.,.z , @ .         . o . XXXXXXXXXX",
"XXXXXXXXXXXXXXXX> q w h K l.r. .W ] m.(.b.c.o._.}.'.Q.w.^.|.T.R.u.E c 8 % .       o $ O O XXXXXXXXXX",
"XXXXXXXXXXXXXXO % , 5 h L 1.N.R.T.m.v.e. .Y.(.u.q.| ^.{._.[.W.w.w.` p 9 = o   .   o O - > @ XXXXXXXX",
"XXXXXXXXXXXXXX+ > - @ - i N &.r.Y.J.5.Z.R.r.[ e.c.t.y._.I.W.'.i...] m i , @ . = % $ - , 4 > XXXXXXXX",
"XXXXXXXXXXo . . o o o - i b T | ..$.6.( 2.c.) H.].Q.0.[.).|.(.L.C.z.J j 0 ; + c 5 4 4 4 4 = XXXXXXXX",
"XXXXXXXXXX.   . o o + > a A 1.m.R._.K.B.F.E.U.Z.^.D...}._.'. X{.m. .E c 9 - @ u , > - , , O XXXXXXXX",
"XXXXXXXXXXO @ o * # 2 t x S ) ..$.b.V.B.^ z.V.q.q.i.m.'./.0.'.`.I.V.B.s.l < = i , > , , = XXXXXXXXXX",
"XXXXXXXXo O . . . o O = 8 d Y } $.y.D.>.Z =.(.E.D.^.|.S.I.I.R._.w.} Q v 9 < 7 m 8 4 4 > O XXXXXXXXXX",
"XXXXXXo .     . . . . @ , 8 i ' #.i.U.m T :.5.o.^.I.^.y.} $.W.(.b.0.W c 8 = o $ 5 5 - + XXXXXXXXXXXX",
"XXXX.                 o - 9 d d %.U.N.z.8.r.E.{ y.y.|.C.O.( P./.W.t.( g 5 % . O i 5 , @ XXXXXXXXXXXX",
"XXXXo o               . % , q %.S E D._._.6.~.H.C.Q. X|.u.Y ! 9.I.x.2.b 8 s m s 4 4 4 % XXXXXXXXXXXX",
"XXXXXXXXo o o o   . . . @ , 0 8 s :.m.I.t.] Z.}.$.i.[.[.^.Q B +...6._ A j m ] } ] s 4 = XXXXXXXXXXXX",
"XXXXXXXXXXXXXX. . o O . o = 8 8 ~ i...M.<.{ M.E.@.r.e.Q.W.R.9.o.} E N f d Q U ' } i 4 = XXXXXXXXXXXX",
"XXXXXXXXXXXXXXXXXXXX. o . $ 4 s 1.W -.f.h.+.k.F.D F.V.I.y.K.L.| ' v i 8 d } | | E 9 5 $ XXXXXXXXXXXX",
"XXXXXXXXXXXXXXXXXXXX. O = @ > H d m n M #.Q n.B.Z I k.*.T.#.b.v.E c i i 9 W | } s 5 , @ XXXXXXXXXXXX",
"XXXXXXXXXXXXXXXXXXXX* 4 = O 3 7 9 d m Y ] } y.v.O.u.2.t.y.y.} :.1.d 8 v W ' ] c 8 4 = $ XXXXXXXXXXXX",
"XXXXXXXXXXXXXXXXXXXX> = + & & % > 5 i v U ' 9.w...#.X.9 } ` ) E _ L , % s v i 8 4 , > + XXXXXXXXXXXX",
"XXXXXXXXXXXXXXXXXXXX$ XX; # @ + = - 4 9 5 M / / E m E > i d V M v i e O o - , 4 4 , $ XXXXXXXXXXXXXX",
"XXXXXXXXXXXXXXXXXXXXXXXX@ XXXXXX@ - = > > s f j 8 > > - 4 5 9 l 9 8 , ; . . - , 4 % XXXXXXXXXXXXXXXX",
"XXXXXXXXXXXXXXXXXXXXXXXXXXXXXXXXXX@ @ - - 5 0 7 = + X + % > 4 5 q > = , = o o = $ XXXXXXXXXXXXXXXXXX",
"XXXXXXXXXXXXXXXXXXXXXXXXXXXXXXXXXXXX. + + % : : @       O + @ $ & + + $ @ @ o O XXXXXXXXXXXXXXXXXXXX",
"XXXXXXXXXXXXXXXXXXXXXXXXXXXXXXXXXXXXXXo . o & XXXXXXXXXXXXXXXXXXXXXXXXXXXXXXXXXXXXXXXXXXXXXXXXXXXXXX",
"XXXXXXXXXXXXXXXXXXXXXXXXXXXXXXXXXXXXXXo   . XXXXXXXXXXXXXXXXXXXXXXXXXXXXXXXXXXXXXXXXXXXXXXXXXXXXXXXX",
"XXXXXXXXXXXXXXXXXXXXXXXXXXXXXXXXXXXXXX. . O XXXXXXXXXXXXXXXXXXXXXXXXXXXXXXXXXXXXXXXXXXXXXXXXXXXXXXXX",
"XXXXXXXXXXXXXXXXXXXXXXXXXXXXXXXXXXXXXX. . XXXXXXXXXXXXXXXXXXXXXXXXXXXXXXXXXXXXXXXXXXXXXXXXXXXXXXXXXX",
"XXXXXXXXXXXXXXXXXXXXXXXXXXXXXXXXXXXXXXo o XXXXXXXXXXXXXXXXXXXXXXXXXXXXXXXXXXXXXXXXXXXXXXXXXXXXXXXXXX",
"XXXXXXXXXXXXXXXXXXXXXXXXXXXXXXXXXXXXXXXXXXXXXXXXXXXXXXXXXXXXXXXXXXXXXXXXXXXXXXXXXXXXXXXXXXXXXXXXXXXX",
"XXXXXXXXXXXXXXXXXXXXXXXXXXXXXXXXXXXXXXXXXXXXXXXXXXXXXXXXXXXXXXXXXXXXXXXXXXXXXXXXXXXXXXXXXXXXXXXXXXXX",
"XXXXXXXXXXXXXXXXXXXXXXXXXXXXXXXXXXXXXXXXXXXXXXXXXXXXXXXXXXXXXXXXXXXXXXXXXXXXXXXXXXXXXXXXXXXXXXXXXXXX",
"XXXXXXXXXXXXXXXXXXXXXXXXXXXXXXXXXXXXXXXXXXXXXXXXXXXXXXXXXXXXXXXXXXXXXXXXXXXXXXXXXXXXXXXXXXXXXXXXXXXX",
"XXXXXXXXXXXXXXXXXXXXXXXXXXXXXXXXXXXXXXXXXXXXXXXXXXXXXXXXXXXXXXXXXXXXXXXXXXXXXXXXXXXXXXXXXXXXXXXXXXXX"
};
