/* XPM */
static char *ZmlyZTc_[] = {
/* columns rows colors chars-per-pixel */
"50 50 243 2 ",
"   c #FD0300",
".  c #FD0500",
"X  c #FB0A00",
"o  c #F90D00",
"O  c #F90E00",
"+  c #F71400",
"@  c #F71500",
"#  c #F51601",
"$  c #F61600",
"%  c #F81000",
"&  c #F91100",
"*  c #F81600",
"=  c #FF1401",
"-  c #FD1701",
";  c #F51900",
":  c #F21D00",
">  c #FD1E01",
",  c #FD1D05",
"<  c #DF3F01",
"1  c #EC2501",
"2  c #EE2600",
"3  c #EC2B01",
"4  c #EE2A01",
"5  c #EB2C00",
"6  c #EB2C01",
"7  c #E92F00",
"8  c #E92E01",
"9  c #FD2101",
"0  c #FE2701",
"q  c #FD2803",
"w  c #FD2C02",
"e  c #FD250A",
"r  c #FD2B09",
"t  c #E73101",
"y  c #E73301",
"u  c #E53601",
"i  c #E63601",
"p  c #E63701",
"a  c #E83000",
"s  c #E83101",
"d  c #E83401",
"f  c #E33901",
"g  c #E43800",
"h  c #E53901",
"j  c #E03D01",
"k  c #E23C01",
"l  c #E13E01",
"z  c #E23E01",
"x  c #E23E02",
"c  c #FD3101",
"v  c #FD3201",
"b  c #FD3003",
"n  c #FD3302",
"m  c #FD3402",
"M  c #FD3702",
"N  c #FD3703",
"B  c #FC3704",
"V  c #F53A01",
"C  c #FD3A01",
"Z  c #FC3B02",
"A  c #FD3C03",
"S  c #FE3D03",
"D  c #FD3113",
"F  c #DF4201",
"G  c #DD4501",
"H  c #DD4701",
"J  c #DB4901",
"K  c #DA4A01",
"L  c #DD4900",
"P  c #DC4901",
"I  c #DE4B03",
"U  c #D94D01",
"Y  c #DE4E05",
"T  c #CF5F00",
"R  c #CF5F01",
"E  c #D65001",
"W  c #D75001",
"Q  c #D75101",
"!  c #D75202",
"~  c #D35601",
"^  c #D45401",
"/  c #D55501",
"(  c #D65401",
")  c #D45601",
"_  c #D45701",
"`  c #D85002",
"'  c #DD5404",
"]  c #D15900",
"[  c #D25801",
"{  c #D15B01",
"}  c #D45902",
"|  c #D05D00",
" . c #D05F00",
".. c #D35E03",
"X. c #D45C04",
"o. c #D85802",
"O. c #DA5903",
"+. c #DD550A",
"@. c #E14000",
"#. c #E04001",
"$. c #E14201",
"%. c #E54206",
"&. c #E04804",
"*. c #FD4202",
"=. c #FD4105",
"-. c #FD4306",
";. c #FD4605",
":. c #FD4705",
">. c #FD4507",
",. c #FD4801",
"<. c #FD4A02",
"1. c #FD4B03",
"2. c #FE4F00",
"3. c #FD4E02",
"4. c #FD4B07",
"5. c #FD4F04",
"6. c #FD4D06",
"7. c #FD4E06",
"8. c #FD4E07",
"9. c #FC4B09",
"0. c #E05008",
"q. c #E1570C",
"w. c #E2580E",
"e. c #FD5302",
"r. c #FE5203",
"t. c #FE5401",
"y. c #FD5402",
"u. c #FD5403",
"i. c #FE5402",
"p. c #FD5602",
"a. c #FD5703",
"s. c #FD5104",
"d. c #FE5205",
"f. c #FD5106",
"g. c #FC5404",
"h. c #FD5404",
"j. c #FD5604",
"k. c #FD5406",
"l. c #FD5C02",
"z. c #FD5409",
"x. c #FD5E0F",
"c. c #FA4C14",
"v. c #E85716",
"b. c #F05011",
"n. c #FD5A15",
"m. c #CF6000",
"M. c #CE6100",
"N. c #CF6001",
"B. c #CD6200",
"V. c #CD6300",
"C. c #CE6200",
"Z. c #CE6300",
"A. c #CE6301",
"S. c #CF6102",
"D. c #CC6400",
"F. c #CD6400",
"G. c #CD6500",
"H. c #CD6601",
"J. c #CF6A06",
"K. c #D06000",
"L. c #D06D06",
"P. c #D5640A",
"I. c #D7660C",
"U. c #D06B09",
"Y. c #D16B0A",
"T. c #D66A0F",
"R. c #D26C0C",
"E. c #D67506",
"W. c #D27208",
"Q. c #D1700D",
"!. c #D4760F",
"~. c #DE6713",
"^. c #D66F11",
"/. c #DB6A14",
"(. c #DC7717",
"). c #D47A16",
"_. c #D67E19",
"`. c #F36204",
"'. c #FE6100",
"]. c #FE6101",
"[. c #FE6002",
"{. c #FD6400",
"}. c #FE6400",
"|. c #FE6401",
" X c #FF6600",
".X c #FE6005",
"XX c #FF6A04",
"oX c #FF6B06",
"OX c #FD650D",
"+X c #FF7008",
"@X c #FF700C",
"#X c #F77F0C",
"$X c #E36E17",
"%X c #E4691A",
"&X c #FD6C13",
"*X c #E7731B",
"=X c #E2761D",
"-X c #FD7110",
";X c #FD7015",
":X c #FF7C17",
">X c #EE6B23",
",X c #F06820",
"<X c #F86C28",
"1X c #FB7C2D",
"2X c #D8821C",
"3X c #D8831F",
"4X c #F98009",
"5X c #FE850A",
"6X c #FF870F",
"7X c #E3930C",
"8X c #F18113",
"9X c #FD8019",
"0X c #FE801D",
"qX c #FF821E",
"wX c #F08B19",
"eX c #FF8E1E",
"rX c #E89F11",
"tX c #FF9A16",
"yX c #E8A012",
"uX c #FFA614",
"iX c #F2B117",
"pX c #F2B416",
"aX c #DD8623",
"sX c #FF8925",
"dX c #FD8E2E",
"fX c #FF9E2A",
"gX c #E39C30",
"hX c #EC9F39",
"jX c #FFAE24",
"kX c #F4BD26",
"lX c #FFB329",
"zX c #F1B92E",
"xX c #E3A13B",
"cX c #FEB630",
"vX c #FFCD02",
"bX c #FFCD03",
"nX c #FECB0B",
"mX c #F9C821",
"MX c #FFC42F",
"NX c #EBA840",
"BX c #FDB142",
"VX c #FFB542",
"CX c None",
/* pixels */
"CXCXCXCXCXCXCXCXCXCXCXCXCXCXCXCXCXCXCXCXCXCXCXCXCXCXCXCXCXCXCXCXCXCXCXCXCXCXCXCXCXCXCXCXCXCXCXCXCXCX",
"CXCXCXCXCXCXCXCXCXCXCXCXCXCXCXCXCXCXCXCXCXCXCXCXCXCXCXCXCXCXCXCXCXCXCXCXCXCXCXCXCXCXCXCXCXCXCXCXCXCX",
"CXCXCXCXCXCXCXCXCXCXCXCXCXCXCXCXCXCXCXCXCXCXCXCXCXCXCXCXCXCXCXCXCXCXCXCXCXCXCXCXCXCXCXCXCXCXCXCXCXCX",
"CXCXCXCXCXCXCXCXCXCXCXCXCXCXCXCXCXCXCXCXCXCXCXCXCXCXCXCXCXCXCXCXCXCXCXCXCXCXCXCXCXCXCXCXCXCXCXCXCXCX",
"CXCXCXCXCXCXCXCXCXCXCXCXCXCXCXCXCXCXCXCXCXCXCXCXCXCXCXCXCXCXCXCXCXCXCXCXCXCXCXCXCXCXCXCXCXCXCXCXCXCX",
"CXCXCXCXCXCXCXCXCXCXCXCXCXCXCXCXCXCXCXCXCXCXCXCXCXCXCXCXCXCXCXCXCXCXCXCXCXCXCXCXCXCXCXCXCXCXCXCXCXCX",
"CXCXCXCXCXCXCXCXCXs.g.s.y.e.;.CXCXCXCXCXCXCXCXCXCXCXCXCXCXCXCXCXCXCXCXCXCXCXCXCXCXCXCXCXCXCXCXCXCXCX",
"CXCXCXCXCXCXCXCX;.CXCXCXCXCXCXCXCXCXCXCXCXCXCXCXCXCXCXCXCXCXCXCXCXCXCXCXCXCXCXCXCXCXCXCXCXCXCXCXCXCX",
"CXCXCXCXCXCXCXCXCXCXCXCXCXCXCXCXCXCXCXCXCXCXCXCXCXCXCXCXCXCXCXCXCXCXCXCXCXCXCXCXCXCXCXCXCXCXCXCXCXCX",
"CXCXCXCXCXCXCXCXCXCXCXCXCXCXCXCXCXCXCXg.CXCXCXCXCXCXCXCXCXCXCXCXCXCXCXCXCXCXCXCXCXCXCXCXCXCXCXCXCXCX",
"CXCXCXCXCXCXCXCXCXCXCXCXCXCXCXCXCXCXCXCXCXCXCXCXCXCXCXCXCXCXCXCXCXCXCXCXCXCXCXCXCXCXCXCXCXCXCXCXCXCX",
"CXCXCXCXCXCXCXCXCXCXCXCXCXCXCXCXCXCXCXCXCXCXCXCXCXCXCXCXCXCXCXCXCXCXCXCXCXCXCXCXCXCXCXCXCXCXCXCXCXCX",
"CXCXCXCXCXCXCXCXCXCXCXCXCXCXCXCXCXCXCXCXCXCXCXCXCXCXCXCXCXCXCXCXCXCXCXCXCXCXCXCXCXCXCXCXCXCXCXCXCXCX",
"CXCXCXCXCXCXCXCXCXCXCXCXCXCXu u CXCXP ) CXCXCXCXCXCXCX>X,XCXCXCXCXCXCXCXCXCXCXCXCXCXCXCXCXCXCXCXCXCX",
"CXCXCXCXCXCXCXCXCXCXCXCXCXCXL.J.` ; CX{ CXCXCXCXCXCX^.iXkXNX<XCXCXCXCXCXCXCXCXCXCXCXCXCXCXCXCXCXCXCX",
"CXCXCXCXCXCXCXCXCXCXCXCXCXCXE.W.S.$ CXCXCXCXCXCXCXCX^.gXmXnXhXCXCXCXCXCXCXCXCXCXCXCXCXCXCXCXCXCXCXCX",
"CXCXCXCXCXCXCXCXCXCXCXCXCXCXd ..I e D r CXCXCXQ CXCX&.).xXzXpXb.CXCXCXCXCXCXCXCXCXCXCXCXCXCXCXCXCXCX",
"CXCXCXCXCXCXCXCXCXCXCXt 3 CX  , 1XBXcXdXs.- $ A.< CXCXf I.aX2Xq.CXCXCXCXCXCXCXCXCXCXCXCXCXCXCXCXCXCX",
"CXCXCXCXCXCXCXCXCXCXD.A.S.*   n.lXbXbXfXoX}.2.`.V CXCXCXo ` ..t CXCXCXCXCXCXCXCXCXCXCXCXCXCXCXCXCXCX",
"CXCXCXCXCXCXCXCXCX7 ..K.S.t   ;XjXMXVXsXXX|.|.}.}.CXCXCXCXCXCXCXCXCXCXCXCXCXCXCXCXCXCXCXCXCXCXCXCXCX",
"CXCXCXCXCXCXCXCXCXCX3 o.o.u CXz.:XqXx.w C |.<.> S CXCXCXCXCXCXCXCXCXCXCXCXCXCXCXCXCXCXCXCXCXCXCXCXCX",
"CXCXCXCXCXCXCXCXCXCX* ' 4 CXCXCXy.|.9   CX<.CXCXCXCXCXCXCXCXCXCXq.(.$XCXCXCXCXCXCXCXCXCXCXCXCXCXCXCX",
"CXCXCXCXCXCXCXCXCXCXCX..a CXCXCXCXn CXCXCXCXCXCXCXCXCXCXCXCXCXu Q.yXyX+.CXCXCXCXCXCXCXCXCXCXCXCXCXCX",
"CXCXCXCXCXCXCXCXCXCXCXCXCXCXCXCXCXCXCXCXCXCXCXCXCXCXCXCXCXCXCXg Y._._.P.CXCXCXCXCXCXCXCXCXCXCXCXCXCX",
"CXCXCXCXCXCXCXI $.CXCXCXCXCXCXCXCXCXCXCXCXCXCXCXCXCXCXCXCXCXCXCXo z A.A.$ CXCXCXCXCXCXCXCXCXCXCXCXCX",
"CXCXCXCXCXCX*X=XR.7 CXH CXCXCXCXCXCXCXCXCXCXCXCXCXCXCXCXCXCXCXCXCX2 A.S.CXCXCXCXCXCXCXCXCXCXCXCXCXCX",
"CXCXCXCXCXc.4X4X/.& CX) S.CXCXCXCXCXCXCXCXCXCXCXCXCXCXCXCXCXCXCXCXK ..7 CXg.CXCXCXCXCXCXCXCXCXCXCXCX",
"CXCXCXCXCX9.8XwXv.  CXCXCXCXCXCXCXCXCXCXCXCXCXCXCXCXCXCXCXCXCXCX$.CXCXCXCXCXCXe.a.CXCXCXCXCXCXCXCXCX",
"CXCXCXCXB B %XaX~.X CXCXCXCXCXCXCXCXCXCXCXCXCXCXCXCXCXCXCXCXCXCXCXCXCXCXCXCXCXCXl.CXCXCXCXCXCXCXCXCX",
"CXCXCXCXs.- %.7X!.} CXCXCXCXCXCXCXCXCXCXCXCXCXCXCXCXCXCXCXCXCXCXCXCXCXCXCXCXCXCXCXCXCXCXCXCXCXCXCXCX",
"CXCXCXCX8.CXCX0.Y.A.{ CXCXCXCXCXCXCXCXCXCXCXCXCXCXCXCXCXCXCXCXCXCXCXCXCXCXCXCXCXCXCXCXCXCXCXCXCXCXCX",
"CXCXCXCXCXCXCXCXCXz CXCXCXCXCXCXCXCXCXCXCXCXCXCXCXCXCXCXCXCXCXCXCXCXCXCXCXCXCXCXCXCXCXCXCXCXCXCXCXCX",
"CXCXCXCXCXCXCXCXCXCXCXCXCXCXCXCXCXCXCXCXCXCXCXCXCXCXCXCXCXCXCXCXCXCXCXCXCXCXCXCXCXCXCXCXCXCXCXCXCXCX",
"CXCXCXCXCXCXCXCXCXCXCXCXCXCXCXCXCXCXCXCXCXCXCXCXCXCXCXCXCXCXCXCXCXCXCXCXCXCXCXn .XCXCXCXCXCXCXCXCXCX",
"CXCXCXCXCX5.CXCXCXCXCXCXCXCXCXCXCXCXCXCXCXCXCXCXCXCXCXCXCXCXCXCXCXCXCXCXCXCXCX9.6X-XCXCXCXCXCXCXCXCX",
"CXCXCXCXCXCX5.CXCXCXCX$.U z CXCXCXCXCXCXg $.CXCXCXCXCXCXCXCXCXCXCXCXCXCXCXCX*.qXuX9XCXCXCXCXCXCXCXCX",
"CXCXCXCXCXCX;.CXCXCXCXK.A.A.< CXCXCXCX: S.A.S.CXCXCX) S.{ CXCXCXCXCXCXCXCX*.@XeXtX&XCXCXCXCXCXCXCXCX",
"CXCXCXCXCXCXCXCXCXCXCXP S.S.< CXCXQ { { H { A.z CXCXD.A.R CXCXCXCXCXCX<.CXg.+X5XOXq CXCXCXCXCXCXCXCX",
"CXCXCXCXCXCXCXCXCXCXCXCXCXCXCXCXCXA.S.2 CX$ K CXCXCX) S.Q CXCXCXCXCXCX}.CX0 C m m CXCXCXCXCXCXCXCXCX",
"CXCXCXCXCXCXCXCXCXCXCXCXCXCXCXCXCX) CXCXCXCXCXCXCXCXCXCXCXCXCXCXCXCXCXCXCXCXCXm b CXCXCXCXCXCXCXCXCX",
"CXCXCXCXCXCXCXCXCXCXCXCXCXCXCXCXCXCXCXCXCXCXCXCXCXCXCXCXCXCXCXCXCXCXCXCXCXCXn g.CXCXCXCXCXCXCXCXCXCX",
"CXCXCXCXCXCXCXCXCXCXCXCXCXCXCXCXCXCXCXCXCXCXCXCXCXCXCXCXCXCXCXCXCXCXCXCXCXS g.CXCXCXCXCXCXCXCXCXCXCX",
"CXCXCXCXCXCXCXCXCXCXCXCXCXCXCXCXCXCXCXCXCXCXCXs.5.8.CXCXCXCXCXCXCXCXg.g.5.*.CXCXCXCXCXCXCXCXCXCXCXCX",
"CXCXCXCXCXCXCXCXCXCXCXCXCXCXCXCXCXCXCXCXCXCXCXCXCXCXCXCXCXCXCXCXCXCXCXCXCXCXCXCXCXCXCXCXCXCXCXCXCXCX",
"CXCXCXCXCXCXCXCXCXCXCXCXCXCXCXCXCXCXCXCXCXCXCXCXCXCXCXCXCXCXCXCXCXCXCXCXCXCXCXCXCXCXCXCXCXCXCXCXCXCX",
"CXCXCXCXCXCXCXCXCXCXCXCXCXCXCXCXCXCXCXCXCXCXCXCXCXCXCXCXCXCXCXCXCXCXCXCXCXCXCXCXCXCXCXCXCXCXCXCXCXCX",
"CXCXCXCXCXCXCXCXCXCXCXCXCXCXCXCXCXCXCXCXCXCXCXCXCXCXCXCXCXCXCXCXCXCXCXCXCXCXCXCXCXCXCXCXCXCXCXCXCXCX",
"CXCXCXCXCXCXCXCXCXCXCXCXCXCXCXCXCXCXCXCXCXCXCXCXCXCXCXCXCXCXCXCXCXCXCXCXCXCXCXCXCXCXCXCXCXCXCXCXCXCX",
"CXCXCXCXCXCXCXCXCXCXCXCXCXCXCXCXCXCXCXCXCXCXCXCXCXCXCXCXCXCXCXCXCXCXCXCXCXCXCXCXCXCXCXCXCXCXCXCXCXCX",
"CXCXCXCXCXCXCXCXCXCXCXCXCXCXCXCXCXCXCXCXCXCXCXCXCXCXCXCXCXCXCXCXCXCXCXCXCXCXCXCXCXCXCXCXCXCXCXCXCXCX"
};
