/* XPM */
static char *ZmlyZTM_[] = {
/* columns rows colors chars-per-pixel */
"50 50 203 2 ",
"   c #FE0300",
".  c #FE0B00",
"X  c #FE1400",
"o  c #FE1B00",
"O  c #FE2400",
"+  c #FE2B01",
"@  c #FF2D0C",
"#  c #FE3401",
"$  c #FE3C01",
"%  c #FE330A",
"&  c #FE3B0D",
"*  c #FF4400",
"=  c #FF4B00",
"-  c #FE470B",
";  c #FF5300",
":  c #FF5C00",
">  c #FF5708",
",  c #FE5E08",
"<  c #FD4215",
"1  c #FE4C15",
"2  c #FE5515",
"3  c #FF5A1D",
"4  c #FF541D",
"5  c #FF6401",
"6  c #FF6C01",
"7  c #FF640A",
"8  c #FF7401",
"9  c #FF7C01",
"0  c #FF720C",
"q  c #FF7D0A",
"w  c #FD6A1E",
"e  c #FD641B",
"r  c #FF7314",
"t  c #FF771A",
"y  c #FE5A28",
"u  c #FF6826",
"i  c #FF7F21",
"p  c #FF7E2A",
"a  c #FF7742",
"s  c #FF8301",
"d  c #FF8C01",
"f  c #FF8C0E",
"g  c #FF9301",
"h  c #FF9B02",
"j  c #FE940C",
"k  c #FF9C0B",
"l  c #FF8312",
"z  c #FF8B12",
"x  c #FF8D1E",
"c  c #FF9414",
"v  c #FF9B12",
"b  c #FF951B",
"n  c #FF9B1C",
"m  c #FFA402",
"M  c #FFAC03",
"N  c #FFA30C",
"B  c #FFAD0B",
"V  c #FFB303",
"C  c #FFBB03",
"Z  c #FFB208",
"A  c #FFBC0C",
"S  c #FFAC1B",
"D  c #FFA619",
"F  c #FFBA11",
"G  c #FFB31B",
"H  c #FFBC1D",
"J  c #FF8A26",
"K  c #FF902A",
"L  c #FF9524",
"P  c #FF843C",
"I  c #FF8A3B",
"U  c #FF9A39",
"Y  c #FFAC24",
"T  c #FFAF2D",
"R  c #FFA328",
"E  c #FFBD24",
"W  c #FFB82A",
"Q  c #FFB229",
"!  c #FFA73E",
"~  c #FFBA3D",
"^  c #FFB637",
"/  c #FFC303",
"(  c #FFCA04",
")  c #FFC30D",
"_  c #FFCB0C",
"`  c #FFD205",
"'  c #FFDC05",
"]  c #FFD40A",
"[  c #FFDC0C",
"{  c #FFC615",
"}  c #FFCD15",
"|  c #FFCD1B",
" . c #FFC11C",
".. c #FFD512",
"X. c #FFD41B",
"o. c #FFDC1D",
"O. c #FFD917",
"+. c #FFE303",
"@. c #FFEC04",
"#. c #FFE308",
"$. c #FFF402",
"%. c #FFFB02",
"&. c #FFF70E",
"*. c #FFFA0E",
"=. c #FFEE12",
"-. c #FFE31B",
";. c #FFF219",
":. c #FFC32A",
">. c #FFCC2A",
",. c #FFC223",
"<. c #FFD621",
"1. c #FFDB25",
"2. c #FFD62E",
"3. c #FFDB2E",
"4. c #FFC13E",
"5. c #FFCE3F",
"6. c #FFCE34",
"7. c #FFD334",
"8. c #FFDC34",
"9. c #FFDF3A",
"0. c #FFD03E",
"q. c #FFE322",
"w. c #FFEB25",
"e. c #FFE52A",
"r. c #FFEB2E",
"t. c #FFF426",
"y. c #FFEE34",
"u. c #FFF235",
"i. c #FFFC36",
"p. c #FFF43A",
"a. c #FFFD3C",
"s. c #FE9C4A",
"d. c #FFBA44",
"f. c #FFB547",
"g. c #FFAB59",
"h. c #FE9B6F",
"j. c #FFB764",
"k. c #FFB97F",
"l. c #FFCF40",
"z. c #FFC84D",
"x. c #FFDF46",
"c. c #FFD449",
"v. c #FFDF4C",
"b. c #FFC252",
"n. c #FFCB54",
"m. c #FFC55D",
"M. c #FFDF51",
"N. c #FFD759",
"B. c #FFED4A",
"V. c #FFE944",
"C. c #FFF542",
"Z. c #FFF34C",
"A. c #FFFC4B",
"S. c #FFFE44",
"D. c #FFE454",
"F. c #FFE858",
"G. c #FFF452",
"H. c #FFFD52",
"J. c #FFD767",
"K. c #FFDE60",
"L. c #FFDA6A",
"P. c #FFD773",
"I. c #FFE361",
"U. c #FFEB65",
"Y. c #FFE36A",
"T. c #FFFC66",
"R. c #FFF769",
"E. c #FFFA6A",
"W. c #FFEC7B",
"Q. c #FFE577",
"!. c #FFFC7A",
"~. c #FFFD71",
"^. c #FFB38C",
"/. c #FFDD85",
"(. c #FEC09E",
"). c #FFDC9B",
"_. c #FFE888",
"`. c #FFF285",
"'. c #FFFD8E",
"]. c #FFFD84",
"[. c #FFE593",
"{. c #FFEA9A",
"}. c #FFF391",
"|. c #FFFD91",
" X c #FFFC9F",
".X c #FFCDAA",
"XX c #FFD4AB",
"oX c #FFEAA1",
"OX c #FFFEA7",
"+X c #FFFEAF",
"@X c #FFEBBA",
"#X c #FFFDB3",
"$X c #FFFEBA",
"%X c #FFF5B8",
"&X c #FFDAC2",
"*X c #FFE2C9",
"=X c #FFFCCA",
"-X c #FFFBDE",
";X c #FFFDE4",
":X c #FFFEF6",
">X c #FFFFFC",
",X c None",
"<X c black",
/* pixels */
",X,X,X,X,X,X,X,X,X,X,X,X,X,X,X,X,X,X,X,X,X,X,X,X,X,X,X,X,X,X,X,X,X,X,X,X,X,X,X,X,X,X,X,X,X,X,X,X,X,X",
",X,X,X,X,X,X,X,X,X,X,X,X,X,X,X,X,X,X,X,X,X,X,X,X,X,X,X,X,X,X,X,X,X,X,X,X,X,X,X,X,X,X,X,X,X,X,X,X,X,X",
",X,X,X,X,X,X,X,X,X,X,X,X,X,X,X,X,X,X,X,X,X,X,X,X,X,X,X,X,X,X,X,X,X,X,X,X,X,X,X,X,X,X,X,X,X,X,X,X,X,X",
",X,X,X,X,X,X,X,X,X,X,X,X,X,X,X,X,X,X,X,X,X,X,X,X,X,X,X,X,X,X,X,X,X,X,X,X,X,X,X,X,X,X,X,X,X,X,X,X,X,X",
",X,X,X,X,X,X,X,X,X,X,X,X,X,X,X,X,X,X,X,X,X,X,X,X,X,X,X,X,X,X,X,X,X,X,X,X,X,X,X,X,X,X,X,X,X,X,X,X,X,X",
",X,X,X,X,X,X,X,X,X,X,X,X,X,X,X,X,X,X,X,X,X,X,X,X,X,X,X,X,X,X,X,X,X,X,X,X,X,X,X,X,X,X,X,X,X,X,X,X,X,X",
",X,X,X,X,X,X,X,X,X,X,X,X,X,X,X,X,X,X,X,X,X,X,X,X,X. X ,X,X,X,X,X,X,X,X,X,X,X,X,X,X,X,X,X,X,X,X,X,X,X",
",X,X,X,X,X,X,X,X,X,X,X,X,X,X,X,X,X,X,X,X,X,X,XO X   X ,X,X,X,X,X,X,X,X,X,X,X,X,X,X,X,X,X,X,X,X,X,X,X",
",X,X,X,X,X,X,X,X,X,X,X,X,X,X,X,X,X,X,X,X  X # = X   . ,X,X,X,X,X,X,X,X,X,X,X,X,X,X,X,X,X,X,X,X,X,X,X",
",X,X,X,X,X,X,X,X,X,X,X,X,X,X,X,X,X        + : =     X                 ,X,X,X,X,X,X,X,X,X,X,X,X,X,X,X",
",X,X,X,X,X,X,X,X,X,X,X,X,X,X,X  X o X O o # 5 #   . @   X O $ $ # + + o O $ ,X,X,X,X,X,X,X,X,X,X,X,X",
",X,X,X,X,X,X,X,X,X,X,X,X,X. O * : 6 0 6 = 6 : X X + % # : 8 d m m h s 5 , O   ,X,X,X,X,X,X,X,X,X,X,X",
",X,X,X,X,X,X,X,X,X,X,X. X $ 6 g V ( | V ( ] 5 X % 3 ; 6 s / $.*.*.` M -.m : +   ,X,X,X,X,X,X,X,X,X,X",
",X,X,X,X,X,X,X,X,X,X< + ; g ` Z.'.A.=.X.C.).: = r K 6 s C +.N.*X(.a c.%.$.V 5 O . ,X,X,X,X,X,X,X,X,X",
",X,X,X,X,X,X,X,X,Xo - r h +.OX:X;XS.@.x.@./ 8 d T ~ 8 5 5 : y a & s.@XT.$.$.M ; +   ,X,X,X,X,X,X,X,X",
",X,X,X,X,X,X,X,X  . = 7 H @. XD.#.$.+.6.7.V g C Q.,.g t * O O & p u h.k.d ( +.9 $ X   ,X,X,X,X,X,X,X",
",X,X,X,X,X,X,X. o # 5 = - T ' +.g m g k /.M h 7.Y.) W f 9 6 7 U $ o X . O Z ` 5 X o   ,X,X,X,X,X,X,X",
",X,X,X,X,X,X,X# : : 5 5 # # ! N 9 6 5 5 k m W D./ C Z m C G b.> O X . X . ; $ . * # X   ,X,X,X,X,X,X",
",X,X,X,X,X,XO 5 6 6 6 5 ; + * j.d.j j 5 s h Z _ C V C m c.Y.j 6 b * o % @ . o 6 * + o X X X ,X,X,X,X",
",X,X,X,X,X  = 0 q 8 8 8 8 : $ q [.[.C h g M C _ _ / / E `.A M m D.E < o     . o X .             ,X,X",
",X,X,X,X,X  $ 6 8 z b c s 6 5 g { %XA C A } O.q.q..._ e...( B ^ R q * o X                     . . ,X",
",X,X,X,X,XX = 8 q f c n U P 0 g C 7.4.6.O.e.u.p.u.w.-.}.Q.P.m.j d 9 8 #                   . ,X,X,X,X",
",X,X,X,X  # 6 9 Z M m z p P x h h M C | B.G.!.+X~.H.=.[ _ ,.Y s 9 6 : O               + # ,X,X,X,X,X",
",X,X,X,X  + 5 m y.^.& O * 6 6 9 M h V 1.G.!.~.a.!.'.p.1./ B s 6 5 6 * X           X = : $ ,X,X,X,X,X",
",X,X,X,X. O 5 C T..X3 + * 6 d 6 9 >.k { G.].H.i.a.#Xa.1.C m g t l 6 = O X         # $ $ + ,X,X,X,X,X",
",X,X,X  + 5 6 m C 3 % 4 P g.I g C M F 8.B.'.T.S.H.#Xt.'  .n.L 5 : 6 5 : ; +     . + ; $ X ,X,X,X,X,X",
",X,X,XX * 6 0 f b y y 1 8 s s M E d.H l.U.!.|.|.$XC.B.{ ^ j.! t 8 g h g 6 # .   O : : +   ,X,X,X,X,X",
",X,X,XO ; ; + + O O O + 6 9 s C r.P.F :.K.V.u.p.C.w.` V M h z d C ] R ; o       O ; * o   ,X,X,X,X,X",
"<X<X<Xo : $ + * # .   o : g g m ( C ( F >.2.3.o.<.) V 9 5 L Y / @.{.&X.XV 6       o X     ,X,X,X,X,X",
"<X<X<X,XO o . X         O g ] z.B C V V C ) ) ) C V g 5 8 f.{.r.;.;X>X$X$./ O     o O .   ,X,X,X,X,X",
"<X<X,X,XX               O N q.C N n.n.C C F Z C V M m 9 d m G w.o..XXX<.m * X   + ; *   ,X,X,X,X,X,X",
"<X<X,X,X                6 M V M J.o.`.' ' ;X/.V v d.W 4.h d k ` ] M Y 5 #     . * : =   ,X,X,X,X,X,X",
"<X<X<XX . X X X o .   . o # 9 d.} B.`.9.$.=XQ.C d ~ _.I.0.m s h ( C d = o         $ *   ,X,X,X,X,X,X",
"<X<X,X,X,X,X,X,X  . X   . > J x C _.oXF.%.#XU.C d m N.C.A.y.V s d m g 6 O         X +   ,X,X,X,X,X,X",
",X,X,X,X,X,X,X,X<X<X# . X 2 w 8 Y 7.L.| @.}.M.M 5 8 / R.&.i.q.m 8 : 5 $ .   + * # O .   ,X,X,X,X,X,X",
",X,X,X,X,X,X,X,X<X= + X + 1 O * J g m m #.!.5.h = : M w.A.@.<.c V 9 ; +     $ 5 5 * o   ,X,X,X,X,X,X",
",X,X,X,X,X,X,X,X$ # + @ 4 X o @ + = 6 g ( I.W s = : d ] e.<.+.X.B 9 = O O = ; : : +   ,X,X,X,X,X,X,X",
",X,X,X,X,X,X,X,X+ ,X,X1 X . O + o O # : h z.Q d : : 6 g ] t.( C k 5 $ . o ; 5 : # o ,X,X,X,X,X,X,X,X",
",X,X,X,X,X,X,X,X,X,X<X<X. X X + $ . $ : d d.D d 5 ; 5 6 6 V S g 8 ; * # O X * # +   ,X,X,X,X,X,X,X,X",
",X,X,X,X,X,X,X,X,X,X<X<X<X<X<XO O + = = 8 T j s = o # = : 5 6 > + * ; = * $ O O . ,X,X,X,X,X,X,X,X,X",
",X,X,X,X,X,X,X,X,X,X,X,X,X,X,X,XX + O X 5 J 6 - o . . O + + O + O + + + + + O   ,X,X,X,X,X,X,X,X,X,X",
",X,X,X,X,X,X,X,X,X,X,X,X,X,X,X,X,X. . . * w # O                 X . .   . X ,X,X,X,X,X,X,X,X,X,X,X,X",
",X,X,X,X,X,X,X,X,X,X,X,X,X,X,X,X,XX   X # e % ,X,X,X,X,X,X,X,X,X,X,X. X     X ,X,X,X,X,X,X,X,X,X,X,X",
",X,X,X,X,X,X,X,X,X,X,X,X,X,X,X,X,XX   o ,X,X,X,X,X,X,X,X,X,X,X,X,X,X,X,X.     X ,X,X,X,X,X,X,X,X,X,X",
",X,X,X,X,X,X,X,X,X,X,X,X,X,X,X,X,X,X. ,X,X,X,X,X,X,X,X,X,X,X,X,X,X,X,X,X,XX   . ,X,X,X,X,X,X,X,X,X,X",
",X,X,X,X,X,X,X,X,X,X,X,X,X,X,X,X,X,X,X,X,X,X,X,X,X,X,X,X,X,X,X,X,X,X,X,X,X,X,X  X ,X,X,X,X,X,X,X,X,X",
",X,X,X,X,X,X,X,X,X,X,X,X,X,X,X,X,X,X,X,X,X,X,X,X,X,X,X,X,X,X,X,X,X,X,X,X,X,X,X,X,X,X,X,X,X,X,X,X,X,X",
",X,X,X,X,X,X,X,X,X,X,X,X,X,X,X,X,X,X,X,X,X,X,X,X,X,X,X,X,X,X,X,X,X,X,X,X,X,X,X,X,X,X,X,X,X,X,X,X,X,X",
",X,X,X,X,X,X,X,X,X,X,X,X,X,X,X,X,X,X,X,X,X,X,X,X,X,X,X,X,X,X,X,X,X,X,X,X,X,X,X,X,X,X,X,X,X,X,X,X,X,X",
",X,X,X,X,X,X,X,X,X,X,X,X,X,X,X,X,X,X,X,X,X,X,X,X,X,X,X,X,X,X,X,X,X,X,X,X,X,X,X,X,X,X,X,X,X,X,X,X,X,X"
};
