/* XPM */
static char *ZmlyZTg_[] = {
/* columns rows colors chars-per-pixel */
"50 50 200 2 ",
"   c #FD0600",
".  c #FD0700",
"X  c #FD0900",
"o  c #FD0A00",
"O  c #FD0B00",
"+  c #FD0D00",
"@  c #F71500",
"#  c #F71700",
"$  c #FD1001",
"%  c #FD1501",
"&  c #F41800",
"*  c #F41A00",
"=  c #F61A00",
"-  c #FD1C01",
";  c #FD1A06",
":  c #FB1C07",
">  c #FD1E07",
",  c #EB2900",
"<  c #EA2A00",
"1  c #EC2800",
"2  c #EB2E01",
"3  c #FD2301",
"4  c #FD2801",
"5  c #FD2B01",
"6  c #FD2803",
"7  c #FD2F01",
"8  c #F92804",
"9  c #E53500",
"0  c #E53601",
"q  c #E53701",
"w  c #E93001",
"e  c #E93301",
"r  c #EE3005",
"t  c #EC3407",
"y  c #E33801",
"u  c #E53B01",
"i  c #E23D01",
"p  c #E13E01",
"a  c #E13F01",
"s  c #FD3001",
"d  c #FD3303",
"f  c #FD3501",
"g  c #FD3403",
"h  c #FE3603",
"j  c #FD3A01",
"k  c #FD3B03",
"l  c #FD3D01",
"z  c #F1340A",
"x  c #DE4501",
"c  c #DC4701",
"v  c #DD4701",
"b  c #DA4800",
"n  c #DB4801",
"m  c #D84D01",
"M  c #D94D01",
"N  c #DA4C01",
"B  c #DB4C01",
"V  c #D84F00",
"C  c #D84E01",
"Z  c #D84F01",
"A  c #D94F01",
"S  c #CF5E00",
"D  c #CF5F00",
"F  c #CF5F01",
"G  c #D65101",
"H  c #D75101",
"J  c #D55301",
"K  c #D65201",
"L  c #D35701",
"P  c #D45701",
"I  c #D85001",
"U  c #D85201",
"Y  c #D95002",
"T  c #DA5607",
"R  c #D35901",
"E  c #D15A01",
"W  c #D15B01",
"Q  c #D25A01",
"!  c #D25B01",
"~  c #D45801",
"^  c #D65903",
"/  c #D15C00",
"(  c #D15C01",
")  c #D05D01",
"_  c #D05E01",
"`  c #DE590A",
"'  c #E24001",
"]  c #E44103",
"[  c #FD4403",
"{  c #FD4703",
"}  c #FD4A01",
"|  c #FD4E02",
" . c #FD4B05",
".. c #FD4E05",
"X. c #FD5101",
"o. c #FD5302",
"O. c #FD5601",
"+. c #FE5701",
"@. c #FD5402",
"#. c #FE5402",
"$. c #FD5702",
"%. c #FD5603",
"&. c #FE5703",
"*. c #FD5706",
"=. c #FD5900",
"-. c #FE5D01",
";. c #FE5F00",
":. c #FD5904",
">. c #F45208",
",. c #FD5608",
"<. c #FD560D",
"1. c #E55B11",
"2. c #CE6000",
"3. c #CE6100",
"4. c #CE6101",
"5. c #CD6200",
"6. c #CC6300",
"7. c #CD6300",
"8. c #CD6301",
"9. c #CC6400",
"0. c #CD6500",
"q. c #CD6501",
"w. c #CE6402",
"e. c #CE6A07",
"r. c #CF6D08",
"t. c #D16204",
"y. c #D36107",
"u. c #D86104",
"i. c #DA6504",
"p. c #D76109",
"a. c #DB650E",
"s. c #D06D08",
"d. c #D06C09",
"f. c #D06F0B",
"g. c #D2720F",
"h. c #D3750D",
"j. c #D67D19",
"k. c #D67E19",
"l. c #FE6001",
"z. c #FD6002",
"x. c #FE6400",
"c. c #FE6500",
"v. c #FF6500",
"b. c #FE6401",
"n. c #FF6600",
"m. c #FE6405",
"M. c #FF6C07",
"N. c #FE6908",
"B. c #FE6D09",
"V. c #FF6E0A",
"C. c #FF6F0A",
"Z. c #FD7404",
"A. c #FF700A",
"S. c #EF621E",
"D. c #FE7415",
"F. c #FC711F",
"G. c #FF7E1B",
"H. c #EE6D24",
"J. c #F96321",
"K. c #FD6C2A",
"L. c #EE7227",
"P. c #F96F31",
"I. c #EA7F30",
"U. c #FA7346",
"Y. c #D6801B",
"T. c #D9821D",
"R. c #E7820F",
"E. c #E18C08",
"W. c #FF8A09",
"Q. c #F49E0B",
"!. c #FE811D",
"~. c #E59313",
"^. c #E59A1B",
"/. c #FBAA04",
"(. c #F4B512",
"). c #F4BA1E",
"_. c #DE8B2C",
"`. c #E18A2D",
"'. c #FD8228",
"]. c #E29620",
"[. c #FF9F2D",
"{. c #E29D38",
"}. c #FE9631",
"|. c #FF9A30",
" X c #FF9932",
".X c #F8A62D",
"XX c #F9A831",
"oX c #FFAA3F",
"OX c #EDB137",
"+X c #FFB93B",
"@X c #FFCD02",
"#X c #FDCB0C",
"$X c #FFCD0D",
"%X c #FFCD0F",
"&X c #FFC212",
"*X c #FFC627",
"=X c #F6C128",
"-X c #FD9D46",
";X c #FDA040",
":X c None",
/* pixels */
":X:X:X:X:X:X:X:X:X:X:X:X:X:X:X:X:X:X:X:X:X:X:X:X:X:X:X:X:X:X:X:X:X:X:X:X:X:X:X:X:X:X:X:X:X:X:X:X:X:X",
":X:X:X:X:X:X:X:X:X:X:X:X:X:X:X:X:X:X:X:X:X:X:X:X:X:X:X:X:X:X:X:X:X:X:X:X:X:X:X:X:X:X:X:X:X:X:X:X:X:X",
":X:X:X:X:X:X:X:X:X:X:X:X:X:X:X:X:X:X:X:X:X:X:X:X:X:X:X:X:X:X:X:X:X:X:X:X:X:X:X:X:X:X:X:X:X:X:X:X:X:X",
":X:X:X:X:X:X:X:X:X:X:X:X:X:X:X:X:X:X:X:X:X:X:X:X:X:X:X:X:X:X:X:X:X:X:X:X:X:X:X:X:X:X:X:X:X:X:X:X:X:X",
":X:X:X:X:X:X:X:X:X:X:X:X:X:X:X:X:X:X:X:X:X:X:X:X:X:X:X:X:X:X:X:X:X:X:X:X:X:X:X:X:X:X:X:X:X:X:X:X:X:X",
":X:X:X:X:X:X:X:X:X:X:X:X:X:X:X:X:X:X:X:X:X:X:X:X:X:X:X:X:X:X:X:X:X:X:X:X:X:X:X:X:X:X:X:X:X:X:X:X:X:X",
":X:X:X:X:X:X:X:X:X:X:X:X:X:X:X:X:X:X:X:X:X:X:X:X:X:X:X:X:X:X:X:X:X:X:X:X:X:X:X:X:X:X:X:X:X:X:X:X:X:X",
":X:X:X:X:X:X:X:X:X:X:X:X:X:X:X:X:X:X:X:X:X:X:X:X:X:X:X:X:X:X:X:X:X:X:X:X:X:X:X:X:X:X:X:X:X:X:X:X:X:X",
":X:X:X:X:X:X:X:X:X:X:X:X:X:X:X:X:X:X:X:X:X:X:X:X:X:X:X:X:X:X:X:X:X:X:X:X:X:X:X:X:X:X:X:X:X:X:X:X:X:X",
":X:X:X:X:X:X:X:X:X:X:X:X:X:X:X:X:X:X:X:X:X:X:X:X:X:X:X:X:X:X:X:X:X:X:X:X:X:X:X:X:X:X:X:X:X:X:X:X:X:X",
":X:X:X:X:X:X:X:X:X:X:X:X:X:X:X:X:X:X:X:X:X:X:X:X:X:X:X:X:X:X:X:X:X:X:X:X:X:X:X:X:X:X:X:X:X:X:X:X:X:X",
":X:X:X:X:X:X:X:X:X:X:X:X:X:X:X:X:X:X:X:X:X:X:X:X:X:X:X:X:X:X:X:X:X:X:X:X:X:X:X:X:X:X:X:X:X:X:X:X:X:X",
":X:X:X:X:X:X:X:X:X:X:X:X:X:X:XM ! H :X:XM F :X:X:X:X:X:X:X:X:XJ.P.:X:X:X:X:X:X:X:X:X:X:X:X:X:X:X:X:X",
":X:X:X:X:X:X:X:X:X:X:X:X:X:X:X5.0.0.' :X:XP :X:X:X:X:X:X:X:Xa.^.).XXU.:X:X:X:X:X:X:X:X:X:X:X:X:X:X:X",
":X:X:X:X:X:X:X:X:X:X:X:X:X:X:X! 0.5.* :X:X:X:X:X:X:X:X:X:X:Xg.].=X#X.X:X:X:X:X:X:X:X:X:X:X:X:X:X:X:X",
":X:X:X:X:X:X:X:X:X:X:X:X:X:X:X# c p + ; > % :X:X:X:XH :X:X:Xy.j.{.OX(.S.:X:X:X:X:X:X:X:X:X:X:X:X:X:X",
":X:X:X:X:X:X:X:X:X:X:X0 ! u :X:X:X: K.-X-X'.&.7 X * H :X:X:X:Xc g.j.j.1.:X:X:X:X:X:X:X:X:X:X:X:X:X:X",
":X:X:X:X:X:X:X:X:X:X0 0.0._ :X:X:XF.+X$X@X.XB.v.=.l f 5 :X:X:X:XM 0.5.e :X:X:X:X:X:X:X:X:X:X:X:X:X:X",
":X:X:X:X:X:X:X:X:X:XM 0.0._ :X:X- !.&X$X*X XB.v.v.v.v.v.[ :X:X:X:Xw :X:X:X:X:X:X:X:X:X:X:X:X:X:X:X:X",
":X:X:X:X:X:X:X:X:X:X:XH ! * :X:X5 !.|.;X}.D.[ 7 v.;.X.v.&.:X:X:X:X:X:X:X:X:X:X:X:X:X:X:X:X:X:X:X:X:X",
":X:X:X:X:X:X:X:X:X:X:X:Xn :X:X:X:Xm.B.N.d $ + X ;.j . j :X:X:X:X:X:X:X:X:X:X:X:X:X:X:X:X:X:X:X:X:X:X",
":X:X:X:X:X:X:X:X:X:X:X:XI :X:X:X:Xj l.| :X:X:X:X[ :X:X:X:X:X:X:X:X:X:X:X:X^ u.] :X:X:X:X:X:X:X:X:X:X",
":X:X:X:X:X:X:X:X:X:X:X:X:X:X:X:X:X:X:X:X:X:X:X:X:X:X:X:X:X:X:X:X:X:X:X:Xc s.E.s., :X:X:X:X:X:X:X:X:X",
":X:X:X:X:X:X:X:X:X:X:X:X:X:X:X:X:X:X:X:X:X:X:X:X:X:X:X:X:X:X:X:X:X:X:X:X0 d.s.s.I :X:X:X:X:X:X:X:X:X",
":X:X:X:X:X:X:X:X:X:X:X:X:X:X:X:X:X:X:X:X:X:X:X:X:X:X:X:X:X:X:X:X:X:X:X:X:Xp n 0.F :X:X:X:X:X:X:X:X:X",
":X:X:X:X:X:X:X` p.:X:X:X:X:X:X:X:X:X:X:X:X:X:X:X:X:X:X:X:X:X:X:X:X:X:X:X:X:X. _ 5.:X:X:X:X:X:X:X:X:X",
":X:X:X:X:X:XH.~.T.r :X:X:X! :X:X:X:X:X:X:X:X:X:X:X:X:X:X:X:X:X:X:X:X:X:X:X:X, 5.M :X:X:X:X:X:X:X:X:X",
":X:X:X:X:X:XI./.`.z :X:X:X:X:X:X:X:X:X:X:X:X:X:X:X:X:X:X:X:X:X:X:X:X:X:X:X:X:Xb :X:X:X:X:X:X:X:X:X:X",
":X:X:X:X:X:XL.Q._.8 :X:X:X:X:X:X:X:X:X:X:X:X:X:X:X:X:X:X:X:X:X:X:X:X:X:X:X:X:X:X:X:X:X:X:X:X:.:X:X:X",
":X:X:X:X:X:X>.R.Y.t :X:X:X:X:X:X:X:X:X:X:X:X:X:X:X:X:X:X:X:X:X:X:X:X:X:X:X:X:X:X:X:X:X:X:X:X:X:X:X:X",
":X:X:X:X:X:X5 T h.y.< :X:X:X:X:X:X:X:X:X:X:X:X:X:X:X:X:X:X:X:X:X:X:X:X:X:X:X:X:X:X:X:X:X:X:X:X:X:X:X",
":X:X:X:X:X:X:X@ i.w._ :X:X:X:X:X:X:X:X:X:X:X:X:X:X:X:X:X:X:X:X:X:X:X:X:X:X:X:X:X:X:X:X:X:X:X:X:X:X:X",
":X:X:X:X:X:X:X:X:X:X:X:X:X:X:X:X:X:X:X:X:X:X:X:X:X:X:X:X:X:X:X:X:X:X:X:X:X:X:X:X:X:X:X:X:X:X:X:X:X:X",
":X:X:X:X:X:X:X:X:X:X:X:X:X:X:X:X:X:X:X:X:X:X:X:X:X:X:X:X:X:X:X:X:X:X:X:X:X:X:X:X:X:X:X:X:X:X:X:X:X:X",
":X:X:X:X:X:X:X:X:X:X:X:X:X:X:X:X:X:X:X:X:X:X:X:X:X:X:X:X:X:X:X:X:X:X:X:X:X:X:X:X:X:X:X:X:X:X:X:X:X:X",
":X:X:X:X:X:X:X:X:X:X:X:X:X:X:X:X:X:X:X:X:X:X:X:X:X:X:X:X:X:X:X:X:X:X:X:X:X:X:X:X:X:X:X:X:X:X:X:X:X:X",
":X:X:X:X:X:X:X:X:X:X:X:X:X:X:X:X:X:X:X:X:X:X:X:X:X:X:X:X:X:X:X:X:X:X:X:X:X:X:X:X:X:X:X:X:X} &.:X:X:X",
":X:X:X:X:X:X:X:X:X:X:X:X:X:X:X:X:X:X:X:X:X:X:X:X:X:X:X:X:X:X:X:X:X:X:X:X:X:X:X:X:X:X:X:X:X..B. .:X:X",
":X:X:X:X:X:X:X:X:X:X:X:X:XC :X:X:X:X:X:X:X:X:X:X:X:X:X:X:X:X:X:X:X:X:X:X:X:X:X:X:X:X:X:X. ,.W.<.:X:X",
":X:X:X:X:X:X:X:X:X:X:X:X:X! ! :X:X:X:X:X:X:X:XP _ :X:X:X:X:Xc 0.5.:X:X:X:X:X:X:X:X:X:X&.&.B.Z.:X:X:X",
":X:X:X:X:X:X:X:X:X:X:X:X:X:X:X:X:X:X:X:X:XM ! M 5.5.:X:X:X:XM 0.5.y :X:X:X:X:X&.:X:X:X&.&.;.d :X:X:X",
":X:X:X:X:X:X:X:X:X:X:X:X:X:X:X:X:X:X:X:X~ t.2 :X:XI :X:X:X:X:Xp 0 :X:X:X:X:X:X&.:X:X:X:X:X3 :X:X:X:X",
":X:X:X:X:X:X:X:X:X:X:X:X:X:X:X:X:X:X:X:X:X:X:X:X:X:X:X:X:X:X:X:X:X:X:X:X:X:X:X:X:X:X:X:X:X:X:X:X:X:X",
":X:X:X:X:X:X:X:X:X:X:X:X:X:X:X:X:X:X:X:X:X:X:X:X:X:X:X:X:X:X:X:X:X:X:X:X:X:X:X:X:X:X:X:X:X:X:X:X:X:X",
":X:X:X:X:X:X:X:X:X:X:X:X:X:X:X:X:X:X:X:X:X:X:X:X:X:X:X:X:X:X:X:X:X:X:X:X:X:X:X:X:X:X:X:X:X:X:X:X:X:X",
":X:X:X:X:X:X:X:X:X:X:X:X:X:X:X:X:X:X:X:X:X:X:X:X:X:X:X:X:X:X:X:X:X:X:X:X:X:X:X:X:X:X:X:X:X:X:X:X:X:X",
":X:X:X:X:X:X:X:X:X:X:X:X:X:X:X:X:X:X:X:X:X:X:X:X:X:X:X:X:X:X:X:X:X:X:X:X:X:X:X:X:X:X:X:X:X:X:X:X:X:X",
":X:X:X:X:X:X:X:X:X:X:X:X:X:X:X:X:X:X:X:X:X:X:X:X:X:X:X:X:X:X:X:X:X:X:X:X:X:X:X:X:X:X:X:X:X:X:X:X:X:X",
":X:X:X:X:X:X:X:X:X:X:X:X:X:X:X:X:X:X:X:X:X:X:X:X:X:X:X:X:X:X:X:X:X:X:X:X:X:X:X:X:X:X:X:X:X:X:X:X:X:X",
":X:X:X:X:X:X:X:X:X:X:X:X:X:X:X:X:X:X:X:X:X:X:X:X:X:X:X:X:X:X:X:X:X:X:X:X:X:X:X:X:X:X:X:X:X:X:X:X:X:X"
};
