/* XPM */
static char *bWFuMTE_[] = {
/* columns rows colors chars-per-pixel */
"49 49 219 2 ",
"   c #030303",
".  c #0B0503",
"X  c #0B0A0B",
"o  c #080709",
"O  c #120906",
"+  c #1B0A05",
"@  c #130B0A",
"#  c #190D0A",
"$  c #130503",
"%  c #1D120B",
"&  c #0D0E11",
"*  c #121215",
"=  c #1D1411",
"-  c #14151A",
";  c #1A1A1C",
":  c #19171A",
">  c #0F1111",
",  c #230D06",
"<  c #2A0C06",
"1  c #250E0A",
"2  c #340E08",
"3  c #2C130B",
"4  c #25120B",
"5  c #33130A",
"6  c #3C150B",
"7  c #241D1D",
"8  c #281A17",
"9  c #381815",
"0  c #330E12",
"q  c #2A211C",
"w  c #37231C",
"e  c #1A1C23",
"r  c #161821",
"t  c #281F29",
"y  c #1E2229",
"u  c #222224",
"i  c #22252D",
"p  c #2B2A2B",
"a  c #2B2625",
"s  c #392B26",
"d  c #39302C",
"f  c #262933",
"g  c #292E3A",
"h  c #272A33",
"j  c #332F33",
"k  c #2D313E",
"l  c #3C3C3C",
"z  c #343437",
"x  c #42140B",
"c  c #4C180B",
"v  c #5B1A0D",
"b  c #55170D",
"n  c #441B16",
"m  c #571715",
"M  c #681C0E",
"N  c #671C12",
"B  c #751B13",
"V  c #711E0E",
"C  c #5A2415",
"Z  c #6B220E",
"A  c #6A2416",
"S  c #742413",
"D  c #792718",
"F  c #74200F",
"G  c #7F1E22",
"H  c #4A2723",
"J  c #45322A",
"K  c #48352E",
"L  c #4C3C35",
"P  c #463A36",
"I  c #553B31",
"U  c #573327",
"Y  c #643D32",
"T  c #703329",
"R  c #54443E",
"E  c #5C473D",
"W  c #48413D",
"Q  c #674639",
"!  c #7E503E",
"~  c #2E3241",
"^  c #3A3E4C",
"/  c #343947",
"(  c #383E50",
")  c #2B2D40",
"_  c #433E42",
"`  c #3E414D",
"'  c #3D4254",
"]  c #434343",
"[  c #4B4B4B",
"{  c #46454A",
"}  c #554A47",
"|  c #5B504B",
" . c #444A5C",
".. c #454958",
"X. c #525252",
"o. c #595759",
"O. c #664D44",
"+. c #69524A",
"@. c #785446",
"#. c #675856",
"$. c #745E54",
"%. c #785F54",
"&. c #7A4F52",
"*. c #7C6459",
"=. c #4D5364",
"-. c #585A65",
";. c #595F74",
":. c #4A4F60",
">. c #5C6174",
",. c #5F616F",
"<. c #656565",
"1. c #6B6869",
"2. c #7B6D68",
"3. c #666A7B",
"4. c #7A7A7A",
"5. c #757576",
"6. c #747271",
"7. c #90151B",
"8. c #AB161E",
"9. c #842313",
"0. c #8D2615",
"q. c #8C2C1B",
"w. c #942716",
"e. c #992817",
"r. c #992C1A",
"t. c #962A17",
"y. c #9D321E",
"u. c #AB1B22",
"i. c #8A3724",
"p. c #9C3321",
"a. c #993926",
"s. c #8F2C31",
"d. c #A13C29",
"f. c #AC2D33",
"g. c #C93138",
"h. c #9B4B36",
"j. c #A74A34",
"k. c #AA543D",
"l. c #A4442F",
"z. c #8B4D52",
"x. c #AC5841",
"c. c #B15F47",
"v. c #826559",
"b. c #8B6B5E",
"n. c #846558",
"m. c #B2654C",
"M. c #BB7459",
"N. c #B26D54",
"B. c #826C62",
"V. c #8A6E62",
"C. c #916E61",
"Z. c #8E7266",
"A. c #847269",
"S. c #947366",
"D. c #94796D",
"F. c #9A7A6C",
"G. c #967669",
"H. c #957A74",
"J. c #867073",
"K. c #A57E6F",
"L. c #BE7C60",
"P. c #E25C62",
"I. c #E16065",
"U. c #C95157",
"Y. c #9B8377",
"T. c #AB8C7D",
"R. c #A78577",
"E. c #B28E7D",
"W. c #C38468",
"Q. c #C88E70",
"!. c #646A80",
"~. c #6D7286",
"^. c #7E7F81",
"/. c #737A91",
"(. c #7C829A",
"). c #848484",
"_. c #8B8B8C",
"`. c #958A85",
"'. c #84899A",
"]. c #939393",
"[. c #9B9B9A",
"{. c #979A9B",
"}. c #979093",
"|. c #A58B83",
" X c #AE9181",
".X c #B39283",
"XX c #BC9B8A",
"oX c #B99687",
"OX c #AE978D",
"+X c #868BA0",
"@X c #9FA6AB",
"#X c #A9A7A8",
"$X c #B8B8B8",
"%X c #AEB4B6",
"&X c #C19C8C",
"*X c #C4A593",
"=X c #C9A998",
"-X c #D3AF9D",
";X c #C9A997",
":X c #C3ACA0",
">X c #CAB2A4",
",X c #D6B8A6",
"<X c #D3BDB1",
"1X c #DFC6B5",
"2X c #DDC1AF",
"3X c #E6CEBA",
"4X c #C8C8C8",
"5X c #D5CDC9",
"6X c #C9D5DB",
"7X c #D5D5D5",
"8X c #D6D1CF",
"9X c #E9D5C8",
"0X c #EBDED6",
"qX c #EEE4DD",
"wX c #D4DEE4",
"eX c #EFE9E5",
"rX c #FAF6F4",
"tX c #F1E8E1",
"yX c None",
/* pixels */
"yXyXyXyXyXyXyXyXyXyXyXyXyXyXyXyXyXyXyXyXyXyXyXyXyXyXyXyXyXyXyXyXyXyXyXyXyXyXyXyXyXyXyXyXyXyXyXyXyX",
"yXyXyXyXyXyXyXyXyXyXyXyXyXyXyXyXyXyXyXyXyXyXyXyXyXyXyXyXyXyXyXyXyXyXyXyXyXyXyXyXyXyXyXyXyXyXyXyXyX",
"yXyXyXyXyXyXyXyXyXyXyXyXyXyXyXyXyXyXyXyXyXyXyXyXyXyXyXyXyXyXyXyXyXyXyXyXyXyXyXyXyXyXyXyXyXyXyXyXyX",
"yXyXyXyXyXyXyXyXyXyXyXyXyXyXyXyXyXyXyXyXyXyXyXyXyXyXyXyXyXyXyXyXyXyXyXyXyXyXyXyXyXyXyXyXyXyXyXyXyX",
"yXyXyXyXyXyXyXyXyXyXyXyXyXyXyXyXyXyXyXyXyXyXyXyXyXyXyXyXyXyXyXyXyXyXyXyXyXyXyXyXyXyXyXyXyXyXyXyXyX",
"yXyXyXyXyXyXyXyXyXyXyXyXyXyXyXyXyXyXyXyXyXyXyXyXyXyXyXyXyXyXyXyXyXyXyXyXyXyXyXyXyXyXyXyXyXyXyXyXyX",
"yXyXyXyXyXyXyXyXyXyXyXyXyXyXyXX yXyXyXyXyXyXyXyXyXyXyXyXyXyXyXyXyXyXyXyXyXyXyXyXyXyXyXyXyXyXyXyXyX",
"yXyXyXyXyXyXyXyXyXyXyXyXi ' :.=.=./ k yXyXyXyXyXyXyXyXyXyXyXyXyXyXyXyXyXyXyXyXyXyXyXyXyXyXyXyXyXyX",
"yXyXyXyXyXyXyXyXyXyXyXk >./ ~ ' ' :.~...yXyXyXyXyXyXyXyXyXyXyXyXyXyXyXyXyXyXyXyXyXyXyXyXyXyXyXyXyX",
"yXyXyXyXyXyXyXyXyXyXX i - o ` ' ^ / ( 3.e yXyXyXyXyXyXyXyXyXyXyXyXyXyXyXyXyXyXyXyXyXyXyXyXyXyXyXyX",
"yXyXyXyXyX          X i j p '.(.+X'...=.j yXyXyXyXyXyXyXyXyXyXyXyXyXyXyXyXyXyXyXyXyXyXyXyXyXyXyXyX",
"yXyX  o   u X.z <.& P  XT.+.^ ~. .' ..'  .~.=.yXyXyXyXyXyXyXyXyXyXyXyXyXyXyXyXyXyXyXyXyXyXyXyXyXyX",
"yX    * p l X.a ).[ *.-X,XOX} ~.( - & & * ~ ;.=.X yXyXyXyXyXyXyXyXyXyX< 2 yXyXyXyXyXyXyXyXyXyXyXyX",
"yX        o X ] X.p H.3X1X>X$.>.i o       - i ;.3.- yXyXyXyXyXyXx yXyX3 v U yXyXyXyXyXyXyXyXyXyXyX",
"yXyX        l [ ] u OXrXtX:X#.-.'           - g /.3.@ yXyXyXx + 9.v 5 . 5 M.r.q.yXyXyXyXyXyXyXyXyX",
"yXyXyX    : l [ z k |.rXqXqXD.,. .f g g     X e ^ (.,.X . + F Z 9.V + $ 3 M.k.t.Z N yXyXyXyXyXyXyX",
"yXyXyXyXyXX > q - / J.qX:XtX5X../ f ) f o     r i  .'.^ X # N w Q Q I % % h.x.D x 0.V yXyXyXyXyXyX",
"yXyXyXyXyXX & X X f h o.`.}._ * - * > X       o e ( !.>.. 4 B.S.n.*.OXY.4 Z r.Z c D y.q.yXyXyXyXyX",
"yXyXyXyXyXX X ; X X / e - * * - i ' ~   o ~  .r   ~ !.k X Y.R.E q J `.=X% c w.9., ! x.r.Z 6 yXyXyX",
"yX* ] l l l X.[ o o e f & r f ( ' ` 3.=.( i - ' ^ o - X d =XE s s A.5XR . . q.x.O . z.M.m.C yXyXyX",
"  ; 8X$X[.[.%X#Xp o X X r ~ ~ y : - 0 n t r &   e g . ; +.Z.+.Y.H.2.J O   + a.m.Z 6 C W.Q.T S yXyX",
"  u 7X7X5X#X$X[.<.z = ; n 7 - * 0 7.u.u.0 r e r r - q b.F.Z.Y.L . . . . . 2 a.M.e.9.v i.W.j.0.M yX",
"  X 4X[.^.[.[._._.6.p ] D } 5.H 8.8.g.z.,._ h -.-.p n.G.F.S.S.L . = 8 . O < y.W.l.y.a.0.l.a.e.V yX",
"  o 4.#X[ 5._.{.{.4.1.} S 1.}.7.N s.h.+X'.<.J._.5.+.T.Y.S.Z.R.E. X*X&Xv.J 3 v @.k.l.m.e.y.y.e.t.yX",
"  [ ; ).] ` o.].[.[.[.<.Y ^.J.m m U.#.@X-.].$X$X| E.XXR.S.F.=X2X-X-X*X*XK.U D 6 Q y.W.y.e.e.e.t.yX",
"o X.l ] l l [ [.[.{.].o.X.].#X0 G P.z.^.z 7XrX4.v.*X&X.XG.*X9X,XE.K.K.E.oXv.9 b $ V M.j.e.t.e.0.yX",
"> 1.).p p l [ 4.6.o.1.} U Y.6X&.m s.g.f.H K ].P E.*X*X&XoX9X9X;Xn.E +.n.s E.I $ x 2 M.m.D A q.F yX",
"> [ %Xq yXyXyXyXyX- y l F 1.wX6XH.G n G f.I.7.} ;X*X&XXX-XqX2XT.[.5X2.O.@ G.K.J < , h.N.6 6 A yXyX",
"yX] 1.yXyXyXyXyXyXy ( X n X.6X6X6X$X=.0 B g.7.S.;X*X*.V.-X1X>XF.8X4X[.s @ *.;X@.$ % C Z , 6 Z yXyX",
"yXyXyXyXyXyXyXyXyXyX( y & z 5.{.%X+X6.{ H.|.+.|.*X*Xs  X;X>X&Xn.`.* O 8 @ *.=Xb.3 , + % % 3 c yXyX",
"yXyXyXyXyXyXyXyXyXyX> / g & - 7 i p i u 1.$X^.E.Y.XX8 &XoX&X&XF.+.% 8 I % G.XX! O O C 5 5 m S yXyX",
"yXyXyXyXyXyXyXyXyXyXo P d 7 o * r r i :.g y p Y.n.E.s E.n.E.&XoXR.b.b.b.E R.n.T + A A t.r.t.e.b yX",
"yXyXyXyXyXyXyXyXyXyX; b.Z.+.$.; r y i h ` ` p `.OX Xw n.J R.XX&X&XoXoXR.S.@.E Y + D q.p.w.k.y.v yX",
"yXyXyXyXyXyXyXyXyXyXyXA.>XY.*Xw d e   k     yX6.eX<XK S.J Y.>X0X9X&XE.&XF.@.Q U + S x.p.t.m.l.0.yX",
"yXyXyXyXyXyXyXyXyXyXyX*.3XT.3XD.2Xa yXyXyXyXyXyXY.*X*.G.$.*.qX`.W K O.@.Q O.Q 8 5 A m.r.e.M.k.0.yX",
"yXyXyXyXyXyXyXyXyXyXyXq >X>X3X9X>Xq yXyXyXyXyXyXyXK B. XF.W | } %X5XR s = Q H c + i.L.d.r.W.j.M yX",
"yXyXyXyXyXyXyXyXyXyXyXyXq a d | d yXyXyXyXyXyXyXyXyXyX+.|.|.T.Y.[.1.W w . Q q.b A m.Q.k.h.L.w.2 yX",
"yXyXyXyXyXyXyXyXyXyXyXyXyXyXyXyXyXyXyXyXyXyXyXyXyXyXyXyXL B.D.B.p   8 q @ 6 q.n j.E.Q.i.h.r.x yXyX",
"yXyXyXyXyXyXyXyXyXyXyXyXyXyXyXyXyXyXyXyXyXyXyXyXyXyXyXyXyXyX= q > . q @ 4 6 m 3 N.j.N.5 w.D yXyXyX",
"yXyXyXyXyXyXyXyXyXyXyXyXyXyXyXyXyXyXyXyXyXyXyXyXyXyXyXyXyXyXyXyXyXyXyXO + 1 , v e.l.9 M e.yXyXyXyX",
"yXyXyXyXyXyXyXyXyXyXyXyXyXyXyXyXyXyXyXyXyXyXyXyXyXyXyXyXyXyXyXyXyXyXyXc o c x S w.2 v e.yXyXyXyXyX",
"yXyXyXyXyXyXyXyXyXyXyXyXyXyXyXyXyXyXyXyXyXyXyXyXyXyXyXyXyXyXyXyXyXyXyXyX. 2 w.6 9.F 9.yXyXyXyXyXyX",
"yXyXyXyXyXyXyXyXyXyXyXyXyXyXyXyXyXyXyXyXyXyXyXyXyXyXyXyXyXyXyXyXyXyXyXyXyXyXyX5 yXyXyXyXyXyXyXyXyX",
"yXyXyXyXyXyXyXyXyXyXyXyXyXyXyXyXyXyXyXyXyXyXyXyXyXyXyXyXyXyXyXyXyXyXyXyXyXyXyXyXyXyXyXyXyXyXyXyXyX",
"yXyXyXyXyXyXyXyXyXyXyXyXyXyXyXyXyXyXyXyXyXyXyXyXyXyXyXyXyXyXyXyXyXyXyXyXyXyXyXyXyXyXyXyXyXyXyXyXyX",
"yXyXyXyXyXyXyXyXyXyXyXyXyXyXyXyXyXyXyXyXyXyXyXyXyXyXyXyXyXyXyXyXyXyXyXyXyXyXyXyXyXyXyXyXyXyXyXyXyX",
"yXyXyXyXyXyXyXyXyXyXyXyXyXyXyXyXyXyXyXyXyXyXyXyXyXyXyXyXyXyXyXyXyXyXyXyXyXyXyXyXyXyXyXyXyXyXyXyXyX",
"yXyXyXyXyXyXyXyXyXyXyXyXyXyXyXyXyXyXyXyXyXyXyXyXyXyXyXyXyXyXyXyXyXyXyXyXyXyXyXyXyXyXyXyXyXyXyXyXyX",
"yXyXyXyXyXyXyXyXyXyXyXyXyXyXyXyXyXyXyXyXyXyXyXyXyXyXyXyXyXyXyXyXyXyXyXyXyXyXyXyXyXyXyXyXyXyXyXyXyX"
};
