/* XPM */
static char *bWFuMTA_[] = {
/* columns rows colors chars-per-pixel */
"49 49 227 2 ",
"   c #020202",
".  c #0B0503",
"X  c #060709",
"o  c #0B0A0B",
"O  c #070809",
"+  c #150A06",
"@  c #1C0C05",
"#  c #140D0B",
"$  c #1A0D0C",
"%  c #170703",
"&  c #1B110D",
"*  c #0D0D12",
"=  c #0E1016",
"-  c #131416",
";  c #1B1513",
":  c #13151A",
">  c #17181E",
",  c #1B1B1C",
"<  c #1E1717",
"1  c #0F150F",
"2  c #220C06",
"3  c #290E07",
"4  c #330D06",
"5  c #24140B",
"6  c #2C1209",
"7  c #2C150A",
"8  c #34140A",
"9  c #3C140A",
"0  c #36160A",
"q  c #241E1D",
"w  c #2C1D1A",
"e  c #291713",
"r  c #341A14",
"t  c #2C221C",
"y  c #37251D",
"u  c #171A21",
"i  c #1B1C24",
"p  c #1C1F28",
"a  c #1E222C",
"s  c #1F2020",
"d  c #232223",
"f  c #21242D",
"g  c #2B2A2A",
"h  c #2C2724",
"j  c #382824",
"k  c #3D342F",
"l  c #232532",
"z  c #262936",
"x  c #2A2E3C",
"c  c #272B3A",
"v  c #2C313F",
"b  c #353535",
"n  c #3C3C3C",
"m  c #3D3431",
"M  c #342F3A",
"N  c #440F0C",
"B  c #44140A",
"V  c #4C1A0D",
"C  c #49170C",
"Z  c #521A0C",
"A  c #5C1B0D",
"S  c #51160B",
"D  c #4B1816",
"F  c #581814",
"G  c #651C0D",
"H  c #691613",
"J  c #711810",
"K  c #4A231A",
"L  c #572618",
"P  c #59230D",
"I  c #66230D",
"U  c #692616",
"Y  c #7B2512",
"T  c #762A1A",
"R  c #78210F",
"E  c #5B1D20",
"W  c #43322B",
"Q  c #57362B",
"!  c #433D3B",
"~  c #4A3A35",
"^  c #543B31",
"/  c #5C3D31",
"(  c #442F2E",
")  c #663627",
"_  c #793726",
"`  c #6A2C2E",
"'  c #54423B",
"]  c #5C453B",
"[  c #46413F",
"{  c #66473A",
"}  c #704D3E",
"|  c #2E3343",
" . c #313544",
".. c #353947",
"X. c #393F53",
"o. c #3D4257",
"O. c #3E414B",
"+. c #444343",
"@. c #4B4C4C",
"#. c #4A4747",
"$. c #574B43",
"%. c #424759",
"&. c #525353",
"*. c #5C5B5C",
"=. c #595459",
"-. c #5D504F",
";. c #674C44",
":. c #69534B",
">. c #74564A",
",. c #6A5B52",
"<. c #675E5B",
"1. c #735C52",
"2. c #7C645A",
"3. c #7C6459",
"4. c #67605C",
"5. c #444A63",
"6. c #4E5365",
"7. c #565C6D",
"8. c #5E6377",
"9. c #626263",
"0. c #6A6A6B",
"q. c #6B6765",
"w. c #756762",
"e. c #666B7B",
"r. c #747677",
"t. c #A5131A",
"y. c #842513",
"u. c #8C2513",
"i. c #8A2B18",
"p. c #952C19",
"a. c #992C1A",
"s. c #942815",
"d. c #9A321D",
"f. c #94311F",
"g. c #8E331D",
"h. c #981E22",
"j. c #8A1C21",
"k. c #AC1E23",
"l. c #843623",
"z. c #993623",
"x. c #822E32",
"c. c #822B2D",
"v. c #A13E27",
"b. c #901216",
"n. c #C2141C",
"m. c #C61B23",
"M. c #CD262D",
"N. c #D12B33",
"B. c #924834",
"V. c #A1412C",
"C. c #A44935",
"Z. c #A8543C",
"A. c #CB3C41",
"S. c #925F49",
"D. c #A95942",
"F. c #B15B43",
"G. c #83655A",
"H. c #846558",
"J. c #91614A",
"K. c #B76D54",
"L. c #BA7559",
"P. c #AF684E",
"I. c #8B6D64",
"U. c #916D61",
"Y. c #897469",
"T. c #937365",
"R. c #957A6D",
"E. c #9A7A6C",
"W. c #967769",
"Q. c #8F7F78",
"!. c #A67E6C",
"~. c #DC444A",
"^. c #9B8274",
"/. c #99877D",
"(. c #A48475",
"). c #AA8C7E",
"_. c #A78779",
"`. c #B78E7E",
"'. c #C28568",
"]. c #C69173",
"[. c #777D86",
"{. c #6A728A",
"}. c #8A8B8A",
"|. c #929393",
" X c #9A9A9A",
".X c #918B88",
"XX c #A88E80",
"oX c #AC9284",
"OX c #A6938A",
"+X c #B39383",
"@X c #BE9C8B",
"#X c #BA9787",
"$X c #A89B94",
"%X c #B49788",
"&X c #BCA396",
"*X c #858BA0",
"=X c #9FA3A7",
"-X c #A3A3A3",
";X c #ACABAA",
":X c #B6B6B6",
">X c #BBB9B9",
",X c #B0B0B0",
"<X c #C19C8C",
"1X c #C4A392",
"2X c #C9A694",
"3X c #C5AC9B",
"4X c #D2B19E",
"5X c #CAA896",
"6X c #C7AEA1",
"7X c #D3B4A2",
"8X c #C9BDB6",
"9X c #D0B8A9",
"0X c #D7C5B9",
"qX c #E1CBBA",
"wX c #BDC0C3",
"eX c #D8CECA",
"rX c #CDD4DA",
"tX c #CECDCC",
"yX c #ECD6C4",
"uX c #E9D7C9",
"iX c #EADED5",
"pX c #E0CFC5",
"aX c #EFE3DA",
"sX c #F2E3D6",
"dX c #D1DBE0",
"fX c #EEEFED",
"gX c None",
/* pixels */
"gXgXgXgXgXgXgXgXgXgXgXgXgXgXgXgXgXgXgXgXgXgXgXgXgXgXgXgXgXgXgXgXgXgXgXgXgXgXgXgXgXgXgXgXgXgXgXgXgX",
"gXgXgXgXgXgXgXgXgXgXgXgXgXgXgXgXgXgXgXgXgXgXgXgXgXgXgXgXgXgXgXgXgXgXgXgXgXgXgXgXgXgXgXgXgXgXgXgXgX",
"gXgXgXgXgXgXgXgXgXgXgXgXgXgXgXgXgXgXgXgXgXgXgXgXgXgXgXgXgXgXgXgXgXgXgXgXgXgXgXgXgXgXgXgXgXgXgXgXgX",
"gXgXgXgXgXgXgXgXgXgXgXgXgXgXgXgXgXgXgXgXgXgXgXgXgXgXgXgXgXgXgXgXgXgXgXgXgXgXgXgXgXgXgXgXgXgXgXgXgX",
"gXgXgXgXgXgXgXgXgXgXgXgXgXgXgXgXgXgXgXgXgXgXgXgXgXgXgXgXgXgXgXgXgXgXgXgXgXgXgXgXgXgXgXgXgXgXgXgXgX",
"gXgXgXgXgXgXgXgXgXgXgXgXgXgXgXgXgXgXgXgXgXgXgXgXgXgXgXgXgXgXgXgXgXgXgXgXgXgXgXgXgXgXgXgXgXgXgXgXgX",
"gXgXgXgXgXgXgXgXgXgXgXgXgXgXgXgX= = X gXgXgXgXgXgXgXgXgXgXgXgXgXgXgXgXgXgXgXgXgXgXgXgXgXgXgXgXgXgX",
"gXgXgX        X o < - g q.4., v x l a i p a gXgXgXgXgXgXgXgXgXgXgXgXgXgXgXgXgXgXgXgXgXgXgXgXgXgXgX",
"gXgXgX    O d &.r.&.[ 0X0X&XQ.d d : : u u f X.- gXgXgXgXgXgXgXgXgXgXgXgXgXgXgXgXgXgXgXgXgXgXgXgXgX",
"gXgXgX      O - g s OXiX0XXX[ .. .%.6.f : : l o.o gXgXgXgXgXgXgXgXgXgXgXgXgXgXgXgXgXgXgXgXgXgXgXgX",
"gXgXgXgX    , O., , 0XaX0XQ.i p * : x e.%.- : v o gXgXgXgXgXgXgXgXgXgXgXgXgXgXgXgXgXgXgXgXgXgXgXgX",
"gXgXgXgXX h *.9.@.n eXaX0X,., X     X l 6.e.p o   gXgXgXgXgXgXgXgXgXgXgXgXgXgXgXgXgXgXgXgXgXgXgXgX",
"gXgXgXgXo , #.&.@.[ pXuX&X! =         * x 5.{.f   gXgXgXgXgXgXgXgXgXgXgX0 gXgX4 gXgXgXgXgXgXgXgXgX",
"gXgXgXgXX , b &.b s ,X0XXXh x a = *     : a o.*Xi   gXgXgXgXgX2 4 gX3 + B C 4 A @ gXgXgXgXgXgXgXgX",
"gXgXgXgXX , g @.a z s d ! - 5.o.| c :     : z e.[.X gXgXgX@ Z y.Y R V X P K T J % gXgXgXgXgXgXgXgX",
"gXgXgXgXgX; d n x v a > o X = u v X.l     O u X.{.: gX& r 2 G u.R G @ O L K P.y.B     gXgXgXgXgXgX",
"gXgXgXgXgXo - ; M o.f u * X X o   * =       u f o...> - 2 $ e ) :.^ & + ) _ Z.P u.A @ gXgXgXgXgXgX",
"gXgXgXgXgXX 1 o i 5.x i = o = : *           X i x l # o $ :.2.G.G.$X^.5 L p.p.U C p.l.r S gXgXgXgX",
"gXgXgXgXgXgXo X o  .c i u = = : : f > X f %...  X = o o /._.] j W .X&X5 V p.g.d.8 I Z.P 8 4 gXgXgX",
"gXgXgXgXgXgX  X   > x = u p a | x v {.X...c 7.{.:   # h 6X$.( ~ Y.pX' + @ 0 p.p.B S K.(.5 Z gXgXgX",
"gXgXgXgXgXgX- o . * o # ..5.o.l : : i c i u : c o.o q ,.E.1.E.2.,.W + . . D p.i.V V L.].y P p.gXgX",
"gXgXgXgXgXo d X d +.; U d : X > p p i l a u : o $ q T.E.T.^.' .   . . . . G I A } B.d.'.} V a.gXgX",
"gXgXgXgXo < : , @.+.e Y -.r.n d w 2 D _ ` ` h.A.F Y.E.E.T.W.' o & t # + . 9 N ) C.z.g.C.B.P p.d.gX",
"gXgX  d +.d g b &.*.h U 9.wX0.7.w F k.k.N.N.A.H 1.+X(.E.G._.+XoX1X2XG.W # @ N J.C.T d.d.d.L g.d.gX",
"gX  X b , n &.O.q. Xr.+.r.,X0.~ N D D D E D w.j +X#X_.R.W.3X7X4X7X2X5XW.Q e 4 S.V.T Z.p.a.T a.a.gX",
"    g *.q.&.*.0.|. Xj ( *XtX0.( J b.M.` ,XtX|.>.1X@X`.T.&XyX7X`.!.!.R.XX>.r + _ z.L K.p.p.a.a.s.gX",
"    #.-X X}.-X-X X Xm K >XfX=X9.D H m.E w =.! _.1X1X1X+XuXaX1X2./ :.G.t !.K X 4 K 2 K.T T p.s.gXgX",
"    @.>X:X:X,X-X-X|.q K 8XfXrX,X7.w D j.~.h.~ 1X1X1X#X7XaXyX_.$XtX4.;.$ T.G.o . 2 % g.8 B u.gXgXgX",
"  O @.-X-X|.|. X|.! n ) 0XfXdXrX=X9.e H n.t.w.5X1X3.I.4XqX0XE.eXtX-Xj $ 3.<Xj o 3 F I @ 9 I gXgXgX",
"  , b :X|.0.9.*.i O M =.8.[.[.}.[.0.[ ;.Y.:.!.3X1Xm ).2X7X1XG.Q.< # w + 3.2X>.4 Z C V 5 7 V gXgXgX",
"  b s 0.}.n b h gX: : : X   * : > : = =.|.0._.(.@Xt @X%X<X<XW.$.& e ^ & T.#X>.@ I Y Y Z Z P gXgXgX",
"  9.*.O   gXgXgXgX  # u : X * > u a 7...i d /.G.oXj (.H.`.<X#XE.G.U.U.] (.J./ 0 % i.i.Y Y p.I gXgX",
"  g  X, gXgXgXgXgXgX  e & o , > p a  .c p i .XOX+Xj H.Q (.<X<X<X@X+X_.T.>./ / y.B y.d.s.l.d.V.gXgX",
"gX  o gXgXgXgXgXgXgXt -.$.$.,.t g l 5.l   gX,.iX0X/ U.{ R.6XuXpX1X+X<X!.>.{ / 4 y.Y C.p.P.V.Z.gXgX",
"gXgXgXgXgXgXgXgXgXgX^.oXoXY.OXY./.1 gXgXgXgXgXY.1X3.R.I.Y.iX.X-.( ;.;.{ ;.{ Q @ R u.D.l.C.K.F.gXgX",
"gXgXgXgXgXgXgXgXgXgX&X6X0X/.$X%XsX<.gXgXgXgXgXgX~ Y.%X^.$.$.' ;XtX~ j 5 { Q 4 2 F y.P.p.i.C.'.gXgX",
"gXgXgXgXgXgXgXgXgXgX&XyXqXyXuXqXfXq.gXgXgXgXgXgXgXgX3._.XXXX^.}.n m y o { 0 G 3 B T L.z._ F.L.gXgX",
"gXgXgXgXgXgXgXgXgXgXgX6XqXyXsXsX0XgXgXgXgXgXgXgXgXgXgX~ w.R.Y.g   t t & Q S A y.9 _ '.K.) v.V.gXgX",
"gXgXgXgXgXgXgXgXgXgXgXgXgX$.q.k < gXgXgXgXgXgXgXgXgXgXgXgX; t 1   t # & w V Y u.9 v.K.P.L l.gXgXgX",
"gXgXgXgXgXgXgXgXgXgXgXgXgXgXgXgXgXgXgXgXgXgXgXgXgXgXgXgXgXgXgXgXgXgXgX2 3 2 y.s.C p.v.B.2 gXgXgXgX",
"gXgXgXgXgXgXgXgXgXgXgXgXgXgXgXgXgXgXgXgXgXgXgXgXgXgXgXgXgXgXgXgXgXgXgXgX@ % C s.9 Z u.u.2 gXgXgXgX",
"gXgXgXgXgXgXgXgXgXgXgXgXgXgXgXgXgXgXgXgXgXgXgXgXgXgXgXgXgXgXgXgXgXgXgXgXgXgX% C U 3 8 9 8 gXgXgXgX",
"gXgXgXgXgXgXgXgXgXgXgXgXgXgXgXgXgXgXgXgXgXgXgXgXgXgXgXgXgXgXgXgXgXgXgXgXgXgXgX% @ gXgXgXgXgXgXgXgX",
"gXgXgXgXgXgXgXgXgXgXgXgXgXgXgXgXgXgXgXgXgXgXgXgXgXgXgXgXgXgXgXgXgXgXgXgXgXgXgXgXgXgXgXgXgXgXgXgXgX",
"gXgXgXgXgXgXgXgXgXgXgXgXgXgXgXgXgXgXgXgXgXgXgXgXgXgXgXgXgXgXgXgXgXgXgXgXgXgXgXgXgXgXgXgXgXgXgXgXgX",
"gXgXgXgXgXgXgXgXgXgXgXgXgXgXgXgXgXgXgXgXgXgXgXgXgXgXgXgXgXgXgXgXgXgXgXgXgXgXgXgXgXgXgXgXgXgXgXgXgX",
"gXgXgXgXgXgXgXgXgXgXgXgXgXgXgXgXgXgXgXgXgXgXgXgXgXgXgXgXgXgXgXgXgXgXgXgXgXgXgXgXgXgXgXgXgXgXgXgXgX",
"gXgXgXgXgXgXgXgXgXgXgXgXgXgXgXgXgXgXgXgXgXgXgXgXgXgXgXgXgXgXgXgXgXgXgXgXgXgXgXgXgXgXgXgXgXgXgXgXgX",
"gXgXgXgXgXgXgXgXgXgXgXgXgXgXgXgXgXgXgXgXgXgXgXgXgXgXgXgXgXgXgXgXgXgXgXgXgXgXgXgXgXgXgXgXgXgXgXgXgX"
};
