/* XPM */
static char *_520922c6f2a4005e9c32f1329004c78aYVBns2DJWI4SktG[] = {
/* columns rows colors chars-per-pixel */
"50 50 230 2 ",
"   c None",
".  c #030404",
"X  c #0A0403",
"o  c #060709",
"O  c #070809",
"+  c #0B0B0C",
"@  c #090907",
"#  c #130704",
"$  c #140A06",
"%  c #1C0C06",
"&  c #120C0B",
"*  c #190D09",
"=  c #1C110D",
"-  c #17100E",
";  c #0D0E12",
":  c #0E1015",
">  c #0F1218",
",  c #131315",
"<  c #13151B",
"1  c #16181F",
"2  c #1B1B1B",
"3  c #1C1817",
"4  c #100F10",
"5  c #220D06",
"6  c #270E09",
"7  c #2C130A",
"8  c #281209",
"9  c #33130A",
"0  c #3B1409",
"q  c #291815",
"w  c #371C15",
"e  c #300E08",
"r  c #1E201E",
"t  c #2D221D",
"y  c #20201B",
"u  c #33231D",
"i  c #161A22",
"p  c #1A1C24",
"a  c #1B1F28",
"s  c #191723",
"d  c #1E222C",
"f  c #1D2027",
"g  c #232323",
"h  c #2C2623",
"j  c #21242C",
"k  c #2A2A2B",
"l  c #292928",
"z  c #352A25",
"x  c #3D322C",
"c  c #222631",
"v  c #252934",
"b  c #292E3B",
"n  c #282D37",
"m  c #2C313E",
"M  c #343333",
"N  c #3C3C3C",
"B  c #3A3535",
"V  c #312F33",
"C  c #291F2C",
"Z  c #43150B",
"A  c #4B160B",
"S  c #441B0B",
"D  c #4B1D0C",
"F  c #5B1B0D",
"G  c #521B0C",
"H  c #4B1D15",
"J  c #581812",
"K  c #4A0E0E",
"L  c #641C0E",
"P  c #6B1A0E",
"I  c #661812",
"U  c #731112",
"Y  c #58230C",
"T  c #492719",
"R  c #552910",
"E  c #67250E",
"W  c #662414",
"Q  c #772816",
"!  c #772912",
"~  c #442E28",
"^  c #57252A",
"/  c #44332D",
"(  c #4D352A",
")  c #5A3526",
"_  c #483935",
"`  c #543B34",
"'  c #743725",
"]  c #6A312A",
"[  c #52433C",
"{  c #5A463D",
"}  c #48423B",
"|  c #714C3D",
" . c #393D4A",
".. c #333747",
"X. c #343949",
"o. c #453F4A",
"O. c #3C414D",
"+. c #3D4456",
"@. c #454545",
"#. c #4B4749",
"$. c #5C4B42",
"%. c #544945",
"&. c #414757",
"*. c #545454",
"=. c #5D5D5D",
"-. c #5E5952",
";. c #535152",
":. c #634B42",
">. c #694D4A",
",. c #695349",
"<. c #79594C",
"1. c #695C54",
"2. c #775D53",
"3. c #6A6159",
"4. c #78645A",
"5. c #464D61",
"6. c #4D5366",
"7. c #585C67",
"8. c #535A71",
"9. c #5F6160",
"0. c #646464",
"q. c #6B6B6A",
"w. c #776863",
"e. c #787878",
"r. c #6D6D77",
"t. c #8C1317",
"y. c #AD161C",
"u. c #842B14",
"i. c #892A18",
"p. c #9A2C16",
"a. c #992C1A",
"s. c #942914",
"d. c #87331B",
"f. c #94331C",
"g. c #9B311B",
"h. c #AA1F24",
"j. c #883723",
"k. c #9C3724",
"l. c #8A3034",
"z. c #AE3630",
"x. c #C11922",
"c. c #CB222A",
"v. c #CC3038",
"b. c #9C432B",
"n. c #904D36",
"m. c #A64A34",
"M. c #A35038",
"N. c #933C41",
"B. c #E43B44",
"V. c #AD5741",
"C. c #B15D45",
"Z. c #B5484D",
"A. c #87675A",
"S. c #916B5D",
"D. c #B6755A",
"F. c #B06D53",
"G. c #886E62",
"H. c #8C7367",
"J. c #937366",
"K. c #95796D",
"L. c #9A7B6C",
"P. c #977668",
"I. c #9A7E70",
"U. c #8D7B70",
"Y. c #A37C6E",
"T. c #BC7C61",
"R. c #A17C75",
"E. c #885A46",
"W. c #E76168",
"Q. c #998779",
"!. c #A48475",
"~. c #A98C7D",
"^. c #A68779",
"/. c #B38C7C",
"(. c #BB8568",
"). c #C4886A",
"_. c #CB9576",
"`. c #C88E70",
"'. c #737A8C",
"]. c #686F84",
"[. c #88888A",
"{. c #918A86",
"}. c #9C9C9C",
"|. c #969595",
" X c #878C98",
".X c #A99285",
"XX c #B49282",
"oX c #B99383",
"OX c #BD9B8B",
"+X c #B89888",
"@X c #A79994",
"#X c #B59789",
"$X c #BAA497",
"%X c #8F96AC",
"&X c #A3A3A3",
"*X c #ABACAC",
"=X c #A5A7A9",
"-X c #B6ADA8",
";X c #B3B3B3",
":X c #BBBBBB",
">X c #B9B5B7",
",X c #B7B2AF",
"<X c #C09C8B",
"1X c #C5A493",
"2X c #C9AA98",
"3X c #D2B19E",
"4X c #C8A896",
"5X c #C8AFA2",
"6X c #D7BBA9",
"7X c #CAB9AE",
"8X c #D7C6BB",
"9X c #E9D3BE",
"0X c #E0C7B9",
"qX c #BCC0C0",
"wX c #C2C3C3",
"eX c #CACBCC",
"rX c #CAC8C7",
"tX c #DDCEC3",
"yX c #D6D6D6",
"uX c #ECD8C7",
"iX c #F3DCC5",
"pX c #E7DCD1",
"aX c #F5E6D9",
"sX c #EEE2D9",
"dX c #E4E4E4",
"fX c #E9EAEA",
"gX c #EEE9E2",
"hX c #F5EDE6",
"jX c #F7F1EA",
"kX c #F6F5F2",
/* pixels */
"                                                                                                    ",
"                                            d.u.Q u.u.E Y       S R Q M.b.k.                        ",
"                                        Q m.C.D.k.p.p.i.D S Y ! i.g.m.`.).M.k.                      ",
"                                      F j.`._.C.g.p.p.s.F % 7 Z F P m.C.).(.F.k.                    ",
"                                    Z P b._.).m.d.s.p.s.A % 5 8 Q a.a.a.k.a.F.M.f.                  ",
"                                  S u.p.F.T.i.k.n.M.p.! L 5 * H d.a.a.k.j.P k.).n.E                 ",
"                                  p.s.P w % e M.(.`.T.F.Q Z 5 Q Q W P k.D.T ' ] m.Q                 ",
"                                ! ! L F 0 Z J H E.P.(.D.j.Z 9 T 6 A Z w (.`.Z.' E Y % 5             ",
"                                E G s.' k.f.s.Q L 0 5 e 5 $ % 7 G S L L ) `.).V.f.H 9 %             ",
"                              ! f.s.i.T F.V.m.m.a.u.F 5 ` <.P.| T * X L F d.Q j.V.k.u.S             ",
"                            | D.M.b.g.Y # u | n.] 0 q ,.P.1X1XOX<.T * # P A e e ) W E Y S           ",
"                            A S u ) d.u.e # X % X u A.L.Y.4.2.J.!.| ` q 7 Z # # # 5 0 S             ",
"                          7 7 0 E 0 0 9 8 # X X u /.R.q * = $ = :.Y.A.` = $ $ $ 0 D S               ",
"                          6 5 % % 8 Q.Q.x # X # J.2XG.2.,.~ w { S.Y.oXJ.z u t q X X                 ",
"                            7 % # 3.$XrX8X- & q <X2X^.:.{.{.& q A./.XXH./ %.t / & X                 ",
"                              A 5 U.,.x 5X[ X 8 4X3X/./ kX-X, = A.oXOX<.rXe.. q q                   ",
"                            Y S 9 | <.q ~.w.. - 1X3X/.<.@XsX|.} P.<X6X%.eX-Xk h                     ",
"                            D S 8 u A.x 4.Q.t / +X0X0XOX^.Q.2.A.!.<X6X@X1.,X.X{                     ",
"                            S 0 7 * Q.K.{ G.!.J.^.3X9XsX8XOXOX/.<X<X1XuX_ Q..X%.                    ",
"                      s : < > + 7 $ / $X4XJ.J.J.J.~.3XsXjXuX0X1XOX+X+XJ._ ^.~._                     ",
"                  X.].=X].8.5.6.O.@ . z 1.H.K.K.J.!./.1X6X6X2X<XA.u u } Q.#X~.h                     ",
"            a X.8.].].5.a ..X.+.r.6.: . o / !.K.!.^.XXOX1X~.<X1X/.A.A.!.#X#XG.                      ",
"          '.'.].6.6.5.c a d c ..+.m < . d X ,.!.!./.+X1X<X{ z x { { _ { ~.1.z                       ",
"         X X5.+.c d d > > f c v O.c ; i  .: 4 { !.+X1X1X4X1XOXU.4.4.K..X^.t                         ",
"      _ }  X+.a i > > O o i f d c p . 7.O.< : [.y { Y.<X2X1X1X^.!.J.8X8X[       N N w.              ",
"  ; Q.3XS.*.5.i O > O o o O > ; : + + '.c f < qXdX|.0.:.J.oX4X<X#X$X8X-.      *.aXjXjX-X            ",
"  %.iX9X^.:.p ; . o : a i > + . . . . O.i f 1 eXkX*XB l.>.h h / N z 2 .     B Q.-.5XQ.8X$X          ",
"  3.iXiX6XP./ o o i c v ..1 ; . . . . f d a p *X;Xt z.h.@X>X+ O ..d f >     4.pX9.y =.hXaXB         ",
"  } 8XiXjX2XY.` a d ....O . o o O O . : b s p 3 3 Z.c.U R.U.> s O.O.@ i l O.{ 0X@X-.uX8XiXQ.        ",
"    w.aXhXiXoXY._ v ..+ o o @ O < d &.m v s d *.o.^ t.U >.N i < f O.O ; m r z G.H.{ G.8XhX9X        ",
"    y Q.uX3X>.S.,.o ; o O + ; : 1 > v 1 p p a qXwXJ t.6 : ; ; ..b i . 1 5.@ y Q.4.Q.w.3X6X9X        ",
"      k 4XH.q :.z o o : , : < 1 i > b f p s v *XA.x.t._ N > s a . . . > 7.@ = [ ~.4X} 1.1X1X        ",
"        h { ` < + ; , 1 < < < i a > C ^ N.N.N.Z.c.y.K 7.N < a &.4 . . + 8.: X q _ K.1.w.~.          ",
"          . + 2 : < 1 1 1 1 s p a ] W.B.v.v.v.v.y.U e [.2 < p X. ., < ; +.... . + g o               ",
"              j 1 1 < s p p f j ^ W.c.t.U U U U K e r.=X; s s a c p a s < +.c o o X.p               ",
"            . + a 1 p j v v n ..v.y.U I 0 = = C _ 0.eXe.> ; ; d o i d d a > b +.&.5.                ",
"        l q.+ , a c c b  . .&.o.l.H H ~ g = l #.0.eXfX/ > o + d ;   a a c c s o ,                   ",
"        ;.[.y :Xe.j c ....v j c k 2 > N / W G 8 q / o.; : ; s C                                     ",
"      , [.9.*.qXeXwX&X}.=Xq.l 2 , < 3 g l B #.#.>.{ o.o.V C X.4                                     ",
"      V q.r 9.}.;X*X&X}.{.0.l l 3 , 2 j k M 0.|.*XqXyXhXyXwX[.s                                     ",
"      M N o r =.q.0.9.=.;.;.M M g r < l g l @.*.|.*X;XdXdXfXdX;XV                                   ",
"      k , 4 r N 1.@.N @.N l k V N k y 3 , 2 N ;.;.*.0.{.&XyXfXfXrXq.    N r                         ",
"    ; l . . 3 l v 2 < 2 g l g f g M M V 2 4 , r N #.;.e.|.;XwXeXfXfX9.9.rX[..                       ",
"    @ l @ . o , , 3 3 r , @ @ +       M V g l r , f V *.[.|.&X;XdXeXl *.;XN .                       ",
"      4 . .                                       k #.l @.e.}.;X:X0.4 *.=X4 .                       ",
"                                                    M N l k 9.q.l + N e.k .                         ",
"                                                      2 g g r + . 2 M k O                           ",
"                                                        . . . . f l r .                             ",
"                                                              @ 4 . .                               ",
"                                                                                                    "
};
