/* XPM */
static char *result[] = {
/* columns rows colors chars-per-pixel */
"50 50 225 2 ",
"   c #020202",
".  c #0B0503",
"X  c #060709",
"o  c #0B0A0B",
"O  c #070809",
"+  c #150A06",
"@  c #1C0C05",
"#  c #140D0B",
"$  c #1B0D0C",
"%  c #170704",
"&  c #1B110D",
"*  c #0D0D11",
"=  c #0F1115",
"-  c #131416",
";  c #1B1513",
":  c #13151A",
">  c #17181E",
",  c #1B1A1B",
"<  c #1D1718",
"1  c #220D06",
"2  c #290E07",
"3  c #340E06",
"4  c #24140C",
"5  c #2C1209",
"6  c #291005",
"7  c #34130A",
"8  c #3C150B",
"9  c #38190D",
"0  c #2D1912",
"q  c #241E1D",
"w  c #2C1D1A",
"e  c #261714",
"r  c #341A14",
"t  c #2C221D",
"y  c #37251D",
"u  c #171A21",
"i  c #1B1C24",
"p  c #1C1F28",
"a  c #1E222C",
"s  c #1F2020",
"d  c #232223",
"f  c #21242D",
"g  c #2B2A2A",
"h  c #2C2724",
"j  c #382824",
"k  c #3D342F",
"l  c #232532",
"z  c #262936",
"x  c #2A2E3C",
"c  c #272B3A",
"v  c #2C313F",
"b  c #353535",
"n  c #3C3C3C",
"m  c #3D3431",
"M  c #342F3A",
"N  c #440F0C",
"B  c #44140A",
"V  c #4C1A0D",
"C  c #49170C",
"Z  c #521A0C",
"A  c #5B1B0D",
"S  c #51170B",
"D  c #4B1816",
"F  c #581814",
"G  c #631B0D",
"H  c #6C1C0E",
"J  c #691613",
"K  c #711911",
"L  c #4A231A",
"P  c #572618",
"I  c #59230E",
"U  c #66230E",
"Y  c #692616",
"T  c #7B2512",
"R  c #742919",
"E  c #79210F",
"W  c #5B1D20",
"Q  c #43322B",
"!  c #57362B",
"~  c #433D3B",
"^  c #4A3A35",
"/  c #543B32",
"(  c #5C3D31",
")  c #442F2E",
"_  c #663627",
"`  c #793726",
"'  c #6A2C2E",
"]  c #54423B",
"[  c #5C453B",
"{  c #46413F",
"}  c #66473A",
"|  c #704D3E",
" . c #2E3344",
".. c #313544",
"X. c #363947",
"o. c #393F53",
"O. c #3D4258",
"+. c #3E414B",
"@. c #444343",
"#. c #4B4C4C",
"$. c #4A4747",
"%. c #584B43",
"&. c #424759",
"*. c #525353",
"=. c #5C5B5C",
"-. c #59555A",
";. c #5D504F",
":. c #674C44",
">. c #69544B",
",. c #74564A",
"<. c #695C55",
"1. c #735C52",
"2. c #7C645A",
"3. c #67605C",
"4. c #444A63",
"5. c #4E5365",
"6. c #565C6D",
"7. c #5E6377",
"8. c #626263",
"9. c #6A6A6B",
"0. c #6C6765",
"q. c #756762",
"w. c #666B7B",
"e. c #747677",
"r. c #A5131A",
"t. c #832513",
"y. c #8B2613",
"u. c #882C19",
"i. c #952C1A",
"p. c #992C1A",
"a. c #942815",
"s. c #9A321D",
"d. c #94311F",
"f. c #8E331D",
"g. c #981E22",
"h. c #8A1C21",
"j. c #AC1E23",
"k. c #853623",
"l. c #993623",
"z. c #822E32",
"x. c #822B2D",
"c. c #A13E27",
"v. c #901216",
"b. c #C2141C",
"n. c #C61B23",
"m. c #CD262D",
"M. c #D12B33",
"N. c #924834",
"B. c #A1412C",
"V. c #A44935",
"C. c #A8543D",
"Z. c #CB3C41",
"A. c #925F49",
"S. c #A95942",
"D. c #B15B43",
"F. c #83655A",
"G. c #846558",
"H. c #91614A",
"J. c #B76D54",
"K. c #BA7659",
"L. c #AF684E",
"P. c #8B6D64",
"I. c #916D61",
"U. c #8A7469",
"Y. c #937365",
"T. c #957A6D",
"R. c #9A7A6C",
"E. c #967769",
"W. c #8F7F78",
"Q. c #A67E6C",
"!. c #DC444A",
"~. c #9A8478",
"^. c #A48475",
"/. c #AA8C7E",
"(. c #A78779",
"). c #B78E7E",
"_. c #C28568",
"`. c #C69173",
"'. c #777D86",
"]. c #6A728A",
"[. c #8B8B8A",
"{. c #939394",
"}. c #9A9A9A",
"|. c #918B88",
" X c #A88E80",
".X c #AC9284",
"XX c #A6938A",
"oX c #B39383",
"OX c #BE9C8B",
"+X c #BA9787",
"@X c #A89B94",
"#X c #B38F80",
"$X c #BBA395",
"%X c #858BA0",
"&X c #9FA3A7",
"*X c #A3A3A3",
"=X c #ACABAA",
"-X c #B6B6B6",
";X c #BBB9B9",
":X c #B0B0B0",
">X c #C19C8C",
",X c #C4A392",
"<X c #C9A694",
"1X c #C5AC9B",
"2X c #D2B19E",
"3X c #CAA896",
"4X c #C7AEA1",
"5X c #D3B4A2",
"6X c #C9BDB6",
"7X c #D0B8A9",
"8X c #D7C5B9",
"9X c #E1CBBA",
"0X c #BDC0C3",
"qX c #D8CECA",
"wX c #CDD4DA",
"eX c #CECDCC",
"rX c #ECD6C4",
"tX c #E9D7C9",
"yX c #EADED5",
"uX c #E0CFC5",
"iX c #EFE3DA",
"pX c #F2E3D6",
"aX c #D1DBE0",
"sX c #EFEFED",
"dX c None",
/* pixels */
"dXdXdXdXdXdXdXdXdXdXdXdXdXdXdXdXdXdXdXdXdXdXdXdXdXdXdXdXdXdXdXdXdXdXdXdXdXdXdXdXdXdXdXdXdXdXdXdXdXdX",
"dXdXdXdXdXdXdXdXdXdXdXdXdXdXdXdXdXdXdXdXdXdXp.l.p.a.dXdXdXdXdXdXdXdXdXdXdXdXdXdXdXdXdXdXdXdXdXdXdXdX",
"dXdXdXdXdXdXdXdXdXdXdXdXdXdXdXdXdXdXdXdXi.i.i.s.p.p.a.dXdXdXdXU B.C.D._.K.B.dXdXdXdXdXdXdXdXdXdXdXdX",
"dXdXdXdXdXdXdXdXdXdXdXdXdXdXdXdXdXdX3 Z I L I P R p.p.t.U V I p.i.B.J.V.D.V.R dXdXdXdXdXdXdXdXdXdXdX",
"dXdXdXdXdXdXdXdXdXdXdXdXdXdXdXdXdXS 3 4 y } N.l.s.i.Y B B 6 A T ` J.B.f.` _ W 4 2 7 dXdXdXdXdXdXdXdX",
"dXdXdXdXdXdXdXdXdXdXdXdXdXdXdXdXdX0 Z ^.`._.B.s.a.s.R 9 4 4 V T a.p.f.s.l.J.L.N.t.B dXdXdXdXdXdXdXdX",
"dXdXdXdXdXdXdXdXdXdXdXdXdXdXdX  @ k.D.J.J.f.s.s.C.K.J.f.G V T u.s.V.C.L.K.).J.c.a.7 dXdXdXdXdXdXdXdX",
"dXdXdXdXdXdXdXdXdXdXdXdXdXdXdX  G i.U V Z N.B.Y R P 6 % Z C t.u.u.T t.y.Y u.c.i.V 6 dXdXdXdXdXdXdXdX",
"dXdXdXdXdXdXdXdXdXdXdXdXdX@ % B y.V 7 C V k.C.C.c.l.D 1 5 V H + B t.E A N 8 8 C B U 4 dXdXdXdXdXdXdX",
"dXdXdXdXdXdXdXdXdXdXdXdX3 G H t.A Y i.i.u.A _ A.H.` 7 . + 5 $ 9 t.5 @ @ 2 t.y.p.i.C % dXdXdXdXdXdXdX",
"dXdXdXdXdXdXdXdXdXdXdXdXdX7 ` L.C.f.d.i.i.U 8 N 3 % . o L ,.| ( ( ( ! 7 G F E t.V . dXdXdXdXdXdXdXdX",
"dXdXdXdXdXdXdXdXdXdXdXdXdXB L L ` i.i.r Z A 8 @ e 0 L 2.+X,X+XG.( } } ! 8 S S 1 % dXdXdXdXdXdXdXdXdX",
"dXdXdXdXdXdXdXdXdXdXdXdX9 B Z P _ P V @ . . . + ( ,.^.Y.2.2.E.(.,.,.| } } ( 0 2 @ dXdXdXdXdXdXdXdXdX",
"dXdXdXdXdXdXdXdXdXdXdXdXdX+ . . + 4 4 @ .   + Q E./.h # # # & [ I.E.} 4 . $ ; @ dXdXdXdXdXdXdXdXdXdX",
"dXdXdXdXdXdXdXdXdXdXdXdXdX6 Z 1 @ ~.$X] + . $ F.<XR.F.:.j w / I.(.>X,.y t t & dXdXdXdXdXdXdXdXdXdXdX",
"dXdXdXdXdXdXdXdXdXdXdXdXdXdXE G ] @X|.uXQ + t >X<XQ.>.<.@X$ e I.oXoX:.^ k w w dXdXdXdXdXdXdXdXdXdXdX",
"dXdXdXdXdXdXdXdXdXdXdXdXdX3 t.H :.G.Q U.<.. & OX2XQ.] eXeX; $ G.>X,X) eXn   . dXdXdXdXdXdXdXdXdXdXdX",
"dXdXdXdXdXdXdXdXdXdXdXdXdX1 t.y.! G.y ] 2.. o .X2X).2.@XqX[.] Q.>XqX;.=X[.g - dXdXdXdXdXdXdXdXdXdXdX",
"dXdXdXdXdXdXdXdXdXdXdXdXdXdXZ G 0 2.] k T.] ] oX5X5X,X(.R.G.E.+X>XtX|.] ~.U.t dXdXdXdXdXdXdXdXdXdXdX",
"dXdXdXdXdXdXdXdXdXdXdXdXdXdX1 1 & >./.[ 1.^.E.^.2XrXiXtX7X,X>X>X>X2XiX;./.U.& dXdXdXdXdXdXdXdXdXdXdX",
"dXdXdXdXdXdXdXdXdXdXdXdXdXdXdX0 & & ~.4XR.Y.E.P.T.$XtXiX9X2X>X#XQ.T.q.%./.q.dXdXdXdXdXdXdXdXdXdXdXdX",
"dXdXdXdXdXdXdXdXdXdXdXdXdXdXdX; & o + h <.R.R.R.E.E.oX2X2X3X+XF./ } P.~.(.^ dXdXdXdXdXdXdXdXdXdXdXdX",
"dXdXdXdXdXdXdXdXdXdXdXdXdXdXdXdX, # o o q Y.R.R.(.).$XOXP..XOX(.G.Y.R.+X2.dXdXdXdXdXdXdXdXdXdXdXdXdX",
"dXdXdXdXdXdXdXdXdXdXdXdXdX  . u  .a :   O q P.oXOXOX,XOX2.) q j j / 2.U.dXdXdXdXdXdXdXdXdXdXdXdXdXdX",
"dXdXdXdXdXdXdXdXdXo *     , ].].4.x X : 4.$ W >.).$X,X<X<X<XOX/.oX8X$X^ dXdXdXdXdXdXdXdXdXdXdXdXdXdX",
"dXdXdXdXdXdXdXdX: o. .X f %X].X.a i X 7.l o Z.J j ,.(.,X<X<X^.P.XXiXU.dXdXdXdXdXdXdXdXdXdXdXdXdXdXdX",
"dXdXdXdXdXdXdXdXo.l - i ].&.c i u X X.7.: : x.M.0.{.~ / 2.~.(.~.~.<.dXdXdXdXdXdXdXdXdXdXdXdXdXdXdXdX",
"dXdXdXdXdXdXdXa a > - ].&.f : X     O. .u u ' M.D eX=.h.r.;.e.s i dXdXdXdXdXdXdXdXdXdXdXdXdXdXdXdXdX",
"dXdXdXdXdXdXdXi u : &.5. .-         f ..p a z.m.' :Xr Z.b.P.{.i f   dXdXdXdXdXdXdXdXdXdXdXdXdXdXdXdX",
"dXdXdXdXdXdXdXp u g 7.f *           X o.l l z.j.D ' W h.K :.=...c z dXdXdXdXdXdXdXdXdXdXdXdXdXdXdXdX",
"dXdXdXdXdXdXX a : 5.x X     : l -   : ].p u D r.D m.n.D e $.: 5. .4.dXdXdXdXdXdXdXdXdXdXdXdXdXdXdXdX",
"dXdXdXdXdXdX* l > O.=     o c o.*   f ..u p $ F F v.F r 8.9.: f a z ; 3.q.dXdXdXdXdXdXdXdXdXdXdXdXdX",
"dXdXdXdXdXdX* x a v =     :  . .X * : x = p w w N J D 6.&X'.> u a f ~.pXpX8X, dXdXdXdXdXdXdXdXdXdXdX",
"dXdXdXdXdXdXdX .h X.a     a o.u O : :  .l : d 8.^ ) 8.:XwX[.: > > d U.@X9XpXk dXdXdXdXdXdXdXdXdXdXdX",
"dXdXdXdXdXdXdX, U.{ , > = x 4.= o = : a O.O n 9.9.9.&XwXaX'.o * : <..X@XtXpX0.dXdXdXdXdXdXdXdXdXdXdX",
"dXdXdXdXdXdXdX3.4XXXT.<.~ g -     X : i 4.: e.0X:XwXsXsXsXe.  X o [ U./.rXrX%.dXdXdXdXdXdXdXdXdXdXdX",
"dXdXdXdXdXdXdX0.8X8X8X8X$XXXm * * - > > X.d -.8.w.{.;X6XqX9.o : & [ .X8X9X9XdXdXdXdXdXdXdXdXdXdXdXdX",
"dXdXdXdXdXdXdXg 8XyXpXpXtX8Xd u u s u : # Y T Y $.L L D ' 5.- u , ;..X4XrX4XdXdXdXdXdXdXdXdXdXdXdXdX",
"dXdXdXdXdXdXdX- ~ @X6XqXuX:Xu f f x x x o ; 0 h e.j M w n M : * . t ~.$X$XdXdXdXdXdXdXdXdXdXdXdXdXdX",
"dXdXdXdXdXdXdX, *., q ~ { i z v O.4...: * @.@.=.}.}.*X[.{ X :   dXdXdXdXdXdXdXdXdXdXdXdXdXdXdXdXdXdX",
"dXdXdXdXdXdXdXo e.g t #.#.b a x x s O   X t #.*.9.{.}.*X{.s dXdXdXdXdXdXdXdXdXdXdXdXdXdXdXdXdXdXdXdX",
"dXdXdXdXdXdXdXX *.- n 8.*.*.#.n ; o O O O X , b { 9.}.*X}.-.g dXdXdXdXdXdXdXdXdXdXdXdXdXdXdXdXdXdXdX",
"dXdXdXdXdXdXdX  d X , =.$.b g s , * o   = s ; g *.=.=X-X{.8.b dXdXdXdXdXdXdXdXdXdXdXdXdXdXdXdXdXdXdX",
"dXdXdXdXdXdXdX  o   X g , : , , o X dXdXdX= , s n *.[.-X{.9.~ dXdXdXdXdXdXdXdXdXdXdXdXdXdXdXdXdXdXdX",
"dXdXdXdXdXdXdX        X o O o dXdXdXdXdXdXdXO @., 9.{.-X*X{.'.. dXdXdXdXdXdXdXdXdXdXdXdXdXdXdXdXdXdX",
"dXdXdXdXdXdXdX      dXdXdXdXdXdXdXdXdXdXdXdXdXd b =.*X;X*X-X9.o s dXdXdXdXdXdXdXdXdXdXdXdXdXdXdXdXdX",
"dXdXdXdXdXdXdXdXdXdXdXdXdXdXdXdXdXdXdXdXdXdXdX  O d #.#.$.b , 8.}.o dXdXdXdXdXdXdXdXdXdXdXdXdXdXdXdX",
"dXdXdXdXdXdXdXdXdXdXdXdXdXdXdXdXdXdXdXdXdXdXdXdX        o : n 8.g   dXdXdXdXdXdXdXdXdXdXdXdXdXdXdXdX",
"dXdXdXdXdXdXdXdXdXdXdXdXdXdXdXdXdXdXdXdXdXdXdXdXdX                dXdXdXdXdXdXdXdXdXdXdXdXdXdXdXdXdX",
"dXdXdXdXdXdXdXdXdXdXdXdXdXdXdXdXdXdXdXdXdXdXdXdXdXdXdXdXdXdXdXdXdXdXdXdXdXdXdXdXdXdXdXdXdXdXdXdXdXdX"
};
