/* XPM */
static char *e1a5b34587564b5a90eae96a66766123Bkb9kYrCBWqzHMFQ[] = {
/* columns rows colors chars-per-pixel */
"50 50 222 2 ",
"   c None",
".  c #030303",
"X  c #0B0503",
"o  c #0B0A0B",
"O  c #080709",
"+  c #130906",
"@  c #1B0A05",
"#  c #130B0A",
"$  c #190D0A",
"%  c #130503",
"&  c #1D110A",
"*  c #0D0E11",
"=  c #0F1313",
"-  c #121315",
";  c #1D1411",
":  c #14151A",
">  c #1B1B1C",
",  c #19171B",
"<  c #110E10",
"1  c #230D06",
"2  c #2A0C06",
"3  c #260E0A",
"4  c #340E08",
"5  c #2C130B",
"6  c #25120B",
"7  c #34130B",
"8  c #3C150B",
"9  c #271B19",
"0  c #381815",
"q  c #330E12",
"w  c #29211D",
"e  c #37231C",
"r  c #1B1C23",
"t  c #171921",
"y  c #281F29",
"u  c #1F222A",
"i  c #222224",
"p  c #22252D",
"a  c #2B2A2B",
"s  c #2B2625",
"d  c #392B26",
"f  c #39302C",
"g  c #262933",
"h  c #292E3A",
"j  c #272A33",
"k  c #332F33",
"l  c #2D313E",
"z  c #3C3C3C",
"x  c #343437",
"c  c #43140B",
"v  c #4C180B",
"b  c #5B1A0D",
"n  c #55170D",
"m  c #441B16",
"M  c #571715",
"N  c #681C0E",
"B  c #671B12",
"V  c #751B13",
"C  c #721F0E",
"Z  c #5A2415",
"A  c #6C220F",
"S  c #6B2414",
"D  c #692417",
"F  c #742414",
"G  c #792718",
"H  c #74200F",
"J  c #7F1E22",
"K  c #4A2723",
"L  c #45322A",
"P  c #48352E",
"I  c #4C3C35",
"U  c #463A36",
"Y  c #553B31",
"T  c #583327",
"R  c #643D32",
"E  c #703329",
"W  c #54443E",
"Q  c #5C473D",
"!  c #48413D",
"~  c #674639",
"^  c #7E503E",
"/  c #2E3241",
"(  c #313645",
")  c #3A3E4C",
"_  c #363A48",
"`  c #383E50",
"'  c #2B2D41",
"]  c #433E42",
"[  c #3E414C",
"{  c #3D4353",
"}  c #434343",
"|  c #4B4B4B",
" . c #46454A",
".. c #554A47",
"X. c #5B504B",
"o. c #444A5C",
"O. c #464958",
"+. c #525252",
"@. c #59575A",
"#. c #664D44",
"$. c #69534A",
"%. c #785546",
"&. c #675856",
"*. c #745E54",
"=. c #785F54",
"-. c #7A4F52",
";. c #7C6459",
":. c #4D5364",
">. c #585A65",
",. c #595F74",
"<. c #4A4F60",
"1. c #5C6174",
"2. c #5F616F",
"3. c #656565",
"4. c #6B6869",
"5. c #7B6D68",
"6. c #666A7B",
"7. c #7B7A7A",
"8. c #757576",
"9. c #747271",
"0. c #89151B",
"q. c #9E161C",
"w. c #AB171E",
"e. c #842313",
"r. c #8D2615",
"t. c #8C2C1B",
"y. c #932716",
"u. c #992817",
"i. c #992C1A",
"p. c #962A17",
"a. c #9D321F",
"s. c #AB1B22",
"d. c #883825",
"f. c #9C3321",
"g. c #973825",
"h. c #8F2C31",
"j. c #A13C29",
"k. c #AC2D33",
"l. c #C93138",
"z. c #9B4B36",
"x. c #A74A34",
"c. c #AA543D",
"v. c #A4442F",
"b. c #8B4D52",
"n. c #AC5841",
"m. c #B15F47",
"M. c #826559",
"N. c #86675A",
"B. c #906D5E",
"V. c #B3654C",
"C. c #BB7459",
"Z. c #B26D54",
"A. c #826C62",
"S. c #8A6E62",
"D. c #916E61",
"F. c #8E7266",
"G. c #847269",
"H. c #947366",
"J. c #94796D",
"K. c #9A7A6C",
"L. c #967669",
"P. c #957A74",
"I. c #867073",
"U. c #A57E6F",
"Y. c #BE7C60",
"T. c #E25C62",
"R. c #E16065",
"E. c #C95157",
"W. c #9B8377",
"Q. c #AB8C7D",
"!. c #A78577",
"~. c #B28E7D",
"^. c #C38468",
"/. c #C88E70",
"(. c #646B80",
"). c #6D7286",
"_. c #7E7F81",
"`. c #737A91",
"'. c #7C829A",
"]. c #848484",
"[. c #8B8B8C",
"{. c #958A86",
"}. c #84899A",
"|. c #939393",
" X c #9B9B9A",
".X c #979A9B",
"XX c #979093",
"oX c #A58B83",
"OX c #AE9181",
"+X c #B39283",
"@X c #BC9B8A",
"#X c #B99687",
"$X c #AE978D",
"%X c #868BA0",
"&X c #9FA6AB",
"*X c #A9A7A8",
"=X c #B8B8B8",
"-X c #AEB4B6",
";X c #C19C8C",
":X c #C4A593",
">X c #C9A998",
",X c #D3AF9D",
"<X c #C9A997",
"1X c #C3ACA0",
"2X c #CAB2A4",
"3X c #D6B8A6",
"4X c #D3BDB1",
"5X c #DFC6B5",
"6X c #DDC1AF",
"7X c #E6CEBA",
"8X c #C8C8C8",
"9X c #D5CDC9",
"0X c #C9D5DB",
"qX c #D5D5D5",
"wX c #D6D1CF",
"eX c #E9D5C8",
"rX c #EBDED6",
"tX c #EEE4DD",
"yX c #D4DEE4",
"uX c #EFE9E5",
"iX c #FAF6F4",
"pX c #F1E8E1",
/* pixels */
"                                                                                                    ",
"                                          N F y.y.r.F         b N r.r.N 4                           ",
"                                        G y.u.p.u.u.r.S A v F u.a.v.c.c.y.c                         ",
"                                    c Z E z.j.a.u.p.D 8 8 5 b y.c.m.C.^.C.f.G                       ",
"                                    C V./.^.v.a.p.p.F 8 6 & 5 p.p.p.u.u.z.z.y.p.                    ",
"                                  g.u.Z.^.t.y.i.a.v.V.Z.S & 7 p.a.g.i.j.z.z.7 B u.                  ",
"                                C i.n.M.Z b d.V.^.C.C.z.Z @ Z A t.n.V.!././.Z.0 b e.                ",
"                              N r.G ^ . 8 e.a.j.a.H 4 1 & 6 @ D e.F H d.V.^.c.g.4 F                 ",
"                              S c v 1 @ S i.j.m.~ % c 1 % 5 + @ @ @ 2 1 S v.Z.i.y.e.                ",
"                            r.p.e.N e.n.V.C.^.%.8 n % L %.B.^ R E P 9 v n c 5 n G 8 7               ",
"                            i.c.n.u.y.t.f.j.i.n G 8 Q !.<X<X@XM.~ ~ ~ K t.t.b 1 c r.                ",
"                          T C.Y.z.A v % @ 2 2 5 Y M.~.H.;.;.H.!.*.%.~ ~ ~ 0 8 6 v 4                 ",
"                        4 b 7 2 @ 6 ; . . X % L L.#Xs $ @ @ & Q H.U.~ 6 X $ 5 $ O O                 ",
"                        2 2 X + & W.*XQ % X + M.<X~.M.#.d 9 I D.!.;X$.d e w # + v                   ",
"                            5 @ W $XW.eXL X 9 ;X;XU.#.5. X# 9 D.+X~.#.W ! 9 9                       ",
"                            b C ~ M.f G.5.X 6 <X,XU...9X8X$ ; B.#X:XU 9X4.. X                       ",
"                          c e.e.~ N.e d W.X X Q.,X~.;.$XwX{.$.!.;XeXU -X Xs =                       ",
"                            @ C e H.Q e W.I I Q.3X6X:X!.L.M.K.+X;XrX{...W.S.w                       ",
"                            c C A 5.Q.W #.W.L.!.,XeXeX6X,X:X@X;X@X2XtXX.Q.J.;                       ",
"                              @ & 6 W.1XF.H.H.S.K.:XrXtX5X,X;X~.!.K.A.I OXA.                        ",
"                              X X X o f #.K.K.H.F.L.@X,X,X<X#XM.L L *.K.Q.!                         ",
"                              o [ 1.l o i N.L.!.!.~.;X#XS.OX;XQ.M.H.L.+X$.                          ",
"                            o ,.'.(.(.: . 9 ;.Q.@X;X:X:X;.f 9 d s P ;.S.                            ",
"                          , 6.'.o.[ l O h t a $.~.:X:X:X:X<X@XQ.OX4X:XP                             ",
"                        # 6.`.` g r . ` r t >.7.X.;.~.:X<X:X!.;.oXuXW.                              ",
"                        <.1.h r t o t ] O t @.[.-X7.U Q F.Q.~.W.{.9.                                ",
"                      :.1.p : O O . o.: * r h 7.=XiX|.h.q.X._.p j                                   ",
"                      ).( - . . . . / p t , ] &.{.qXI R.l.{.5Xp  ..                                 ",
"                  r h o.: . . . . . O ` g q 6.}.>.U K h.V P.2.h _ O                                 ",
"                o.(.>.{ * . . h g o . :.0 s.b.}.&X`.k.0.3 ] y <.j h                                 ",
"              l ).` o.{ * . . ' ' * l 6.q s.l.h.&.b.l.c +.8.s p p O                                 ",
"              _ :.( }.{ t . . g g -  .{ t q.s.k.E.T.h.J -X.Xa t u r a w                             ",
"              :.{ ` }.o.` i [ o._ = u { : q w.B M J M {.0X-Xp , t f 6X2Xf                           ",
"            o >.{ O.'.).).6.>.2.O.- : [ u : K 0.M q -.0X0X.Xu * > a J.eXX.                          ",
"              <./ _ }.[ ..&.&.P.9X[ = g ' : 8.XXI.*X0XyX0X8.: O *.:X7X7Xf                           ",
"              [ ( O j $.@X>X1XtXuX|.= t ( i W 4.7.XX].2.+.x * 9 $.W.Q.2Xs                           ",
"              p 1.: k Q.3X5XpXtX2XW.: = > m G F R ..T F m o h f F.>X7X2Xs                           ",
"                h u s OX2XeXiXiXtX@.u g = > ! ..3.>...z O p ( U N.G.;.w                             ",
"                  o O U ;.J.+XoX9.u [ > o - a 4. XXX4.y ` ` : O 9                                   ",
"                    . =  .k u l [ g o . O z 9.7. XXX@., u                                           ",
"                    . 3.[.+.} x = o o o a 3.[.|. X X9.                                              ",
"                    . k w [ | ! w o > | *X X|..X|. X7.                                              ",
"                    . +.+.o z } = o o +.-X=X X[.@.| |                                               ",
"                    . i z O . > o o o z  X*X X7.} z x                                               ",
"                      . a . . .       z  X8X_.| } z a                                               ",
"                      O - . . .       } 8XwX X*X].} a i                                             ",
"                      . . . .         } wXqX8X7.> } [.*X3.                                          ",
"                        . .           = > > O O  .+.3.+.}                                           ",
"                                        . . . . . X - *                                             ",
"                                            . .                                                     "
};
