/* XPM */
static char *bWFuNg__[] = {
/* columns rows colors chars-per-pixel */
"49 49 225 2 ",
"   c #020202",
".  c #0B0503",
"X  c #060709",
"o  c #0B0A0B",
"O  c #070809",
"+  c #150A06",
"@  c #1C0C05",
"#  c #140D0B",
"$  c #1A0D0C",
"%  c #170703",
"&  c #1B110D",
"*  c #0D0D12",
"=  c #0E1016",
"-  c #131416",
";  c #1B1513",
":  c #13151A",
">  c #17181E",
",  c #1B1B1C",
"<  c #1E1717",
"1  c #0F150F",
"2  c #220C06",
"3  c #290E07",
"4  c #330D06",
"5  c #24140C",
"6  c #2C1209",
"7  c #2C150A",
"8  c #34140A",
"9  c #3C150B",
"0  c #36160A",
"q  c #241E1D",
"w  c #2C1D1A",
"e  c #291713",
"r  c #341A14",
"t  c #2C221C",
"y  c #37251D",
"u  c #171A21",
"i  c #1B1C24",
"p  c #1C1F28",
"a  c #1E222C",
"s  c #1F2020",
"d  c #232223",
"f  c #21242D",
"g  c #2A2A2A",
"h  c #2C2724",
"j  c #382824",
"k  c #3D342F",
"l  c #232532",
"z  c #262936",
"x  c #2A2E3C",
"c  c #272B3A",
"v  c #2C313F",
"b  c #353535",
"n  c #3C3C3C",
"m  c #3D3431",
"M  c #342F3A",
"N  c #440F0C",
"B  c #44140A",
"V  c #4C1A0D",
"C  c #49170C",
"Z  c #521A0C",
"A  c #5C1B0D",
"S  c #51160B",
"D  c #4B1816",
"F  c #581814",
"G  c #651C0D",
"H  c #691613",
"J  c #711810",
"K  c #4A231A",
"L  c #572618",
"P  c #59230D",
"I  c #66230D",
"U  c #692616",
"Y  c #7B2512",
"T  c #762A1A",
"R  c #78210F",
"E  c #5B1D20",
"W  c #43322B",
"Q  c #57362B",
"!  c #433D3B",
"~  c #4A3A35",
"^  c #543B31",
"/  c #5C3D31",
"(  c #442F2E",
")  c #663627",
"_  c #793726",
"`  c #6A2C2E",
"'  c #54423B",
"]  c #5C453B",
"[  c #46413F",
"{  c #66473A",
"}  c #704D3E",
"|  c #2E3343",
" . c #313544",
".. c #353947",
"X. c #393F53",
"o. c #3D4257",
"O. c #3E414B",
"+. c #444343",
"@. c #4B4C4C",
"#. c #4A4747",
"$. c #574B43",
"%. c #424759",
"&. c #525253",
"*. c #5C5B5C",
"=. c #595459",
"-. c #5D504F",
";. c #674C44",
":. c #69534B",
">. c #74564A",
",. c #6A5B52",
"<. c #675E5B",
"1. c #735C52",
"2. c #7C645A",
"3. c #67605C",
"4. c #444A63",
"5. c #4E5365",
"6. c #565C6D",
"7. c #5E6377",
"8. c #626263",
"9. c #6A6A6B",
"0. c #6B6765",
"q. c #756762",
"w. c #666B7B",
"e. c #747677",
"r. c #842513",
"t. c #8C2513",
"y. c #8A2B18",
"u. c #952C19",
"i. c #992C1A",
"p. c #942815",
"a. c #9A321D",
"s. c #94311F",
"d. c #8E331D",
"f. c #981E22",
"g. c #8A1C21",
"h. c #AC1E23",
"j. c #843623",
"k. c #993623",
"l. c #822E32",
"z. c #822B2D",
"x. c #A13E27",
"c. c #9B1218",
"v. c #C2141C",
"b. c #C61B23",
"n. c #CD262D",
"m. c #D12B33",
"M. c #924834",
"N. c #A1412C",
"B. c #A44935",
"V. c #A8543C",
"C. c #CB3C41",
"Z. c #925F49",
"A. c #A95942",
"S. c #B15B43",
"D. c #83655A",
"F. c #846558",
"G. c #91614A",
"H. c #B76D54",
"J. c #BA7559",
"K. c #AF684E",
"L. c #8B6D64",
"P. c #916D61",
"I. c #897469",
"U. c #937365",
"Y. c #957A6D",
"T. c #9A7A6C",
"R. c #967769",
"E. c #8F7F78",
"W. c #A67E6C",
"Q. c #DC444A",
"!. c #9A8478",
"~. c #A48475",
"^. c #AA8C7E",
"/. c #A78779",
"(. c #B78E7E",
"). c #C28568",
"_. c #C69173",
"`. c #777D86",
"'. c #6A728A",
"]. c #8A8B8A",
"[. c #929393",
"{. c #9A9A9A",
"}. c #918B88",
"|. c #A88E80",
" X c #AC9284",
".X c #A6938A",
"XX c #B39383",
"oX c #BE9C8B",
"OX c #BA9787",
"+X c #A89B94",
"@X c #B49788",
"#X c #BCA396",
"$X c #858BA0",
"%X c #9FA3A7",
"&X c #A3A3A3",
"*X c #ACABAA",
"=X c #B6B6B6",
"-X c #BBB9B9",
";X c #B0B0B0",
":X c #C19C8C",
">X c #C4A392",
",X c #C9A694",
"<X c #C5AC9B",
"1X c #D2B19E",
"2X c #CAA896",
"3X c #C7AEA1",
"4X c #D3B4A2",
"5X c #C9BDB6",
"6X c #D0B8A9",
"7X c #D7C5B9",
"8X c #E1CBBA",
"9X c #BDC0C3",
"0X c #D8CECA",
"qX c #CDD4DA",
"wX c #CECDCC",
"eX c #ECD6C4",
"rX c #E9D7C9",
"tX c #EADED5",
"yX c #E0CFC5",
"uX c #EFE3DA",
"iX c #F2E3D6",
"pX c #D1DBE0",
"aX c #EEEFED",
"sX c None",
"dX c black",
/* pixels */
"sXsXsXsXsXsXsXsXsXsXsXsXsXsXsXsXsXsXsXsXsXsXsXsXsXsXsXsXsXsXsXsXsXsXsXsXsXsXsXsXsXsXsXsXsXsXsXsXsX",
"sXsXsXsXsXsXsXsXsXsXsXsXsXsXsXsXsXsXsXsXsXsXsXsXp.i.a.i.sXsXsXsXsXsXsXsXsXsXsXsXsXsXsXsXsXsXsXsXsX",
"sXsXsXsXsXsXsXsXsXsXsXsXx.J._.S.V.N.I sXsXsXsXp.i.i.u.u.i.p.sXsXsXsXsXsXsXsXsXsXsXsXsXsXsXsXsXsXsX",
"sXsXsXsXsXsXsXsXsXsXsXT N.A.B.H.N.i.u.P V I t.u.i.U L L V L Z 4 sXsXsXsXsXsXsXsXsXsXsXsXsXsXsXsXsX",
"sXsXsXsXsXsXsXsX8 2 3 Q ) _ y.N.K.j.Y P 6 9 9 T i.a.k.M.} y 3 6 S sXsXsXsXsXsXsXsXsXsXsXsXsXsXsXsX",
"sXsXsXsXsXsXsXsX9 r.M.K.H.a.a.j.u.p.Y V 5 2 0 T i.i.k.N.)._.~.V 7 sXsXsXsXsXsXsXsXsXsXsXsXsXsXsXsX",
"sXsXsXsXsXsXsXsX8 t.N.H.).J.K.V.B.a.t.Y V I d.H.H.V.a.u.k.H.H.V.j.@   sXsXsXsXsXsXsXsXsXsXsXsXsXsX",
"sXsXsXsXsXsXsXsX6 Z p.k.j.T t.t.T y.y.r.C Z % 2 U T ) k.M.Z P I u.G   sXsXsXsXsXsXsXsXsXsXsXsXsXsX",
"sXsXsXsXsXsXsX2 I B C 9 9 B A R r.B % I V 3 2 D k.N.B.V.M.V B 0 C t.B % @ sXsXsXsXsXsXsXsXsXsXsXsX",
"sXsXsXsXsXsXsX% C p.p.y.Y 4 @ @ 3 r.0 & 6 + . 8 _ G.Z.Q Z r.u.u.U Z r.G G 4 sXsXsXsXsXsXsXsXsXsXsX",
"sXsXsXsXsXsXsXsX. S r.Y A G 8 Q / / ) } >.j + . + 4 C N I a.u.d.u.A.K.T 4 sXsXsXsXsXsXsXsXsXsXsXsX",
"sXsXsXsXsXsXsXsXsX% 2 D V r Q { { { F.OX>X:XF.y e e @ 0 G Z 0 u.k._ K K C sXsXsXsXsXsXsXsXsXsXsXsX",
"sXsXsXsXsXsXsXsXsX2 3 r Q ] { { ;.>./.T.2.2.P.~.>.' & . . . @ V P ) L P B 0 sXsXsXsXsXsXsXsXsXsXsX",
"sXsXsXsXsXsXsXsXsXsX2 ; & . < { T.P.] 2 + & # y ^.R.W +   . @ & e + .   + sXsXsXsXsXsXsXsXsXsXsXsX",
"sXsXsXsXsXsXsXsXsXsXsX# t y y >.:X/.P.^ t j ;.F.T.,XF.& . + ' #X!.@ @ Z 6 sXsXsXsXsXsXsXsXsXsXsXsX",
"sXsXsXsXsXsXsXsXsXsXsXw w k [ { XXXXP.e # +X3.} W.,X>Xt . W yX}.+X^ G R sXsXsXsXsXsXsXsXsXsXsXsXsX",
"sXsXsXsXsXsXsXsXsXsXsXX   n wXW >X:XF.$ ; wXwX~ W.4X:X;   ,.I.( F.:.R R 4 sXsXsXsXsXsXsXsXsXsXsXsX",
"sXsXsXsXsXsXsXsXsXsXsX1 g ].*X-.yX:XT./ ].0X+X2.XX4X Xo . 2.~ j F.Q t.r.2 sXsXsXsXsXsXsXsXsXsXsXsX",
"sXsXsXsXsXsXsXsXsXsXsXt I.!.$.}.rX:XOXT.D.T.|.>X1X6XOX/ ' Y.W ] F.e G Z sXsXsXsXsXsXsXsXsXsXsXsXsX",
"sXsXsXsXsXsXsXsXsXsXsX& Y.^.$.tX3X:X:X:X2X6XrXuXeX2X/.R.!.1.$.^.:.& @ 2 sXsXsXsXsXsXsXsXsXsXsXsXsX",
"sXsXsXsXsXsXsXsXsXsXsXsX2.|.$.q.Y.W.XX:X1X8XuXrX#XU.L.R.U.T.3X!.& 2 r sXsXsXsXsXsXsXsXsXsXsXsXsXsX",
"sXsXsXsXsXsXsXsXsXsXsXsX! /./.L.;.^ D.@X>X1X4XXXU.T.T.T.T.>.h o o = ; sXsXsXsXsXsXsXsXsXsXsXsXsXsX",
"sXsXsXsXsXsXsXsXsXsXsXsXsX2.@XT.L.F.W.>X|.L.@X:X(./.T.T.U.q # o o < sXsXsXsXsXsXsXsXsXsXsXsXsXsXsX",
"sXsXsXsXsXsXsXsXsXsXsXsXsXsXI.2.^ j j t ( 2.>X>XoXoXXXL.q O   : l | > X   sXsXsXsXsXsXsXsXsXsXsXsX",
"sXsXsXsXsXsXsXsXsXsXsXsXsXsX~ >X5X X X>X2X>X2X2X>X(.,.E ; %.: O x 4.'.'.i     o o sXsXsXsXsXsXsXsX",
"sXsXsXsXsXsXsXsXsXsXsXsXsXsXsXI.iX.XL.W.2X2X>XW.>.g H m.. c 7.X i f ..'.$Xf o v o.- sXsXsXsXsXsXsX",
"sXsXsXsXsXsXsXsXsXsXsXsXsXsXsXsX>.|.W.|.T.D.~ ! [.0.m.z.: - 7.X.X u i z %.'.s : l X.sXsXsXsXsXsXsX",
"sXsXsXsXsXsXsXsXsXsXsXsXsXsXsXsXdXu f w.=.c.f.=.wXD m.` i > z %.    X = f 4.w.- u a f sXsXsXsXsXsX",
"sXsXsXsXsXsXsXsXsXsXsXsXsXsXsXsX  p p [.L.v.Q.r *X` n.l.a a  .a         - v 5.%.: > i sXsXsXsXsXsX",
"sXsXsXsXsXsXsXsXsXsXsXsXsXsXsXsXc c ..=.;.H g.E ` D h.l.a z o.O           * l 7.f i p sXsXsXsXsXsX",
"sXsXsXsXsXsXsXsXsXsXsXsXsXsXsXsX4.| 6.= [ e D v.n.D f.D i i w.>   = l :     X x 5.u p X sXsXsXsXsX",
"sXsXsXsXsXsXsXsXsXsXsXsXsX0.<.; l f a : w.8.e F c.F F $ p >  .l   = X.c o     : O.u l * sXsXsXsXsX",
"sXsXsXsXsXsXsXsXsXsXsX< 7XuXiX!.f a > > e.&X8.D H N w w p : c : * X | | :     =  .a x * sXsXsXsXsX",
"sXsXsXsXsXsXsXsXsXsXsXk uX7X#XI.h > > - ].pX;X6.m ! 3.f : l | : : O u X.f     p ..d | sXsXsXsXsXsX",
"sXsXsXsXsXsXsXsXsXsXsX0.iXrX+X X,., = o `.pXqX%X9.0.9...O o.p : = O = 4.x = i p [ I.u sXsXsXsXsXsX",
"sXsXsXsXsXsXsXsXsXsXsX$.8XeX!.I.$.o   X e.aXaXaXwX;X9Xe.: 4.p = O X X = g ~ ,.Y. X<X3.sXsXsXsXsXsX",
"sXsXsXsXsXsXsXsXdXdXdXdX8XeX7X^.$.# - O 9.wX7X=X[.e.8.=.d  .> > - o o !  X#X5X7X7X7X0.sXsXsXsXsXsX",
"sXsXsXsXsXsXsXsXdXdXdXdX3XeX7X^.;.< u : =.) K D j #.H Y T * - i i i > d 5XrXiXiXtX7Xg sXsXsXsXsXsX",
"sXsXsXsXsXsXsXsXdXdXdXdXdX#X@X!.t . * : M n t b j e.j e ; o c c x f p i =XyXyX5X+X[ - sXsXsXsXsXsX",
"sXsXsXsXsXsXsXsXdXdXdXdXdXdXdXdXsXsX  : O ..].&X{.{.*.+.+.* >  .4.%.| z i ! ! s t &.- sXsXsXsXsXsX",
"dXdXdXdXdXdXdXdXdXdXdXdXdXdXdXdXdXdXdXsXs [.&X{.[.9.&.@.d     o s v x f b @.@.d g e.1 sXsXsXsXsXsX",
"dXdXdXdXdXdXdXdXdXdXdXdXdXdXdXdXdXdXdXg *.{.&X&X9.+.b , X o O o O - n &.&.&.8.n : @.X dXsXsXsXsXsX",
"dXdXdXdXdXdXdXdXdXdXdXdXdXdXdXdXdXdXdXb 8.[.=X&X*.&.g - t =   o 1 - d g b #.*., X d   dXsXsXsXsXsX",
"dXdXdXdXdXdXdXdXdXdXdXdXdXdXdXdXdXdXdX..0.[.=X].&.n d , o sXsXsX  o - - , , g     O   dXsXsXsXsXsX",
"dXdXdXdXdXdXdXdXdXdXdXdXdXdXdXdXsXsXX !.[.&X=X{.0., +.O sXsXsXsXdXdXdXo X o X         sXsXsXsXsXsX",
"dXdXdXdXdXdXdXdXdXdXdXdXdXdXdXdXsX, X 9.=X&X-X&X*.b d dXsXsXsXsXdXdXsXsXsXsXsXsX      sXsXsXsXsXsX",
"dXdXdXdXdXdXdXdXdXdXdXdXdXdXdXdXO {.8.d b @.@.#.h X   sXsXsXsXsXsXsXsXsXsXsXsXsXsXsXsXsXsXsXsXsXsX",
"dXdXdXdXdXdXdXdXdXdXdXdXdXdXdXdX  g 8.b - X         sXsXsXsXsXsXsXsXsXsXsXsXsXsXsXsXsXsXsXsXsXsXsX",
"dXdXdXdXdXdXdXdXdXdXdXdXdXdXdXdXdX                sXsXsXsXsXsXsXsXsXsXsXsXsXsXsXsXsXsXsXsXsXsXsXsX"
};
