/* XPM */
static char *bWFuNw__[] = {
/* columns rows colors chars-per-pixel */
"49 49 217 2 ",
"   c #030303",
".  c #0B0503",
"X  c #0B0A0B",
"o  c #080709",
"O  c #120906",
"+  c #1B0A05",
"@  c #130B0A",
"#  c #190D0A",
"$  c #130503",
"%  c #1D120B",
"&  c #0D0E11",
"*  c #121215",
"=  c #14151A",
"-  c #1A1A1C",
";  c #1B1516",
":  c #0F1111",
">  c #230D06",
",  c #2A0C06",
"<  c #260E0A",
"1  c #340E08",
"2  c #2C130B",
"3  c #25120B",
"4  c #33130A",
"5  c #3C150B",
"6  c #241D1D",
"7  c #281A17",
"8  c #381815",
"9  c #330E12",
"0  c #2A211C",
"q  c #37231C",
"w  c #1A1C23",
"e  c #161821",
"r  c #281F29",
"t  c #1E2229",
"y  c #222224",
"u  c #22252D",
"i  c #2B2A2B",
"p  c #2B2625",
"a  c #392B26",
"s  c #39302C",
"d  c #262933",
"f  c #292E3A",
"g  c #272A33",
"h  c #332F33",
"j  c #2D313E",
"k  c #3C3C3C",
"l  c #343437",
"z  c #42140B",
"x  c #4C180B",
"c  c #5B1A0D",
"v  c #55170D",
"b  c #441B16",
"n  c #571715",
"m  c #681C0E",
"M  c #671C12",
"N  c #751B12",
"B  c #711E0E",
"V  c #5A2415",
"C  c #6B220E",
"Z  c #6A2416",
"A  c #742413",
"S  c #792718",
"D  c #74200F",
"F  c #7F1E22",
"G  c #4A2723",
"H  c #45322A",
"J  c #48352E",
"K  c #4C3C35",
"L  c #463A36",
"P  c #553B31",
"I  c #573327",
"U  c #643D32",
"Y  c #703329",
"T  c #54443E",
"R  c #5C473D",
"E  c #48413D",
"W  c #674639",
"Q  c #7E503E",
"!  c #2E3241",
"~  c #3A3E4C",
"^  c #343947",
"/  c #383E50",
"(  c #2B2D40",
")  c #433E42",
"_  c #3E414D",
"`  c #3D4254",
"'  c #434243",
"]  c #4B4B4B",
"[  c #46454A",
"{  c #554A47",
"}  c #5B504B",
"|  c #454A59",
" . c #525252",
".. c #595759",
"X. c #664D44",
"o. c #69524A",
"O. c #785446",
"+. c #675856",
"@. c #745E54",
"#. c #785F54",
"$. c #7A4F52",
"%. c #7C6459",
"&. c #4D5364",
"*. c #585A65",
"=. c #595F74",
"-. c #4A4F60",
";. c #5C6174",
":. c #5F616F",
">. c #656565",
",. c #6B6869",
"<. c #7B6D68",
"1. c #666A7B",
"2. c #7A7A7A",
"3. c #757576",
"4. c #747271",
"5. c #90151B",
"6. c #AB161E",
"7. c #842313",
"8. c #8D2615",
"9. c #8C2C1B",
"0. c #942716",
"q. c #992817",
"w. c #992C1A",
"e. c #962A17",
"r. c #9D321E",
"t. c #AB1B22",
"y. c #8A3724",
"u. c #9C3321",
"i. c #993926",
"p. c #8F2C31",
"a. c #A13C29",
"s. c #AC2D33",
"d. c #C93138",
"f. c #9B4B36",
"g. c #A74A34",
"h. c #AA543D",
"j. c #A4442F",
"k. c #8B4D52",
"l. c #AC5841",
"z. c #B15F47",
"x. c #826559",
"c. c #8B6B5E",
"v. c #846558",
"b. c #B2654C",
"n. c #BB7459",
"m. c #B26D54",
"M. c #826C62",
"N. c #8A6E62",
"B. c #916E61",
"V. c #8E7266",
"C. c #847269",
"Z. c #947366",
"A. c #94796D",
"S. c #9A7A6C",
"D. c #967669",
"F. c #957A74",
"G. c #867073",
"H. c #A57E6F",
"J. c #BE7C60",
"K. c #E25C62",
"L. c #E16065",
"P. c #C95157",
"I. c #9B8377",
"U. c #AB8C7D",
"Y. c #A78577",
"T. c #B28E7D",
"R. c #C38468",
"E. c #C88E70",
"W. c #646A80",
"Q. c #6D7286",
"!. c #7E7F81",
"~. c #737A91",
"^. c #7C829A",
"/. c #848484",
"(. c #8B8B8C",
"). c #958A85",
"_. c #84899A",
"`. c #939393",
"'. c #9B9B9A",
"]. c #979A9B",
"[. c #979093",
"{. c #A58B83",
"}. c #AE9181",
"|. c #BC9B8A",
" X c #B79585",
".X c #AE978D",
"XX c #868BA0",
"oX c #9FA6AB",
"OX c #A9A7A8",
"+X c #B8B8B8",
"@X c #AEB4B6",
"#X c #C19C8C",
"$X c #C4A593",
"%X c #C9A998",
"&X c #D3AF9D",
"*X c #C9A997",
"=X c #C3ACA0",
"-X c #CAB2A4",
";X c #D6B8A6",
":X c #D3BDB1",
">X c #DFC6B5",
",X c #DDC1AF",
"<X c #E6CEBA",
"1X c #C8C8C8",
"2X c #D5CDC9",
"3X c #C9D5DB",
"4X c #D5D5D5",
"5X c #D6D1CF",
"6X c #E9D5C8",
"7X c #EBDED6",
"8X c #EEE4DD",
"9X c #D4DEE4",
"0X c #EFE9E5",
"qX c #FAF6F4",
"wX c #F1E8E1",
"eX c None",
"rX c black",
/* pixels */
"eXeXeXeXeXeXeXeXrXrXrXrXrXrXeXeXeXeXeXeXrXrXrXrXrXrXeXeXeXeXeXeXeXeXeXeXeXeXeXeXeXeXeXeXeXeXeXeXeX",
"eXeXeXeXeXeXeXeXrXrXrXrXrX1 B 8.8.c v eXrXrXrXA 8.e.q.B m eXeXeXeXeXeXeXeXeXeXeXeXeXeXeXeXeXeXeXeX",
"eXeXeXeXeXeXeXeXrXrXrXrXz 0.g.h.j.u.q.A x C C 9.e.e.e.q.0.S eXeXeXeXeXeXeXeXeXeXeXeXeXeXeXeXeXeXeX",
"eXeXeXeXeXeXeXeXrXrXrXN u.J.R.n.z.h.e.c 2 5 5 Z w.e.r.a.g.Y V 5 eXeXeXeXeXeXeXeXeXeXeXeXeXeXeXeXeX",
"eXeXeXeXeXeXeXeXeXeXe.q.f.f.e.e.q.q.w.4 % > 5 A e.e.r.j.T.E.b.C eXeXeXeXeXeXeXeXeXeXeXeXeXeXeXeXeX",
"eXeXeXeXeXeXeXeXeXq.m 4 y.h.a.w.u.r.e.4 % Z b.b.g.r.e.8.e.J.n.q.y.eXeXeXeXeXeXeXeXeXeXeXeXeXeXeXeX",
"eXeXeXeXeXeXeXeX7.c q m.E.E.R.z.h.y.Z V + V f.n.R.n.b.i.c V k.h.w.D eXeXeXeXeXeXeXeXeXeXeXeXeXeXeX",
"eXeXeXeXeXeXeXeXC 4 i.g.R.m.y.Z A S Z O > > > 4 D r.j.r.S 5 . Q S 8.c eXeXeXeXeXeXeXeXeXeXeXeXeXeX",
"eXeXeXeXeXeXeXeX7.0.w.m.g.Z + 1 + + + . 2 O , z O W z.j.e.m + , x z C eXeXeXeXeXeXeXeXeXeXeXeXeXeX",
"eXeXeXeXeXeXeX4 z A c 9 b v x 7 J U Y Q B.O.H $ x z Q R.n.b.h.7.C 7.e.9.eXeXeXeXeXeXeXeXeXeXeXeXeX",
"eXeXeXeXeXeXeXeX8.z > n 9.9.H W W W v.|.%X*XY.P 5 S c r.i.i.9.0.q.h.h.w.eXeXeXeXeXeXeXeXeXeXeXeXeX",
"eXeXeXeXeXeXeXeX4 z < 5 5 W W X.O.O.Y.D.%.#.D.T.v.P 2 , 2 + $ x m f.J.n.I eXeXeXeXeXeXeXeXeXeXeXeX",
"eXeXeXeXeXeXeXeX. . # < # . % W D.Z.W # @ # # p |.D.H O .   . % 7 > , 4 c 1 eXeXeXeXeXeXeXeXeXeXeX",
"eXeXeXeXeXeXeXeXrXx @ @ 0 q a o.|.Y.c.P 8 a X.x.U.*Xx.O . + { %XI.% . . 2 , eXeXeXeXeXeXeXeXeXeXeX",
"eXeXeXeXeXeXeXeXrXrXrX7 7 E T X. X XB.7 O '.<.o.H.$X#X7 . s >X)..XK + 4 eXeXeXeXeXeXeXeXeXeXeXeXeX",
"eXeXeXeXeXeXeXeXrXrXrXo   ,.2XL #X|.B.% : 1X2XR H.&X$X% . <.C.s x.X.C c eXeXeXeXeXeXeXeXeXeXeXeXeX",
"rXrXrXrXrXrXrXrXrXrXrX: i '.@XE 6X#XH.X.).5X.X%.T.&XT.. . S.a 0 c.U 7.7.z eXeXeXeXeXeXeXeXeXeXeXeX",
"rXrXrXrXrXrXrXrXrXrXrX0 N.I.R ).7X|. XS.v.D.{.$X;X;X}.K E I.a R D.8 m > eXeXeXeXeXeXeXeXeXeXeXeXeX",
"rXrXrXrXrXrXrXrXrXrXrX; A.U.} 8X&X#X#X#X#X-X,X6X6X%XY.D.I.o.R U.<.m A z eXeXeXeXeXeXeXeXeXeXeXeXeX",
"rXrXrXrXrXrXrXrXrXrXrXrX<.U.E %.F.H. X#X;X>X7X7X%XS.V.Z.B.V.=XI.% < + eXeXeXeXeXeXeXeXeXeXeXeXeXeX",
"rXrXrXrXrXrXrXrXrXrXrXrXL U.F.@.H J x. X$X&X&X|.Z.D.D.S.S.X.s X o o . eXeXeXeXeXeXeXeXeXeXeXeXeXeX",
"rXrXrXrXrXrXrXrXrXrXrXrXeXo.}.S.B.v.}.|.}.N.|.#X}.Y.S.S.c.- X l ;._ . eXeXeXeXeXeXeXeXeXeXeXeXeXeX",
"rXrXrXrXrXrXrXrXrXrXrXrXeXeXN.#.J q a 7 s #.$X$X#X|.U.x.6 o = W.1.^.=.* eXeXeXeXeXeXeXeXeXeXeXeXeX",
"rXrXrXrXrXrXrXrXrXrXrXrXeXeXL %X:X X}.|.$X$X$X$X$XT.o.i = f o j ~ | ^.1.; eXeXeXeXeXeXeXeXeXeXeXeX",
"rXrXrXrXrXrXrXrXrXrXrXrXrXrXrXI.0X{.x.H.$X%X$X}.v.} 3.*.e w [   w d / ~.1.o eXeXeXeXeXeXeXeXeXeXeX",
"rXrXrXrXrXrXrXrXrXrXrXrXrXrXrXrX<.[.F.}.{.B.R L 2.@X(...w   ~ e o w e f =.&.eXeXeXeXeXeXeXeXeXeXeX",
"rXrXrXrXrXrXrXrXrXrXrXrXrXrXrXrXrXg d !.o.6.p.(.qX+X2.h w : = |     o = u =.&.eXeXeXeXeXeXeXeXeXeX",
"rXrXrXrXrXrXrXrXrXrXrXrXrXrXrXrXo [ d +XF.d.K.L 4X[.*.) = e d !         = ! Q.eXeXeXeXeXeXeXeXeXeX",
"rXrXrXrXrXrXrXrXrXrXrXrXrXrXrXrXo ^ f >.F.F p.G h *._.1.9 r / o   o o     = | f t eXeXeXeXeXeXeXeX",
"rXrXrXrXrXrXrXrXrXrXrXrXrXrXrXrX( d -.t ] < 5.s.!.oX`.k.t.b &.  & d f     X | &.1.| eXeXeXeXeXeXeX",
"rXrXrXrXrXrXrXrXrXrXrXrXrXrXrXrXo g u p 3.{ n d.k.@.f.d.t.9 W.! & ( f     X ` | ~ Q.j eXeXeXeXeXeX",
"rXrXrXrXrXrXrXrXrXrXrXrXrXrX6 p e w e i XX@XF p.K.P.p.6.5.= / [ * d d o o = ` _.^ &.^ eXeXeXeXeXeX",
"rXrXrXrXrXrXrXrXrXrXrXrXrXs -X,Xs - = i @X3XF.n Y n M 6.9 = ` u * ^ -./ p / ` XX_ ` &.rXrXrXrXrXeX",
"rXrXrXrXrXrXrXrXrXrXrXrXrX} 6XA.a - * t ].3X3X$.9 n 5.G * t / = = [ :.*.1.Q.Q.^.` ` &.& rXrXrXrXeX",
"rXrXrXrXrXrXrXrXrXrXrXrXrXs <X<X$X+.X * 1.3X9X3XOXG.XX2.= j u * ' 2XF.+.+.{ ~ _.~ ^ | rXrXrXrXrXeX",
"rXrXrXrXrXrXrXrXrXrXrXrXrX0 -XU.I.o.0 X l  .,.I.[.!.<.) w ^ e * `.0X7X=X%X|.o.i o ^ _ rXrXrXrXrXeX",
"rXrXrXrXrXrXrXrXrXrXrXrXrXp -X<X=XV.s f X b A I ] U D 9.8 e : = ).=X8XwX,X;X{.h = ;.u rXrXrXrXrXeX",
"rXrXrXrXrXrXrXrXrXrXrXrXrXrX0 <.V.c.L ^ t o E { +.>.{ ) - @ d t ..8XqXqX6X;X}.p t j rXrXrXrXrXrXeX",
"rXrXrXrXrXrXrXrXrXrXrXrXrXrXrXrXeX; o = _ ` t >.[.].,.u = X t ^ g C.{. XA.%.L o X rXrXrXrXrXrXrXeX",
"rXrXrXrXrXrXrXrXrXrXrXrXrXrXrXrXeXeXeXeXeXt = ..].].!.3.l .   X g ^ ! t g [ :   rXrXrXrXrXrXrXrXeX",
"rXrXrXrXrXrXrXrXrXrXrXrXrXrXrXrXrXrXrXrXrXrXrX4.'.'.'.(.>.i . X X * l '  ./.>.  rXrXrXrXrXrXrXrXeX",
"rXrXrXrXrXrXrXrXrXrXrXrXrXrXrXrXrXrXrXrXrXrXrX2.'.`.'.(.'.OX] - X y ] ] ' y h   rXrXrXrXrXrXrXrXeX",
"rXrXrXrXrXrXrXrXrXrXrXrXrXrXrXrXrXrXrXrXrXrXrX] ] ..(.'.+X@X .o X : E l X  . .  rXrXrXrXrXrXrXrXeX",
"rXrXrXrXrXrXrXrXrXrXrXrXrXrXrXrXrXrXrXrXrXrXrXk k E 3.oXOX'.k o X X -   o k y   rXrXrXrXrXrXrXrXeX",
"rXrXrXrXrXrXrXrXrXrXrXrXrXrXrXrXrXrXrXrXrXrXrXu k ' ] !.1X].k eXrXrXo     i   eXrXrXrXrXrXrXrXrXeX",
"rXrXrXrXrXrXrXrXrXrXrXrXrXrXrXrXrXrXrXrXrXrXi u ' /.OX'.4X+X_ eXrXrX      * o eXrXrXrXrXrXrXrXrXeX",
"rXrXrXrXrXrXrXrXrXrXrXrXrXrXrXrXrXrXrXrXrX>.@XI.k - 2.1X4X4X' eXeXeXeX        rXrXrXrXrXrXrXrXrXeX",
"rXrXrXrXrXrXrXrXrXrXrXrXrXrXrXrXrXrXrXrXrX'  .>. .] . X 0 - * eXeXeXeXeX    eXrXrXrXrXrXrXrXrXrXeX",
"rXrXrXrXrXrXrXrXrXrXrXrXrXrXrXrXrXrXrXrXrXrX: * X           eXeXeXeXeXeXeXeXeXeXeXeXeXeXeXeXeXeXeX"
};
