/* XPM */
static char *f58d9afadd064bdea7ff555a5ae2134eDelETX4C8JAxK7hO[] = {
/* columns rows colors chars-per-pixel */
"50 50 186 2 ",
"   c None",
".  c #010100",
"X  c #090704",
"o  c #0C0A04",
"O  c #0F0E08",
"+  c #120E06",
"@  c #151106",
"#  c #1A1509",
"$  c #291F0B",
"%  c #201807",
"&  c #2D220B",
"*  c #31260C",
"=  c #35290D",
"-  c #3B2D0D",
";  c #2E2310",
":  c #3E2F10",
">  c #43330F",
",  c #49370F",
"<  c #483611",
"1  c #523E13",
"2  c #544013",
"3  c #5B4414",
"4  c #684F17",
"5  c #644B15",
"6  c #6D5113",
"7  c #6D5319",
"8  c #745515",
"9  c #7B5A15",
"0  c #7B5C19",
"q  c #7B611E",
"w  c #5D5A3D",
"e  c #535946",
"r  c #5C6557",
"t  c #805F17",
"y  c #815F19",
"u  c #846319",
"i  c #8A6519",
"p  c #8D691A",
"a  c #836117",
"s  c #936D1B",
"d  c #97701B",
"f  c #9B731C",
"g  c #A0771E",
"h  c #A4791D",
"j  c #A97D1F",
"k  c #997625",
"l  c #806C33",
"z  c #957737",
"x  c #A67C20",
"c  c #A97E20",
"v  c #8C7A4A",
"b  c #957D4E",
"n  c #8E7C54",
"m  c #AE801F",
"M  c #AE8121",
"N  c #A8832C",
"B  c #B48522",
"V  c #BC8B23",
"C  c #B88B28",
"Z  c #AD8836",
"A  c #B69734",
"S  c #C18E24",
"D  c #C49124",
"F  c #CB9625",
"G  c #CE9926",
"H  c #C5952A",
"J  c #CB9728",
"K  c #CE9A2A",
"L  c #D39B27",
"P  c #D59D29",
"I  c #D89F28",
"U  c #D9A227",
"Y  c #DBA229",
"T  c #D4A333",
"R  c #DBA530",
"E  c #E1A629",
"W  c #E5A92B",
"Q  c #EAAD2C",
"!  c #EEB22E",
"~  c #F5B52D",
"^  c #E5AC31",
"/  c #E2AF3A",
"(  c #EEBA3A",
")  c #E9B537",
"_  c #F9BD35",
"`  c #F4C33B",
"'  c #FECD39",
"]  c #F9C235",
"[  c #FFD73E",
"{  c #97804F",
"}  c #9B8B50",
"|  c #858159",
" . c #B2934F",
".. c #B0A24A",
"X. c #9A9263",
"o. c #A18F61",
"O. c #D7AA42",
"+. c #DAB147",
"@. c #E3B847",
"#. c #F3BE44",
"$. c #E7BE5A",
"%. c #DEBE62",
"&. c #EBC24A",
"*. c #F9C241",
"=. c #F5CC47",
"-. c #F7C746",
";. c #FAD749",
":. c #EBC759",
">. c #FAD451",
",. c #FBDD55",
"<. c #FEE65B",
"1. c #FEF354",
"2. c #FFE549",
"3. c #EBCA68",
"4. c #EFDC63",
"5. c #F5DA78",
"6. c #F4D663",
"7. c #FCE868",
"8. c #FFFB67",
"9. c #FFF36A",
"0. c #FFF767",
"q. c #FCEB78",
"w. c #FFFB73",
"e. c #FFFA7C",
"r. c #FAF17F",
"t. c #1164BB",
"y. c #0561C6",
"u. c #0462CC",
"i. c #0B6FDD",
"p. c #006FED",
"a. c #0071EE",
"s. c #0D77EB",
"d. c #0174F2",
"f. c #017CFE",
"g. c #107BF3",
"h. c #197CE5",
"j. c #3580BE",
"k. c #448AB7",
"l. c #6F98A8",
"z. c #3389D0",
"x. c #1782ED",
"c. c #0C82F3",
"v. c #0382FE",
"b. c #0689FF",
"n. c #098CFF",
"m. c #1987F5",
"M. c #0D94FF",
"N. c #1F97FD",
"B. c #228CED",
"V. c #289DFE",
"C. c #25A6FF",
"Z. c #27A3F4",
"A. c #2CB3FF",
"S. c #2FBAFF",
"D. c #32B5FF",
"F. c #34BCFF",
"G. c #39BEFF",
"H. c #3DBCF4",
"J. c #3DC3FF",
"K. c #44C1FF",
"L. c #4BD8FF",
"P. c #59DDFD",
"I. c #77F2FF",
"U. c #EAD180",
"Y. c #F4DD95",
"T. c #F9E783",
"R. c #FBE986",
"E. c #FFFC85",
"W. c #FFFF8D",
"Q. c #FDF58C",
"!. c #FFFF9E",
"~. c #FEF893",
"^. c #F5E196",
"/. c #FCEDAF",
"(. c #FFFFA3",
"). c #FFFEAD",
"_. c #F8F0AE",
"`. c #FFFEBB",
"'. c #FDF8B7",
"]. c #FBECB4",
"[. c #95FCFF",
"{. c #FDFAC9",
"}. c #FFFFD2",
"|. c #FAEDCA",
" X c #FEFBE8",
".X c #FFFEF3",
/* pixels */
"                                                                                                    ",
"                                    . . . . . . . . . . . . .                                       ",
"                                . . & 2 q u q 7 4 3 3 1 > * # X .                                   ",
"                              . * j ! _ ] ' [ [ ` Q W W E E L d & .                                 ",
"                            . = L ! W E E ~ ' 2.1.;.Q W W E Q E F > .                               ",
"                          . & F E U L G L Y W ] 1.8.,.Q E Q W W E F 1 .                             ",
"                        . # V Y L f 9 6 9 p G Y ` 8.E.>.Q W W E E E L = .                           ",
"                        . p Y D a 6 8 a a 9 q V Y =.E.~.` W W E E E E M o .                         ",
"                      . & G D a 8 i c B V V c d V ^ 7.(.q.! E E E E Y Y 1 .                         ",
"                      . d G p 9 s V K P P P L V f F ( W.).&.E Y Y Y Y E F o .                       ",
"                    . & L j a s S L P Y I P I L D V Y 7.`.R.W Y Y Y Y Y Y 4 .                       ",
"                    . f G s s m L L I Y P P P I U V G ` (.{.) Y Y U P U P B X .                     ",
"                  . + B B s h G L L P L L L L P U L V W R.}.:.Y Y P P P L D > .                     ",
"                  . - G f f D L L L L L L P L I P Y D P 6.`.^.Y P P P L L G 4 .                     ",
"                  . 3 D f m G L K L L F J L G J L P L F &.).].R J J G G K F d X .                   ",
"                  . x B h S G L F S S S V C C C J L I F W ~.'.O.J K F J F F V @ .                   ",
"                . . U M B D I  .k.h.h.c.c.c.Z.H.l.G P L U q.).+.F F F D D D S = .                   ",
"                . # U M V G L z.b.b.b.b.b.M.I.[.K.A P P L >.).3.H D D D D D V 4 .                   ",
"                . 3 L V F L ..v.v.v.v.v.v.b.L.P.N.} L P L ( !.3.D D D V V V V h .                   ",
"                . d T H K L o.f.f.f.f.f.v.b.S.J.m.b P P L W W.5.V V V V V V B M .                   ",
"                . V R T J P X.f.f.f.v.v.v.b.J.J.m.b L L L Y e.q.V V B B B B M M O                   ",
"                . D / / L L X.f.f.f.f.f.f.v.F.G.g.b L P U Y 0.R.V M B B B B M M # .                 ",
"                X S *.#.J L X.f.f.f.f.f.f.v.S.G.g.b U L L Y <.e.C M M M M M m j & .                 ",
"                o S >.>.L L X.f.f.f.f.f.f.b.S.G.g.n L L L Y ,.9.B M h j j m j j = .                 ",
"                O D <.,.L L X.f.f.f.f.f.f.v.S.G.g.b L L L Y ;.7.B j h j j h h f - .                 ",
"                + D w.9.L L X.f.f.f.f.f.f.v.S.D.g.b L L L Y =.<.M f f f f f f f : .                 ",
"                o D e.e.J L X.f.f.f.f.f.f.v.A.D.g.v F L P Y *.;.j f f f f f f d * .                 ",
"                X D Q.W.P L X.f.f.f.f.f.f.v.A.D.g.b L L L Y *.-.h d d d d d d s $ .                 ",
"                X V ~.!.T L X.f.f.f.f.f.f.v.D.D.g.v L L P Y _ ) f d s s s s s p # .                 ",
"                . V ^.`.+.J X.f.f.f.f.f.f.v.A.D.g.b L L L Y ( T p p p i i p p u O .                 ",
"                . x 5.}.$.L X.f.f.f.f.f.f.v.C.D.g.b L L L Y ) H p p i u u i u a X                   ",
"                . 4 3. XY.L  .f.f.f.f.f.f.f.C.C.s.b L L I Y ^ B i u a a a a a 9 .                   ",
"                . ; $..X/.K H i.d.a.a.d.d.d.V.V.m.Z P P P Y T h a 9 0 a 9 t t 5 .                   ",
"                . X @. X|.O.J | t.u.y.y.u.u.B.x.j.D L P P Y J d 9 9 9 9 9 9 9 * .                   ",
"                  . V |. X3.L D q e w w e e e r z G L G U P D u 9 9 9 9 9 9 9 @ .                   ",
"                  . 7 ^..XU.J F M f d f f d k f V L L P P J B 9 9 9 9 9 9 t 4 o .                   ",
"                  . : @..X'.T K D D V V V V V V L L G U J D x 9 9 9 9 9 9 9 , .                     ",
"                  . % D /.{.3.F G G G L F G G L L L L U F S p 9 9 9 9 9 9 8 = .                     ",
"                    . f &.{.(.T G G G L L L I L G G L L V B u 9 9 9 9 9 9 8 + .                     ",
"                    . > T T.(.4.G G G G L L L G F L U F B Z 0 9 9 9 9 9 9 2 .                       ",
"                      . B @.E.w./ G G G G U G G F P L B B k 9 9 9 9 9 9 9 @ .                       ",
"                      . - P =.8.<.( G G G F G G I P S B N t 9 9 9 9 9 9 > .                         ",
"                      . . p U -.;.;._ E F G U Y U L B x k 9 9 9 9 9 9 6 @ .                         ",
"                        . * B U ~ _ _ ~ ! Q Y Y F B x k y 9 9 9 9 9 9 - .                           ",
"                          . = V U E Q W E I I F j g k t 9 9 9 9 9 9 > .                             ",
"                          . . > j F L L I G S h f k t t 9 9 9 9 8 , X .                             ",
"                              . * i h j j h f s i t 9 9 9 9 9 4 * . .                               ",
"                                . X , 8 t t 9 6 6 6 6 4 4 5 = X .                                   ",
"                                  . . . X X X X . . X . . . . .                                     ",
"                                                                                                    "
};
