/* XPM */
static char *result[] = {
/* columns rows colors chars-per-pixel */
"50 50 197 2 ",
"   c #010100",
".  c #080703",
"X  c #0C0A04",
"o  c #120E05",
"O  c #161006",
"+  c #1C1506",
"@  c #1D1608",
"#  c #1F1808",
"$  c #221907",
"%  c #251D09",
"&  c #291E09",
"*  c #2B210A",
"=  c #34270B",
"-  c #3C2D0D",
";  c #37280B",
":  c #3B2F10",
">  c #43320F",
",  c #453412",
"<  c #4C3B13",
"1  c #523F13",
"2  c #533D0F",
"3  c #564113",
"4  c #5D4512",
"5  c #604711",
"6  c #644A12",
"7  c #6A4E14",
"8  c #634E1C",
"9  c #6E5114",
"0  c #69511A",
"q  c #67501B",
"w  c #735515",
"e  c #775815",
"r  c #7B5B16",
"t  c #7C5D1A",
"y  c #74591C",
"u  c #7C6323",
"i  c #75672A",
"p  c #7C6736",
"a  c #485558",
"s  c #65705F",
"d  c #62776C",
"f  c #815F17",
"g  c #815F19",
"h  c #826117",
"j  c #856319",
"k  c #8A6619",
"l  c #8E691A",
"z  c #936D1B",
"x  c #97701C",
"c  c #9C731C",
"v  c #A0771D",
"b  c #A57A1E",
"n  c #A97C1F",
"m  c #8D6C22",
"M  c #866828",
"N  c #906E23",
"B  c #937123",
"V  c #9B7726",
"C  c #9B7B32",
"Z  c #806E35",
"A  c #AB7E20",
"S  c #A37C24",
"D  c #AE8121",
"F  c #AB852F",
"G  c #B38523",
"H  c #B68925",
"J  c #BB8B25",
"K  c #B78C2B",
"L  c #BD902C",
"P  c #A78532",
"I  c #A6863B",
"U  c #B08D30",
"Y  c #C18E24",
"T  c #C59225",
"R  c #CA9624",
"E  c #CE9825",
"W  c #C3942B",
"Q  c #CD992A",
"!  c #D19B27",
"~  c #D79F29",
"^  c #C69B32",
"/  c #C79C35",
"(  c #DBA32B",
")  c #DBA227",
"_  c #D4A331",
"`  c #D9A838",
"'  c #CFA63A",
"]  c #E5AA2C",
"[  c #EAAD2B",
"{  c #E0A528",
"}  c #EFB12C",
"|  c #F3B32C",
" . c #FDBB2E",
".. c #F7B82D",
"X. c #E2AE38",
"o. c #E6B33B",
"O. c #F8BD35",
"+. c #FEC02F",
"@. c #FFC332",
"#. c #FFC93D",
"$. c #F3C339",
"%. c #BA9949",
"&. c #AF8E40",
"*. c #BCA351",
"=. c #C9A649",
"-. c #D9B647",
";. c #CAAB56",
":. c #D9BC52",
">. c #D3AB48",
",. c #E6B944",
"<. c #D8BC6B",
"1. c #FDCD45",
"2. c #F8C648",
"3. c #FAD14A",
"4. c #ECCE52",
"5. c #F9CE56",
"6. c #ECD659",
"7. c #FED853",
"8. c #E7C84E",
"9. c #FBE559",
"0. c #D9CA65",
"q. c #E8D76B",
"w. c #FADC67",
"e. c #E2C974",
"r. c #EEDB79",
"t. c #FFDD71",
"y. c #F7E56A",
"u. c #FFF769",
"i. c #FAE878",
"p. c #FEF975",
"a. c #EFE17D",
"s. c #0E5FBA",
"d. c #115EB6",
"f. c #1B5BA1",
"g. c #1262B0",
"h. c #336CAC",
"j. c #2C72BB",
"k. c #2D6EAF",
"l. c #257BC5",
"z. c #287AC0",
"x. c #006FEA",
"c. c #046FE3",
"v. c #0672E7",
"b. c #0070ED",
"n. c #0071F0",
"m. c #0378F5",
"M. c #097DF1",
"N. c #4896B8",
"B. c #59A6BE",
"V. c #3F9AC6",
"C. c #3E95C4",
"Z. c #2583D3",
"A. c #2782CC",
"S. c #0C85F9",
"D. c #0E87F8",
"F. c #128BFC",
"G. c #188FFA",
"H. c #1B95FE",
"J. c #1C9BFE",
"K. c #1490FC",
"L. c #2A9AFD",
"P. c #2694FC",
"I. c #258AED",
"U. c #1FA0FE",
"Y. c #21A2FF",
"T. c #29A1F0",
"R. c #2FB5FF",
"E. c #30B3FF",
"W. c #32BBFF",
"Q. c #33AFFB",
"!. c #419AC4",
"~. c #39C4FE",
"^. c #3DCAFF",
"/. c #46CCFF",
"(. c #45D2FF",
"). c #5EE7FF",
"_. c #EBDF8C",
"`. c #FCE885",
"'. c #FFFD84",
"]. c #FDF58B",
"[. c #FDF795",
"{. c #EEE299",
"}. c #EFDCA5",
"|. c #F8EDA4",
" X c #FFFCA9",
".X c #FEFBA7",
"XX c #FFFEB4",
"oX c #FFFDBE",
"OX c #EFE3A3",
"+X c #8DF8FE",
"@X c #F5ECCB",
"#X c #FEFDC3",
"$X c #FDFCDD",
"%X c #FEFDD7",
"&X c #FFFDE4",
"*X c #FFFEF2",
"=X c None",
/* pixels */
"=X=X=X=X=X=X=X=X=X=X=X=X=X=X=X=X=X=X=X=X=X=X=X=X=X=X=X=X=X=X=X=X=X=X=X=X=X=X=X=X=X=X=X=X=X=X=X=X=X=X",
"=X=X=X=X=X=X=X=X=X=X=X=X=X=X=X=X=X=X                          =X=X=X=X=X=X=X=X=X=X=X=X=X=X=X=X=X=X=X",
"=X=X=X=X=X=X=X=X=X=X=X=X=X=X=X    . o $ * ; < 4 y m y y < * + X     =X=X=X=X=X=X=X=X=X=X=X=X=X=X=X=X",
"=X=X=X=X=X=X=X=X=X=X=X=X=X    # w c T $.3.3.2.O.] ( _ E Q R T z 9 &     =X=X=X=X=X=X=X=X=X=X=X=X=X=X",
"=X=X=X=X=X=X=X=X=X=X=X    . k [ ..@.9.9.3.$.) T G G A A G G G H J G w X     =X=X=X=X=X=X=X=X=X=X=X=X",
"=X=X=X=X=X=X=X=X=X=X  . 4 [  .@.7.u.9.2._ H D n b v v S c b n n n G G A > .   =X=X=X=X=X=X=X=X=X=X=X",
"=X=X=X=X=X=X=X=X=X  + H O.+.#.i.p.9._ H n b z r w 7 7 7 g P P V b n n G A t X   =X=X=X=X=X=X=X=X=X=X",
"=X=X=X=X=X=X=X=X  $ T +.@.#.].'.9.L D c k 9 5 5 6 7 6 7 7 M C &.&.V b n n n g o   =X=X=X=X=X=X=X=X=X",
"=X=X=X=X=X=X=X  = Q +.+.1.[.[.4.H n z w 6 6 7 w w r r e r e w t M I &.S A b n w X   =X=X=X=X=X=X=X=X",
"=X=X=X=X=X=X  O T @.@.@.[.[.y.H n k 6 6 7 w r g f f k k k k k g f e C *.F b b b r .   =X=X=X=X=X=X=X",
"=X=X=X=X=X=X  z @.@.@.`.oXa.J A k 6 7 w r t j j l z z z z z x z z k r m %.F b b c >   =X=X=X=X=X=X=X",
"=X=X=X=X=X  y @.@.@.y.#X].^ A j 6 9 e r j k l z x c c c v v v v v c z l N %.v b b l @   =X=X=X=X=X=X",
"=X=X=X=X  % ] @. .1.XXXX:.n z 7 9 e f k l z z c c c v c v v v v v v v x l k f c n v f   =X=X=X=X=X=X",
"=X=X=X=X  l  .@. .t.#Xi.H v 7 7 e f k l z z c c v v c v v v v v v v c v c z j z b n x >   =X=X=X=X=X",
"=X=X=X  O .. . .@.#X X' n r 7 w r k k z c c x c x x c c c c z c v c v v c c z z c n b 7 .   =X=X=X=X",
"=X=X=X  t  . . .t.#Xr.H c 6 w r j l z z z l l l l l l l l l z z x x c v v c c c c n b z #   =X=X=X=X",
"=X=X=Xo {  . . .|..X-.n f 7 r h k z z Z N.!.!.!.!.!.!.V.!.V.C.C.N.d z V c v c c v A n v 3   =X=X=X=X",
"=X=X  3 | ....2..X[.W b 7 w r k l x z B.+X).W.W.W.W.R.R.R.E.E.R.E.T.s c v v v x b A n b h . =X=X=X=X",
"=X=X  x | | | 5. Xw.n z 7 e j k z x k Q.+X(.K.K.F.F.S.S.S.S.D.F.F.S.k.l c v v c v H J n z %   =X=X=X",
"=X=Xo A | | | w.[.:.n e 9 r k z x x i J.(.Y.m.n.n.n.n.n.n.n.n.x.x.x.d.u x v c c c J W A v 2   =X=X=X",
"=X  + ! } [ } i.'.^ v 7 w f l z c c i J.(.Y.m.n.n.n.n.n.n.n.n.n.b.x.d.0 l c v v c L / H S 6   =X=X=X",
"=X  * ] ] [ [ '.p.H x 7 r k z x c c u H.(.Y.m.m.n.n.n.x.n.n.n.n.b.x.s.8 h x v c c K ` ^ b 9 . =X=X=X",
"=X  = ] ] ] [ '.7.G l 7 r k z c v x u H.^.U.m.n.n.n.n.n.n.n.n.x.b.x.s.8 r l c c c L ,.` b g O   =X=X",
"=X  , { { ( [ p.4.A k w f k x v c c u H.^.U.m.b.n.n.n.n.n.n.x.x.b.b.s.8 w k c v c L 2.,.A g $   =X=X",
"=X  1 ) ) ( [ u.,.D k w r l c v c x i H.^.Y.m.n.n.n.n.x.n.n.n.x.b.x.s.8 e k z v c L 5.8.n l $   =X=X",
"=X  3 ~ ~ ~ ] y.o.A j w f z x v c c i H.^.J.n.n.n.n.n.n.n.x.n.x.b.x.d.8 w h z c c ^ y.6.G l $   =X=X",
"=X  < ! ! ! ( 7.X.A j w j z v v v c u H.~.J.m.n.n.n.n.x.x.n.x.n.b.x.d.8 w h z c c / p.q.n l $   =X=X",
"=X  - E E E ~ 3.o.n k w j z v v c c u H.~.J.n.n.x.n.x.n.n.x.n.x.x.x.d.8 w h l c c =.[.q.n k +   =X=X",
"=X  = T R R R 2.X.D z w k x v v c c i G.~.J.m.n.n.n.n.x.x.x.n.x.b.x.d.8 e h l c c :. Xe.n r O   =X=X",
"=X  $ Y Y Y T o.X.G x 7 h x v v c c i F.~.J.n.n.n.n.n.x.n.n.x.n.b.x.d.8 e j l x c 0.#X0.v 9 X =X=X=X",
"=X  + A Y Y Y ~ ` H b 7 g z v v v c u F.W.J.n.x.n.x.x.n.x.n.n.x.b.x.d.8 e h z x V _.%X>.v 6   =X=X=X",
"=X=XX j G G J T _ Y n t r z v v c c u F.W.J.n.n.n.x.n.x.n.x.x.n.b.x.g.7 e j l x P #X$XH x 3   =X=X=X",
"=X=X  w G G G J Q T n z w z c v v c M M.P.F.M.v.b.v.v.v.v.v.v.v.v.v.f.0 e k l x ;.&X}.A k &   =X=X=X",
"=X=X  > n D n G T W G b r j c v v c l h.P.P.L.L.L.L.L.L.L.L.P.L.L.I.a 9 e k l V |.*X=.v h . =X=X=X=X",
"=X=X  . x b b n H W G n l h x v v c c M h.Z.Z.A.l.l.l.z.j.j.j.j.h.a 0 w w h l %.%X@XF x 3   =X=X=X=X",
"=X=X=X  4 v v v n H G n c r z v S c c z f 9 5 6 4 5 5 5 5 4 5 5 6 9 9 w r r B {.*X<.v k +   =X=X=X=X",
"=X=X=X  o z x x c G G A n k f c v v v v x k f w w 9 9 9 w 9 9 9 w w e e e r *.&X@XK c 4 .   =X=X=X=X",
"=X=X=X=X  < z z z c G n n n f z c v v v v x k f t r r e r r r r r r r r r V [.&X;.b k ;   =X=X=X=X=X",
"=X=X=X=X  + r l l l b n n b v l z v v v v v x z k j h h h j j j j h h t P a.oXe.n z 6 . =X=X=X=X=X=X",
"=X=X=X=X=X  ; j j j z b b b n c l z c c v v v v x z z l l z z l z l k x q.&X{.H v h +   =X=X=X=X=X=X",
"=X=X=X=X=X    3 r r f z b b b b v x c x c v v v c c c x x c x x z z U i.#XOXH v j -   =X=X=X=X=X=X=X",
"=X=X=X=X=X=X  X 6 r r r z c v b n b v c x x c x c v c c c x c x S >.`.XXe.H b k 4 .   =X=X=X=X=X=X=X",
"=X=X=X=X=X=X=X  O 9 r r g c x v b n n n b b c v c c c x c c b / 5.`.[.>.A b l 6 .   =X=X=X=X=X=X=X=X",
"=X=X=X=X=X=X=X=X  O 6 r r j N z z v n b n A G A n D D H L X.6.y.y.:.K n c j 4 o   =X=X=X=X=X=X=X=X=X",
"=X=X=X=X=X=X=X=X=X  o 6 r r g V l l x b n n A H Y T E ) o.3.,.^ G n c x h 4 .   =X=X=X=X=X=X=X=X=X=X",
"=X=X=X=X=X=X=X=X=X=X    ; 9 r r N N k k c v b n n D G D A n A S c x k 9 -     =X=X=X=X=X=X=X=X=X=X=X",
"=X=X=X=X=X=X=X=X=X=X=X    O - w r g N m f f j z c v v v c c z k h e > O     =X=X=X=X=X=X=X=X=X=X=X=X",
"=X=X=X=X=X=X=X=X=X=X=X=X=X    . ; 6 9 t N l g f r r f r r r w 7 < O     =X=X=X=X=X=X=X=X=X=X=X=X=X=X",
"=X=X=X=X=X=X=X=X=X=X=X=X=X=X=X      o $ * - , , , , , > - = # .     =X=X=X=X=X=X=X=X=X=X=X=X=X=X=X=X",
"=X=X=X=X=X=X=X=X=X=X=X=X=X=X=X=X=X=X=X                .       =X=X=X=X=X=X=X=X=X=X=X=X=X=X=X=X=X=X=X"
};
