/* XPM */
static char *a4a75e2e8d764896fc973b42770a9577Bs3wu6pP8c6d4ir0[] = {
/* columns rows colors chars-per-pixel */
"50 50 218 2 ",
"   c None",
".  c #010101",
"X  c #0D0B05",
"o  c #0B0905",
"O  c #100E08",
"+  c #1A1406",
"@  c #1B150A",
"#  c #1A150A",
"$  c #231B0A",
"%  c #221A07",
"&  c #32260D",
"*  c #36290C",
"=  c #3F310E",
"-  c #2F2911",
";  c #363428",
":  c #41310E",
">  c #4C3A13",
",  c #513E13",
"<  c #413827",
"1  c #5B4716",
"2  c #644A13",
"3  c #694E13",
"4  c #6D5116",
"5  c #735615",
"6  c #7A5A16",
"7  c #7B5D1A",
"8  c #755818",
"9  c #7F611E",
"0  c #544E2E",
"q  c #62523F",
"w  c #5A6334",
"e  c #6A6F38",
"r  c #5F5C45",
"t  c #6E6951",
"y  c #815F17",
"u  c #84621A",
"i  c #8D6A1D",
"p  c #8A6719",
"a  c #936D1C",
"s  c #9A721D",
"d  c #97701C",
"f  c #A3791F",
"g  c #A57A1F",
"h  c #8B6B22",
"j  c #886721",
"k  c #916F21",
"l  c #967324",
"z  c #9D7928",
"x  c #927934",
"c  c #887A37",
"v  c #A57C23",
"b  c #A67D25",
"n  c #82745F",
"m  c #807C64",
"M  c #9F8334",
"N  c #AD8224",
"B  c #AC8429",
"V  c #B18524",
"C  c #B68926",
"Z  c #BB8B25",
"A  c #B4892B",
"S  c #BA8D29",
"D  c #B08729",
"F  c #BE922D",
"G  c #B58C30",
"H  c #B98F32",
"J  c #BC9334",
"K  c #B8963A",
"L  c #A88A33",
"P  c #C4942C",
"I  c #CB9A2D",
"U  c #C69428",
"Y  c #D39F2C",
"T  c #C49936",
"R  c #CC9D32",
"E  c #CA9E3A",
"W  c #C29836",
"Q  c #D09E31",
"!  c #D7A22D",
"~  c #D4A334",
"^  c #DEAA34",
"/  c #D2A43C",
"(  c #DDAE3C",
")  c #D7A837",
"_  c #CFA23B",
"`  c #E2AC34",
"'  c #E3B13C",
"]  c #EAB53D",
"[  c #EBB739",
"{  c #BC9C48",
"}  c #B8A756",
"|  c #BFA04F",
" . c #868167",
".. c #A8A676",
"X. c #C39E46",
"o. c #C7A44B",
"O. c #D5A943",
"+. c #DDB243",
"@. c #D6BE48",
"#. c #C5A451",
"$. c #CCAA53",
"%. c #DCB555",
"&. c #E5B445",
"*. c #EDBB43",
"=. c #EABA47",
"-. c #F2BD44",
";. c #F2BF49",
":. c #CFBF69",
">. c #EEC146",
",. c #F4C246",
"<. c #FAC447",
"1. c #F5C34A",
"2. c #FBC64A",
"3. c #F4CB4C",
"4. c #FECB4C",
"5. c #F8CA47",
"6. c #FED14E",
"7. c #F2D14F",
"8. c #EDC654",
"9. c #F3CA56",
"0. c #FECC51",
"q. c #F5CB5B",
"w. c #F7CB5A",
"e. c #F6D251",
"r. c #FED453",
"t. c #FEDA56",
"y. c #FDD659",
"u. c #FEDC59",
"i. c #F5D854",
"p. c #FEE35B",
"a. c #FFEB5E",
"s. c #FCE359",
"d. c #FCDA67",
"f. c #F2D475",
"g. c #FFEC62",
"h. c #FFE869",
"j. c #FFF26B",
"k. c #FDF465",
"l. c #FDE97D",
"z. c #FFF274",
"x. c #FFFC74",
"c. c #FFF67B",
"v. c #FFFB7C",
"b. c #29659A",
"n. c #27639A",
"m. c #316795",
"M. c #337CBF",
"N. c #3D7EBD",
"B. c #3A6CA0",
"V. c #54748F",
"C. c #0E73DB",
"Z. c #337CC0",
"A. c #016EE6",
"S. c #0877EC",
"D. c #758580",
"F. c #1B8CEB",
"G. c #1787E9",
"H. c #128DFB",
"J. c #158DF6",
"K. c #1592FD",
"L. c #1892FF",
"P. c #1C9CFB",
"I. c #0D87F9",
"U. c #208EF0",
"Y. c #2394F7",
"T. c #26ACFF",
"R. c #29ADFF",
"E. c #23A5FF",
"W. c #2CB5FF",
"Q. c #2FBAFF",
"!. c #31B6FC",
"~. c #33BCFE",
"^. c #3BBEFB",
"/. c #34ABF1",
"(. c #44B5E9",
"). c #35C1FE",
"_. c #39C5FE",
"`. c #3BCAFF",
"'. c #40CFFF",
"]. c #46D4FF",
"[. c #4CDAFF",
"{. c #4AD7FF",
"}. c #57C4E2",
"|. c #55E7FF",
" X c #7EF8FF",
".X c #9FA584",
"XX c #A6AA85",
"oX c #A2A683",
"OX c #AEB383",
"+X c #87A0A1",
"@X c #B8B7A8",
"#X c #C1B981",
"$X c #FCD98A",
"%X c #FFF484",
"&X c #FFF987",
"*X c #FEFC93",
"=X c #FFFC9C",
"-X c #FCF496",
";X c #FBE688",
":X c #C7C5A8",
">X c #F9DFA8",
",X c #FCE9A1",
"<X c #FEFDA3",
"1X c #FFFDAD",
"2X c #FFFEB4",
"3X c #FEFDBD",
"4X c #FBF6BC",
"5X c #DAD991",
"6X c #83FAFE",
"7X c #8DFBFF",
"8X c #9CFEFF",
"9X c #FFFEC4",
"0X c #FEFBC9",
"qX c #FDFCDB",
"wX c #FEFDD3",
"eX c #F4EBCA",
"rX c #FCFBE6",
"tX c #FEFEF3",
/* pixels */
"                                                                                                    ",
"                                                                                                    ",
"                                            . . . . . . .                                           ",
"                                    . . . . # < q e w 0 $ o . . . .                                 ",
"                              . . O ; t :XqXrXqXwX9X2X1X1X*Xf.c = $ . .                             ",
"                          . . o t :XrXrXwX1X*X&X%Xc.c.x.v.v.x.x.a.@.M - . .                         ",
"                        . O t eXtXrX2Xv.k.p.u.7.e.e.e.e.t.p.s.k.k.k.t.5.l @ .                       ",
"                    . . 0 @XtXqX1Xc.p.9.+.O.o.o.o.{ { o.$.O.+.>.t.s.a.s.6.I 4 . .                   ",
"                  . . r rXtX<Xj.u.;.J K | | #.#.#.#.$.$.$.#.| #.X.&.7.s.p.6.[ i X .                 ",
"                . O  .rXwX%Xp.&.B 8 7 M { E O.( &.&.&.&.&.+.O.{ z j B ' r.u.6.[ f % .               ",
"              . . n rXwXz.t.T 8 1 7 L / &.1.4.r.r.t.t.t.y.r.9.1.O.B u u P 6.t.7.` v + .             ",
"              . t qX9Xj.3.B 3 8 z _ ;.w.r.t.u.s.u.u.t.u.t.u.t.u.r.0.O.b u D >.t.6.^ a O .           ",
"            . w 3X9Xj.3.l 3 j J =.0.r.u.s.u.u.u.u.u.u.t.u.t.t.r.t.t.r.2.P a v ,.6.5.! u .           ",
"          . # 5X9Xz.e.b 3 j E =.r.u.u.u.u.u.u.t.t.u.t.t.y.t.t.t.t.r.r.r.r._ d D 5.r.[ Z : .         ",
"          . :.2X&Xs.B 2 h _ 1.y.u.u.u.u.u.u.y.y.t.u.t.t.t.r.r.r.r.r.r.r.r.0.( s C 6.t.` b X .       ",
"        . 0 -X*Xg.( 5 7 E 1.y.p.s.u.y.u.y.y.r.r.r.r.r.r.r.r.r.r.r.r.r.r.r.r.6.~ f ) r.,.U 5 .       ",
"        X } <Xz.e.i 4 J ;.t.u.u.t.y.r.w.9.9.9.8.8.8.e.8.9.8.8.8.3.0.r.r.r.r.6.2.F V 3.6.! v $ .     ",
"      . - &X*Xs.T 2 z &.r.u.u.u.y.#X}.^.^.^.^.^.^.~.!.!.!.!.!.W./.+X8.4.6.6.6.0.1.V ~ r.,.Z , .     ",
"      . M &Xx.3.u 8 _ 0.u.u.u.y.:.(.8X8X7X7X7X6X6X6X6X6X X X6X X[.J.D.1.6.6.6.6.0.~ C 5.6.Q p o     ",
"      . s.&Xg./ 3 z *.r.u.u.u.y.OXY.|.[.[.[.[.].].].].].].].].'.E.A.B.+.4.r.6.6.0.*.C ' 6.[ V + .   ",
"    . = k.x.s.A 3 E 9.u.u.t.r.r.OXK.`.`.`._.).).).).~.~.!.~.Q.W.K.A.b.E 2.6.6.6.6.2.I R r.,.C , .   ",
"    . h k.j.e.a u &.t.t.u.u.r.r.XXK.`._._.).).).).~.~.~.~.!.W.W.K.A.b.J 1.6.4.4.0.4.` U 4.1.P p .   ",
"    . K k.g.3.8 z 1.t.u.u.r.y.r.XXK.`._.).).).~.~.~.~.Q.W.Q.W.W.K.A.b.G 1.0.6.6.6.4.*.I 3.4.I d .   ",
"    . K g.p.*.5 J 4.t.t.t.r.r.r.XXK.`._.).~.~.~.~.~.Q.Q.W.W.W.W.K.A.b.H 1.4.4.6.4.4.2.~ 7.5.R s O . ",
"    o K a.s.[ 5 E 0.t.t.t.r.r.r.oXK.`.).~.~.~.~.Q.W.W.Q.W.W.W.T.K.A.b.J 1.4.4.6.4.4.2.` 7.4.~ s % . ",
"    X J s.s.' 6 _ r.r.t.r.r.r.r.XXH.`._.~.~.~.!.W.Q.W.W.W.W.W.T.L.A.b.J ;.4.4.4.4.4.2.[ 7.6.~ d $ . ",
"    X J s.s.' 6 O.r.t.t.r.r.y.0.XXH.`.~.Q.Q.W.W.W.W.W.W.W.R.T.T.L.A.b.G ;.4.4.4.4.2.1.,.i.6.~ a % . ",
"    o D 5.s.[ 6 / r.r.r.r.r.r.0.oXJ._.~.Q.W.W.W.W.W.W.R.R.R.T.T.H.A.b.G ;.2.4.4.4.2.1.5.i.6.R a @ . ",
"    . b <.s.5.p T r.r.r.r.r.r.0.oXH._.~.W.W.W.W.W.R.R.R.R.T.T.T.H.A.n.G *.4.2.4.4.2.1.5.u.4.U p X   ",
"    . a [ t.6.d B 4.r.r.r.r.r.0..XH.).Q.W.W.W.W.R.R.R.T.R.T.T.T.H.A.b.G *.2.4.4.2.2.t.4.s.1.S u .   ",
"    . 1 ` 7.e.S s 4.r.r.r.r.0.0.oXH.).Q.W.W.R.R.R.R.T.R.T.T.E.E.H.A.b.J ;.2.4.2.2.2.a.5.u.-.v 4 .   ",
"    . + ! 5.t.) a +.r.r.r.4.6.4.oXH.).W.R.R.R.R.R.T.T.T.T.T.T.E.H.A.b.J ;.2.2.2.2.3.g.p.t.' s & .   ",
"      . Z [ t.>.s F 4.r.r.6.6.0...S.P.L.L.L.K.K.L.L.L.L.L.L.K.L.I.C.m.G -.2.2.2.2.y.u.z.2.P p X .   ",
"      . , ! 4.r.S N ;.0.4.6.6.0.%.N.Y.Y.U.U.G.G.F.F.F.F.F.F.U.U.Y.C.r J -.2.4.<.;.h.j.g.-.v 2 .     ",
"      . + Z [ 6.3.f ~ 4.4.r.4.6.0.X.V.Z.G.N.M.M.M.M.M.M.M.M.Z.Z.B.q k T -.2.1.2.d.c.c.6.Q p & .     ",
"        . 6 I <.7.) N *.4.4.r.4.0.>.E b g a a p k i i a h j j i k l G / ;.<.2.w.-Xc.d.[ v 5 X .     ",
"        . @ Z ^ 6.4.C P 1.4.6.4.6.4.<.( / T T T T T T T J T T P J R ) =.;.<.1.;Xx.%X4.I a * .       ",
"          . 1 U *.r.>.Z R 1.0.4.4.4.4.4.1.;.*.-.-.*.-.*.=.*.*.] =.*.*.;.;.1.;X*X*Xr.] s 2 . .       ",
"          . o u U ,.r.>.U Q 1.2.4.4.4.4.2.4.4.4.4.2.4.2.2.2.2.2.<.<.<.1.1.,X*X*Xy.*.v 6 + .         ",
"            . $ g I ,.r.*.U ~ ,.2.2.4.4.2.4.2.4.2.4.2.4.2.2.2.2.<.,.1.q.,X<X=Xd.;.S p : .           ",
"              . & N U ,.r.3.~ ! ] 1.4.4.2.4.2.2.2.2.2.1.2.2.<.2.;.;.$X1X=X-Xu.-.C p : .             ",
"                . & f P -.4.t.*.) [ <.2.1.<.2.2.<.2.2.2.<.;.1.w.f.4X1X<X-X0.*.V y > . .             ",
"                  . & s S ` 5.r.t.7.r.g.c.l.d.q.2.1.2.q.f.>XeX4X9X2X&Xd.<.) f y : o .               ",
"                    . + 7 g U *.4.r.g.x.v.v.*X<X2X3X0XwX9X9X2X3X-Xu.4.] U p 5 & . .                 ",
"                      . X > d g P ] 1.6.t.h.j.z.%X&X&X%X%X;Xd.r.2.] F s u 1 + .                     ",
"                        . . + 7 a v C ~ ] -.2.2.4.4.4.2.1.,.[ ~ V a 7 8 $ . .                       ",
"                            . . $ > 9 b B C S W P P P J A B z z j , & . .                           ",
"                                . . o + > x { #.$.o.o.#.{ M 1 # X . .                               ",
"                                      . . . . . X O O o . . . . .                                   ",
"                                                                                                    "
};
