/* XPM */
static char *result[] = {
/* columns rows colors chars-per-pixel */
"50 50 176 2 ",
"   c #010100",
".  c #090703",
"X  c #0C0A04",
"o  c #100C04",
"O  c #141006",
"+  c #1B1506",
"@  c #1B150A",
"#  c #161208",
"$  c #221907",
"%  c #251D09",
"&  c #291F0C",
"*  c #2C220B",
"=  c #31260D",
"-  c #34290D",
";  c #3B2C0D",
":  c #262513",
">  c #3D2F12",
",  c #43330D",
"<  c #4A370F",
"1  c #523D0F",
"2  c #493712",
"3  c #523D10",
"4  c #403A20",
"5  c #5C4412",
"6  c #584619",
"7  c #5C4A19",
"8  c #564317",
"9  c #614711",
"0  c #644A12",
"q  c #6A4E13",
"w  c #664E1B",
"e  c #694F18",
"r  c #6E5114",
"t  c #6B521B",
"y  c #725414",
"u  c #775815",
"i  c #7B5A15",
"p  c #7D5D18",
"a  c #4D472B",
"s  c #4F492A",
"d  c #4F4824",
"f  c #504422",
"g  c #5F4E22",
"h  c #544927",
"j  c #4E4334",
"k  c #4A4739",
"l  c #5F5634",
"z  c #68572B",
"x  c #605735",
"c  c #7D7328",
"v  c #797239",
"b  c #3A596F",
"n  c #5A5440",
"m  c #805E17",
"M  c #805F1A",
"N  c #836117",
"B  c #856319",
"V  c #896519",
"C  c #8E6A1B",
"Z  c #946D1B",
"A  c #97711D",
"S  c #9C741C",
"D  c #A57A1E",
"F  c #AA7E1F",
"G  c #A2771E",
"H  c #8C6B22",
"J  c #926F25",
"K  c #947226",
"L  c #997627",
"P  c #967C36",
"I  c #AA7E20",
"U  c #A37A21",
"Y  c #AD8121",
"T  c #B38522",
"R  c #BB8A24",
"E  c #B78824",
"W  c #C18E24",
"Q  c #C79427",
"!  c #C99527",
"~  c #C1932B",
"^  c #CC992B",
"/  c #D19C2A",
"(  c #C69832",
")  c #DDA52E",
"_  c #DFA82F",
"`  c #CAA339",
"'  c #D2A53C",
"]  c #D5A533",
"[  c #E3A82D",
"{  c #EFB12C",
"}  c #FDBC2E",
"|  c #E6AE33",
" . c #E8B135",
".. c #E6BB3B",
"X. c #F5BC3C",
"o. c #FBBD37",
"O. c #FEC332",
"+. c #FDCD37",
"@. c #F7C03F",
"#. c #FEC839",
"$. c #FED53E",
"%. c #979351",
"&. c #D0AA42",
"*. c #D6B34D",
"=. c #CCB053",
"-. c #E3BD5A",
";. c #DCBD62",
":. c #E4CA40",
">. c #FECB44",
",. c #FFD047",
"<. c #FFDB41",
"1. c #FDD74E",
"2. c #E9D05D",
"3. c #FEDC50",
"4. c #F5DE50",
"5. c #FFEE4E",
"6. c #FFE247",
"7. c #FDED5C",
"8. c #F9E558",
"9. c #FFF15E",
"0. c #FFFD5C",
"q. c #FEF154",
"w. c #CCC072",
"e. c #E1C365",
"r. c #E0C776",
"t. c #F5E665",
"y. c #FEF564",
"u. c #FFFE62",
"i. c #FFFE6D",
"p. c #F7F165",
"a. c #E9E570",
"s. c #FFFF73",
"d. c #FFFE7B",
"f. c #0F589E",
"g. c #195496",
"h. c #225E9C",
"j. c #396390",
"k. c #0B5AA7",
"l. c #1E5DA0",
"z. c #015BBD",
"x. c #0658B2",
"c. c #1C61AC",
"v. c #1061BD",
"b. c #2F6EB0",
"n. c #015DC1",
"m. c #0C62C1",
"M. c #0062CD",
"N. c #176CC3",
"B. c #0064D6",
"V. c #0266D9",
"C. c #0168DB",
"Z. c #1B7CD6",
"A. c #016AE1",
"S. c #1B83E7",
"D. c #1A85F5",
"F. c #2887F0",
"G. c #2793FC",
"H. c #E7D08B",
"J. c #FFFF84",
"K. c #FFFF8B",
"L. c #FCF78B",
"P. c #F5E69B",
"I. c #FFFE93",
"U. c #FFFF9C",
"Y. c #F9F694",
"T. c #F0DFA1",
"R. c #FFFFA4",
"E. c #FFFFAB",
"W. c #FAECBB",
"Q. c #FEFFB4",
"!. c #FFFFBB",
"~. c #FFFFC4",
"^. c #FFFFCB",
"/. c #FFFFD4",
"(. c #FFFFDD",
"). c None",
/* pixels */
").).).).).).).).).).).).).).).).).).).).).).).).).).).).).).).).).).).).).).).).).).).).).).).).).).",
").).).).).).).).).).).).).).).).).).).).).).).).).).).).).).).).).).).).).).).).).).).).).).).).).).",
").).).).).).).).).).).).).).).).).      . . X X X o o o X       ).).).).).).).).).).).).).).).).).).",
").).).).).).).).).).).).).).).    + B S U I T T E Y K C N r < .   ).).).).).).).).).).).).).).).).).",
").).).).).).).).).).).).).).    8 { } } } } } } [ R Y D A Z Z i +   ).).).).).).).).).).).).).).).).",
").).).).).).).).).).).).).  X C O.O.O.O.O.O.#.[ R I Z p i i i p p &   ).).).).).).).).).).).).).).).",
").).).).).).).).).).).).).  p +.+.+.+.$.+.$...W F N i u u i u u u y +   ).).).).).).).).).).).).).).",
").).).).).).).).).).).).  7 $.<.<.<.<.<.6.4.! Y N i y q 9 9 0 q u i 5 .   ).).).).).).).).).).).).).",
").).).).).).).).).).).  * :.5.5.5.5.5.q.y.) T N u q 0 q q 0 0 0 r u i ,   ).).).).).).).).).).).).).",
").).).).).).).).).).).  c 0.0.0.u.u.u.i.2.W S i r q q y q y q 0 0 0 y y O   ).).).).).).).).).).).).",
").).).).).).).).).).  # 8.i.s.s.s.s.d.L.' T m i q y y y y y y r q 9 0 u ,   ).).).).).).).).).).).).",
").).).).).).).).).).  P d.J.J.J.K.K.K.P.Q S i r y y y u u y y y r 0 0 y 0 X   ).).).).).).).).).).).",
").).).).).).).).).  # a.I.I.U.U.U.R.Q.e.R m y y y y y y y y u y y q 9 q u %   ).).).).).).).).).).).",
").).).).).).).).).  z Y.R.E.R.E.E.Q././ G i y y y y y y y y y y u r 0 0 y 0   ).).).).).).).).).).).",
").).).).).).).).).  %.R.E.Q.Q.!.!.^.P.W C u y y y q q y q y q y y r q 0 q i .   ).).).).).).).).).).",
").).).).).).).).  O w.Q.!.!.!.~.^.(.-.E m y y y r q q q q q q q y y r 0 0 u =   ).).).).).).).).).).",
").).).).).).).).  : Y.!.!.!.~.~.^./.' I p y y y g a s f f f f 6 g y y 0 0 u 5   ).).).).).).).).).).",
").).).).).).).).  4 R.!.!.!.!.~.^.W.( U u y y 0 b.D.S.B.B.M.n.m.l.l y q 9 q 5 . ).).).).).).).).).).",
").).).).).).).).  v R.E.Q.Q.Q.!.~.T.~ Z y u y g S.G.D.A.C.V.C.V.B.c.t r 0 q q o   ).).).).).).).).).",
").).).).).).).).  =.U.R.E.E.E.Q.!.H.R V y u y f n.C.A.C.B.B.B.B.B.m.x r 0 0 y @   ).).).).).).).).).",
").).).).).).).).  t.I.U.U.U.U.U.E.r.T m y y y a n.V.A.V.B.B.B.B.V.m.l y r 9 y $   ).).).).).).).).).",
").).).).).).).).. p.J.K.K.K.I.I.U.;.T p u y y j n.V.A.B.B.B.V.B.V.m.l y 0 9 r *   ).).).).).).).).).",
").).).).).).).).O p.s.d.d.d.d.d.L.*.I u y y r j n.B.A.B.B.B.B.B.B.v.l y q 0 q *   ).).).).).).).).).",
").).).).).).).  % 8.u.i.i.i.s.i.d.&.D u y y r j n.B.C.B.B.B.C.B.B.m.l y q 0 0 =   ).).).).).).).).).",
").).).).).).).  = 1.7.7.7.9.y.y.y.( G y y u p j z.B.C.B.B.B.B.B.B.m.x u q 9 q >   ).).).).).).).).).",
").).).).).).).  ; #.1.3.3.3.3.6.t.( G u u t y 4 n.M.C.B.B.C.V.B.B.m.l y q 9 q >   ).).).).).).).).).",
").).).).).).).  * -.>.>.>.>.,.,.1.~ A M y y y k z.M.V.B.B.B.V.B.B.m.l u q 0 q >   ).).).).).).).).).",
").).).).).).).  &  .X.X.X.X.X.@.-.W A u y y u j z.M.C.B.B.B.V.B.B.m.l y q 0 q >   ).).).).).).).).).",
").).).).).).).  @ [ |  . . . . .{ W A u y y r j n.M.V.V.B.V.V.B.B.m.l u r 0 r =   ).).).).).).).).).",
").).).).).).).).o / ) ) ) ) ) [ [ W S u y y r 4 n.M.V.B.B.B.B.B.B.m.x y 0 0 r *   ).).).).).).).).).",
").).).).).).).).  ! / / / / / / / R A m y y e n z.n.V.V.V.B.V.B.B.m.x y q 9 r $   ).).).).).).).).).",
").).).).).).).).  R ! ! ! Q ! ! ! F A i y y r 4 n.M.B.V.B.V.B.B.B.m.x y 0 9 u +   ).).).).).).).).).",
").).).).).).).).  B W W W W W W W Y A N y y r s z.M.B.B.B.B.B.B.B.v.z q 0 0 r @   ).).).).).).).).).",
").).).).).).).).  3 R R R R R R R Y Z N u y y g F.G.D.B.B.B.B.M.B.h.y q 0 0 0 X   ).).).).).).).).).",
").).).).).).).).  & T T T T Y T T Y Z V i y y q j.Z.v.x.k.k.f.g.b z y q 9 r 5   ).).).).).).).).).).",
").).).).).).).).  o U I Y F Y F Y F Z N i y y r w 7 7 7 6 6 5 7 q y y 0 0 u 3   ).).).).).).).).).).",
").).).).).).).).).. i G D D D D D D Z N p y y y r r r q q r q y y y r 0 0 i $   ).).).).).).).).).).",
").).).).).).).).).  5 G G G S G S G S N i y y y y y r y r r r y y y q 0 r i . ).).).).).).).).).).).",
").).).).).).).).).  * C Z Z A Z A A S V p i y y y y y y y y u y y r 0 9 r 1   ).).).).).).).).).).).",
").).).).).).).).).).. N C C C Z C C Z K i i y r y y y u y u y y y 0 9 q i @   ).).).).).).).).).).).",
").).).).).).).).).).  ; B B B B N V V L p i i r y y y y y y y r q 0 9 y 5 .   ).).).).).).).).).).).",
").).).).).).).).).).  . q p m p p m p K B i i u r r y y y y r r 0 9 r u ;   ).).).).).).).).).).).).",
").).).).).).).).).).).  - i i i i i i B L i i i r q r y r r q 0 9 q u y .   ).).).).).).).).).).).).",
").).).).).).).).).).).  . 0 i i i i i i K H i i i r 0 0 0 9 9 5 q i i *   ).).).).).).).).).).).).).",
").).).).).).).).).).).).  @ i i i i i i p K N p i u y r 9 0 r y i i <   ).).).).).).).).).).).).).).",
").).).).).).).).).).).).).  & y i p i i i p H p i i i i i y i u u 5 o   ).).).).).).).).).).).).).).",
").).).).).).).).).).).).).).  * u i i i i i p B p i i i i i i i 5 o   ).).).).).).).).).).).).).).).",
").).).).).).).).).).).).).).).  o 5 y i i i i i p i i i i i y 3 .   ).).).).).).).).).).).).).).).).",
").).).).).).).).).).).).).).).).    @ - , ; , , , , , 2 , - +     ).).).).).).).).).).).).).).).).).",
").).).).).).).).).).).).).).).).).).                          ).).).).).).).).).).).).).).).).).).)."
};
