/* XPM */
static char *result[] = {
/* columns rows colors chars-per-pixel */
"50 50 146 2 ",
"   c #000000",
".  c #090702",
"X  c #0C0A04",
"o  c #0E0D08",
"O  c #110E06",
"+  c #110F08",
"@  c #161206",
"#  c #1A1509",
"$  c #1E180A",
"%  c #030B13",
"&  c #211807",
"*  c #221C0A",
"=  c #27210D",
"-  c #2B220D",
";  c #3C2D0D",
":  c #2F2511",
">  c #061625",
",  c #07192F",
"<  c #192524",
"1  c #343326",
"2  c #41310C",
"3  c #4D3A11",
"4  c #654B14",
"5  c #7B5A15",
"6  c #032848",
"7  c #02264B",
"8  c #012851",
"9  c #023C7D",
"0  c #3E4341",
"q  c #2F4A51",
"w  c #435A64",
"e  c #475B6A",
"r  c #836117",
"t  c #846219",
"y  c #8B6619",
"u  c #8D681A",
"i  c #946D1B",
"p  c #9B721C",
"a  c #A0771D",
"s  c #A3791D",
"d  c #A87C1F",
"f  c #916F24",
"g  c #947325",
"h  c #9D7622",
"j  c #957429",
"k  c #A07721",
"l  c #A37B23",
"z  c #A97D22",
"x  c #AE8222",
"c  c #AF8528",
"v  c #B48522",
"b  c #B78925",
"n  c #BC8B24",
"m  c #B28B2A",
"M  c #BE9129",
"N  c #B68F33",
"B  c #B08D39",
"V  c #B59137",
"C  c #B99732",
"Z  c #B6923B",
"A  c #BB9B39",
"S  c #BEA03E",
"D  c #C28F24",
"F  c #CC9725",
"G  c #C19228",
"H  c #C9972C",
"J  c #CB992C",
"K  c #C59225",
"L  c #D29D2B",
"P  c #C09E34",
"I  c #DBA52E",
"U  c #C0A33D",
"Y  c #D6A331",
"T  c #D9A634",
"R  c #DCA936",
"E  c #F3B42C",
"W  c #F7B82D",
"Q  c #FCBC2F",
"!  c #E1AC34",
"~  c #E3AE39",
"^  c #E6B23B",
"/  c #E6B939",
"(  c #E9BD3F",
")  c #E8B439",
"_  c #FDBE30",
"`  c #F7C134",
"'  c #FFC434",
"]  c #F8C63A",
"[  c #BF9F4B",
"{  c #C2A543",
"}  c #C3A846",
"|  c #CAA74E",
" . c #CDAA4F",
".. c #D1AB4E",
"X. c #C8A751",
"o. c #D1AE53",
"O. c #D3B156",
"+. c #D8B559",
"@. c #DCB858",
"#. c #EDBC43",
"$. c #F4BD43",
"%. c #EEC34C",
"&. c #F6C045",
"*. c #FAC346",
"=. c #F9CA44",
"-. c #F9C548",
";. c #FCCE4D",
":. c #FFD14F",
">. c #F5C75C",
",. c #F7C95E",
"<. c #F9CC5C",
"1. c #F6C856",
"2. c #FFD451",
"3. c #FEE352",
"4. c #FEEA50",
"5. c #FFE45C",
"6. c #FFEB5C",
"7. c #F7C960",
"8. c #FFED62",
"9. c #FEF56C",
"0. c #FFFC6D",
"q. c #FEFC75",
"w. c #FFFE7B",
"e. c #004187",
"r. c #00428C",
"t. c #004490",
"y. c #326595",
"u. c #387CBB",
"i. c #3E8AB7",
"p. c #498AA4",
"a. c #458EB3",
"s. c #4890B1",
"d. c #FEFE82",
"f. c #FFFF8D",
"g. c #FFFE92",
"h. c #FFFE9D",
"j. c #FFFEA3",
"k. c #FFFFAD",
"l. c #FEFFB4",
"z. c #FFFFBB",
"x. c #FFFFC3",
"c. c #FFFFCB",
"v. c #FFFFD4",
"b. c #FFFFDB",
"n. c #FFFEE2",
"m. c None",
/* pixels */
"m.m.m.m.m.m.m.m.m.m.m.m.m.m.m.m.m.m.m.m.m.m.m.m.m.m.m.m.m.m.m.m.m.m.m.m.m.m.m.m.m.m.m.m.m.m.m.m.m.m.",
"m.m.m.m.m.m.m.m.m.m.m.m.m.m.m.m.m.m.m.m.m.m.m.m.m.m.m.m.m.m.m.m.m.m.m.m.m.m.m.m.m.m.m.m.m.m.m.m.m.m.",
"m.m.m.m.m.m.m.m.m.m.m.m.m.m.m.m.m.m.m.  . X X . O X O X X   m.m.m.m.m.m.m.m.m.m.m.m.m.m.m.m.m.m.m.m.",
"m.m.m.m.m.m.m.m.m.m.m.m.m.m.m.m.m.m.  ; x v v v v v v v z 3   m.m.m.m.m.m.m.m.m.m.m.m.m.m.m.m.m.m.m.",
"m.m.m.m.m.m.m.m.m.m.m.m.m.m.m.m.m.m.  n _ W W W W E E E E d X   m.m.m.m.m.m.m.m.m.m.m.m.m.m.m.m.m.m.",
"m.m.m.m.m.m.m.m.m.m.m.m.m.m.m.m.m.    W ' _ Q ' Q ' Q Q W v @   m.m.m.m.m.m.m.m.m.m.m.m.m.m.m.m.m.m.",
"m.m.m.m.m.m.m.m.m.m.m.m.m.m.m.m.m.    ` 4.6.6.6.6.6.6.6.3.M $   m.m.m.m.m.m.m.m.m.m.m.m.m.m.m.m.m.m.",
"m.m.m.m.m.m.m.m.m.m.m.m.m.m.m.m.m.  . ] w.d.d.d.d.w.d.d.q.P $   m.m.m.m.m.m.m.m.m.m.m.m.m.m.m.m.m.m.",
"m.m.m.m.m.m.m.m.m.m.m.m.m.m.m.m.m.  X =.f.g.f.g.g.f.g.f.d.P *   m.m.m.m.m.m.m.m.m.m.m.m.m.m.m.m.m.m.",
"m.m.m.m.m.m.m.m.m.m.m.m.m.m.m.m.m.  . =.j.j.j.j.h.j.h.h.g.U *   m.m.m.m.m.m.m.m.m.m.m.m.m.m.m.m.m.m.",
"m.m.m.m.m.m.m.m.m.m.m.m.m.m.m.m.m.  X ;.z.z.l.l.l.l.l.l.j.{ *   m.m.m.m.m.m.m.m.m.m.m.m.m.m.m.m.m.m.",
"m.m.m.m.m.m.m.m.m.m.m.m.m.m.m.m.m.  X 1.v.c.c.c.c.x.x.x.l.} =   m.m.m.m.m.m.m.m.m.m.m.m.m.m.m.m.m.m.",
"m.m.m.m.m.m.m.m.m.m.m.m.m.m.m.m.m.  X <.n.n.n.b.b.b.v.v.z.{ :   m.m.m.m.m.m.m.m.m.m.m.m.m.m.m.m.m.m.",
"m.m.m.m.m.m.m.m.m.m.m.m.m.m.m.m.m.  o <.v.c.x.x.z.z.z.l.k.A -   m.m.m.m.m.m.m.m.m.m.m.m.m.m.m.m.m.m.",
"m.m.m.m.m.m.m.m.m.m.m.m.m.m.m.m.m.  O ,.v.z.z.z.z.l.l.k.h.U :   m.m.m.m.m.m.m.m.m.m.m.m.m.m.m.m.m.m.",
"m.m.m.m.m.m.m.m.m.m.m.m.m.m.m.m.m.  + 7.b.c.x.x.z.z.z.z.j.U :   m.m.m.m.m.m.m.m.m.m.m.m.m.m.m.m.m.m.",
"m.m.m.m.m.m.m.m.m.m.m.m.m.m.m.m.m.  + 7.b.c.c.x.x.z.z.z.j.A :   m.m.m.m.m.m.m.m.m.m.m.m.m.m.m.m.m.m.",
"m.m.m.m.m.m.m.m.m.m.m.m.m.m.m.m.m.  q ,.b.c.x.x.z.x.z.l.j.[ 0   m.m.m.m.m.m.m.m.m.m.m.m.m.m.m.m.m.m.",
"m.m.m.m.m.m.m.m.m.m.m.m.m.m.m.m.  > p.>.v.x.z.z.z.l.l.k.h.S e 6   m.m.m.m.m.m.m.m.m.m.m.m.m.m.m.m.m.",
"m.m.m.m.m.m.m.m.m.m.m.m.m.m.m.m.  8 a.>.x.l.k.l.k.k.k.j.g.A w e.  m.m.m.m.m.m.m.m.m.m.m.m.m.m.m.m.m.",
"m.m.m.m.m.m.m.m.m.m.m.m.m.m.m.m.  8 a.1.l.j.j.h.j.h.h.h.d.A w t.  m.m.m.m.m.m.m.m.m.m.m.m.m.m.m.m.m.",
"m.m.m.m.m.m.m.m.m.m.m.m.m.m.m.m.  8 s.%.j.h.g.g.f.f.d.d.w.C w t.  m.m.m.m.m.m.m.m.m.m.m.m.m.m.m.m.m.",
"m.m.m.m.m.m.m.m.m.m.m.m.m.m.m.m.  8 s.%.f.d.d.w.w.w.w.w.9.N w t.  m.m.m.m.m.m.m.m.m.m.m.m.m.m.m.m.m.",
"m.m.m.m.m.m.m.m.m.m.m.m.m.m.m.m.  8 s.#.w.q.0.0.0.0.0.9.5.m w r.  m.m.m.m.m.m.m.m.m.m.m.m.m.m.m.m.m.",
"m.m.m.m.m.m.m.m.m.m.m.m.m.m.m.m.  8 a.( 9.8.5.8.6.5.5.5.2.c w r.  m.m.m.m.m.m.m.m.m.m.m.m.m.m.m.m.m.",
"m.m.m.m.m.m.m.m.m.m.m.m.m.m.m.m.  8 i./ 5.2.2.2.2.2.2.;.-.z w r.  m.m.m.m.m.m.m.m.m.m.m.m.m.m.m.m.m.",
"m.m.m.m.m.m.m.m.m.m.m.m.m.m.m.m.  8 i.~ ;.&.*.$.$.&.$.$.) l w r.  m.m.m.m.m.m.m.m.m.m.m.m.m.m.m.m.m.",
"m.m.m.m.m.m.m.m.m.m.m.m.m.m.m.m.  8 i.! $.) ) ~ ^ ~ ~ ~ R k w r.  m.m.m.m.m.m.m.m.m.m.m.m.m.m.m.m.m.",
"m.m.m.m.m.m.m.m.m.m.m.m.m.m.m.m.  8 i.I ! T T T T Y Y Y L h w r.  m.m.m.m.m.m.m.m.m.m.m.m.m.m.m.m.m.",
"m.m.m.m.m.m.m.m.m.m.m.m.m.m.m.m.  8 i.L Y J J J J H H H G p w r.  m.m.m.m.m.m.m.m.m.m.m.m.m.m.m.m.m.",
"m.m.m.m.m.m.m.m.m.m.m.m.m.m.m.m.  8 i.L G G G G G G G n n i w r.  m.m.m.m.m.m.m.m.m.m.m.m.m.m.m.m.m.",
"m.m.m.m.m.m.m.m.m.m.m.m.m.m.m.m.  7 i.F D b b b b v v v v u w r.  m.m.m.m.m.m.m.m.m.m.m.m.m.m.m.m.m.",
"m.m.m.m.m.m.m.m.m.m.m.m.m.m.m.m.  7 u.K v x x x x x x x z u w 9   m.m.m.m.m.m.m.m.m.m.m.m.m.m.m.m.m.",
"m.m.m.m.m.m.m.m.m.m.m.m.m.m.m.m.m.% y.D x d d d d d d d l y e ,   m.m.m.m.m.m.m.m.m.m.m.m.m.m.m.m.m.",
"m.m.m.m.m.m.m.m.m.m.m.m.m.m.m.m.m.  < n d a a d s s a p p y 1   m.m.m.m.m.m.m.m.m.m.m.m.m.m.m.m.m.m.",
"m.m.m.m.m.m.m.m.m.m.m.m.m.m.m.m.m.  O v a p p p p p p p i r :   m.m.m.m.m.m.m.m.m.m.m.m.m.m.m.m.m.m.",
"m.m.m.m.m.m.m.m.m.m.m.m.m.m.m.m.m.  o v p i i i i i i i i r :   m.m.m.m.m.m.m.m.m.m.m.m.m.m.m.m.m.m.",
"m.m.m.m.m.m.m.m.m.m.m.m.m.m.m.m.m.  o v p u u u y y y y u r :   m.m.m.m.m.m.m.m.m.m.m.m.m.m.m.m.m.m.",
"m.m.m.m.m.m.m.m.m.m.m.m.m.m.m.m.m.  X c V V Z V C V Z Z B u =   m.m.m.m.m.m.m.m.m.m.m.m.m.m.m.m.m.m.",
"m.m.m.m.m.m.m.m.m.m.m.m.m.m.m.m.m.  X c ..@.@.@.@.@.@.@.o.g =   m.m.m.m.m.m.m.m.m.m.m.m.m.m.m.m.m.m.",
"m.m.m.m.m.m.m.m.m.m.m.m.m.m.m.m.m.  X c  .+.+.+.+.+.+.+.O.j *   m.m.m.m.m.m.m.m.m.m.m.m.m.m.m.m.m.m.",
"m.m.m.m.m.m.m.m.m.m.m.m.m.m.m.m.m.  X z  .+.+.+.+.+.+.+.O.j *   m.m.m.m.m.m.m.m.m.m.m.m.m.m.m.m.m.m.",
"m.m.m.m.m.m.m.m.m.m.m.m.m.m.m.m.m.  . l  .+.+.+.+.+.+.+.O.j &   m.m.m.m.m.m.m.m.m.m.m.m.m.m.m.m.m.m.",
"m.m.m.m.m.m.m.m.m.m.m.m.m.m.m.m.m.    l X.+.+.+.+.+.+.+.o.j $   m.m.m.m.m.m.m.m.m.m.m.m.m.m.m.m.m.m.",
"m.m.m.m.m.m.m.m.m.m.m.m.m.m.m.m.m.    g [ O.+.+.+.+.+.+.X.f #   m.m.m.m.m.m.m.m.m.m.m.m.m.m.m.m.m.m.",
"m.m.m.m.m.m.m.m.m.m.m.m.m.m.m.m.m.    u f g g j j g j g g t #   m.m.m.m.m.m.m.m.m.m.m.m.m.m.m.m.m.m.",
"m.m.m.m.m.m.m.m.m.m.m.m.m.m.m.m.m.    t 5 5 5 5 5 5 5 5 5 5 @   m.m.m.m.m.m.m.m.m.m.m.m.m.m.m.m.m.m.",
"m.m.m.m.m.m.m.m.m.m.m.m.m.m.m.m.m.m.  3 5 5 5 5 5 5 5 5 5 4 .   m.m.m.m.m.m.m.m.m.m.m.m.m.m.m.m.m.m.",
"m.m.m.m.m.m.m.m.m.m.m.m.m.m.m.m.m.m.  O ; 2 2 2 2 2 2 2 2 &   m.m.m.m.m.m.m.m.m.m.m.m.m.m.m.m.m.m.m.",
"m.m.m.m.m.m.m.m.m.m.m.m.m.m.m.m.m.m.m.          .           m.m.m.m.m.m.m.m.m.m.m.m.m.m.m.m.m.m.m.m."
};
