/* XPM */
static char *_f7d5858e41940daf92c24336560250dOrzfvGcZnAd8HQrd[] = {
/* columns rows colors chars-per-pixel */
"50 50 181 2 ",
"   c None",
".  c #050505",
"X  c #0C0D0D",
"o  c #0E1011",
"O  c #131415",
"+  c #151718",
"@  c #16191A",
"#  c #191C1D",
"$  c #1C1F21",
"%  c #1E2123",
"&  c #18282B",
"*  c #1F262A",
"=  c #212426",
"-  c #232729",
";  c #252A2C",
":  c #282D2F",
">  c #222D32",
",  c #292E31",
"<  c #2D3235",
"1  c #2E3538",
"2  c #2D393D",
"3  c #253538",
"4  c #303437",
"5  c #313639",
"6  c #343A3D",
"7  c #263943",
"8  c #363D41",
"9  c #383F42",
"0  c #1E4E55",
"q  c #2E444B",
"w  c #294248",
"e  c #334045",
"r  c #3B4246",
"t  c #3E4549",
"y  c #3C494E",
"u  c #35454C",
"i  c #354C53",
"p  c #3D4D54",
"a  c #3C535D",
"s  c #37545B",
"d  c #375863",
"f  c #2F626E",
"g  c #2E6871",
"h  c #2B6D7A",
"j  c #366B75",
"k  c #40474B",
"l  c #42494D",
"z  c #454D51",
"x  c #484F54",
"c  c #455157",
"v  c #4A5156",
"b  c #44545B",
"n  c #4D555A",
"m  c #4F595D",
"M  c #50575C",
"N  c #51595E",
"B  c #455D64",
"V  c #4A5C64",
"C  c #415463",
"Z  c #555D62",
"A  c #46666D",
"S  c #566066",
"D  c #596166",
"F  c #5C656A",
"G  c #5F686E",
"H  c #516369",
"J  c #476E7B",
"K  c #4D6B75",
"L  c #576D76",
"P  c #4C717C",
"I  c #51737D",
"U  c #5A757C",
"Y  c #60696F",
"T  c #636C73",
"R  c #677077",
"E  c #677078",
"W  c #69727A",
"Q  c #2B7988",
"!  c #387B86",
"~  c #496C84",
"^  c #407580",
"/  c #4B7583",
"(  c #437F8B",
")  c #467B84",
"_  c #577680",
"`  c #547A84",
"'  c #5A7B84",
"]  c #547888",
"[  c #5B7D88",
"{  c #627D86",
"}  c #737E83",
"|  c #2A8898",
" . c #3F8A97",
".. c #2E93A4",
"X. c #39A1B4",
"o. c #4A818C",
"O. c #53828B",
"+. c #518A94",
"@. c #6E8091",
"#. c #6F8990",
"$. c #618C9C",
"%. c #798D96",
"&. c #729197",
"*. c #749199",
"=. c #7D909D",
"-. c #6E88A0",
";. c #7A8EA0",
":. c #6A99A8",
">. c #769EA8",
",. c #7899A4",
"<. c #44A8B9",
"1. c #74A4AE",
"2. c #6EABBB",
"3. c #73A7B8",
"4. c #75AEBF",
"5. c #7CADB7",
"6. c #7EB2BC",
"7. c #67B3C4",
"8. c #61C5DA",
"9. c #70C8DB",
"0. c #6ECFE3",
"q. c #82898A",
"w. c #8C9699",
"e. c #8E9A9F",
"r. c #849096",
"t. c #939797",
"y. c #889BA9",
"u. c #94A5AE",
"i. c #9EA7AB",
"p. c #94A1A7",
"a. c #8BA0B1",
"s. c #95A6B3",
"d. c #9CAEB7",
"f. c #97A9B6",
"g. c #84B2BF",
"h. c #AAAFB1",
"j. c #A6AEB1",
"k. c #A8B4BA",
"l. c #B3B5B6",
"z. c #87BAC7",
"x. c #8FB8C7",
"c. c #9CB2C1",
"v. c #ADBDC5",
"b. c #B4BEC3",
"n. c #9ECADB",
"m. c #BDC1C3",
"M. c #BCC4C9",
"N. c #A3C9D8",
"B. c #BFCCD0",
"V. c #B5CBD4",
"C. c #9CDAEC",
"Z. c #A8D8E5",
"A. c #A7D9E8",
"S. c #B3DCEA",
"D. c #AFE1EF",
"F. c #BBE3EF",
"G. c #BFE5F0",
"H. c #B3E4F3",
"J. c #CBCBCC",
"K. c #C2C5C7",
"L. c #C5D6DC",
"P. c #CED7D9",
"I. c #C6D0D3",
"U. c #D5D5D5",
"Y. c #C3E4EE",
"T. c #CFE1EC",
"R. c #C4EAF5",
"E. c #CFEDF6",
"W. c #CEEEF8",
"Q. c #C5E6F1",
"!. c #D2ECF5",
"~. c #DCEDF4",
"^. c #D0EFF8",
"/. c #DCF1F6",
"(. c #D7F2FA",
"). c #DAF2F9",
"_. c #E3F5FB",
"`. c #EAFAFF",
"'. c #E8F2F5",
"]. c #F4FDFF",
"[. c #FEFFFF",
/* pixels */
"C u.s.*.y.i.l.J.U.c.c.P.L.v.k.h.j.f.v.i.=.s.m.M.c.s.b.b.J.K.m.m.a.s.k.k.;.u.j.v.d.,.;.@.e.w.=.w.t.q.",
"p.[.[.[.[.[.[.[.[.[.[.[.[.`.].[.].`.[.[.[.[.[.[.[.[.[.[.[.[.[.[.[.[.[.[.[.[.[.[.[.[.[.[.[.[.[.[.[.'.",
"b V./.I.r.I.~.~.!./.^.Y.S.A.Z.F.S.C.R.(.W.).(.(.!.)._.^.H.R.).L.N.W.).Y.S.Y.G.Q.E._.`.`.T.'.!.!.!.n.",
"O k z.H D Z I 9.2./ K u 3 f P d 8.0.$.~ ~ ] 4.7.J L :.4._ x.*.v z ` P p J g.z.2./ :.Z.} V a a g.[ 7 ",
"O F  .8 t Z 9 <.o.T T 1 r s m Z  .7.Y W Y D t X.b W Y N 8 >.V D n H M W t - 2 6 M b 1.G W T m #.l 5 ",
"  n ) 1 r r 8 <.O.D S < k S G G o.r.T W F F k ..v D Y N 1 ,.A k 6 I v F 6 r D Y G c _ T E G N U 4 9 ",
"  r j 3 r r 1 7.y t e ; l T W W [ o.F F F F l | 6 Z S r 4 %.s r 1 ! 8 r - r F W E L s F F F Z V - 8 ",
"@ r e 6 r 4 # 5.e r r $ t F W W { ' F D F F l | r r r r r H w % c j 2 r % r S T W E q F F F b p X 6 ",
"$ r 1 8 - O 5 >.y r 6 X 6 l G Y J G m r v D , 0 @ r r r r 2 & : r q 2 r O ; t D T G q Z t l x 1 $ + ",
"o = = # = + 5 &.u : O , # 6 k z j b r r < ; 5 2 6 # % ; @ % @ - r 2 > # # - 4 t z l 2 r r 5 ; , r , ",
"X 9 6 o 8 Z % O.3 5 - l n ; % = h > % * 1 r r r r r r r O # c 5 = = 1 4 1 Z 1 % % $ % - - ; r r r 5 ",
"  5 5 = F F z +.5 k S 6 Y D D 6 A 2 r r r r r r r r r r + N D m r r r Z 4 F F D n % r r r r r r r 9 ",
"  ; : n F Y Z ( 6 t D : N Z l ; w r r r t r r r r r r r 5 F G G x r r Z 1 x Z n ; r r r r r r r r r ",
"  z k n Y R S Q e D D r 1 : O < > m N G Y l r r r k n N 4 G R T N r Z F x 1 5 @ % z Z N F T n r r 8 ",
"$ F S # Z Y n h m R T v # 9 k 5 y W W W R N n N F F F F ; z G D F Z R T N - , Z - m T W W W D v Z 5 ",
", T F 6 4 k r i F D z < 1 G N < N W W W W D G Y R R Y G m % l r Z T Y n 6 = D Y , n W W W W Y F Y , ",
"4 W Y v ; r r - k r , # D W N , v Y W W R Y W W W W W Y G % r r x x r 6 @ z R T ; k F T W W T T W , ",
"r W Y D + r r , r : 4 < N W G : r Z F T G R W W W W W Y F ; 5 r r r 1 4 ; v R Y 5 r n G T G Y W W z ",
"6 Y D D o - 6 < ; N k r n R R 5 4 k D F G D D G T Y R F F = # 6 6 - l N 1 l Y W v ; r N F F F D D M ",
"; n S l % + < k G F l 6 k D Y S % r r l t r r r t v n N D # $ ; 5 D G Z , r Z T F ; 8 r l l t r r r ",
"% r k n % O Y W W G D : r N D F t ; r r r r r r r r r r v < + v W W T F 5 r l F F N % r r r r r r r ",
"# r r k : l Y R Y F n ; r k v v l % 1 r r r r r r r r r r 6 : F W T F Z 5 4 r v v l < = r r r r r 6 ",
"  6 r r : D D G G D r - 6 r r r r r @ 5 r r r r r r r r r < n F F F D k 5 : r r r r r - = r r r r $ ",
"  4 r r : D S N n l r 5 % < r r r r - X % 9 r r r r r r r 4 n Z Z M v r r $ ; r r r r 1 X # 5 r 6 # ",
"  @ % # @ r r r r r r r 9 O % < 4 - k ; # O = : : ; ; = % o 9 r r r r r r r % @ : 6 ; 9 4 $ @ # @   ",
"  4 8 4 @ r r r r r r 6 # 5 5 ; 4 l Y D k O k 9 6 5 6 6 6 + 6 r r r r r r # 4 6 : : k Z Y n % < r $ ",
"  < r r 9 - 8 r r r 9 # 9 k x n D Y Y Y D 5 n v r r r r r r : 1 r r r r - < r l n N Y Y Y Z x 6 M r ",
"  k v N F D 5 1 k 6 = = r N D F D R W R Y D ; D D D m v N D D k ; r r : - 5 x F D Y R W T T Y , Z r ",
"5 Y D D F F F : % 9 D l < k D D R W W W Y F 9 D R W Y F F G F F k + 4 N D ; k N Y T W W W T F M k 8 ",
"k R D k z D F 6 D R R 9 9 n Y Y W W W W Y F l Y W W W D l l N F v k T W v 4 z D D T W W W T F Z l l ",
"4 T n r r k N 5 Y Y Y < k F Y D Y Y W W Y D l N D Y R S r r r n k M T Y 5 r N Y D Y Y W W Y Y Z 9 Z ",
"< Z k r r r r 6 N x k : l Y W Y Y D Y Y F F k r l D D l r r r r 4 N n l : k Y W T Y D Y Y F Y Z , r ",
"< k r r r r - N r r r % k F W W W G F F F F t = r l l r r r r ; l l r r = r D R W W T F F F F Z O = ",
"O 5 r r 4 + 1 k r r r X r n T R T T Z z Z F 5 O = r r r r 6 % = k l r r @ 1 z F R R T D z n F n X . ",
"  = 1 = = O 6 r r 6 # = % r v N n n t r 8 5 , r , $ 1 1 = = $ ; r r r - @ $ 9 l N N n l r r 6 ; r $ ",
"  : : O : k - < - ; @ k r % - : 4 1 , = = 8 r r r 9 , 1 + # l ; , - = = , x - = ; 5 5 : = $ 5 r 1   ",
"- r 5 O D F k 5 r k v r F N n < $ 1 6 9 r r r r r r r r o x F v 5 9 r m 1 D Z n l o , 6 r r r r ,   ",
"% r , l F F Z r r r D , S F N < 9 r r r r r r r r t r 9 , F G D l r r Z 5 N F Z 9 8 r r r r r r 5   ",
"% x 6 N T W Y z r N D 4 6 6 # : z z z Z Z k r r r r z x 6 F W T M r v D r 5 r - # t x z n Z z r r @ ",
"  D N : D Y Y N N T Y N = ; 4 4 D W W W T n k n Z Z F F - Z Y G Z n T T Z : = k = m R W W W Z l x 1 ",
"  N Y : 9 v v Y W T N 6 - F n 5 F W W W R F F Y Y Y Y Y l - n l Z W T Z l # N F 1 n W W W W G F G N ",
"4 Y Y v : r k N N r 6 @ Z W N : n T W W W Y T W W W W T F # r r n Z l r % k T T ; l Y R W W T T W W ",
"n W Y N % r r r r 4 ; ; Z W D < t D Y R Y W W W W W W Y Y - 6 k r r 9 ; = x W Y 5 r N G T T T W W W ",
"k T D D X 4 r 9 - k r r N R T : 8 z F F F F Y T T W T Y D - % r r , 5 N , x T R k , k D F F F Y T T ",
"- D D n # O - ; N D r 9 k Y R n - r k n n l k l v N D D D # @ = - z F Z , r D R F $ r r n n z l l r ",
"  6 l n # O D W W Y Z < r N F F 4 5 r r r r r r r r r k N - # l T W T D 5 r v F G z ; r 9 r r r r = ",
"  ; k k : 1 Y W R F Z - r l Z N v @ 6 r r r r r r r r r r r @ F W W G D 1 5 r Z Z v - 1 r r r r 5   ",
"  . : 9 : D F Y G D t ; r r r r r 6 @ r r r r r r r k 6 5 < n F Y F F z 5 1 r r r r r @ 5 r r r 5   ",
"  + # : : Y D D Z n 5 , $ 9 r r r r < o 1 6 - : 9 r 5 # : O l F D D N r 9 # 5 5 r r r 6 O - r r r % ",
"  . # X # k k r 5 = @ # - O , - O O $ : + o     - - #         - ; 1 5 6 , ; X   # , 1 = ; = O ; < @ "
};
