/* XPM */
static char *ZmlyZTI_[] = {
/* columns rows colors chars-per-pixel */
"50 50 199 2 ",
"   c #FE0300",
".  c #FE0C00",
"X  c #FE1400",
"o  c #FE1C00",
"O  c #FF1D09",
"+  c #FE2301",
"@  c #FE2B01",
"#  c #FE3400",
"$  c #FE3C01",
"%  c #FE340A",
"&  c #FF3C0C",
"*  c #FF4201",
"=  c #FF4B00",
"-  c #FB430D",
";  c #FF5300",
":  c #FF5B00",
">  c #FF5E0C",
",  c #FE4C14",
"<  c #FE4718",
"1  c #FF531B",
"2  c #FD5A19",
"3  c #FF5C17",
"4  c #FF6400",
"5  c #FF6C01",
"6  c #FF640A",
"7  c #FF6B0A",
"8  c #FF7401",
"9  c #FF7B02",
"0  c #FF730E",
"q  c #FF7D0C",
"w  c #FE6A1B",
"e  c #FF6B13",
"r  c #FF7F1C",
"t  c #FF7817",
"y  c #FF6B24",
"u  c #FF632B",
"i  c #FF7727",
"p  c #FE6E39",
"a  c #FF763D",
"s  c #FF7A4E",
"d  c #FE7A50",
"f  c #FF8301",
"g  c #FF8D01",
"h  c #FF9301",
"j  c #FF9C02",
"k  c #FF940C",
"l  c #FE9D0B",
"z  c #FF811A",
"x  c #FF8D1C",
"c  c #FF9214",
"v  c #FF9D10",
"b  c #FF9218",
"n  c #FF9A1B",
"m  c #FFA402",
"M  c #FFAB03",
"N  c #FFAE0C",
"B  c #FFA609",
"V  c #FFB302",
"C  c #FFBB03",
"Z  c #FFBA0B",
"A  c #FFB109",
"S  c #FFAA12",
"D  c #FFAC1D",
"F  c #FFA015",
"G  c #FFBC13",
"H  c #FFB61A",
"J  c #FFBA1C",
"K  c #FFB316",
"L  c #FF8120",
"P  c #FF822E",
"I  c #FE8F2C",
"U  c #FF9729",
"Y  c #FF9C27",
"T  c #FF8739",
"R  c #FF953A",
"E  c #FFA226",
"W  c #FFAA27",
"Q  c #FFB526",
"!  c #FFB22E",
"~  c #FFAD3D",
"^  c #FFBB38",
"/  c #FFC404",
"(  c #FFCC04",
")  c #FFC40C",
"_  c #FFCB0B",
"`  c #FFD403",
"'  c #FFDD04",
"]  c #FFD40B",
"[  c #FFDB0A",
"{  c #FFC212",
"}  c #FFCC13",
"|  c #FFCD1B",
" . c #FFD514",
".. c #FFDD12",
"X. c #FFD918",
"o. c #FFE204",
"O. c #FFEC03",
"+. c #FFE30E",
"@. c #FFEC0C",
"#. c #FFF403",
"$. c #FFF907",
"%. c #FFEC15",
"&. c #FFE319",
"*. c #FFE414",
"=. c #FFF617",
"-. c #FFF919",
";. c #FFCB24",
":. c #FFC42C",
">. c #FFCA2C",
",. c #FFD425",
"<. c #FFDD25",
"1. c #FFD928",
"2. c #FFC735",
"3. c #FFC33C",
"4. c #FFCD3D",
"5. c #FFDB33",
"6. c #FFD132",
"7. c #FFE422",
"8. c #FFED26",
"9. c #FFE529",
"0. c #FFE82D",
"q. c #FFF627",
"w. c #FFFC23",
"e. c #FFE234",
"r. c #FFEB33",
"t. c #FFE33B",
"y. c #FFED3D",
"u. c #FFF037",
"i. c #FFF43A",
"p. c #FE8744",
"a. c #FF9147",
"s. c #FFAE4D",
"d. c #FFBA42",
"f. c #FFAA57",
"g. c #FFBC54",
"h. c #FFAF6C",
"j. c #FEA97D",
"k. c #FEC840",
"l. c #FFCB4C",
"z. c #FFC548",
"x. c #FFD243",
"c. c #FFD34D",
"v. c #FFC956",
"b. c #FFCE5A",
"n. c #FFC458",
"m. c #FFD354",
"M. c #FFDE57",
"N. c #FFDA5C",
"B. c #FFEB45",
"V. c #FFEF49",
"C. c #FFF243",
"Z. c #FFFA42",
"A. c #FFFC4B",
"S. c #FFEA56",
"D. c #FFFC52",
"F. c #FFF65B",
"G. c #FFFB5E",
"H. c #FFC164",
"J. c #FFDF62",
"K. c #FFD96B",
"L. c #FFCB77",
"P. c #FFDD79",
"I. c #FFD673",
"U. c #FFE362",
"Y. c #FFE960",
"T. c #FFE96B",
"R. c #FFF76C",
"E. c #FFFB6B",
"W. c #FFFC67",
"Q. c #FFE574",
"!. c #FFEC78",
"~. c #FFFB73",
"^. c #FEBB98",
"/. c #FFDD84",
"(. c #FFE986",
"). c #FFFD82",
"_. c #FFF28B",
"`. c #FFFD8C",
"'. c #FFF384",
"]. c #FFEC92",
"[. c #FFFB91",
"{. c #FFFD9D",
"}. c #FFF49D",
"|. c #FFD8AE",
" X c #FFECA5",
".X c #FFF6A7",
"XX c #FFFDAC",
"oX c #FFE8B3",
"OX c #FFFAB7",
"+X c #FFDDC4",
"@X c #FFE8C7",
"#X c #FFE4CF",
"$X c #FFF8C9",
"%X c #FFEBDD",
"&X c #FFF7DA",
"*X c #FFFCE0",
"=X c #FFFDF6",
"-X c None",
";X c black",
/* pixels */
"-X-X-X-X-X-X-X-X-X-X-X-X-X-X-X-X-X-X-X-X-X-X-X-X-X-X-X-X-X-X-X-X-X-X-X-X-X-X-X-X-X-X-X-X-X-X-X-X-X-X",
"-X-X-X-X-X-X-X-X-X-X-X-X-X-X-X-X-X-X-X-X-X-X-X-X-X-X-X-X-X-X-X-X-X-X-X-X-X-X-X-X-X-X-X-X-X-X-X-X-X-X",
"-X-X-X-X-X-X-X-X-X-X-X-X-X-X-X-X-X-X-X-X-X-X-X-X-X-X-X-X-X-X-X-X-X-X-X-X-X-X-X-X-X-X-X-X-X-X-X-X-X-X",
"-X-X-X-X-X-X-X-X-X-X-X-X-X-X-X-X-X-X-X-X-X-X-X-X-X-X-X-X-X-X-X-X-X-X-X-X-X-X-X-X-X-X-X-X-X-X-X-X-X-X",
"-X-X-X-X-X-X-X-X-X-X-X-X-X-X-X-X-X-X-X-X-X-X-X-X-X-X-X-X-X-X-X-X-X-X-X-X-X-X-X-X-X-X-X-X-X-X-X-X-X-X",
"-X-X-X-X-X-X-X-X-X-X-X-X-X-X-X-X-X-X-X-X-X-X-X-X-X-X-X-X-X-X-X-X-X-X-X-X-X-X-X-X-X-X-X-X-X-X-X-X-X-X",
"-X-X-X-X-X-X-X-X-X-X-X-X-X-X-X-X-X-X-X-X-X-X-X-X-X-X-X-X-X-X-X-X-X-X-X-X-X-X-X-X-X-X-X-X-X-X-X-X-X-X",
"-X-X-X-X-X-X-X-X-X-X-X-X-X-X-X-X-X-X-X-X-X-X-X-X-XX . -X-X-X-X-X-X-X-X-X-X-X-X-X-X-X-X-X-X-X-X-X-X-X",
"-X-X-X-X-X-X-X-X-X-X-X-X-X-X-X-X-X-X-X-X-X-X-X+ o   X -X-X-X-X-X-X-X-X-X-X-X-X-X-X-X-X-X-X-X-X-X-X-X",
"-X-X-X-X-X-X-X-X-X-X-X-X-X-X-X-X-X-X-X-X  . # = +   . -X-X-X-X-X-X-X-X-X-X-X-X-X-X-X-X-X-X-X-X-X-X-X",
"-X-X-X-X-X-X-X-X-X-X-X-X-X-X-X-X-X        o = : .   .                 -X-X-X-X-X-X-X-X-X-X-X-X-X-X-X",
"-X-X-X-X-X-X-X-X-X-X-X-X-X-X-X  X o X @ + @ 4 *   . + . X @ $ * $ # @ + + $ -X-X-X-X-X-X-X-X-X-X-X-X",
"-X-X-X-X-X-X-X-X-X-X-X-X-X  + $ ; 5 q 5 4 4 4 X X + & # : 8 g m M m g 8 6 @   -X-X-X-X-X-X-X-X-X-X-X",
"-X-X-X-X-X-X-X-X-X-X-X-XX # 4 h C (  .Z ( ..g X @ 2 > 5 f C #.-.w.[ j *.V 5 @ . -X-X-X-X-X-X-X-X-X-X",
"-X-X-X-X-X-X-X-X-X-X2 @ = f / C.{.).#.5.%.oX0 = 0 I 5 9 M ' k.+X^.s v.$.$.( 5 # . -X-X-X-X-X-X-X-X-X",
"-X-X-X-X-X-X-X-X-XX @ w g ` E.=X&XE.#.5.%.' f f Q l.f 7 = = < p & T oX`.#.#.C : @ . -X-X-X-X-X-X-X-X",
";X;X;X;X;X;X;X;X    # : n +.F.F._ O.O.) N.M j V J.x.j z ; @ @ $ i 2 d j.8 / O.f $ X   -X-X-X-X-X-X-X",
";X;X;X;X;X;X;X;Xo # ; 4 $ w  .' m j f f K.D m ;.U.| J n f f 5 a.- + . . X j ( 4 X o X -X-X-X-X-X-X-X",
";X;X;X;X;X;X;X+ ; 4 4 4 = @ y ^ g 5 8 : g m S T./ C V M C J b.6 @ o . X X & @ X * $ o . -X-X-X-X-X-X",
";X;X;X;X;X;XX : 5 5 5 4 4 $ # P I.D l q 5 j m } C V C M v.Q.B 8 E e @ % O . o 5 * @ o   . X X -X-X-X",
";X;X;X;X-X-X+ 5 9 q 8 9 9 5 = : z.OX:.M j V Z ( } / / Z '._ M m :.:., X .     . X               o -X",
";X;X;X;X-X  o 5 8 q c Y c 5 : f V (.c.C { | 7.&.0...] <.1.( H d.W 9 : # o                   . . -X-X",
";X;X;X;X-X  $ 5 8 k l n U a.T f M ) l.Z 5.9.i.i.A.8.9.Y.(.(.n.g f 9 8 #                   X -X-X-X-X",
";X;X;X;X-XX 4 8 M M m 9 e P x h m h C } t.W.~.XX`.G.=.+.( ) ! f 8 5 : o             . # $ -X-X-X-X-X",
";X;X;X;X  . 4 f @.@Xs X # : 5 4 j A m } V.~.W.Z.A.XXZ.e.{ M f 4 4 5 = o           o ; ; $ -X-X-X-X-X",
";X;X;X;X  + ; h %.|.a # $ : f g 5 J D G B.`.W.Z.w.$XD.7./ M j r r 5 : $ + .       + $ # @ -X-X-X-X-X",
";X;X;X;Xo : 5 9 V 6 < u p.f.f.8 C Z C ;.B.E.[.A.~.XXZ.' >./.g.r 4 5 4 5 4 $ X   . $ : $ . -X-X-X-X-X",
";X;X;X;X# 7 7 0 z 3 % # 4 f f m ) L.^ 2.U.R.E.[.{.q.y.| B U q 5 9 m M g ; @     o : : @   -X-X-X-X-X",
"-X-X-X-X* : @ o @ o o o = 8 9 j O.m.G G c.B.e.r.r.9.( m j j v h ( &.s.y $ X     X ; # X   -X-X-X-X-X",
"-X-X-X-X* = @ + # .   . # f m m { C ( V { >.,.,.] ) M f 4 U n.) O. X%X#X .j .     . o     -X-X-X-X-X",
"-X-X-X-X-X. . .           8  .x.S M V V C C C / C V j 6 9 v P.V.-.&X=XXXO.C $   . @ @     -X-X-X-X-X",
"-X-X-X-XX .             + k X./ B P.N.6.( 4.3.V N m B h h m B 7.] H.h.N g X .   @ : =   -X-X-X-X-X-X",
"-X-X-X-X.               $ 9 h m b..._.&.o.}.$XV h g.b.I.N g f V ` M D : @       @ : =   -X-X-X-X-X-X",
"-X-X-X-X. -X-Xo o X       + 8 ~ H t.].K.$.)..X( h m ].e.!._ j f C ( m 4 o         @ $ . -X-X-X-X-X-X",
"-X-X-X-X-X-X-X-X-X  X .   $ L z m S. XP.$.E._./ 9 f G ~.-.D.] h 5 f 9 : +   . .   . o   -X-X-X-X-X-X",
"-X-X-X-X-X-X-X-X-X-X* X X & 1 ; x { :.Z o.S.Q.V 5 : M t.C.$.i.j m : 4 $ .   # : ; * o   -X-X-X-X-X-X",
"-X-X-X-X-X-X-X-X-X* # + % < o @ y 5 f j ` V.N.m = ; h ' y.&.o.Q V g : @   X # : 4 $ X -X-X-X-X-X-X-X",
"-X-X-X-X-X-X-X-X-X# + -X, X X + + @ = 5 M 2.l.g : ; 8 V %.e./ ( K 9 = o $ ; 4 4 = @   -X-X-X-X-X-X-X",
"-X-X-X-X-X-X-X-X@ -X-X-Xo . o % @ + + * f ! ^ j 5 ; 4 8 h @.X.V g 7 $ X   # : = # X -X-X-X-X-X-X-X-X",
"-X-X-X-X-X-X-X-X-X-X-X-X. X   + # X * : 9 n ! g 4 = = 4 4 8 k q : = = ; = @ + # @ -X-X-X-X-X-X-X-X-X",
"-X-X-X-X-X-X-X-X-X-X-X-X-X-X-X-X@ + # @ : c E 9 $ X o # * = = = + # * $ # # @ o -X-X-X-X-X-X-X-X-X-X",
"-X-X-X-X-X-X-X-X-X-X-X-X-X-X-X-X  X o . = 6 w $ .     . X X . . o o o o + o . -X-X-X-X-X-X-X-X-X-X-X",
"-X-X-X-X-X-X-X-X-X-X-X-X-X-X-X-X-X-X. . @ - 2 %   .   -X-X-X-X  .   X     . X -X-X-X-X-X-X-X-X-X-X-X",
"-X-X-X-X-X-X-X-X-X-X-X-X-X-X-X-X-X-X  . ;X;X;X;X-X-X-X-X-X-X-X-X-X-X-Xo       -X-X-X-X-X-X-X-X-X-X-X",
"-X-X-X-X-X-X-X-X-X-X-X-X-X-X-X-X-X-X  -X-X-X-X-X-X-X-X-X-X-X-X-X-X-X-X-X-X    . -X-X-X-X-X-X-X-X-X-X",
"-X-X-X-X-X-X-X-X-X-X-X-X-X-X-X-X-X-X-X-X-X-X-X-X-X-X-X-X-X-X-X-X-X-X-X-X-X-X.   o -X-X-X-X-X-X-X-X-X",
"-X-X-X-X-X-X-X-X-X-X-X-X-X-X-X-X-X-X-X-X-X-X-X-X-X-X-X-X-X-X-X-X-X-X-X-X-X-X-XX . -X-X-X-X-X-X-X-X-X",
"-X-X-X-X-X-X-X-X-X-X-X-X-X-X-X-X-X-X-X-X-X-X-X-X-X-X-X-X-X-X-X-X-X-X-X-X-X-X-X-X-X-X-X-X-X-X-X-X-X-X",
"-X-X-X-X-X-X-X-X-X-X-X-X-X-X-X-X-X-X-X-X-X-X-X-X-X-X-X-X-X-X-X-X-X-X-X-X-X-X-X-X-X-X-X-X-X-X-X-X-X-X",
"-X-X-X-X-X-X-X-X-X-X-X-X-X-X-X-X-X-X-X-X-X-X-X-X-X-X-X-X-X-X-X-X-X-X-X-X-X-X-X-X-X-X-X-X-X-X-X-X-X-X"
};
