/* XPM */
static char *ZmlyZTY_[] = {
/* columns rows colors chars-per-pixel */
"50 50 130 2 ",
"   c #FD0500",
".  c #FC0B00",
"X  c #F61501",
"o  c #FD1301",
"O  c #F31C01",
"+  c #FD1C01",
"@  c #EE2401",
"#  c #EA2D01",
"$  c #F32303",
"%  c #FC2302",
"&  c #F22A03",
"*  c #FD2B02",
"=  c #F72E09",
"-  c #FC2A0B",
";  c #E63400",
":  c #EA3403",
">  c #E33B01",
",  c #EE3E01",
"<  c #EE3408",
"1  c #FD3302",
"2  c #F73B01",
"3  c #FD3B02",
"4  c #FD350F",
"5  c #FD3F08",
"6  c #DE4401",
"7  c #DA4C01",
"8  c #CF5F00",
"9  c #D55500",
"0  c #D85201",
"q  c #D25B00",
"w  c #DC590B",
"e  c #E34203",
"r  c #E34C04",
"t  c #EA440B",
"y  c #E74D0B",
"u  c #EC4B0E",
"i  c #F34301",
"p  c #FD4302",
"a  c #FE4B02",
"s  c #FE450B",
"d  c #FA4E0D",
"f  c #E1590C",
"g  c #FD5301",
"h  c #FE5C01",
"j  c #FC560F",
"k  c #FE5C08",
"l  c #FC4912",
"z  c #E65C13",
"x  c #F25016",
"c  c #FC5317",
"v  c #F15E1D",
"b  c #CD6400",
"n  c #D06000",
"m  c #D8791A",
"M  c #FF6300",
"N  c #FF6A01",
"B  c #FF650F",
"V  c #FE7201",
"C  c #FF7D01",
"Z  c #FF730C",
"A  c #E66316",
"S  c #E36619",
"D  c #E26B1A",
"F  c #F16019",
"G  c #FA621B",
"H  c #E3711C",
"J  c #FF771F",
"K  c #FC6924",
"L  c #FE7225",
"P  c #F57925",
"I  c #FE7D25",
"U  c #FF7A29",
"Y  c #FE7140",
"T  c #D8821E",
"R  c #FD8802",
"E  c #FE9201",
"W  c #FF9A02",
"Q  c #E5821E",
"!  c #FF8310",
"~  c #FF871F",
"^  c #FFA305",
"/  c #FFAE02",
"(  c #F3AA0F",
")  c #FFA90C",
"_  c #FFB503",
"`  c #FFBD02",
"'  c #ECA213",
"]  c #F8AF12",
"[  c #FFA11D",
"{  c #DA8420",
"}  c #DB8725",
"|  c #DA8320",
" . c #DD8A20",
".. c #DD8B2A",
"X. c #E58124",
"o. c #E18725",
"O. c #E18F29",
"+. c #F38027",
"@. c #FE8327",
"#. c #E09327",
"$. c #E49A2A",
"%. c #FF9822",
"&. c #E99136",
"*. c #E59C32",
"=. c #ED9A3F",
"-. c #FF9E37",
";. c #FF9339",
":. c #ECAC27",
">. c #EAA729",
",. c #E9A52C",
"<. c #E9A931",
"1. c #E8A838",
"2. c #E9A93C",
"3. c #FFAB39",
"4. c #F0B735",
"5. c #FFC203",
"6. c #FFCD01",
"7. c #FFCB03",
"8. c #FECC0E",
"9. c #FBC512",
"0. c #FAC513",
"q. c #FAC91F",
"w. c #FFC91F",
"e. c #FFDB11",
"r. c #FFE206",
"t. c #FFFD01",
"y. c #FBD35E",
"u. c #FFF6CA",
"i. c None",
"p. c black",
/* pixels */
"i.i.i.i.i.i.i.i.i.i.i.i.i.i.i.i.i.i.i.i.i.i.i.i.i.i.i.i.i.i.i.i.i.i.i.i.i.i.i.i.i.i.i.i.i.i.i.i.i.i.",
"i.i.i.i.i.i.i.i.i.i.i.i.i.i.i.i.i.i.i.i.i.i.i.i.i.i.i.i.i.i.i.i.i.i.i.i.i.i.i.i.i.i.i.i.i.i.i.i.i.i.",
"i.i.i.i.i.i.i.i.i.i.i.i.i.i.i.i.i.i.i.i.i.i.i.i.i.o i.i.i.i.i.i.i.i.i.i.i.i.i.i.i.i.i.i.i.i.i.i.i.i.",
"i.i.i.i.i.i.i.i.i.i.i.i.i.i.i.i.i.i.i.i.i.i.i.i.i.  i.i.i.i.i.i.i.i.i.i.i.i.i.i.i.i.i.i.i.i.i.i.i.i.",
"i.i.i.i.i.i.i.i.i.i.i.i.i.i.i.i.i.i.i.i.i.i.i.i.i.i.i.i.i.i.i.i.i.i.i.i.i.i.i.i.i.i.i.i.i.i.i.i.i.i.",
"i.i.i.i.i.i.i.i.i.i.i.i.i.i.i.i.i.i.i.i.i.i.i.i.i.i.i.i.i.i.i.i.i.i.i.i.i.i.i.i.i.i.i.i.i.i.i.i.i.i.",
"i.i.i.i.i.i.i.i.i.i.i.i.i.i.i.i.i.i.i.i.i.i.i.i.i.i.i.i.i.i.i.i.i.i.i.i.i.i.i.i.i.i.i.i.i.i.i.i.i.i.",
"i.i.i.i.i.i.i.i.i.i.i.i.i.i.i.i.i.i.i.i.i.i.i.i.i.  i.i.i.i.i.i.i.i.i.i.i.i.i.i.i.i.i.i.i.i.i.i.i.i.",
"i.i.i.i.i.i.i.i.i.i.i.i.i.i.a a a g C V p * i.i.i.i.i.i.i.i.i.i.i.i.i.p.p.p.i.i.p.p.p.p.p.p.p.p.i.i.",
"i.i.i.i.i.i.i.i.i.i.i.i.3 h M g h N ` ` N h 1 3 i.i.i.a h g i.i.i.i.g g p.p.i.i.p.p.p.p.p.p.p.p.i.i.",
"i.i.i.i.i.i.i.i.i.i.i.i.g a 3 % * p M N a a h h * i.M M M k i.i.i.+ 3 M g i.i.i.p.p.p.p.p.p.p.p.i.i.",
"i.i.i.i.i.i.i.i.i.i.i.* * i.i.i.i.i.o o i.* h M p a k p p 3 i.i.i.i.i.p 5 i.i.i.p.p.p.p.p.p.p.p.i.i.",
"i.i.i.i.i.i.i.i.i.i.i.i.i.i.i.i.i.i.i.i.i.% g g 1 1 i.i.i.i.i.i.i.i.i.i.i.i.i.i.p.p.p.p.p.p.p.p.i.i.",
"i.i.i.i.i.i.i.i.i.. i.i.i.i.i.i.i.i.i.i.i.% 1 + i.i.i.i.i.i.. o i.i.i.i.i.i.i.d p.p.p.p.p.p.p.p.i.i.",
"i.i.i.i.i.i.i.i.i.i.i.i.i.i.i.i.i.i.i.& &     i.i.i.i.i.i.. . o i.i.i.Y i.i.p.M 3 . p.p.p.p.p.p.i.i.",
"i.i.i.i.i.i.i.i.i.i.i.i.i.i.i.i.i.i.H $.O.D S A i.i.i.i.i.i.= i.i.i.i.i.i.i.p.a g p.p.p.p.p.p.p.i.i.",
"i.i.i.i.i.i.a 5 i.i.i.i.i.i.i.i.i.i.X._ ] O.( ' y i.i.i.i.{ >.&.i.i.i.i.i.i.i.i.i.a i.i.. p.p.p.i.i.",
"i.i.i.i.i.g g * i.i.i.i.i.i.i.i.i.i.x +.P v H #.t i.> ; . o.8.q.=.i.i.i.i.i.i.i.i.3 i.i.p.o   . i.i.",
"i.i.i.i.3 h 1 i.i.i.i.i.i.i.i.X @ . . o O $ o O . : b q   v y.6.4.i.i.i.i.i.i.i.i.% i.i.  . o i.i.i.",
"i.i.i.i.p g i.i.i.i.i.i.i.i.i.> e i * o $ 7 % 4 - @ 9 #   w <.0.1.i.i.i.i.i.i.i.i.i.i.o * i.i.i.i.i.",
"i.i.i.i.i.5 i.i.i.i.i.i.i.i.. p h M M p % G U -.3.U 3 +   > m | D i.i.i.i.i.i.i.i.i.s h h h a i.i.i.",
"i.i.i.i.i.p i.i.i.i.i.. i.+ p h M h 3 1 c ! C N ^ [ Z V p i.i.i.i.i.i.i.i.i.i.i.1 i.1 g h h h i.i.i.",
"i.i.i.i.i.p i.i.i.i.i.. i.2 2 a h 2 @ X K W ) %.I @.k h h i.i.i.i.< T } z i.i.i.p p.p.1 p 3 3 i.i.i.",
"i.i.i.i.i.i.i.i.i.i.i.i.* * . * 2 % O > l ~ ;.L 3 % . + p i.i.i.i.w :.9.*.$ i.5 g p.p.% i.i.i.i.i.i.",
"i.i.g p.p.p.p.p.i.i.i.i.* %     .     i.. 5 s 5 1 i.p.p.p.p.p.9 6 < 2.7.,.e i.i.p * i.i.i.i.i.i.i.i.",
"i.i.p i.p.p.p.p.i.i.i.o 3 p u : X . i.i.i.i.1 a a i.p.p.p.p.p.p.7   D #.{ > + i.i.i.i.i.i.i.i.i.i.i.",
"i.i.1 i.p.p.p.p.i.i.i.3 h h j z 7 9 i.i.i.i.i.h g p.p.p.p.p.p.p.i.  7 b q . 3 * i.i.i.i.i.i.i.i.i.i.",
"i.i.i.i.p.p.p.p.i.i.* g M M a z 9 9 i.i.i.i.i.i.p.p.p.p.p.p.p.p.i.. q b >   + 3 3 5 i.i.i.i.i.i.i.i.",
"p.p.p.p.p.p.p.p.i.i.* h a d d f 6 O i.i.i.i.i.i.p.p.p.p.p.p.p.p.i.; b b > i.i.3 p 3 * i.i.i.i.i.i.i.",
"p.p.p.p.p.p.p.p.i.o p a % e r >   i.i.i.i.i.i.i.p.p.p.p.p.p.p.p.6 # b 9 6 i.i.+ p g a * i.i.i.i.i.i.",
"p.p..   p.p.p.p.i.+ g g . O > : i.i.i.i.i.i.i.i.p.p.p.p.p.p.p.p.b # o i.i.i.i.. o g h 1 i.i.i.i.i.i.",
"p.p.p.p.p.p.p.p.i.i.a g +   .   i.i.i.i.i.i.i.: p.p.p.p.p.p.p.p.q 6 i.i.i.i.i.o * g h + i.i.i.i.i.i.",
"p.p.p.p.p.p.p.p.p.p.1 M a . i.i.. 6 7 i.i.i.9 b 9 i.i.i.i.i.i.i.i.i.i.i.i.i.i.o 3 a 3 + i.i.i.i.i.i.",
"p.p.p.p.p.p.p.p.p.p.+ g h a * i.6 q b O i.i.q b b 9 . i.@ 7 @ i.i.i.i.i.i.i.. 3 a h p .   i.i.i.i.i.",
"p.p.p.p.p.p.p.p.p.p.. 3 M M a o 7 q q > i.i.0 q q q ; . 7 7 e X * i.i.i.+ o + s g M p o i.i.i.i.i.i.",
"p.p.p.p.p.p.p.p.p.p.p.p.p M p o > q n 6 i.  7 q 9 > X @ 7 7 e & a i.i.  1 1 3 p M h 1 i.i.i.i.i.i.i.",
"p.p.p.p.p.p.p.p.p.p.p.p.i.1 a + i.@ ; i.; @ 9 7 >     $ > , 2 * h M h 3 1 a B M M a o i.i.i.i.i.i.i.",
"p.p.p.p.p.p.p.p.p.p.p.p.i.i.* a i.i.i.i.7 n 9 r 2 + o + 2 h a o h w.u.r.5.` N g a * i.i.i.i.i.i.i.i.",
"p.p.p.p.p.p.p.p.p.p.. p.p.p.i.1 a 5 i.i.i.> > & g h g M V N 3 . p _ e.t.t.5.M + 1 i.i.i.i.i.i.i.i.i.",
"p.p.p.p.p.p.p.p.p.p.p.p.p.p.p.  i.i.i.i.i.i.i.i.* g M W 7.M + i.. g E ` / C g 1 i.i.i.i.i.i.i.i.i.i.",
"p.p.p.p.p.p.p.p.p.p.p.p.p.p.p.p.i.i.i.i.i.i.i.i.i.i.5 N R a p.p.i.i.1 p a 3 * i.i.i.i.i.i.i.i.i.i.i.",
"p.p.p.p.p.p.p.p.p.p.p.p.p.p.p.p.i.i.i.i.i.i.i.i.i.i.i.p.p.p.p.p.i.i.i.i.i.i.i.i.i.i.i.i.i.i.i.i.i.i.",
"p.p.p.p.p.p.p.p.p.p.p.p.p.p.p.p.i.i.i.i.i.i.i.i.i.i.p.p.p.p.p.p.i.i.i.i.i.i.i.i.i.i.i.i.i.i.i.i.i.i.",
"p.p.p.p.p.p.p.p.p.p.p.p.p.p.p.p.i.i.i.i.i.i.i.i.i.i.p.p.p.p.p.p.i.i.i.i.i.i.i.i.i.i.i.i.i.i.i.i.i.i.",
"p.p.p.p.p.p.p.p.p.p.p.p.p.p.p.p.i.i.i.i.i.i.i.i.i.i.i.i.p.p.p.p.i.i.i.i.i.i.i.i.i.i.i.i.i.i.i.i.i.i.",
"p.p.p.p.p.p.p.p.p.p.p.p.p.p.p.p.i.i.i.i.i.i.i.i.i.i.i.i.p.p.p.p.i.i.i.i.i.i.i.i.i.i.i.i.i.i.i.i.i.i.",
"p.p.p.p.p.p.p.p.p.p.p.p.p.p.p.p.i.i.i.i.i.i.i.i.i.i.i.i.p.p.p.p.i.i.i.i.i.i.i.i.i.i.i.i.i.i.i.i.i.i.",
"p.p.p.p.p.p.p.p.p.p.p.p.p.p.p.p.i.i.i.i.i.i.i.i.i.i.i.i.p.p.p.p.i.i.i.i.i.i.i.i.i.i.i.i.i.i.i.i.i.i.",
"p.p.p.p.p.p.p.p.p.p.p.p.p.p.p.p.p.p.p.p.p.p.p.p.p.p.p.p.p.p.p.p.i.i.i.i.i.i.i.i.i.i.i.i.i.i.i.i.i.i.",
"p.p.p.p.p.p.p.p.p.p.p.p.p.p.p.p.p.p.p.p.p.p.p.p.. p.p.p.p.p.p.p.i.i.i.i.i.i.i.i.i.i.i.i.i.i.i.i.i.i."
};
