/* XPM */
static char *ZmlyZTU_[] = {
/* columns rows colors chars-per-pixel */
"50 50 160 2 ",
"   c #FD0500",
".  c #FD0B00",
"X  c #F61400",
"o  c #FD1301",
"O  c #F31C01",
"+  c #FD1C01",
"@  c #EE2401",
"#  c #EB2B01",
"$  c #F22101",
"%  c #FD2300",
"&  c #F12D01",
"*  c #FD2B01",
"=  c #FD220A",
"-  c #E63401",
";  c #EA3303",
":  c #E43D02",
">  c #EB3A01",
",  c #EB3608",
"<  c #F33201",
"1  c #FE3401",
"2  c #F33D01",
"3  c #FD3B00",
"4  c #F23408",
"5  c #FD3A0B",
"6  c #FD2611",
"7  c #FD3C12",
"8  c #DE4501",
"9  c #DB4B02",
"0  c #D55501",
"q  c #D95303",
"w  c #D25A00",
"e  c #DE570B",
"r  c #DD5A0D",
"t  c #E24202",
"y  c #EE4601",
"u  c #E44C02",
"i  c #ED430A",
"p  c #F44501",
"a  c #FE4400",
"s  c #FE4C00",
"d  c #F74109",
"f  c #F45201",
"g  c #FE5400",
"h  c #FE5B00",
"j  c #FD5408",
"k  c #F45D0E",
"l  c #FC4418",
"z  c #E15912",
"x  c #FE5313",
"c  c #FF5913",
"v  c #FD5B1D",
"b  c #CE6502",
"n  c #D7650D",
"m  c #D8630C",
"M  c #D36C0B",
"N  c #D2730F",
"B  c #D57713",
"V  c #D57813",
"C  c #D77B19",
"Z  c #D87F1C",
"A  c #FF6400",
"S  c #FE6C00",
"D  c #FD6109",
"F  c #FF6E0B",
"G  c #FF7300",
"H  c #FF7C01",
"J  c #FF7C0E",
"K  c #FD651F",
"L  c #FB6C1C",
"P  c #FF7412",
"I  c #FF751A",
"U  c #FD6825",
"Y  c #FD6A29",
"T  c #E77524",
"R  c #ED762A",
"E  c #FF7023",
"W  c #FD762A",
"Q  c #FD7B2B",
"!  c #FB7331",
"~  c #FE6E42",
"^  c #FE7C51",
"/  c #DE870B",
"(  c #D7801C",
")  c #D8821F",
"_  c #E6890D",
"`  c #FE8301",
"'  c #FF8B01",
"]  c #FF8709",
"[  c #FF9502",
"{  c #FF9C02",
"}  c #E18111",
"|  c #FF8710",
" . c #FF8C10",
".. c #FFA602",
"X. c #FFAE01",
"o. c #FFA10B",
"O. c #FFB302",
"+. c #FFBB03",
"@. c #FFB40B",
"#. c #FFBB0B",
"$. c #FFAA11",
"%. c #FFB217",
"&. c #FFBE16",
"*. c #F4BB1F",
"=. c #FABD1A",
"-. c #DB8B27",
";. c #DE922D",
":. c #DF9530",
">. c #E4992F",
",. c #FF972F",
"<. c #EE8938",
"1. c #E19631",
"2. c #ED9232",
"3. c #E59738",
"4. c #E49C38",
"5. c #E99A3C",
"6. c #F09533",
"7. c #ECA22D",
"8. c #EEAC28",
"9. c #FFA02F",
"0. c #FFAA2A",
"q. c #F3BA2F",
"w. c #EFA732",
"e. c #E7A83B",
"r. c #F3AE37",
"t. c #F0A33C",
"y. c #F9BF30",
"u. c #F1B83E",
"i. c #FFCE02",
"p. c #FFCB02",
"a. c #FFC10B",
"s. c #FFCA08",
"d. c #FFD402",
"f. c #FFDC02",
"g. c #FFDE09",
"h. c #FECE1B",
"j. c #FFE501",
"k. c #FFEA02",
"l. c #FFFB01",
"z. c #F6C020",
"x. c #F8C525",
"c. c #FCCC2B",
"v. c #FACC35",
"b. c #FED236",
"n. c #FFE421",
"m. c #FFE12A",
"M. c #FD8941",
"N. c #F29B42",
"B. c #F9B453",
"V. c #FFFE4A",
"C. c #FFF56B",
"Z. c #FFF86A",
"A. c #FFEA7D",
"S. c #FEDD9D",
"D. c #FFF497",
"F. c #FFFBA1",
"G. c #FFF9B9",
"H. c #FFFFC1",
"J. c None",
"K. c black",
/* pixels */
"J.J.J.J.J.J.J.J.J.J.J.J.J.J.J.J.J.J.J.J.J.J.J.J.J.J.J.J.J.J.J.J.J.J.J.J.J.J.J.J.J.J.J.J.J.J.J.J.J.J.",
"J.J.J.J.J.J.J.J.J.J.J.J.J.J.J.J.J.J.J.J.J.J.J.J.J.J.J.J.J.J.J.J.J.J.J.J.J.J.J.J.J.  J.J.J.J.J.J.J.J.",
"J.J.J.J.J.J.J.J.J.J.J.J.J.J.J.J.J.J.J.J.J.J.J.J.J.J.J.J.J.J.J.J.J.J.J.J.J.J.J.J.J.J.J.J.J.J.J.J.J.J.",
"J.J.J.J.J.J.J.J.J.J.J.J.J.J.J.J.J.J.J.J.J.J.J.J.J.J.J.J.J.J.J.J.J.J.J.J.J.J.J.J.J.J.J.J.J.J.J.J.J.J.",
"J.J.J.J.J.J.J.J.J.J.J.J.J.J.J.J.J.J.J.J.J.J.J.J.J.J.J.J.J.J.J.J.J.J.J.J.J.J.J.J.J.J.J.J.J.J.J.J.J.J.",
"J.J.J.J.J.J.J.J.J.J.J.J.J.J.J.J.J.J.J.J.J.J.J.J.J.  J.J.J.J.J.J.J.J.J.J.J.J.J.J.J.J.J.J.J.J.J.J.J.J.",
"J.J.J.J.J.J.J.J.J.J.J.J.J.J.J.J.J.J.J.J.J.J.J.J.o . J.J.J.J.J.J.J.J.J.J.J.J.J.J.J.J.J.J.J.J.J.J.J.J.",
"J.J.J.J.J.J.J.J.J.J.J.J.J.J.J.J.J.J.J.J.J.J.J.J.. o J.J.J.J.J.J.J.J.J.J.J.J.J.J.J.J.J.J.J.J.J.J.J.J.",
"J.J.J.J.J.J.J.J.J.J.J.J.J.J.J.J.J.J.J.J.K.K.K.K.. J.K.K.K.K.K.K.J.J.J.J.J.J.J.J.J.J.J.J.J.J.J.J.J.J.",
"J.J.J.J.J.J.J.J.J.J.J.J.J.J.J.J.J.J.J.J.K.K.K.* +   K.K.K.K.K.K.J.J.J.J.J.J.J.J.J.J.J.J.J.J.J.J.J.J.",
"J.J.J.J.J.J.J.J.J.J.J.J.J.J.a h h g s a 3 1 a h * . 1 a s a * K.J.% a 3 J.J.J.J.J.J.J.J.J.J.J.J.J.J.",
"J.J.J.J.J.J.J.J.J.J.J.J.J.h A g s h A h g A A A a s &.s.H A A 1 . g A S g J.J.J.J.J.J.J.J.J.J.J.J.J.",
"J.J.J.J.J.J.J.J.J.J.J.J.g A s J.J.% * % + 3 A A s ` Z.n.H A h g + * h A A 3 J.J.J.J.J.J.J.J.J.J.J.J.",
"J.J.J.J.J.J.J.J.J.J.J.s h g % J.J.J.J.J.K.1 A A s ` X.{ A A g a o % h A A s J.J.J.J.J.J.J.J.J.J.J.J.",
"J.J.J.J.J.J.J.J.J.J.1 s * * J.J.J.J.J.J.K.* 3 x v h s 1 * * 1 % * o % h A a s g * . J.J.J.J.J.J.J.J.",
"J.J.J.J.J.J.J.J.J.g 3 . J.J.J.J.J.J.J.J.= 6 * ^ ~ 3 J.J.J.+ % l 7 J.J.1 a + a A +   J.J.J.J.J.J.J.J.",
"J.J.J.J.J.J.J.J.J.s J.J.l J.J.J.J.J.J.R w.r.6.U < J.J.J.* 3 U ! J.I M.. %   * . o 1 J.J.J.J.J.J.J.J.",
"J.J.J.J.J.J.1 a s J.J.J.% J.J.J.J.J.J.7.+.+.+.w.i J.J.. k N.B.W J.J.J.J.. o a s G g o o . J.J.J.J.J.",
"J.J.J.J.J.3 A g % J.J.J.J.J.J.S.J.J.% 2.=.a.a.8.r   : q <.b.s.y.! J.J.J.J.* g A A a o   + .   . J.J.",
"J.J.J.J.J.s A 1 J.J.J.J.J.J.J.J.J.$ . = T 5.3.Z 9 X b } ;.v.p.p.t.J.J.J.J.J.% 1 g g + + .   . J.J.J.",
"J.J.J.J.J.g s J.J.J.J.J.J.J.J.. @ 9 -   $ 9 @ $ . . q q 4 4.x.x.1.J.J.J.J.J.J.. s g o . . o J.J.J.J.",
"J.J.J.J.J.g * J.J.J.J.J.J.J.O a S S 3 o   O l ! Y 5 o   . M ) ) n J.J.J.. J.J.J.1 % + 3 h 3 J.J.J.J.",
"J.J.J.J.J.g J.J.J.  o . . - y 0.Z...A a * 3 c J $.,.P k % - O X   o @ O   J.J.  * a s A h h J.J.J.J.",
"J.J.J.J.J.g J.J.J.J.J.. . % g %.m.[ h p h h h h ` ,.J ] j J.J.J.t C ( M $ J.. . h A A h g 1 J.J.J.J.",
"J.J.J.h s J.3 J.J.J.J.J.J.a A G H A 2 # o K  .F P Q A D j J.J.# ) q.z.:.9 .   o s A A h 1 % J.J.J.J.",
"J.J.g g J.J.J.J.J.. J.J.o h s < < < O     5 E W j 3 * 1 1 J.J.w 1.h.p.u.m . 3 % + * * * + J.J.J.J.J.",
"J.J.h J.J.. o J.. . J.  3 h d > ; :     J.. 3 3 g 3 J.J.J.J.J.9 -.c.p.q.z   s A 3 .   J.J.J.J.J.J.J.",
"J.J.J.J.J.. . o J.J.J.* g A s i : 8 : J.J.J.J.J.J.J.J.J.J.J.J.X M e.*.>.,   3 h A a o J.  J.J.J.J.J.",
"K.K.K.K.J.J.J.J.J.J.. s | H A p 8 q 0 J.J.J.J.J.J.J.J.J.J.J.J.J.9 N V n .   + 1 3 h 1 J.J.J.J.J.J.J.",
"K.K.K.K.. . J.J.J.J.+ ` F...A 2 9 w 0 J.J.J.J.J.J.J.J.J.J.J.J.. q b b w X   * s a s s + J.J.J.J.J.J.",
"K.K.K.. o + J.J.J.. % G [ G 2 > # t - J.J.J.J.J.J.J.J.J.J.J.J., B B M e .   * s A A h % J.J.J.J.J.J.",
"K.K.K.. o . o J.J.  % A h & ; #   J.J.J.J.J.J.J.J.J.J.J.J.J.J., _ ( 8 . K.  o s S h g % J.J.J.J.J.J.",
"K.K.K.K.K.K.K.K.K.K.% A A * @ X   J.J.J.J.J.q w : J.J.J.J.J.J.$ r e X J.J.. . g S 1 3 % J.J.J.J.J.J.",
"K.K.K.K.K.K.K.K.K.K.K.s h h *   . @ # J.J.; w w 0 :   . @ O 1 g $ O         1 H S o     . J.J.J.J.J.",
"K.K.K.K.K.K.K.K.K.K.K.* A S A 3 3 t 8 :   @ 9 9 8 8 # - t : 3 A g % . . % a S H S A 3 o . . J.J.J.J.",
"K.K.K.K.K.K.K.K.K.K.K.K.g h S H H a u :     8 > s : : ; < < > G ..@.' ` &.f.X.H A A 3 J.J.J.J.J.J.J.",
"K.K.K.K.K.K.K.K.J.J.J.J.+ 3 G d.O.p : : O   & h S g f G G A h ` k.H.F.l.l.l.p.H A g % J.J.J.J.J.J.J.",
"K.K.K.K.K.K.K.K.J.J.J.. . . g O...s ; > > < g f S G #.A.p.H A S +.D.G.f.k...G A A 3 J.J.J.J.J.J.J.J.",
"K.K.K.K.K.K.K.K.J.J.J.  J.J.% g h h h A A A y t h G g.V.j.H A a G ' G ..` g   g a % J.J.J.J.J.J.J.J.",
"K.K.K.K.K.K.K.K.J.J.. J.J.J.J.. % s g g s * @ $ % A { O.o.S h % 3 A A A A A s 3 * K.J.J.J.J.J.J.J.J.",
"J.J.J.J.J.J.J.J.J.J.J.J.J.J.J.J.J.+ % % J.J.J.  J.+ a A I g * . . * s g g g 3 * J.J.J.J.J.J.J.J.J.J.",
"J.J.J.J.J.J.J.J.J.J.J.J.J.J.J.J.J.J.J.J.J.J.J.J.J.J.J.% % + J.J.J.J.+ * * % o J.J.J.J.J.J.J.J.J.J.J.",
"J.J.J.J.J.J.J.J.J.J.J.J.J.J.J.J.J.J.J.J.J.J.J.J.J.J.J.J.J.J.J.J.J.J.J.J.J.J.J.J.J.J.J.J.J.J.J.J.J.J.",
"J.J.J.J.J.J.J.J.J.J.J.J.J.J.J.J.J.. J.J.J.J.J.J.J.J.J.J.J.J.J.J.J.J.J.J.J.J.J.J.J.J.J.J.J.J.J.J.J.J.",
"J.J.J.J.J.J.J.J.J.J.J.J.J.J.J.J.J.. J.J.J.J.J.J.J.J.J.J.J.J.J.J.J.J.J.J.J.J.J.o J.J.J.J.J.J.J.J.J.J.",
"J.J.J.J.J.J.J.J.J.J.J.J.J.J.J.J.J.J.J.J.J.J.J.J.J.J.J.J.J.J.J.J.J.J.J.J.J.J.J..   J.J.J.J.J.J.J.J.J.",
"J.J.J.J.J.J.J.J.J.J.J.J.J.J.J.J.J.J.J.J.J.J.J.J.J.J.J.J.J.J.J.J.J.J.J.J.J.J.J.J.J.J.J.J.J.J.J.J.J.J.",
"J.J.J.J.J.J.J.J.J.J.J.J.J.J.J.J.J.J.J.J.J.J.J.J.J.J.J.J.J.J.J.J.J.J.J.J.J.J.J.J.J.J.J.J.J.J.J.J.J.J.",
"J.J.J.J.J.J.J.J.J.J.J.J.J.J.J.J.J.J.J.J.J.J.J.J.J.J.J.J.J.J.J.J.J.J.J.J.J.J.J.J.J.J.J.J.J.J.J.J.J.J.",
"J.J.J.J.J.J.J.J.J.J.J.J.J.J.J.J.J.J.J.J.J.J.J.J.J.. J.J.J.J.J.J.J.J.J.J.J.J.J.J.J.J.J.J.J.J.J.J.J.J."
};
