/* XPM */
static char *_6e7a991787349d8981d94af82c2c7bc1Wjk3pik8OUcPWJ1[] = {
/* columns rows colors chars-per-pixel */
"50 50 218 2 ",
"   c None",
".  c #01070B",
"X  c #050D13",
"o  c #05131C",
"O  c #161717",
"+  c #061621",
"@  c #071924",
"#  c #071D2A",
"$  c #091F2D",
"%  c #09202D",
"&  c #092334",
"*  c #0B283B",
"=  c #0C2538",
"-  c #0C2D42",
";  c #0C3047",
":  c #0D344D",
">  c #153447",
",  c #0F3652",
"<  c #0F3954",
"1  c #0F3E59",
"2  c #103D59",
"3  c #103C57",
"4  c #133E63",
"5  c #11405E",
"6  c #334552",
"7  c #124363",
"8  c #13456B",
"9  c #13496D",
"0  c #1B4863",
"q  c #154E73",
"w  c #154A7B",
"e  c #184F7F",
"r  c #155076",
"t  c #16547C",
"y  c #17587F",
"u  c #235171",
"i  c #4E6675",
"p  c #165786",
"a  c #165996",
"s  c #114F91",
"d  c #225C84",
"f  c #1B6395",
"g  c #1A659B",
"h  c #1C6A9C",
"j  c #1D628E",
"k  c #2B6183",
"l  c #28658D",
"z  c #35668A",
"x  c #286A96",
"c  c #3F7699",
"v  c #1B69A3",
"b  c #1A69AA",
"n  c #1F74A8",
"m  c #1E74B8",
"M  c #1A6FB1",
"N  c #356EA9",
"B  c #2877AB",
"V  c #3377A2",
"C  c #337CAB",
"Z  c #397BA6",
"A  c #2279B5",
"S  c #2E6EA1",
"D  c #56789B",
"F  c #467197",
"G  c #6A7B8B",
"H  c #4E79A9",
"J  c #5A7FA6",
"K  c #0D5FD0",
"L  c #1D79C1",
"P  c #0D63D9",
"I  c #1064D0",
"U  c #2A6DCD",
"Y  c #2F70CA",
"T  c #0C69ED",
"R  c #0E69E7",
"E  c #126CED",
"W  c #186FEE",
"Q  c #106BE7",
"!  c #1B72EE",
"~  c #1B74E2",
"^  c #1F74F0",
"/  c #2276EE",
"(  c #297BEF",
")  c #2172E2",
"_  c #2275F0",
"`  c #2578F0",
"'  c #2B7CF0",
"]  c #307FF1",
"[  c #2381BC",
"{  c #2780B6",
"}  c #3585BA",
"|  c #688196",
" . c #4883AB",
".. c #5B83A1",
"X. c #4785B6",
"o. c #5D85BD",
"O. c #4B90BE",
"+. c #6785A4",
"@. c #708EB0",
"#. c #258BCB",
"$. c #2483C6",
"%. c #258DD2",
"&. c #2787DC",
"*. c #2691D5",
"=. c #2891D6",
"-. c #2895DA",
";. c #2998DE",
":. c #3297D9",
">. c #348CD0",
",. c #1F88E8",
"<. c #2E8DEF",
"1. c #2E87EB",
"2. c #2A9BE3",
"3. c #2D94EE",
"4. c #2C9CED",
"5. c #2694E9",
"6. c #3196EA",
"7. c #2E8CF0",
"8. c #3481F0",
"9. c #3C86F1",
"0. c #3E88F1",
"q. c #2D91F0",
"w. c #2C99F0",
"e. c #2CA2EE",
"r. c #33A5ED",
"t. c #3DA4EE",
"y. c #3BA9EE",
"u. c #37A8EE",
"i. c #39A8F0",
"p. c #4689C6",
"a. c #5694C9",
"s. c #469ADC",
"d. c #549CD8",
"f. c #498ACD",
"g. c #638CC7",
"h. c #6690CD",
"j. c #6A97C7",
"k. c #6693D1",
"l. c #6996D5",
"z. c #759CD5",
"x. c #709DC0",
"c. c #59A4D8",
"v. c #74A2C8",
"b. c #6AA6D6",
"n. c #77A7DA",
"m. c #4B8CEA",
"M. c #4896E4",
"N. c #5695E7",
"B. c #438BF2",
"V. c #498FF2",
"C. c #4D91F2",
"Z. c #5394F2",
"A. c #5D9BF3",
"S. c #5897F3",
"D. c #669DE5",
"F. c #629DF4",
"G. c #44ABED",
"H. c #45A8EE",
"J. c #56A8EA",
"K. c #4BA9F0",
"L. c #57ACF1",
"P. c #50B0EF",
"I. c #72A9E7",
"U. c #66A1F4",
"Y. c #6CA4F5",
"T. c #71A7F5",
"R. c #75AAF6",
"E. c #7AADF6",
"W. c #65BAF3",
"Q. c #72B5F4",
"!. c #6CACE8",
"~. c #70C1F3",
"^. c #838D9A",
"/. c #8898AA",
"(. c #879CB4",
"). c #88A1B7",
"_. c #9AAABC",
"`. c #97A6B7",
"'. c #A9B0BA",
"]. c #A1A9B3",
"[. c #8AA8C5",
"{. c #9AAFC5",
"}. c #96B7D5",
"|. c #90B4CE",
" X c #A3BDD1",
".X c #A9B7C7",
"XX c #83B2F7",
"oX c #8BB7F6",
"OX c #94BDF7",
"+X c #99BEF7",
"@X c #92BEE4",
"#X c #9BC0DF",
"$X c #A7C1D6",
"%X c #B3C6D8",
"&X c #BEC6CD",
"*X c #84C7F5",
"=X c #9BC5F7",
"-X c #94CAF2",
";X c #BAD4E9",
":X c #A8CAF8",
">X c #B1CEF9",
",X c #A7D5F6",
"<X c #B5D3F9",
"1X c #B9DBF9",
"2X c #ACD3EE",
"3X c #C4D2DD",
"4X c #C9D9E8",
"5X c #C5DEF6",
"6X c #D4DAE0",
"7X c #D9E3EB",
"8X c #CAE4F9",
"9X c #DBE6F3",
"0X c #D5E5FB",
"qX c #DDEBFA",
"wX c #D8E7F4",
"eX c #E4ECF4",
"rX c #E1EDFA",
"tX c #E9F3FB",
/* pixels */
"    * w r 7 7 9 8 9 p q r r p t 9 2 : : 5 5 < : : < 5 5 5 5 5 7 7 9 9 q y p t e w 7 2 , ; - * = X   ",
"  % Q.6.5.e.e.e.e.4.<.4.4.w.e.e.e.e.e.e.e.e.e.e.e.e.e.e.e.e.e.e.e.4.e.4.4.r.<.q.4.e.e.e.e.4.3.,Xi . ",
"  } -X#XJ.4.e.e.e.e.4.4.4.e.e.e.e.e.e.e.e.e.e.e.e.e.e.e.e.e.e.e.e.3.<.<.<.<.w.e.e.e.e.e.4.q.,XqXb.+ ",
"  2.L.2X'.!.e.e.e.e.4.e.e.e.e.e.e.e.e.e.e.e.e.e.e.e.e.e.4.4.4.4.3.7.4.4.4.4.e.e.e.e.e.4.P.<X9X}.w.q ",
"  e.4.Q.;X(.M.4.w.e.w.4.e.e.e.4.e.e.e.e.e.e.e.e.e.e.e.4.w.4.3.3.3.7.4.e.e.e.4.r.e.e.e.K.rX6X+.~ 4.t ",
"7 2.i.H.Q.;X+.&.K.W.q.e.e.e.e.r.e.e.e.e.e.e.e.e.e.4.3.5.3.3.q.q.3.e.4.e.4.e.e.r.e.e.H.8X3XX.,.e.2.q ",
"9 2.e.G.H.-X4XJ d.}.{ B x x l d k y x x h f f j x x x k k k F c F z z k k x >.:.:.s.%X.XY 5.e.e.e.5 ",
"< 2.4.i.H.P.,X(./.{.[.[.[.`.`.].'.'.`.)._.$X4XwXrXrXqX0X0X0X0XqXrX9X7X9X4X4X X{.(.^.H 1.4.e.e.e.e.7 ",
"* 2.e.e.G.r.c._.8XA.A.S.F.oX>X<X<X<X>X:X:XOXU.A.S.8.W Q E E V.E.XXE.E.E.E.B.W W ] W I L e.e.e.e.e.5 ",
"* -.e.e.r.P.{ |.,XT Q E Z.E.E.E.E.E.E.E.V.T T T T T T T T B.E.E.E.E.E.R.] T T T E E K L e.e.e.4.e.: ",
"% %.e.e.e.y.V $X=XT ! A.E.E.E.E.E.E.T.8.T T T T T T T T B.E.E.E.E.E.Y.` T T T T T W U L e.e.e.3.4., ",
"& -.e.e.e.e.c %XE.! U.E.E.E.E.E.E.U._ T T T T T T T T V.E.E.E.E.E.Y.W T T T T T ` F.f.A e.e.4.3.3.< ",
"@ %.e.e.e.e.V ;XE.Y.E.E.E.E.E.E.A.W T T T T T T T E Z.E.E.E.E.E.F.W T T T T T B.R.T.f.M e.e.4.3.4.< ",
"o #.e.e.e.e.} 6X:XE.E.E.E.E.E.V.E T T T T T T T ^ U.E.E.E.E.E.S.W T T T T W S.R.R.Y.U b q.4.3.e.e.1 ",
"o *.e.e.e.e.} 6X=XE.E.E.E.R.0.T T T T T T T T 8.T.R.E.E.E.R.Z.T T T T T ' F.T.T.A.^ P b q.w.q.e.e.7 ",
"o #.e.e.e.e.} 7X+XE.E.E.Y.' T T T T T T T T 9.E.E.E.E.E.R.C.E T T T T B.R.R.Y.V.W T P v 3.q.4.e.e.7 ",
"o *.e.e.e.e.O.7X=XE.E.F._ T T T T T T T E C.R.E.E.E.E.R.B.T T T T E Z.T.Y.Y.8.E T T ) v 4.4.e.e.4.7 ",
"o #.e.e.e.e.X.eX+XE.F.W T T T T T T T W U.E.E.E.E.E.T.9.E T T T _ A.T.Y.A.^ T T W Z.m.g e.4.4.e.4.8 ",
"o #.e.e.e.e.C rXOXA.E T T T T T T T ^ U.E.E.E.E.E.R.8.T T T T ' Y.Y.T.V.E T T ^ Y.E.m.h e.4.w.e.3.8 ",
"o #.e.e.e.e.C eXT.W T T T T T T T 8.T.E.E.E.E.E.R.8.T T T E 9.T.Y.Y.8.T T T 8.Y.E.R.N.g e.e.4.3.3.9 ",
"& *.e.e.e.e.C eX' T T T T T T T 9.R.E.E.E.E.E.T.8.T T T T C.T.Y.A.^ T T T B.R.E.E.E.N.a e.e.2.4.3.8 ",
"& *.e.e.e.e.C eX_ T T T T T E V.E.R.E.E.E.E.T.' T T T E Z.T.T.C.E T T E Z.E.E.E.E.E.N.f e.e.e.4.3.2 ",
"* -.e.e.e.e.C eX^ T T T T W S.E.E.E.E.E.E.Y.' T T T E C.T.T.9.T T T ^ U.E.E.E.E.E.E.N.v e.e.e.e.3.< ",
"* *.e.e.e.e.V rX^ T T T W F.E.E.E.E.E.E.T.' T T T T 9.T.Y.' T T T _ Y.E.E.E.E.E.E.E.D.x e.e.e.4.3.< ",
"; *.e.e.e.e.V 9X^ T T W F.E.E.E.E.E.E.Y._ T T T T 9.T.U.^ T T T 8.R.E.E.E.E.E.E.E.E.I.g 2.e.e.q.2., ",
"; *.e.e.e.e.V wXW T W Y.E.E.E.E.E.E.T.` T T T T B.R.A.E T T E 0.E.E.E.E.E.E.E.E.E.E.D.f 4.w.e.4.e.< ",
"; *.e.e.e.e.Z 9X^ _ Y.E.E.E.E.E.E.T.` T T T E Z.R.C.E T T E C.E.E.E.E.E.E.E.E.E.T.Z.~ f 2.<.4.e.e.3 ",
"7 ;.e.e.e.r.{ qX] T.E.E.E.E.E.E.T.' T T T E A.R.B.E T T E L.E.E.E.R.E.E.E.E.E.R.B.E Q g 2.4.q.e.e.2 ",
"< 2.e.e.e.e.{ eXE.E.E.E.E.E.E.R.] T T T W F.R.9.T T T ^ F.E.E.E.R.E.E.E.E.E.Y.' T T Q a 2.4.q.q.4.2 ",
"* *.e.e.e.;.Z eXE.E.E.E.E.E.E.] T T T ^ Y.T.] T T T _ Y.XXE.E.R.E.E.E.E.E.A.W T T E m.f 2.e.4.4.3.4 ",
"= #.4.e.e.2. .eXXXE.E.E.E.R.9.T T T ^ F.Y.' T T T ` T.E.E.E.E.E.E.E.E.E.V.T T T ' Y.Y.a 2.e.e.e.4.4 ",
"$ *.3.e.e.e. .7XXXE.E.E.R.B.T T T ` Y.Y.' T T T ] R.E.E.E.R.E.E.E.E.T.] T T T 0.T.E.T.s 2.e.e.e.7.8 ",
"% *.q.w.3.e.} 4XXXE.E.R.B.E T T ' Y.Y.' T T T 8.E.E.E.E.E.E.E.E.E.F.! T T E C.E.E.E.Y.s ;.e.e.e.4.9 ",
"# -.w.w.3.e.c ;XoXE.E.B.T T T ' T.F.` T T T B.E.E.E.E.E.E.E.E.E.V.W T T ! F.E.E.E.Y.T.s 2.e.e.e.e.5 ",
"; 2.4.3.e.e.B #X-XR.C.T T T 8.T.A./ T T T B.E.E.E.E.E.E.E.E.R.9.T T T ' Y.E.E.R.Y.E.T.a 2.e.e.e.e.1 ",
"* 2.3.w.4.4.{ }.OXZ.T T T 9.T.C.W T T E V.E.E.E.E.E.E.E.E.T.' T T E 8.T.E.E.T.T.E.E.U.N r.e.e.e.e.7 ",
"% ;.3.4.<.5.n |.E.E T T 8.T.B.T T T E V.E.E.E.E.E.E.E.E.F.W T T E B.E.E.R.T.E.E.E.E.T.D G.e.e.e.e.r ",
"+ ;.3.4.$.e.n [.Y.T T 8.T.B.T T T E Z.E.E.E.E.E.E.E.E.A.E E T W A.E.E.E.T.E.E.E.E.R.I.D P.e.e.e.e.r ",
"  =.3.4.*.=.B x.=XT 8.T.V.T T T Q S.E.E.E.E.E.E.E.E.S.E T T ! F.E.E.R.R.E.E.E.E.E.T.S.J G.e.e.e.e.y ",
"  &.3.e.#.#.n x.oX8.R.B.T T T E S.E.E.E.E.E.E.E.E.C.E T T / T.E.E.E.R.E.E.E.E.E.R.V.8.(.r.e.e.e.e.p ",
"- %.4.e.-.#.C ).+XR.B.T T T E Z.E.E.E.E.E.E.XXE.B.E T T 1.T.E.E.E.E.E.E.E.R.R.E.S.E D.+.4.e.e.e.e.t ",
"0 $.e.u.*X1X$XG j.V.Q T Q Q m.I.D.l.h.h.h.h.o.Y P P P U a.l.k.j.h.g.g.o.o.g.z.n.z.j.D J r.e.e.e.e.q ",
"0 $.~.,X~.0X%XF @.H v a s d z z z x x N N S B M M M A C >.X.p.f.a.a.a.v.b.b.n.#Xs. .+.-X-Xi.e.e.e.t ",
"6 A ~.y.,XwXD | b.-.-.;.;.4.2.2.2.w.7.7.7.q.q.4.e.e.e.e.e.e.e.e.e.4.e.e.e.e.y.r.4.H.v.[.8X1Xt.e.e.q ",
": m e.*XtX`.| :.e.e.e.e.e.e.e.e.4.q.4.w.7.7.7.q.w.e.e.e.e.e.e.e.e.e.e.e.e.e.e.e.e.e.y.o. XtX8Xt.w.7 ",
"& A *XtX&XJ ;.4.e.e.e.e.4.3.3.3.7.4.e.e.4.q.q.q.7.q.4.q.w.4.4.e.e.e.e.e.e.e.e.e.e.e.e.4.H v.8X1XJ.- ",
". } tX}.X.5.e.e.e.e.e.e.e.q.3.4.4.3.e.e.q.q.e.e.4.<.w.e.e.4.7.q.e.e.e.e.e.e.e.e.e.e.e.4.&.s s.L.-.= ",
"  6 |.c.5.e.e.e.e.e.e.e.4.3.e.e.3.4.e.4.q.e.e.e.e.q.7.4.e.4.e.4.e.e.e.e.e.e.e.e.e.e.e.e.5.&.m L.A - ",
"  O F %.2.e.2.2.;.;.2.2.2.2.2.e.e.4.4.4.2.2.2.2.2.2.2.2.2.=.%.%.*.*.*.-.-.*.*.*.-.-.*.*.#.m [ B >   ",
"    $ * -   9 : ; - ; , , <   7 ; : < < : ; - 7 1 , * = # o + + o o + + o X o + + + o # % o X .     "
};
