/* XPM */
static char *ee658a5833554c8af01ff5a68e0a8db8iwkk9KCpNcdIRadH[] = {
/* columns rows colors chars-per-pixel */
"50 50 222 2 ",
"   c None",
".  c #0E0C07",
"X  c #16120C",
"o  c #1A1612",
"O  c #1E1A15",
"+  c #181615",
"@  c #100E0E",
"#  c #231C14",
"$  c #231E1A",
"%  c #291E17",
"&  c #292417",
"*  c #27211D",
"=  c #2A241D",
"-  c #272415",
";  c #33291C",
":  c #35311D",
">  c #3C361E",
",  c #131C24",
"<  c #1A232A",
"1  c #1D2C38",
"2  c #2E2824",
"3  c #282626",
"4  c #332B24",
"5  c #342E2A",
"6  c #392C23",
"7  c #3B3424",
"8  c #36312C",
"9  c #3B332C",
"0  c #3B3623",
"q  c #282D32",
"w  c #3C3632",
"e  c #3E3935",
"r  c #383736",
"t  c #2A323D",
"y  c #45321E",
"u  c #412F23",
"i  c #433325",
"p  c #433C25",
"a  c #43362C",
"s  c #44392C",
"d  c #4A3828",
"f  c #443A33",
"g  c #493E34",
"h  c #423E3A",
"j  c #483F3A",
"k  c #503A25",
"l  c #615C1F",
"z  c #444124",
"x  c #4B4327",
"c  c #4E4926",
"v  c #4A4329",
"b  c #4E492B",
"n  c #524A26",
"m  c #544D2B",
"M  c #57442A",
"N  c #5D5624",
"B  c #56512A",
"V  c #5B532C",
"C  c #5E5A2C",
"Z  c #575427",
"A  c #4D4035",
"S  c #46413C",
"D  c #4C423A",
"F  c #514534",
"G  c #52463B",
"H  c #55493E",
"J  c #5A4B3C",
"K  c #5A4A34",
"L  c #5C5432",
"P  c #5E5A32",
"I  c #5F553B",
"U  c #635D2C",
"Y  c #60572E",
"T  c #644D3C",
"R  c #6C4B37",
"E  c #635B33",
"W  c #695D36",
"Q  c #61543A",
"!  c #655A3B",
"~  c #6A5D3A",
"^  c #645537",
"/  c #705F3D",
"(  c #646133",
")  c #6B6234",
"_  c #6D633A",
"`  c #6C6735",
"'  c #716636",
"]  c #726A35",
"[  c #71653C",
"{  c #756B3B",
"}  c #7A6C3D",
"|  c #786F35",
" . c #7B743D",
".. c #7A7837",
"X. c #706A2F",
"o. c #1E3444",
"O. c #263949",
"+. c #353C43",
"@. c #373E46",
"#. c #3A4248",
"$. c #2C4253",
"%. c #2A465B",
"&. c #344B5D",
"*. c #3A4C59",
"=. c #3E505E",
"-. c #2E4C64",
";. c #324D63",
":. c #304F68",
">. c #2E516C",
",. c #365166",
"<. c #33546D",
"1. c #3A566B",
"2. c #3D596D",
"3. c #3B5364",
"4. c #335671",
"5. c #365975",
"6. c #3B5B74",
"7. c #365C7A",
"8. c #3B5E7A",
"9. c #3D617D",
"0. c #4E4944",
"q. c #44494B",
"w. c #4B4D4E",
"e. c #484645",
"r. c #544A43",
"t. c #5A4E43",
"y. c #534E49",
"u. c #5D5146",
"i. c #55524D",
"p. c #5C534C",
"a. c #414F59",
"s. c #474E54",
"d. c #455059",
"f. c #5B5651",
"g. c #5E5A55",
"h. c #575859",
"j. c #625343",
"k. c #63564B",
"l. c #6A5A4C",
"z. c #685747",
"x. c #745944",
"c. c #7B5B46",
"v. c #635B54",
"b. c #625E5B",
"n. c #675B54",
"m. c #705F51",
"M. c #6E6145",
"N. c #766A44",
"B. c #7C6C46",
"V. c #746641",
"C. c #7B7143",
"Z. c #777340",
"A. c #64615D",
"S. c #6C635B",
"D. c #776456",
"F. c #425564",
"G. c #4C5862",
"H. c #45596A",
"J. c #445E72",
"K. c #525D67",
"L. c #5C646B",
"P. c #42637C",
"I. c #496376",
"U. c #516472",
"Y. c #6B6864",
"T. c #756C65",
"R. c #78726D",
"E. c #797775",
"W. c #6D7378",
"Q. c #82743D",
"!. c #837A3F",
"~. c #825E48",
"^. c #85644A",
"/. c #847844",
"(. c #866D57",
"). c #89725B",
"_. c #977658",
"`. c #A27B5A",
"'. c #847568",
"]. c #977D65",
"[. c #87786B",
"{. c #8D8443",
"}. c #9B816B",
"|. c #9D8063",
" X c #9D8671",
".X c #948275",
"XX c #A68466",
"oX c #B18968",
"OX c #A78E78",
"+X c #B89679",
"@X c #A9907B",
"#X c #CB9C70",
"$X c #CDA074",
"%X c #DBAC7C",
"&X c #E0AC79",
"*X c #3D6482",
"=X c #3F6888",
"-X c #426682",
";X c #456985",
":X c #4A6B85",
">X c #456C8A",
",X c #4A6E8A",
"<X c #4D718E",
"1X c #4D7492",
"2X c #537B9A",
"3X c #527895",
"4X c #B39B86",
"5X c #B89C83",
"6X c #A08E80",
"7X c #B2A290",
"8X c #9FA6A4",
"9X c #C6A789",
"0X c #DCB689",
"qX c #C4AA91",
"wX c #CCB49B",
"eX c #C7B49E",
"rX c #D2B89C",
"tX c #E1B785",
"yX c #DCC5A9",
"uX c #E8CBAC",
"iX c #EDD4B6",
"pX c #E6CCB2",
/* pixels */
"                                                                                                    ",
"                            XXoX`.oX                                                                ",
"                          XX`.u 2 _.9X                                                              ",
"                          R (.oX+XXXc.                                                              ",
"                            K R ^.~.D.                                                              ",
"                            T K c.~.^.                                                              ",
"                            x.T c.].(.                                                              ",
"                            c.~.R D.5X                                                              ",
"                            c.x.y.a..XwXpX                                                          ",
"                            z.b.F.<.2.Y.5XyX                                                        ",
"                            h.J.5.6.P.<.K. X7XiX                                                    ",
"                            <.*X5.P.8.4.P.I.[.4XqXuX                                                ",
"                            P.,X;X:.8.P.4.;XJ.K.'.OXrXuX                                            ",
"                          ;X-X9.;X-X-X7.,X<X;X*XJ.G.[.4XrXiX                                        ",
"                          ;X8.*X4.;X8.*X4.;X8.;X>X8.H.L.'. XrXpX8X1X                                ",
"                        5.P.:X-X;X5.*X8.*X*X;X5.8.;X;X,X4.G.'.OXqXeX7X                              ",
"                        9.9.:X>XP.;X,X3X;X,X*X>X<X*X:X<X7.4.J.I.E.XX4XrXuX                          ",
"                      -X9.9.-X7.-X-X>X5.>X-X3X5.J.8.3X1X*X5.7.;X4.I.W.6X4XrXuX                      ",
"                      -X;X<X7.1X-X4.8.*X,XJ.*XJ.;X*X2X>X5.7.>X-X9.,X;X9.J.E.OX4XeXyX                ",
"                    *X:X9.=X9.<X*X*X7.4.5.7.*X5.<.*X-X7.1X=X*XJ.:X>X;X9.7.P.4.L.'.(.                ",
"                    7.P.<X9.,X9.1X4.*X5.,.:X1.6.;.-.>X*X8.,X;X:X1X7.;X;X=X4.4.w.g w                 ",
"                  4.,X9.<X=X;X>.7.*X4.a.g r.6.;.%.6.-X*X*X*XP.;X*X,X>X<.6.-X,.8 9 G                 ",
"                  7.-X=X7.*X-X>X,.q.r.G r.D s.;.2.5.>.>X1X*X;X-X;X,XP.7.;X;X*.D O * S               ",
"                9.*X*X;X;X1X<X*X3.y.t.l.y.w.0.;.6.1.J.8.<X8.,X>X-X;X,X9.6.:Xq @ o 9 u.q.            ",
"                9.*X*X<X=X>X9.<X4.J.H.n.p.w.h h.1.4.4.7.8.-X<X=X>X,X4.7.;XJ., , + X = f w.          ",
"                  s.,.>X<X9.1X*X4.8.6.;.3.i.t.k.G.8.7.*X2X*X<X3X>X-X>X7.9.e.J < < 3 $ t.G q.        ",
"                  g h q.J.7.;X<X5.1.8.<.1.6.F.g.t.F.;XJ.>X1X>X-X-X,X9.8.3.< q O.O.q O + * H t.d.    ",
"                  A 0.S w.a.2.9.4.:.:.-.J.5.J.8.*.q.;X;X>X;X1X3X5.<X5.>X#., 1 $.r + $ = * a   a     ",
"                  Q f.D 0.y.y.@.J.6.1.<.;X-X4.:.6.-X5.2X<X>X2X>X,X*X4.I.9 4 8 r f 9 * 5 = 6         ",
"                _ ! i.D u.A D h r #.&.8.;X-X8.,X*X7.1X<X>X*X*X*X,X>.,X+.9 4 r r D * & 9 4 s         ",
"        /.[ E [ [ z.b.G H h J a w j w e.H.-X4.*X,X4.>X>X,X-X3X8.*X8.J.$ $ 2 G a f f 5 g w A         ",
"        ] W  ._ E M.S.t.H +.+.e.t.9 j j j +.6.-X,X-X*X-X2X;X*X7.,X;X0.9 $ 4 t.* e 8 9 f e A         ",
"              _ P I n.j.H S 0.+.t.r D t.r.8 8 #.I.:X>X1X-X=X>X5.7.U.D 8 o * d l.f.f a f e F /.      ",
"        E P E ` ( ! Y.t.J t q.r.t.w G t.r.0.y.e.S s.*X>X1X4.;X8.*X8 5 3 $ 5 i k f.e.g f h I V.V.    ",
"        { U C P ) Q R.r.j.f.w.+.y.h r.k.p.r.Y.A.i.t.0.q.J.1X*X7.s.5 5 5 2 4 a f v.h f D S j.N. .    ",
"    X.]  .' ) P C l.R.t.r.t.l.y.r.e t.v.k.h.R.Y.T.A.A.t.e.h.I.I.2 a e.4 a g j s r.j G y.0.~ N.B.    ",
"      _ _ _ _ ! E J D.l.f.r.y.t.j.8 r.p.F.O.+.b.R.T.R.f.f.u.s S 8 D g.5 A r.D g f.y.A v.y.T Q./.Q.  ",
"/.W [ ~ ~ _ _ _ P m x A z.k.b.A.f.0.g F.&.O.O.$.#.A.T.v.S.v.F D w r.g.9 A F J f h.p.A S.y.Q W | !.] ",
"Q./.B.) _ l./.Z.P v y 7 ; g k.S.Y.Y.H.&.6.&.;.%.o.o.#.i.A.S.A S e D D A G J T g A.y.G p.k.K n U | ..",
"B./.B.} [ } E W _ P p 4 4 u 6 j z.:X8.P.6.<.;.,.:.%.$.r A.S.F a S H v.S J T J F A.y.J H 9 > k z m W ",
"Z.!. . .' [ ~ ) { ` P 0 0 - = ; #.7.;X8.8.-X6.-.$.;.q 5 i.k.G f S u.A.h J j.z.G z.G 7 & & : a A F N.",
"      { ' W { E  .` U c b z 7 & ; 8 F.J.>X,XP.1.J.r 3 5 f r.u.f D v.Y.D k.l.x.R x.A g G j.s b E _ [ ",
"    C.L ` ) ~ { {.] L b C c m z ; = 2 5 a.8.8.6.y.r e 9 0.p.k.0.g g.Y.D x.~._.`.$X%X+X}.].@X).E E _ ",
"      U ) } [ ! ( [ V C P L v m b 0 2 5 5 3 $.r f $ 5 D g.p.v.y.f t.t.Q ^.oX#X&X%X%X0X).}.]..XOX! ) ",
"      E { Z.( U X.) U V E C b C B v 4 5 w $ 3 9 4 O $ j v.p.v.y.g g D.T.].$X&XtXtX].d i a i 7 d ! W ",
"        ` !.) ` |  .{ { ] _ E B m v 9 8 2 $ j G w $ . = t.t.m.F # w T.T.S.i XX(.d u u d i n m E E _ ",
"           .' !...{.| } [ ~ L B m x 6 4 2 $ f j 9 * . X # 4 ; o . a T.D.n.# ; u d a k n N Z N N E E ",
"              /.{./.!.Q.Q.Q [ [ ' E v ; = o 4 D 9 o . X # % & X . 9 r.r.j # 6 d d n E ) l U Z ( '   ",
"                          } [ } } E K n x > & g ; # : : - - # : $ # w w = > i x N V V m Z U V (     ",
"                        B.N.  _ { ' [ ` V n n F 0 x p z z x p x p 7 : a n V V m K Y N E C E         "
};
