/* XPM */
static char *bWFuMTU_[] = {
/* columns rows colors chars-per-pixel */
"50 50 219 2 ",
"   c #030303",
".  c #0B0503",
"X  c #0B0A0B",
"o  c #080709",
"O  c #120906",
"+  c #1B0A05",
"@  c #130B0A",
"#  c #190D0A",
"$  c #130503",
"%  c #1D120B",
"&  c #0D0E11",
"*  c #121215",
"=  c #1D1411",
"-  c #14151A",
";  c #1A1A1C",
":  c #19171A",
">  c #0F1111",
",  c #230D06",
"<  c #2A0C06",
"1  c #250E0A",
"2  c #340E08",
"3  c #2C130B",
"4  c #25120B",
"5  c #33130A",
"6  c #3C150B",
"7  c #241D1D",
"8  c #281A17",
"9  c #381815",
"0  c #330E12",
"q  c #2A211C",
"w  c #37231C",
"e  c #1A1C23",
"r  c #161821",
"t  c #281F29",
"y  c #1E2229",
"u  c #222224",
"i  c #22252D",
"p  c #2B2A2B",
"a  c #2B2625",
"s  c #392B26",
"d  c #39302C",
"f  c #262933",
"g  c #292E3A",
"h  c #272A33",
"j  c #332F33",
"k  c #2D313E",
"l  c #3C3C3C",
"z  c #343437",
"x  c #42140B",
"c  c #4C180B",
"v  c #5B1A0D",
"b  c #55170D",
"n  c #441B16",
"m  c #571715",
"M  c #681C0E",
"N  c #671C12",
"B  c #751B13",
"V  c #711E0E",
"C  c #5A2415",
"Z  c #6B220E",
"A  c #6A2416",
"S  c #742413",
"D  c #792718",
"F  c #74200F",
"G  c #7F1E22",
"H  c #4A2723",
"J  c #45322A",
"K  c #48352E",
"L  c #4C3C35",
"P  c #463A36",
"I  c #553B31",
"U  c #573327",
"Y  c #643D32",
"T  c #703329",
"R  c #54443E",
"E  c #5C473D",
"W  c #48413D",
"Q  c #674639",
"!  c #7E503E",
"~  c #2E3241",
"^  c #3A3E4C",
"/  c #343947",
"(  c #383E50",
")  c #2B2D40",
"_  c #433E42",
"`  c #3E414D",
"'  c #3D4254",
"]  c #434243",
"[  c #4B4B4B",
"{  c #46454A",
"}  c #554A47",
"|  c #5B504B",
" . c #444A5C",
".. c #454958",
"X. c #525252",
"o. c #595759",
"O. c #664D44",
"+. c #69524A",
"@. c #785446",
"#. c #675856",
"$. c #745E54",
"%. c #785F54",
"&. c #7A4F52",
"*. c #7C6459",
"=. c #4D5364",
"-. c #585A65",
";. c #595F74",
":. c #4A4F60",
">. c #5C6174",
",. c #5F616F",
"<. c #656565",
"1. c #6B6869",
"2. c #7B6D68",
"3. c #666A7B",
"4. c #7A7A7A",
"5. c #757576",
"6. c #747271",
"7. c #90151B",
"8. c #AB161E",
"9. c #842313",
"0. c #8D2615",
"q. c #8C2C1B",
"w. c #942716",
"e. c #992817",
"r. c #992C1A",
"t. c #962A17",
"y. c #9D321E",
"u. c #AB1B22",
"i. c #8A3724",
"p. c #9C3321",
"a. c #993926",
"s. c #8F2C31",
"d. c #A13C29",
"f. c #AC2D33",
"g. c #C93138",
"h. c #9B4B36",
"j. c #A74A34",
"k. c #AA543D",
"l. c #A4442F",
"z. c #8B4D52",
"x. c #AC5841",
"c. c #B15F47",
"v. c #826559",
"b. c #8B6B5E",
"n. c #846558",
"m. c #B2654C",
"M. c #BB7459",
"N. c #B26D54",
"B. c #826C62",
"V. c #8A6E62",
"C. c #916E61",
"Z. c #8E7266",
"A. c #847269",
"S. c #947366",
"D. c #94796D",
"F. c #9A7A6C",
"G. c #967669",
"H. c #957A74",
"J. c #867073",
"K. c #A57E6F",
"L. c #BE7C60",
"P. c #E25C62",
"I. c #E16065",
"U. c #C95157",
"Y. c #9B8377",
"T. c #AB8C7D",
"R. c #A78577",
"E. c #B28E7D",
"W. c #C38468",
"Q. c #C88E70",
"!. c #646A80",
"~. c #6D7286",
"^. c #7E7F81",
"/. c #737A91",
"(. c #7C829A",
"). c #848484",
"_. c #8B8B8C",
"`. c #958A85",
"'. c #84899A",
"]. c #939393",
"[. c #9B9B9A",
"{. c #979A9B",
"}. c #979093",
"|. c #A58B83",
" X c #AE9181",
".X c #B39283",
"XX c #BC9B8A",
"oX c #B99687",
"OX c #AE978D",
"+X c #868BA0",
"@X c #9FA6AB",
"#X c #A9A7A8",
"$X c #B8B8B8",
"%X c #AEB4B6",
"&X c #C19C8C",
"*X c #C4A593",
"=X c #C9A998",
"-X c #D3AF9D",
";X c #C9A997",
":X c #C3ACA0",
">X c #CAB2A4",
",X c #D6B8A6",
"<X c #D3BDB1",
"1X c #DFC6B5",
"2X c #DDC1AF",
"3X c #E6CEBA",
"4X c #C8C8C8",
"5X c #D5CDC9",
"6X c #C9D5DB",
"7X c #D5D5D5",
"8X c #D6D1CF",
"9X c #E9D5C8",
"0X c #EBDED6",
"qX c #EEE4DD",
"wX c #D4DEE4",
"eX c #EFE9E5",
"rX c #FAF6F4",
"tX c #F1E8E1",
"yX c None",
/* pixels */
"yXyXyXyXyXyXyXyXyXyXyXyXyXyXyXyXyXyXyXyXyXyXyXyXyXyXyXyXyXyXyXyXyXyXyXyXyXyXyXyXyXyXyXyXyXyXyXyXyXyX",
"yXyXyXyXyXyXyXyXyXyXyXyXyXyXyXyXyXyXyXyXyXyXyXyXyXyXyXyXyXyXyXyXyXyXyXyXyXyXyXyXyXyXyXyXyXyXyXyXyXyX",
"yXyXyXyXyXyXyXyXyXyXyXyXyXyXyXyXyXyXyXyXyXyXyXyXyXyXyXyXyXyXyXyXyXyXyXyXyXyXyXyXyXyXyXyXyXyXyXyXyXyX",
"yXyXyXyXyXyXyXyXyXyXyXyXyXyXyXyXyXyXyXyXyXyXyXyXyXyXyXyXyXyXyXyXyXyXyXyXyXyXyXyXyXyXyXyXyXyXyXyXyXyX",
"yXyXyXyXyXyXyXyXyXyXyXyXyXyXyXyXyXyXyXyXyXyXyXyXyXyXyXyXyXyXyXyXyXyXyXyXyXyXyXyXyXyXyXyXyXyXyXyXyXyX",
"yXyXyXyXyXyXyXyXyXyXyXyXyXyXyXyXyXyXyXyXyXyXyXyXyXyXyXyXyXyXyXyXyXyXyXyXyXyXyXyXyXyXyXyXyXyXyXyXyXyX",
"yXyXyXyXyXyXyXyXyXyXyXyXyXyXyXyXyXyXyXyXyXyXyXyXyXyXyXyXyXyXyXyXyXyXyXyXyXyXyXyXyXyXyXyXyXyXyXyXyXyX",
"yXyXyXyXyXyXyXyXyX5 yXyXyXyXyXyXyXyXyXyXyXyXyXyXyXyXyXyXyXyXyXyXyXyXyXyXyXyXyXyXyXyXyXyXyXyXyXyXyXyX",
"yXyXyXyXyXyX9.S 0.x 0.5 . yXyXyXyXyXyXyXyXyXyXyXyXyXyXyXyXyXyXyXyXyXyXyXyXyXyXyXyXyXyXyXyXyXyXyXyXyX",
"yXyXyXyXyXe.v 2 w.B x x . c yXyXyXyXyXyXyXyXyXyXyXyXyXyXyXyXyXyXyXyXyXyXyXyXyXyXyXyXyXyXyXyXyXyXyXyX",
"yXyXyXyXq.N 9 a.e.m 1 1 # O yXyXyXyXyXyXyXyXyXyXyXyXyXyXyXyXyXyXyXyXyXyXyXyXyXyXyXyXyXyXyXyXyXyXyXyX",
"yXyXyXF w.5 N.j.M.3 m 6 4 @ q   > q = yXyXyXyXyXyXyXyXyXyXyXyXyXyXyXyXyXyXyXyXyXyXyXyXyXyXyXyXyXyXyX",
"yXyXx p.h.i.Q.W.l.n q.9 # q 8   p A.D.2.P yXyXyXyXyXyXyXyXyXyXyXyXyXyXyXyXyXyXyXyXyXyXyXyXyXyXyXyXyX",
"yX2 w.M.h.x.Q.N.A b q.Q . w W 1.[.Y.T.T.R.+.yXyXyXyXyXyXyXyXyXyXd | d a a yXyXyXyXyXyXyXyXyXyXyXyXyX",
"yXV j.W.q.d.W.i.+ c H Q 4 s R 8X%XE | W D..XB.P yXyXyXyXyXyXyXq :X9X3X:X>Xq yXyXyXyXyXyXyXyXyXyXyXyX",
"yXw.k.M.e.r.m.A 2 8 Q Q O.+.O.K W `.qX*.$.D.*.*XY.yXyXyXyXyXyXa 2XY.3X|.3X*.yXyXyXyXyXyXyXyXyXyXyXyX",
"yX9.l.m.w.y.x.S + K Q @.K.&X.X*X9X0X-XY.J S.K 2XeX6.yX  o g   e d s *XY.=XZ.yXyXyXyXyXyXyXyXyXyXyXyX",
"yXM y.k.w.y.i.D + T E &.C.R..XXXXX&XXXR.J n.w  X|.`.h { ` f f e r e #.+.Z.b.= yXyXyXyXyXyXyXyXyXyXyX",
"yXb t.t.r.t.Z A + T n.K.Y C.C.C.R.E.&XE.v.E.s T.*.Y.p h g :.y r - > o 7 d d X yXyXyXyXyXyXyXyXyXyXyX",
"yXyXF C 5 3 C O . ! XXG.@ I 8 = +.F.XX&XoXXXq XXY.E.^.$X<.u p p p y - & k / - yXyXyXyXyXyXyXyXyXyXyX",
"yXyXc 3 % + + 4 4 b.;Xv.O 8 # # `.n.&X-X;X.Xs *X*X|.#.H.H.{ 6.{.%X+X5.z & y ` yXyXyXyXyXyXyXyXyXyXyX",
"yXyXZ 6 , A C , @ $.;X*.# s [.4X8XF.>X1X-Xb.*.*X*XV.8.g.B 0 X.%X6X6X6X| n   ' y yXyXyXyXyXyX<.W yXyX",
"yXyXZ 6 6 m.h., < J R.S.# O.1.5XOXT.2X0X>XXX*X*X*XE s.P.s.s.n 7.H.6XwX<.S l y * yXyXyXyXyXu %X[ > yX",
"yXF q.A S m.M.2 x O I E.s n.+.E *.*X9X0XXX&X*X*XE._ _.P H f.g.G m &.6XY.U X.1.o.6.4.[ z p p ).1.* yX",
"yX0.t.e.e.l.M.D $ b 9 n.oXT.K.K.E.2X9X*XS..XXX*Xn.J.rXwXj ^.z.P.T 0 #X}...#.].[.[.{.[ l ] W l X.o yX",
"yXt.e.e.r.p.L.p.Q 6 D I G.;X*X-X-X,X=XD.S.R.XXE.| %X$X`.<.@X&.U.m m J.^.Y <.[.[.[.].o.] ] ).; {   yX",
"yXw.e.r.p.e.m.d.m.! b 3 J n.&X*XE..XR.V.G.K.T.+.5.`.^.-.+X+Xs.f.N 7.}.1.B } 1.5.{.{._.4.{ #X4..     ",
"yXS e.d.l.0.a.d.d.W.y.< + O 8 % . L G.S.F.G.v.p -.-.h _ 6.&.g.u.8.H 5.} q.^ p 5._.].[.[.).[.4Xo     ",
"yXM w.j.L.i.v 9.r.M.l.< . . . . . L Y.C.F.B.7 - r r e : 0 u.u.7.8 * - ; n ; * z <.[.$X#X4X8X7Xy   yX",
"yXyXS T Q.L.C 6 V m.a.$ . O d 2.Y.Y.O.S.O.7 o g e   & e i n 0 - - y k / ; X X o p #X%X[.#X$X7X-   yX",
"yXyXyXC m.M.@.. $ k.q.O . R 5XA.s s E :Xd @ r o ^ { - i ( =.!.( ' ` i ; > g u   X W X.l l l ] * yXyX",
"yXyXyX9 Z i.x.h.< 9.w.c % :XY.d q E T.Y.. k !.g   r  .~ X   k { y - - > - y ~ > X ; X o yXyXyXyXyXyX",
"yXyXyXyXyXi.r.D c M e.Z 4 Y.OX*.b.S.n.= . >.!.( e o       X * * * - ` }.`.o.h h X X X X yXyXyXyXyXyX",
"yXyXyXyXyXyXF w.x 9.c.h.% % L O.Y w M , o { '. .f r     o f ) f / ..5XtX:XqXA./ * u > X yXyXyXyXyXyX",
"yXyXyXyXyXyXyXv Z w.k.M.< . + V 9.V F # . X -.(.( r X     g g g  .,.D.qXqXrX|.k z [ W ;     yXyXyXyX",
"yXyXyXyXyXyXyXyXyX0.y.N.6 . 2 C 9.+ x yXyXyX* 3./.g -           ` =.#.:XqXrXOXy ] [ z         yXyXyX",
"yXyXyXyXyXyXyXyXyXyXyXU v < yXyXx yXyXyXyXyXyX- 3.;.f -       o p 3.$.=X1X9XD.j X.] X           yXyX",
"yXyXyXyXyXyXyXyXyXyXyXyX2 < yXyXyXyXyXyXyXyXyXyXX =.>.~ * X & - ^ 3.} OX,X>X*.{ ).u o.l p *     yXyX",
"yXyXyXyXyXyXyXyXyXyXyXyXyXyXyXyXyXyXyXyXyXyXyXyXyXyX=.~. ...' ' ' /.` +.T. XP & <.j X.u       yXyXyX",
"yXyXyXyXyXyXyXyXyXyXyXyXyXyXyXyXyXyXyXyXyXyXyXyXyXyXyXyXg =...'.+X(.'.p j a X     .     yXyXyXyXyXyX",
"yXyXyXyXyXyXyXyXyXyXyXyXyXyXyXyXyXyXyXyXyXyXyXyXyXyXyXyXe 3.^ / ` ' / X * i X yXyXyXyXyXyXyXyXyXyXyX",
"yXyXyXyXyXyXyXyXyXyXyXyXyXyXyXyXyXyXyXyXyXyXyXyXyXyXyXyXyX..~.=.' ' / / >.k yXyXyXyXyXyXyXyXyXyXyXyX",
"yXyXyXyXyXyXyXyXyXyXyXyXyXyXyXyXyXyXyXyXyXyXyXyXyXyXyXyXyXyXk / =.=.=.` y yXyXyXyXyXyXyXyXyXyXyXyXyX",
"yXyXyXyXyXyXyXyXyXyXyXyXyXyXyXyXyXyXyXyXyXyXyXyXyXyXyXyXyXyXyXyXyXX yXyXyXyXyXyXyXyXyXyXyXyXyXyXyXyX",
"yXyXyXyXyXyXyXyXyXyXyXyXyXyXyXyXyXyXyXyXyXyXyXyXyXyXyXyXyXyXyXyXyXyXyXyXyXyXyXyXyXyXyXyXyXyXyXyXyXyX",
"yXyXyXyXyXyXyXyXyXyXyXyXyXyXyXyXyXyXyXyXyXyXyXyXyXyXyXyXyXyXyXyXyXyXyXyXyXyXyXyXyXyXyXyXyXyXyXyXyXyX",
"yXyXyXyXyXyXyXyXyXyXyXyXyXyXyXyXyXyXyXyXyXyXyXyXyXyXyXyXyXyXyXyXyXyXyXyXyXyXyXyXyXyXyXyXyXyXyXyXyXyX",
"yXyXyXyXyXyXyXyXyXyXyXyXyXyXyXyXyXyXyXyXyXyXyXyXyXyXyXyXyXyXyXyXyXyXyXyXyXyXyXyXyXyXyXyXyXyXyXyXyXyX",
"yXyXyXyXyXyXyXyXyXyXyXyXyXyXyXyXyXyXyXyXyXyXyXyXyXyXyXyXyXyXyXyXyXyXyXyXyXyXyXyXyXyXyXyXyXyXyXyXyXyX",
"yXyXyXyXyXyXyXyXyXyXyXyXyXyXyXyXyXyXyXyXyXyXyXyXyXyXyXyXyXyXyXyXyXyXyXyXyXyXyXyXyXyXyXyXyXyXyXyXyXyX"
};
