/* XPM */
static char *bWFuMTQ_[] = {
/* columns rows colors chars-per-pixel */
"50 50 227 2 ",
"   c #020202",
".  c #0B0503",
"X  c #060709",
"o  c #0B0A0B",
"O  c #070809",
"+  c #150A06",
"@  c #1C0C05",
"#  c #140D0B",
"$  c #1A0D0C",
"%  c #170703",
"&  c #1B110D",
"*  c #0D0D12",
"=  c #0E1016",
"-  c #131416",
";  c #1B1513",
":  c #13151A",
">  c #17181E",
",  c #1B1B1C",
"<  c #1E1717",
"1  c #0F150F",
"2  c #220C06",
"3  c #290E07",
"4  c #330D06",
"5  c #24140C",
"6  c #2C1209",
"7  c #2C150A",
"8  c #34140A",
"9  c #3C150B",
"0  c #36160A",
"q  c #241E1D",
"w  c #2C1D1A",
"e  c #291713",
"r  c #341A14",
"t  c #2C221C",
"y  c #37251D",
"u  c #171A21",
"i  c #1B1C24",
"p  c #1C1F28",
"a  c #1E222C",
"s  c #1F2020",
"d  c #232223",
"f  c #21242D",
"g  c #2B2A2A",
"h  c #2C2724",
"j  c #382824",
"k  c #3D342F",
"l  c #232532",
"z  c #262936",
"x  c #2A2E3C",
"c  c #272B3A",
"v  c #2C313F",
"b  c #353535",
"n  c #3C3C3C",
"m  c #3D3431",
"M  c #342F3A",
"N  c #440F0C",
"B  c #44140A",
"V  c #4C1A0D",
"C  c #49170C",
"Z  c #521A0C",
"A  c #5C1B0D",
"S  c #51160B",
"D  c #4B1816",
"F  c #581814",
"G  c #651C0D",
"H  c #691613",
"J  c #711810",
"K  c #4A231A",
"L  c #572618",
"P  c #59230D",
"I  c #66230D",
"U  c #692616",
"Y  c #7B2512",
"T  c #762A1A",
"R  c #78210F",
"E  c #5B1D20",
"W  c #43322B",
"Q  c #57362B",
"!  c #433D3B",
"~  c #4A3A35",
"^  c #543B32",
"/  c #5C3D31",
"(  c #442F2E",
")  c #663627",
"_  c #793726",
"`  c #6A2C2E",
"'  c #54423B",
"]  c #5C453B",
"[  c #46413F",
"{  c #66473A",
"}  c #704D3E",
"|  c #2E3343",
" . c #313544",
".. c #353947",
"X. c #393F53",
"o. c #3D4257",
"O. c #3E414B",
"+. c #444343",
"@. c #4B4C4C",
"#. c #4A4747",
"$. c #574B43",
"%. c #424759",
"&. c #525353",
"*. c #5C5B5C",
"=. c #595459",
"-. c #5D504F",
";. c #674C44",
":. c #69534B",
">. c #74564A",
",. c #6A5B52",
"<. c #675E5B",
"1. c #735C52",
"2. c #7C645A",
"3. c #7C6459",
"4. c #67605C",
"5. c #444A63",
"6. c #4E5365",
"7. c #565C6D",
"8. c #5E6377",
"9. c #626263",
"0. c #6A6A6B",
"q. c #6B6765",
"w. c #756762",
"e. c #666B7B",
"r. c #747677",
"t. c #A5131A",
"y. c #842513",
"u. c #8C2513",
"i. c #8A2B18",
"p. c #952C19",
"a. c #992C1A",
"s. c #942815",
"d. c #9A321D",
"f. c #94311F",
"g. c #8E331D",
"h. c #981E22",
"j. c #8A1C21",
"k. c #AC1E23",
"l. c #843623",
"z. c #993623",
"x. c #822E32",
"c. c #822B2D",
"v. c #A13E27",
"b. c #901216",
"n. c #C2141C",
"m. c #C61B23",
"M. c #CD262D",
"N. c #D12B33",
"B. c #924834",
"V. c #A1412C",
"C. c #A44935",
"Z. c #A8543C",
"A. c #CB3C41",
"S. c #925F49",
"D. c #A95942",
"F. c #B15B43",
"G. c #83655A",
"H. c #846558",
"J. c #91614A",
"K. c #B76D54",
"L. c #BA7559",
"P. c #AF684E",
"I. c #8B6D64",
"U. c #916D61",
"Y. c #897469",
"T. c #937365",
"R. c #957A6D",
"E. c #9A7A6C",
"W. c #967769",
"Q. c #8F7F78",
"!. c #A57E6C",
"~. c #DC444A",
"^. c #9B8274",
"/. c #99877D",
"(. c #A48475",
"). c #AA8C7E",
"_. c #A78779",
"`. c #B78E7E",
"'. c #C28568",
"]. c #C69173",
"[. c #777D86",
"{. c #6A728A",
"}. c #8A8B8A",
"|. c #929393",
" X c #9A9A9A",
".X c #918B88",
"XX c #A88E80",
"oX c #AC9284",
"OX c #A6938A",
"+X c #B39383",
"@X c #BE9C8B",
"#X c #BA9787",
"$X c #A89B94",
"%X c #B49788",
"&X c #BCA396",
"*X c #858BA0",
"=X c #9FA3A7",
"-X c #A3A3A3",
";X c #ACABAA",
":X c #B6B6B6",
">X c #BBB9B9",
",X c #B0B0B0",
"<X c #C19C8C",
"1X c #C4A392",
"2X c #C9A694",
"3X c #C5AC9B",
"4X c #D2B19E",
"5X c #CAA896",
"6X c #C7AEA1",
"7X c #D3B4A2",
"8X c #C9BDB6",
"9X c #D0B8A9",
"0X c #D7C5B9",
"qX c #E1CBBA",
"wX c #BDC0C3",
"eX c #D8CECA",
"rX c #CDD4DA",
"tX c #CECDCC",
"yX c #ECD6C4",
"uX c #E9D7C9",
"iX c #EADED5",
"pX c #E0CFC5",
"aX c #EFE3DA",
"sX c #F2E3D6",
"dX c #D1DBE0",
"fX c #EEEFED",
"gX c None",
/* pixels */
"gXgXgXgXgXgXgXgXgXgXgXgXgXgXgXgXgXgXgXgXgXgXgXgXgXgXgXgXgXgXgXgXgXgXgXgXgXgXgXgXgXgXgXgXgXgXgXgXgXgX",
"gXgXgXgXgXgXgXgXgXgXgXgXgXgXgXgXgXgXgXgXgXgXgXgXgXgXgXgXgXgXgXgXgXgXgXgXgXgXgXgXgXgXgXgXgXgXgXgXgXgX",
"gXgXgXgXgXgXgXgXgXgXgXgXgXgXgXgXgXgXgXgXgXgXgXgXgXgXgXgXgXgXgXgXgXgXgXgXgXgXgXgXgXgXgXgXgXgXgXgXgXgX",
"gXgXgXgXgXgXgXgXgXgXgXgXgXgXgXgXgXgXgXgXgXgXgXgXgXgXgXgXgXgXgXgXgXgXgXgXgXgXgXgXgXgXgXgXgXgXgXgXgXgX",
"gXgXgXgXgXgXgXgXgXgXgXgXgXgXgXgXgXgXgXgXgXgXgXgXgXgXgXgXgXgXgXgXgXgXgXgXgXgXgXgXgXgXgXgXgXgXgXgXgXgX",
"gXgXgXgXgXgXgXgXgXgXgXgXgXgXgXgXgXgXgXgXgXgXgXgXgXgXgXgXgXgXgXgXgXgXgXgXgXgXgXgXgXgXgXgXgXgXgXgXgXgX",
"gXgXgXgXgXgXgXgXgXgXgXgXgXgXgXgXgXgXgXgXgXgXgXgXgXgXgXgXgXgXgXgXgXgXgXgXgXgXgXgXgXgXgXgXgXgXgXgXgXgX",
"gXgXgXgXgXgXgXgX2 % gXgXgXgXgXgXgXgXgXgXgXgXgXgXgXgXgXgXgXgXgXgXgXgXgXgXgXgXgXgXgXgXgXgXgXgXgXgXgXgX",
"gXgXgXgX8 9 8 3 I S . gXgXgXgXgXgXgXgXgXgXgXgXgXgXgXgXgXgXgXgXgXgXgXgXgXgXgXgXgXgXgXgXgXgXgXgXgXgXgX",
"gXgXgXgX@ y.u.Z 9 p.S % @ gXgXgXgXgXgXgXgXgXgXgXgXgXgXgXgXgXgXgXgXgXgXgXgXgXgXgXgXgXgXgXgXgXgXgXgXgX",
"gXgXgXgX2 B.z.p.C s.y.2 3 @ gXgXgXgXgXgXgXgXgXgXgXgXgXgXgXgXgXgXgXgXgXgXgXgXgXgXgXgXgXgXgXgXgXgXgXgX",
"gXgXgXT Q K.K.V.9 u.Y D r ; # w X 1 t ; gXgXgXgXgXgXgXgXgXgXgXgX; ! q.' gXgXgXgXgXgXgXgXgXgXgXgXgXgX",
"gXgXv.V.) K.'.l.9 y.F S ^ @ t t   g Y.R.w.~ gXgXgXgXgXgXgXgXgXgX0XiXyXyX0X3XgXgXgXgXgXgXgXgXgXgXgXgX",
"gXgXL.F.T d.L.U B 3 G 9 { o y k n }.^.).XX_.3.gXgXgXgXgXgXgXgXw.fXqXuXyXyXyX&XgXgXgXgXgXgXgXgXgXgXgX",
"gXgX].C.p.d.P.u.A 2 8 Q { ; j ~ tX;X' $.;._.#XY.~ gXgXgXgXgXgX<.iX%X$X/.0X6X&XgXgXgXgXgXgXgXgXgXgXgX",
"gXgXF.K.C.l.Z.u.R @ Q { { { :.;.k -..XaXw.G.E.3.&XY.gXgXgXgXgX; /.R.oXY.).oX^.gXgXgXgXgXgXgXgXgXgXgX",
"gXgXZ.V.P.p.C.Y y.6 / { >.!.#X+X1XpXuX6XR.{ T.^ 0XiX,.gX  z 5.l f h ,.$.$.:.t gXgXgXgXgXgXgXo   gXgX",
"gXgXV.d.l.s.d.i.N y./ / >.T._.+X@X<X<X<X^.^ H.y %XOXXXi a z | p a u - o # < . gXgXgXgXgXgX,  Xg   gX",
"gXgXP a.Y Y i.i.% 8 / H.!.{ U.U.H.E.#X<X+XH.(.j +XH.(.s i ..7.p u > * X - u =   gXgXgXgX. O 9.9.  gX",
"gXgXgXP A V Y Y G @ } #XR.$ ^ e & ] W.<X@X%X@Xt @X(._.e.|.*.- : : : *   O - - : gXg b n [.0.s n   gX",
"gXgXgXV 7 5 Z C F 6 >.1X3.+ w # < /.I.1X7X2XXXm 5X5XE.-.I.;.#.e.[.}.[.r.0.*.| X , *.9.0.|.:Xb -   gX",
"gXgXgXI 9 & I Z 6 + j #X3.$ j $XtXtXE.9XqX4XI.3.1X6XG.t.n.H e 9.=XrXdXfXeX` M ! |. X}. X-X-X@.    gX",
"gXgXgXu.B 0 g.% 2 . + H.T.$ ;.4.tX$X_.uXaX7X#X1X5X1X^ h.A.j.N r 7.,XdXfX8XD q }.-X-X:X:X:X>X&.    gX",
"gXgXs.a.U T K.3 D 9 . y (.t G.} ' 2.&XsXuX+X<X1X5X!.[ =.w E m.H D 9.=XfX>XK m -X X-X-X}. X-X#.    gX",
"gXs.a.a.a.a.K.L z._ + e >.).E.(.!.+X7XuX1XW.+X@X1X>.|.tX;X` M.b.H ( e.tX*XK j  X|.0.*.&.q.*.d     gX",
"gXa.a.U a.a.F.T z.J.4 e ^ E.2X1X4X7X7X3XR.E.!.@XXXM w.F ` D F D N ~ w.,Xe.#.r. Xq.+.&.n , b O   gXgX",
"gXd.p.L v.z.a.T Z.J.C @ + W H.1X<X+X%X_.I.W.E.+X>.H M.N.M.k.t.F w 9.0.wXq.U h *.&.b g d +.d   gXgXgX",
"gXd.p.L B.C.l.z.C.) N 9 + + & t & . ^ R.T.E.E.T.E A.` ` x.x.D $ r d n r.=.Y e +.@., - , O gXgXgXgXgX",
"gXgXp.D { L.v.B.B.Z I P . . . . .   ^ ^.T.E.T.q $ . : u a a p p p : X u d U ; [ d X s 1 gXgXgXgXgXgX",
"gXgXp.P y ].K.Z V i.s.Z . . + k ,.I.R.1.E.,.q X 5.c : u p c p : - a X.5. .# o 1 X o 1 gXgXgXgXgXgXgX",
"gXgXgXA 3 !.K.Z B p.g.0 + @ ' pXY.~ ( $.6Xj *   : 8.8.z  .X.{.| | | a p u - c > . O   gXgXgXgXgXgXgX",
"gXgXgX4 7 K F.I 8 d.p.p.V & &X.XW j ] ).Q.o + : X X O.o.l X : a : : = - u u x  .O O o gXgXgXgXgXgXgX",
"gXgXgXgXS r l.p.V U s.a.P 7 ^.$XG.G.H.:.& o # a | u X           * : = O : i x 5.i o 1   gXgXgXgXgXgX",
"gXgXgXgXgXgX% A u.A Z.} ) % & ~ ;.Q e @ 5 - >  .o.l u       = *   o O X o i f o.x < - o gXgXgXgXgXgX",
"gXgXgXgXgXgX  . B y.P.K L . 2 G R u.G 5 r ; gX> {.| i O     l X.| u - X o > f M x n d < gXgXgXgXgXgX",
"gXgXgXgXgXgXgXgX% G T K Z . S R R y.S 2 gXgXgX  [.{.z :     : z | X.5.- ! d u z a @.g , O gXgXgXgXgX",
"gXgXgXgXgXgXgXgX% G 6 V B + 7 gX4 2 gXgXgXgXgX  i *X%.f =     * * l x g oX0X,Xd b &.b >   gXgXgXgXgX",
"gXgXgXgXgXgXgXgXgX4 gXgX0 gXgXgXgXgXgXgXgXgXgXgX  l {.%.| o         * ! $XuXeX[ @.&.#., 1 gXgXgXgXgX",
"gXgXgXgXgXgXgXgXgXgXgXgXgXgXgXgXgXgXgXgXgXgXgXgX  X i {.6.f O     X > ,.0XaXpX! @.9.*.g   gXgXgXgXgX",
"gXgXgXgXgXgXgXgXgXgXgXgXgXgXgXgXgXgXgXgXgXgXgXgXo | : - %.8.x - = p i R.0XsX8Xi s n q     gXgXgXgXgX",
"gXgXgXgXgXgXgXgXgXgXgXgXgXgXgXgXgXgXgXgXgXgXgXgXo X.l u : f 6.O. ...[ OX0XuX$Xd g > X       gXgXgXgX",
"gXgXgXgXgXgXgXgXgXgXgXgXgXgXgXgXgXgXgXgXgXgXgXgXgX- X.a u u > > d d Y.6X0X0X[ &.r.&.d X     gXgXgXgX",
"gXgXgXgXgXgXgXgXgXgXgXgXgXgXgXgXgXgXgXgXgXgXgXgXgXgXgXa i p a l x v > 4.q.g - - o X         gXgXgXgX",
"gXgXgXgXgXgXgXgXgXgXgXgXgXgXgXgXgXgXgXgXgXgXgXgXgXgXgXgXgXgXX = * gXgXgXgXgXgXgXgXgXgXgXgXgXgXgXgXgX",
"gXgXgXgXgXgXgXgXgXgXgXgXgXgXgXgXgXgXgXgXgXgXgXgXgXgXgXgXgXgXgXgXgXgXgXgXgXgXgXgXgXgXgXgXgXgXgXgXgXgX",
"gXgXgXgXgXgXgXgXgXgXgXgXgXgXgXgXgXgXgXgXgXgXgXgXgXgXgXgXgXgXgXgXgXgXgXgXgXgXgXgXgXgXgXgXgXgXgXgXgXgX",
"gXgXgXgXgXgXgXgXgXgXgXgXgXgXgXgXgXgXgXgXgXgXgXgXgXgXgXgXgXgXgXgXgXgXgXgXgXgXgXgXgXgXgXgXgXgXgXgXgXgX",
"gXgXgXgXgXgXgXgXgXgXgXgXgXgXgXgXgXgXgXgXgXgXgXgXgXgXgXgXgXgXgXgXgXgXgXgXgXgXgXgXgXgXgXgXgXgXgXgXgXgX",
"gXgXgXgXgXgXgXgXgXgXgXgXgXgXgXgXgXgXgXgXgXgXgXgXgXgXgXgXgXgXgXgXgXgXgXgXgXgXgXgXgXgXgXgXgXgXgXgXgXgX",
"gXgXgXgXgXgXgXgXgXgXgXgXgXgXgXgXgXgXgXgXgXgXgXgXgXgXgXgXgXgXgXgXgXgXgXgXgXgXgXgXgXgXgXgXgXgXgXgXgXgX"
};
