/* XPM */
static char *bWFuMTI_[] = {
/* columns rows colors chars-per-pixel */
"49 49 221 2 ",
"   c #030303",
".  c #0A0503",
"X  c #060708",
"o  c #070809",
"O  c #0B0B0C",
"+  c #0F0906",
"@  c #140A05",
"#  c #1C0C06",
"$  c #130C0B",
"%  c #150A07",
"&  c #1E120C",
"*  c #0D0E11",
"=  c #190E10",
"-  c #0F1115",
";  c #131314",
":  c #1C1412",
">  c #13151A",
",  c #1C1C1C",
"<  c #161B1F",
"1  c #230E06",
"2  c #290E09",
"3  c #360E0A",
"4  c #2D130A",
"5  c #26130A",
"6  c #33140A",
"7  c #3C140B",
"8  c #3D1A0A",
"9  c #251A15",
"0  c #261A18",
"q  c #351916",
"w  c #192119",
"e  c #2C211D",
"r  c #35241E",
"t  c #3F261C",
"y  c #1B1E25",
"u  c #171B22",
"i  c #211E21",
"p  c #1D222A",
"a  c #1B2027",
"s  c #242424",
"d  c #23252C",
"f  c #2C2B2C",
"g  c #2B2525",
"h  c #342621",
"j  c #362924",
"k  c #3C2B24",
"l  c #3A2D2A",
"z  c #222631",
"x  c #242934",
"c  c #292E3A",
"v  c #2B2D34",
"b  c #2D313D",
"n  c #323232",
"m  c #3B3A3A",
"M  c #373336",
"N  c #37312D",
"B  c #44150A",
"V  c #421A0B",
"C  c #4B1B0D",
"Z  c #4B160C",
"A  c #541A0C",
"S  c #5C1C0D",
"D  c #530D10",
"F  c #5A1E16",
"G  c #471E11",
"H  c #621C0E",
"J  c #6B1D10",
"K  c #741E10",
"L  c #4B200C",
"P  c #5B240E",
"I  c #50220A",
"U  c #442A1E",
"Y  c #5B2616",
"T  c #55311F",
"R  c #64260F",
"E  c #75230F",
"W  c #6B2212",
"Q  c #652215",
"!  c #7A2312",
"~  c #792814",
"^  c #753119",
"/  c #482C21",
"(  c #47352C",
")  c #523629",
"_  c #483B36",
"`  c #523D33",
"'  c #5C2322",
"]  c #783826",
"[  c #6E3924",
"{  c #56443D",
"}  c #5C4339",
"|  c #4F423B",
" . c #6F4836",
".. c #2E3341",
"X. c #313643",
"o. c #363B48",
"O. c #393C48",
"+. c #413942",
"@. c #3B404E",
"#. c #3E4452",
"$. c #4A4A4A",
"%. c #44444A",
"&. c #594C47",
"*. c #414654",
"=. c #474C5B",
"-. c #4D525F",
";. c #535353",
":. c #59595A",
">. c #644E44",
",. c #684C42",
"<. c #6A5249",
"1. c #76584B",
"2. c #695B55",
"3. c #745D53",
"4. c #7A5D52",
"5. c #7A6359",
"6. c #7C6358",
"7. c #6A615C",
"8. c #4D5261",
"9. c #565A67",
"0. c #515769",
"q. c #5D606E",
"w. c #5F6475",
"e. c #626262",
"r. c #6C6C6C",
"t. c #756664",
"y. c #646A79",
"u. c #676B7A",
"i. c #747474",
"p. c #7C7A78",
"a. c #757075",
"s. c #8A2615",
"d. c #8D2A19",
"f. c #852814",
"g. c #982616",
"h. c #992C1A",
"j. c #962A18",
"k. c #9B321E",
"l. c #93321C",
"z. c #85331F",
"x. c #861E21",
"c. c #9A3824",
"v. c #883B24",
"b. c #A1131A",
"n. c #98442E",
"m. c #994D36",
"M. c #86402A",
"N. c #A64A34",
"B. c #AB543C",
"V. c #A3432C",
"C. c #8E5A46",
"Z. c #AA5841",
"A. c #B15C45",
"S. c #866659",
"D. c #B5654C",
"F. c #B66B52",
"G. c #AB6C51",
"H. c #886E62",
"J. c #8C7368",
"K. c #937365",
"L. c #947669",
"P. c #94796B",
"I. c #9B7B6D",
"U. c #987C72",
"Y. c #8A726A",
"T. c #BB7C62",
"R. c #A57D6A",
"E. c #C07C62",
"W. c #9C8071",
"Q. c #A38274",
"!. c #AB8B7C",
"~. c #A88779",
"^. c #B08A7B",
"/. c #BD896E",
"(. c #C6876B",
"). c #C89578",
"_. c #717789",
"`. c #827F82",
"'. c #7B8192",
"]. c #8A8A8A",
"[. c #858484",
"{. c #8F9090",
"}. c #9C9C9C",
"|. c gray57",
" X c #958A84",
".X c #AD9182",
"XX c #B49382",
"oX c #BC9B8B",
"OX c #B99687",
"+X c #AE9D94",
"@X c #B29688",
"#X c #9FA09F",
"$X c #B4A298",
"%X c #9A9FB2",
"&X c #A9A8A8",
"*X c #B5AAA7",
"=X c #B7B6B7",
"-X c #BCB4AE",
";X c #C19C8B",
":X c #D39F81",
">X c #D6A486",
",X c #C5A492",
"<X c #CAAA98",
"1X c #C9B3A4",
"2X c #D6BAA8",
"3X c #C2B9B3",
"4X c #CDAFA0",
"5X c #D8C5B9",
"6X c #E4CBB9",
"7X c #C8C7C6",
"8X c #D7D6D6",
"9X c #D5CFCB",
"0X c #E9D7C9",
"qX c #EEDED3",
"wX c #F0DECE",
"eX c #F1E2D7",
"rX c #EBE2DE",
"tX c #E9E9E8",
"yX c #F5ECE6",
"uX c #F9F5F2",
"iX c None",
/* pixels */
"iXiXiXiXiXiXiXiXiXiXiXiXiXiXiXiXiXiXiXiXiXiXiXiXiXiXiXiXiXiXiXiXiXiXiXiXiXiXiXiXiXiXiXiXiXiXiXiXiX",
"iXiXiXiXiXiXiXiXiXiXiXiXiXiXiXiXiXiXiXiXiXiXiXiXiXiXiXiXiXiXiXiXiXiXiXiXiXiXiXiXiXiXiXiXiXiXiXiXiX",
"iXiXiXiXiXiXiXiXiXiXiXiXiXiXiXiXiXiXiXiXiXiXiXiXiXiXiXiXiXiXiXiXiXiXiXiXiXiXiXiXiXiXiXiXiXiXiXiXiX",
"iXiXiXiXiXiXiXiXiXiXiXiXiXiXiXiXiXiXiXiXiXiXiXiXiXiXiXiXiXiXiXiXiXiXiXiXiXiXiXiXiXiXiXiXiXiXiXiXiX",
"iXiXiX; > : ; > iXiXiXiXiXiXiXo . iXiXiXiXiXiXiXiXiXiXiXiXiXiXiXiXiXiXiXiXiXiXiXiXiXiXiXiXiXiXiXiX",
"iX; i m s , . O iXiXiXiXiXs 9.u._.0 iXiXiXiXiXiXiXiXiXiXiXiXiXiXiXiXiXiXiXiXiXiXiXiXiXiXiXiXiXiXiX",
"o , r.#X$.- i m f iXiXiXf '.y.9.u.9.iXiXiXiXiXiXiXiXiXiXiXiXiXiXiXiXiXiXiXiXiXiXiXiXiXiXiXiXiXiXiX",
"  - f w . e.&X8Xi.iXiX*.q.9.#.#.#.'.i iXiXiXiXiXiXiXiXiXiXiXiXiXiXiXiXiXiXiXiXiXiXiXiXiXiXiXiXiXiX",
"      X $.#X=X9X=Xe @.=.X.x b #.#.8.u.$ iX& { { | iXiXiXiXiXiXiXiXiXiXiXiXiXiXiXiXiXiXiXiXiXiXiXiX",
"X   X , ;.i.&X7X'.s #.z x p z o.#.*.y.9.; } L.Y.2X9 iXiXiXiXiXiXiXiXiXiXiXiXiXiXiXiXiXiXiXiXiXiXiX",
"iXiXiX, %.i.p.e.s c b p < p p x X.O.*.y.q.&.>.Y.1X, iXiXiXiXiXiXiXiXiXiXiXiXiXiXiXiXiXiXiXiXiXiXiX",
"iXiXiX, m :.:.g w @.p > X o > a d x o.*.-.q.m H.O.=.*.iXiXiXiXiXiXiXiXiXiXiXiXiXiXiXiXiXiXiXiXiXiX",
"iXiXiXg M n n ; x b a o X X X o * O a o...@.9.d > X.e.iXiXiXiXiXiXiXiX# 1 iXiXiXiXiXiXiXiXiXiXiXiX",
"iXiXiXf n g s O ..x - o       X *.u.9.@.x p c -.< > w.iXiXiXI C R A 1 4 V ^  .iXiXiXiXiXiXiXiXiXiX",
"iXiXiXiXw f s - b p o X       9.%X'.=.q.y.#.p X.+.- =.$ iXL V C A B # 6 R v.G.E R iXiXiXiXiXiXiXiX",
"iXiXiXiX- a : - b p o o .   -.u.#.@.a a X.w.w...o.d b ; # 4 # 4 # @ $ 6 C v.m.J E s.A iXiXiXiXiXiX",
"iXiXiXiXiX, : O z ..O = D i _.#.x u - a y o.8.0.o.o.y O @ + : j ( r $ & V m.k.f.V E g.B iXiXiXiXiX",
"iXiXiXiXiXiX, O > X.O 3 b.O.=.x u - X X > y x #.#...*   9 P.4.!.,X,X1X: I l.~ V T 1 l.E E H iXiXiX",
"iXiXiXiXiXiX; ; O ..> 3 D 9.X.- X o   o   O u d ..> o O U.P.<.` _ 2.qXr L ~ 1 ` ^ 8 C.V.H f.iXiXiX",
"iXiXiXiXiXiXo $ - - z 2 q =.x X o O p c O X     * o o 0 @X3.h h _ -X5X5 @ # 5 /.k.C T F.N.N.H iXiX",
"iXiXiXiXiXiXO ; i f M = f y.i X X O z 8.$ > O   X     ( Q.>.3.!.1X*Xh +   . _ Z.s.P 4  .>X).m.iXiX",
"iXiXiXiXiXiXX > n ;.t.i i -.=.> o - b -.d b O.*.M + { I.L.U.W.{ & . +     +  .c.H [ Q v.).).(.Q iX",
"iXiXiXiXX     d M q.|.q t.u b +.b > #.-.O.*.#.o.> 1.I.I.K.P.<.  X   .   . . Q f.2 R.~ W k.c.B.E iX",
"iXiX  i f s i N $.r.|.q ].0 5.4._ y -.@.d c p ; >.XXQ.I.K.Q..Xj 5.!.6.5   & P W U ).c.s.f.k.h.f.iX",
"iXiX  n $.m n m r.r.{.+.].( I.U.R.4.2.g @.p.].g XXoX!.Q.K.<X6X2X<X,X,XK.r # P P ` :Xc.g.! c.h.K iX",
"X o   m e.:.:.e.r.[.}.;.`.<.H.L.~.2X6Xp.;.tX].>.oX,XOXP..XwX6XOXR.Q.OXOX4.5 P C / /.k.g.~ c.j.S iX",
"      %.e.e.p.[.}.7X}.$.e.S.H.K.$X0X5XtXm yX2.!.,X,X,XW.5XuX5XR.C.4.L.&.~.r 6 8 4 G.k.j.A [ H V iX",
"      f i.|.#X=X9X7X;.m M S.L.@X4XyX@X*X0 &Xt.,X,X,X,XoX0XeXoX1.2.+.,.0 >. .q 8 % v.g.d.6 3 C iXiX",
"    - X i.&X8X8X7X;.; iX%.5.^.0XeXuXeX*X' x.4.<X,X.XR.4X5XwXI.3XuXrX_ 0 r S./ @ . 7 d.A # 4 V iXiX",
"  s $.; ;.=X=Xe.;   iXiXiX5 j  X9X5XyX$X' x.L.,X,X| ~.,X<X6XK.9X`.:.l 5 0 XXS./ % 3 B % & q V iXiX",
"  f ].;.n ].w iXiXiXiXiXiXiXiX& i l N t.=X:.~.,X,Xg XXOXoX;XI.Y.M @ ) 0 j ;X!.T # Q W V 4 7 B 2 iX",
"iX, `.].,   iXiXiXiXiXiXiXiXiXiXiX: ; z a.f ~..XoXk XX~.;X;XXXH.} <.K.r 6.OX4.t 2 7 ! j.s.A f.B iX",
"iX  , r.O iXiXiXiXiXiXiXiXiXiXiXiXiXiXiXiXiX+XJ.XXh 6.<.~.;X;XOX^.^.^.R.^.K. .4 B B J k.g.c.Z.d.iX",
"iXiX    iXiXiXiXiXiXiXiXiXiXiXiXiXiXiXiXiXiX X+XoXj S.( 6.;X;X<X4XOXOX~.K.1.U 1 K 3 s.k.h.D.T.k.iX",
"iXiXiXiXiXiXiXiXiXiXiXiXiXiXiXiXiXiXiXiXiXiX_ 9X2X{ K.3.&.2XqX-X&.4.I.S.1./ 7 K F v.A.c.c.E.F.g.iX",
"iXiXiXiXiXiXiXiXiXiXiXiXiXiXiXiXiXiXiXiXiXiXiXiXt..XXXI.g =X7.N &.l ) / k 2 K H C.>XF.h.Z.(.A.g.iX",
"iXiXiXiXiXiXiXiXiXiXiXiXiXiXiXiXiXiXiXiXiXiXiXiXiXj 5..XP.2.P.-X7X&Xj @ r 4 J m.>X(.d.s.V.>XD.iXiX",
"iXiXiXiXiXiXiXiXiXiXiXiXiXiXiXiXiXiXiXiXiXiXiXiXiXiXiXl t.P.Y.i.  , k @ k 6 ! D.E.d.J h.A.E.N.iXiX",
"iXiXiXiXiXiXiXiXiXiXiXiXiXiXiXiXiXiXiXiXiXiXiXiXiXiXiXiXiX9 0 w   9 9 % 0 # s.V.n.D d.c.B.iXiXiXiX",
"iXiXiXiXiXiXiXiXiXiXiXiXiXiXiXiXiXiXiXiXiXiXiXiXiXiXiXiXiXiXiXiXiXiX. # 1 # g.B.Y ~ ~ ~ iXiXiXiXiX",
"iXiXiXiXiXiXiXiXiXiXiXiXiXiXiXiXiXiXiXiXiXiXiXiXiXiXiXiXiXiXiXiXiXiXiX@ 1 3 h.d.C f.R iXiXiXiXiXiX",
"iXiXiXiXiXiXiXiXiXiXiXiXiXiXiXiXiXiXiXiXiXiXiXiXiXiXiXiXiXiXiXiXiXiXiXiXiX2 g.P 6 ~ iXiXiXiXiXiXiX",
"iXiXiXiXiXiXiXiXiXiXiXiXiXiXiXiXiXiXiXiXiXiXiXiXiXiXiXiXiXiXiXiXiXiXiXiXiXiXH V @ iXiXiXiXiXiXiXiX",
"iXiXiXiXiXiXiXiXiXiXiXiXiXiXiXiXiXiXiXiXiXiXiXiXiXiXiXiXiXiXiXiXiXiXiXiXiXiXiXiXiXiXiXiXiXiXiXiXiX",
"iXiXiXiXiXiXiXiXiXiXiXiXiXiXiXiXiXiXiXiXiXiXiXiXiXiXiXiXiXiXiXiXiXiXiXiXiXiXiXiXiXiXiXiXiXiXiXiXiX",
"iXiXiXiXiXiXiXiXiXiXiXiXiXiXiXiXiXiXiXiXiXiXiXiXiXiXiXiXiXiXiXiXiXiXiXiXiXiXiXiXiXiXiXiXiXiXiXiXiX",
"iXiXiXiXiXiXiXiXiXiXiXiXiXiXiXiXiXiXiXiXiXiXiXiXiXiXiXiXiXiXiXiXiXiXiXiXiXiXiXiXiXiXiXiXiXiXiXiXiX",
"iXiXiXiXiXiXiXiXiXiXiXiXiXiXiXiXiXiXiXiXiXiXiXiXiXiXiXiXiXiXiXiXiXiXiXiXiXiXiXiXiXiXiXiXiXiXiXiXiX",
"iXiXiXiXiXiXiXiXiXiXiXiXiXiXiXiXiXiXiXiXiXiXiXiXiXiXiXiXiXiXiXiXiXiXiXiXiXiXiXiXiXiXiXiXiXiXiXiXiX"
};
