/* XPM */
static char *bWFuMTM_[] = {
/* columns rows colors chars-per-pixel */
"50 49 231 2 ",
"   c #030404",
".  c #0A0403",
"X  c #060709",
"o  c #070809",
"O  c #0B0B0C",
"+  c #090907",
"@  c #130704",
"#  c #140A06",
"$  c #1C0B06",
"%  c #120C0B",
"&  c #190D09",
"*  c #1C110D",
"=  c #16100E",
"-  c #0D0E12",
";  c #0E1015",
":  c #0F1218",
">  c #131315",
",  c #13151B",
"<  c #16181F",
"1  c #1B1B1B",
"2  c #1D1816",
"3  c #100F10",
"4  c #220D06",
"5  c #270E09",
"6  c #2C130A",
"7  c #281209",
"8  c #33130A",
"9  c #3B1409",
"0  c #291815",
"q  c #371C15",
"w  c #300E08",
"e  c #1D201D",
"r  c #2D211D",
"t  c #20201B",
"y  c #33231D",
"u  c #161A22",
"i  c #1A1C24",
"p  c #1B1F29",
"a  c #191623",
"s  c #1E222C",
"d  c #1D2027",
"f  c #232323",
"g  c #2B2623",
"h  c #21242C",
"j  c #2A2A2B",
"k  c #292928",
"l  c #352A25",
"z  c #3D322C",
"x  c #222531",
"c  c #252934",
"v  c #292E3B",
"b  c #282D37",
"n  c #2C313E",
"m  c #343333",
"M  c #3C3C3C",
"N  c #3A3535",
"B  c #312F33",
"V  c #291F2C",
"C  c #42150B",
"Z  c #4B160B",
"A  c #441A0B",
"S  c #4B1C0C",
"D  c #5B1B0D",
"F  c #521B0C",
"G  c #4B1D15",
"H  c #581812",
"J  c #4A0E0E",
"K  c #641C0E",
"L  c #6B1A0E",
"P  c #661812",
"I  c #731112",
"U  c #57250D",
"Y  c #492719",
"T  c #67240E",
"R  c #662414",
"E  c #772815",
"W  c #772911",
"Q  c #442E28",
"!  c #57252A",
"~  c #44332D",
"^  c #4D352A",
"/  c #5A3526",
"(  c #483935",
")  c #543B34",
"_  c #743725",
"`  c #6A312A",
"'  c #52433C",
"]  c #5A453D",
"[  c #48423B",
"{  c #714C3D",
"}  c #333645",
"|  c #393D4A",
" . c #333949",
".. c #343949",
"X. c #453F4A",
"o. c #3C414D",
"O. c #3D4456",
"+. c #454545",
"@. c #4C4748",
"#. c #5C4B42",
"$. c #554845",
"%. c #414757",
"&. c #545454",
"*. c #5D5D5D",
"=. c #5E5952",
"-. c #525152",
";. c #634B42",
":. c #694D4A",
">. c #695349",
",. c #79594C",
"<. c #695D54",
"1. c #775D53",
"2. c #5E605F",
"3. c #786459",
"4. c #6A625B",
"5. c #464D61",
"6. c #4D5366",
"7. c #585C67",
"8. c #535A71",
"9. c #646364",
"0. c #6C6C6C",
"q. c #676766",
"w. c #776863",
"e. c #787878",
"r. c #6D6D76",
"t. c #8B1317",
"y. c #AD161C",
"u. c #842A14",
"i. c #892A18",
"p. c #9A2C16",
"a. c #992C1A",
"s. c #942914",
"d. c #87321B",
"f. c #94331C",
"g. c #9D321A",
"h. c #AA1F24",
"j. c #883723",
"k. c #9C3724",
"l. c #8A3034",
"z. c #AE3630",
"x. c #C11922",
"c. c #CB222A",
"v. c #CC3038",
"b. c #9C422B",
"n. c #904D36",
"m. c #A64A34",
"M. c #A35038",
"N. c #933C41",
"B. c #E43B44",
"V. c #AD5741",
"C. c #B15D45",
"Z. c #B5484D",
"A. c #87675A",
"S. c #916B5D",
"D. c #B6755A",
"F. c #B06D53",
"G. c #886E62",
"H. c #8C7367",
"J. c #937366",
"K. c #95796D",
"L. c #9A7B6C",
"P. c #977668",
"I. c #9A7E70",
"U. c #8D7B70",
"Y. c #A37C6E",
"T. c #BC7C61",
"R. c #A17C75",
"E. c #885A46",
"W. c #E95F66",
"Q. c #E46269",
"!. c #998679",
"~. c #A48475",
"^. c #A98C7D",
"/. c #A68779",
"(. c #B38C7C",
"). c #BB8468",
"_. c #C4886A",
"`. c #CB9576",
"'. c #C88E70",
"]. c #73798C",
"[. c #686F83",
"{. c #88888A",
"}. c #918A86",
"|. c #9C9C9C",
" X c #969595",
".X c #868C98",
"XX c #A99285",
"oX c #B49282",
"OX c #B99383",
"+X c #BD9B8B",
"@X c #B89888",
"#X c #A69994",
"$X c #B59789",
"%X c #BAA397",
"&X c #8F96AC",
"*X c #A3A3A3",
"=X c #ABACAC",
"-X c #A5A7A9",
";X c #B5ADA8",
":X c #B3B3B3",
">X c #BBBBBB",
",X c #B8B4B6",
"<X c #B7B2AF",
"1X c #C09C8B",
"2X c #C5A492",
"3X c #C9AA98",
"4X c #D2B19E",
"5X c #C8A896",
"6X c #C8AFA2",
"7X c #D7BAA9",
"8X c #CAB9AE",
"9X c #D8C7BC",
"0X c #E9D3BD",
"qX c #E0C7B9",
"wX c #BCC0C0",
"eX c #C2C3C3",
"rX c #CACBCC",
"tX c #CAC8C7",
"yX c #D6D6D6",
"uX c #DFCFC6",
"iX c #ECD8C7",
"pX c #F3DBC5",
"aX c #E6DBD0",
"sX c #F4E6D9",
"dX c #EEE2D9",
"fX c #E4E4E4",
"gX c #EAEAEA",
"hX c #EDE8E1",
"jX c #F5EDE5",
"kX c #F8F3EE",
"lX c None",
/* pixels */
"lXlXlXlXlXlXlXlXlXlXlXlXlXlXlXlXlXlXlXlXlXlXlXlXlXlXlXlXlXlXlXlXlXlXlXlXlXlXlXlXlXlXlXlXlXlXlXlXlXlX",
"lXlXlXlXlXlXlXlXlXlXlXlXlXlXlXlXlXlXlXlXlXlXlXlXlXlXlXlXlXlXlXlXlXlXlXlXlXlXlXlXlXlXlXlXlXlXlXlXlXlX",
"lXlXlXlXlXlXlXlXlXlXlXlXlXlXlXlXlXlXlXlXlXlXlXlXlXlXlXlXlXlXlXlXlXlXlXlXlXlXlXlXlXlXlXlXlXlXlXlXlXlX",
"lXlXlXlXlXlXlXlXlXlXlXlXlXlXlXlXlXlXlXlXlXlXlXlXlXlXlXN !.0X0X2XlXlXlXlXlXlXlXlXlXlXlXlXlXlXlXlXlXlX",
"lXlXlXlXlXlXlXlXlXlX9 lXlXlXlXlXlXlXlXlXlXlXlXlXlXlX%XsXaXjX7X2X/.lXlXlXlXlXlXlXlXlXlXlXlXlXlXlXlXlX",
"lXlXlXlXlXlXlX$ 4 A U A lXlXlXlXlXlXlXlXlXlXlXlXlX;X9XhX9X8X4X<.G.lXlXlXlXlXlXlXlXlXlXlXlXlXlXlXlXlX",
"lXlXlXlXlXlXlX4 8 u.T 8 A lXlXlXlXlXlXlXlXlXlXlXw.kX!.=.iXU.G.' <.X i lXlXlXlXlXlXlXlXlXlXlXlXlXlXlX",
"lXlXlXlXlXT E U U k.R 4 S   + lXlXlXlXlXlXlXlXlXM jX6Xe >.#.!.2XK.p  .5.lXlXlXlXlXlXlXlXlXlXlXlXlXlX",
"lXlXlXlXk.n.b.R j.V.` @ 8 O % 0 lXlXlXlXlXlXlXlXM hX=.4.#Xw.3.^.( O o 5.- lXlXlXlXlXlXlXlXlXlXlXlXlX",
"lXlXlXk.M._._ E V.j.w @ % 0 Q 0 l ] $.( g lXlXlXlX=.}.aXqXH.!.[ 0   X %.X lXlXlXlXlXlXlXlXlXlXlXlXlX",
"lXlXk.F.F.k._ V._.E w @ # q 0 . l #X^.^.^.G.l lXlXlXN 3.#.k t *     s v , lXlXlXlXlX+ + o lXlXlXlXlX",
"lXa.C.T.a.U ! '.'.i.Z 9 # g $.e.=X<X/.!.$X$X<.r lXlXlXlX%.e + + - } O., x lXlXlXlXe {.M O o lXlXlXlX",
"lXb._._.g._ D.).` D L 7 * l ~ tXyX<.[ ~ L.$X^./.' lXlXlXf v 5.7.8.%.< i x lXlXlXlXM tX:X-XB + lXlXlX",
"lXM._.C.p.k.k.q K D @ 0 ) J.G.1.'  XuXK.( ~.;.XX9X>.  : u - , , - - u s s lXlXlXlXlX2.-.&.e.f   lXlX",
"lX_ m.m.p.a.L C K . & ^ A.OXOX+X7X7X3XOXy A.( H.uX9X, s o         , p s i lXlXlXlXlX2.f % M m e   lX",
"lXU g.T g.g.P Z Z & ^ { Y.Y.(.OX+X1X1X+Xy A.] 3.U.%Xl j O.o.u     - p < lXlXlXlXlX0.kXrXq.O 1 f   lX",
"lXA i.F E f.E 5 F Y ,./.:.S.A.A.J./.1X+XA.oX#.3.~.(.( } o.d v   3 | c X - lXlXlXB eXgXfX>Xj   f O lX",
"lXlXW A * G E S 6 { +XJ.* ' q * ) A.OX1X+X2Xz H.~.%Xz O < , n s %...p h s h % a :XgXtX:X=X0.O   O lX",
"lXlXU 7 * $ 5 6 $ J.2X,.% 0 % = #X1.+X7X3X1Xl +X5X2Xr + , , ; i s u , > - , } {.fXgXwX*X|.*.1   lXlX",
"lXlXS $ $ $ C C % ,.2X3.* ~ }.:XfXI.2XaX7X^.;.2X5X@Xg ,Xe.M O : , , a -   - j eXgXyX:X Xe.j f   lXlX",
"lXU S D Z K E f.5 ) P.Y.# >.}.gX#X/.9XkX7X2X+X2X5XU.:. XR.:.> M } 0 - = - ; n yXfX*X X{.+.j f   lXlX",
"lXT i.s.i.W F.D.w & >.L.q 3.{ ~ 1.%XdXdX2X+X2X2X+X:.t.h.I I 5 ( 7.{.-X].B % X.gXyX Xe.&.k +.1 lXlXlX",
"lXu.a.a.a.f.T.).$ D q A.Y.S.~.(.OX7X0X4XoXoXOX2XR.q.~ v.c.t.t.t.H w 0.rXgX@.:.yX>Xq.-.B +.B lXlXlXlX",
"lXu.a.s.i.M.'.F.9 u.9 y (.3X2X4X4X7X4X(.I./.oX+X]  X=XV Z.R ! x.y.P w 9.rXN ) wX=X&.@.1 j lXlXlXlXlX",
"lXu.k.a.f.n.T.E.K a./ @ l H.1X2X%X+X/.J.P.Y.~.!.g fXkX:X< +.eXw.c.y.J ~ q.0 :.=X X&.M 3 lXlXlXlXlXlX",
"lXu.D.C.m.f.M.G W m.n.# . @ r 2 * ~ J.J.K.P.~.] {.eXrX=X, &.wX=XZ.v.I a %.5 @. X&.-.f 1 lXlXlXlXlXlX",
"lXd.C.`._.d.w H g.m.{ . . . . . . r ~.P.L.~.>.; - , , i i p f k N.v.I 5 g G @.9.+.M > k lXlXlXlXlXlX",
"lXlXb.'.`.T.* C g.M.y # @ # 7 @.3.!.G.J.G.~ . - u p p i u i i a N.v.I 2 5 P N N j 1 > f lXlXlXlXlXlX",
"lXlXE j.n.F.q C k.F.# 8 6 z 8X6X!.G.] 5X<.  h | o.h i h v c i i N.v.I J f ~ j f f > 1 B lXlXlXlXlXlX",
"lXlXlXD P s.I D E / S u.8 /.tXz t Q !.%Xl     u 7.].o.i - v u i ! B.t.P Q M f f k > j m lXlXlXlXlXlX",
"lXlXlXlX9 u.s.T s.u.f.d.9 U.;X>.,.A.!.~   : , -   -       %.c v V Q.c.I G 3 1 e 1 f N lXlXlXlXlXlXlX",
"lXlXlXlXlXZ p.W F s.b./ A 0 <.U.{ l $ @ O 6.n x i o     X h : , , ` W.h.H 1 > > 1 j m lXlXlXlXlXlXlX",
"lXlXlXlXlXlXlXW T f.M.r U $ @ 4 6 7 6 7 | r.O.O.s ;     o , < u i i ! v.l.c > 2 f M t lXlXlXlXlXlXlX",
"lXlXlXlXlXlXlXlXlXW D.S 9 $ $ Z A A A $ 6.O. .c s -       O > < u i s  .X.h 1 j m m f O lXlXlXlXlXlX",
"lXlXlXlXlXlXlXlXlXlX{ S w 4 7 lXD S S : 5. .x s d : O -   o ; : < u p v O.x k f m B d + lXlXlXlXlXlX",
"lXlXlXlXlXlXlXlXlXlXlXlX6 5 lXlXlXlXlX, 8.v s d u O , i   o O : , < i c | v 0.q.-.j f + lXlXlXlXlXlX",
"lXlXlXlXlXlXlXlXlXlXlXlXlXlXlXlXlXlXlX; [.c u , X   u n O   o : , < i c | } -X.X&.M f 2 lXlXlXlXlXlX",
"lXlXlXlXlXlXlXlXlXlXlXlXlXlXlXlXlXlXlXa &X5.c : O   s v v ;   : , < < x v v |.|.*.+.1 e lXlXlXlXlXlX",
"lXlXlXlXlXlXlXlXlXlXlXlXlXlXlXlXlXlXlXlX].[.5.p : o : x }  .- o > < , i x x *X*X2.M > > lXlXlXlXlXlX",
"lXlXlXlXlXlXlXlXlXlXlXlXlXlXlXlXlXlXlXlX .[.6.s : :   u d c   X - : < , c k 8X=X2.+.1 1 lXlXlXlXlXlX",
"lXlXlXlXlXlXlXlXlXlXlXlXlXlXlXlXlXlXlXlXlX8.6.x u o   O i ( >.z O > < s d e.rX:X0.*.j > lXlXlXlXlXlX",
"lXlXlXlXlXlXlXlXlXlXlXlXlXlXlXlXlXlXlXlXlX .[.%.p u O X ' ~.S.] > < h o ; >XeX|.=.o.f > lXlXlXlXlXlX",
"lXlXlXlXlXlXlXlXlXlXlXlXlXlXlXlXlXlXlXlXlXi ].5.O.5.u ~ P.(.>.t ) O lX  O e *.*.f e > + lXlXlXlXlXlX",
"lXlXlXlXlXlXlXlXlXlXlXlXlXlXlXlXlXlXlXlXlXlX]..X.X&.{ P.3XpX4XH.]   lXlXq.{.2.e + O       lXlXlXlXlX",
"lXlXlXlXlXlXlXlXlXlXlXlXlXlXlXlXlXlXlXlXlXlXlX.X+.S.(.7XkXjX0X3Xg lXlXlXk &.{.0.M > + +   lXlXlXlXlX",
"lXlXlXlXlXlXlXlXlXlXlXlXlXlXlXlXlXlXlXlXlXlXlXlX( 6X0XpXpXsX!.l lXlXlXlXlXlX> j m j k j O lXlXlXlXlX",
"lXlXlXlXlXlXlXlXlXlXlXlXlXlXlXlXlXlXlXlXlXlXlXlXlX!.pXpX9XG.t lXlXlXlXlXlXlXlXlXlXlXO O lXlXlXlXlXlX",
"lXlXlXlXlXlXlXlXlXlXlXlXlXlXlXlXlXlXlXlXlXlXlXlXlXO ] <.[ lXlXlXlXlXlXlXlXlXlXlXlXlXlXlXlXlXlXlXlXlX",
"lXlXlXlXlXlXlXlXlXlXlXlXlXlXlXlXlXlXlXlXlXlXlXlXlXlXlXlXlXlXlXlXlXlXlXlXlXlXlXlXlXlXlXlXlXlXlXlXlXlX"
};
