/* XPM */
static char *bWFuMTY_[] = {
/* columns rows colors chars-per-pixel */
"50 50 221 2 ",
"   c #030303",
".  c #0A0503",
"X  c #060708",
"o  c #070809",
"O  c #0B0B0C",
"+  c #0F0906",
"@  c #140A05",
"#  c #1C0C06",
"$  c #130C0B",
"%  c #150A07",
"&  c #1E120C",
"*  c #0D0E11",
"=  c #190E10",
"-  c #0F1115",
";  c #131314",
":  c #1C1412",
">  c #13151A",
",  c #1C1C1C",
"<  c #161B1F",
"1  c #230E06",
"2  c #290E09",
"3  c #360E0A",
"4  c #2D140A",
"5  c #26130A",
"6  c #33140A",
"7  c #3C140B",
"8  c #3D1A0A",
"9  c #251A15",
"0  c #261A18",
"q  c #351916",
"w  c #192119",
"e  c #2C211D",
"r  c #35241E",
"t  c #3F261C",
"y  c #1B1E25",
"u  c #171B22",
"i  c #211E21",
"p  c #1D222A",
"a  c #1B2027",
"s  c #242424",
"d  c #23252C",
"f  c #2C2B2C",
"g  c #2B2525",
"h  c #342621",
"j  c #362924",
"k  c #3C2B24",
"l  c #3A2D2A",
"z  c #222631",
"x  c #242934",
"c  c #292E3A",
"v  c #2B2D34",
"b  c #2D313D",
"n  c #323232",
"m  c #3B3A3A",
"M  c #373336",
"N  c #37312D",
"B  c #44150A",
"V  c #421A0B",
"C  c #4B1B0C",
"Z  c #4B160C",
"A  c #541A0C",
"S  c #5C1C0C",
"D  c #530D10",
"F  c #5A1E16",
"G  c #471E11",
"H  c #621C0E",
"J  c #6B1E10",
"K  c #741E10",
"L  c #4B200C",
"P  c #5B240E",
"I  c #50220A",
"U  c #442A1E",
"Y  c #5B2616",
"T  c #55311F",
"R  c #64260F",
"E  c #75230F",
"W  c #6B2212",
"Q  c #652215",
"!  c #7A2312",
"~  c #792814",
"^  c #753119",
"/  c #482C21",
"(  c #47352C",
")  c #523629",
"_  c #483B36",
"`  c #523D33",
"'  c #5C2322",
"]  c #783826",
"[  c #6E3924",
"{  c #56443D",
"}  c #5C4339",
"|  c #4F423B",
" . c #6F4836",
".. c #2E3341",
"X. c #313643",
"o. c #363B48",
"O. c #393C48",
"+. c #413942",
"@. c #3B404E",
"#. c #3E4452",
"$. c #4A4A4A",
"%. c #44444A",
"&. c #594C47",
"*. c #414654",
"=. c #474C5B",
"-. c #4D525F",
";. c #535353",
":. c #59595A",
">. c #644E44",
",. c #684C42",
"<. c #6A5249",
"1. c #76584B",
"2. c #695B55",
"3. c #745D53",
"4. c #7A5D52",
"5. c #7A6359",
"6. c #7C6358",
"7. c #6A615C",
"8. c #4D5261",
"9. c #555967",
"0. c #515769",
"q. c #5D606E",
"w. c #5F6475",
"e. c #626262",
"r. c #6C6C6C",
"t. c #756664",
"y. c #646A79",
"u. c #676B7A",
"i. c #747474",
"p. c #7C7A78",
"a. c #757075",
"s. c #8A2615",
"d. c #8D2A19",
"f. c #852814",
"g. c #982616",
"h. c #992C1A",
"j. c #962A18",
"k. c #9B321E",
"l. c #93321C",
"z. c #85331F",
"x. c #861E21",
"c. c #9A3824",
"v. c #883B24",
"b. c #A1131A",
"n. c #98442E",
"m. c #994D36",
"M. c #86402A",
"N. c #A64A34",
"B. c #AB543C",
"V. c #A3432C",
"C. c #8E5A46",
"Z. c #AA5841",
"A. c #B15C45",
"S. c #866659",
"D. c #B5654C",
"F. c #B66B52",
"G. c #AB6C51",
"H. c #886E62",
"J. c #8C7368",
"K. c #937365",
"L. c #947669",
"P. c #94796B",
"I. c #9B7B6D",
"U. c #987C72",
"Y. c #8A726A",
"T. c #BB7C62",
"R. c #A57D6A",
"E. c #C07C62",
"W. c #9C8071",
"Q. c #A38274",
"!. c #AB8B7C",
"~. c #A88779",
"^. c #B08A7B",
"/. c #BD896E",
"(. c #C6876B",
"). c #C89578",
"_. c #717789",
"`. c #827F82",
"'. c #7B8192",
"]. c #8A8A8A",
"[. c #858484",
"{. c #8F9090",
"}. c #9C9C9C",
"|. c gray57",
" X c #958A84",
".X c #AD9182",
"XX c #B49382",
"oX c #BC9B8B",
"OX c #B99687",
"+X c #AE9D94",
"@X c #B29688",
"#X c #9FA09F",
"$X c #B4A298",
"%X c #9A9FB2",
"&X c #A9A8A8",
"*X c #B5AAA7",
"=X c #B7B6B7",
"-X c #BCB4AE",
";X c #C19C8B",
":X c #D39F81",
">X c #D6A486",
",X c #C5A492",
"<X c #CAAA98",
"1X c #C9B3A4",
"2X c #D6BAA8",
"3X c #C2B9B3",
"4X c #CDAFA0",
"5X c #D8C5B9",
"6X c #E4CBB9",
"7X c #C8C7C6",
"8X c #D7D6D6",
"9X c #D5CFCB",
"0X c #E9D7C9",
"qX c #EEDED3",
"wX c #F0DECE",
"eX c #F1E2D7",
"rX c #EBE2DE",
"tX c #E9E9E8",
"yX c #F5ECE6",
"uX c #F9F5F2",
"iX c None",
/* pixels */
"iXiXiXiXiXiXiXiXiXiXiXiXiXiXiXiXiXiXiXiXiXiXiXiXiXiXiXiXiXiXiXiXiXiXiXiXiXiXiXiXiXiXiXiXiXiXiXiXiXiX",
"iXiXiXiXiXiXiXiXiXiXiXiXiXiXiXiXiXiXiXiXiXiXiXiXiXiXiXiXiXiXiXiXiXiXiXiXiXiXiXiXiXiXiXiXiXiXiXiXiXiX",
"iXiXiXiXiXiXiXiXiXiXiXiXiXiXiXiXiXiXiXiXiXiXiXiXiXiXiXiXiXiXiXiXiXiXiXiXiXiXiXiXiXiXiXiXiXiXiXiXiXiX",
"iXiXiXiXiXiXiXiXiXiXiXiXiXiXiXiXiXiXiXiXiXiXiXiXiXiXiXiXiXiXiXiXiXiXiXiXiXiXiXiXiXiXiXiXiXiXiXiXiXiX",
"iXiXiXiXiXiXiXiXiXiXiXiXiXiXiXiXiXiXiXiXiXiXiXiXiXiXiXiXiXiXiXiXiXiXiXiXiXiXiXiXiXiXiXiXiXiXiXiXiXiX",
"iXiXiXiXiXiXiXiXiXiXiXiXiXiXiXiXiXiXiXiXiXiXiXiXiXiXiXiXiXiXiXiXiXiXiXiXiXiXiXiXiXiXiXiXiXiXiXiXiXiX",
"iXiXiXiXiXiXiXiXiXiXiXiXiXiXiXiXiXiXiXiXiXiXiXiXiXiXiXiXiXiXiXiXiXiXiXiXiXiXiXiXiXiXiXiXiXiXiXiXiXiX",
"iXiXiXiXiXiXiXiX+ V H iXiXiXiXiXiXiXiXiXiXiXiXiXiXiXiXiXiXiXiXiXiXiXiXiXiXiXiXiXiXiXiXiXiXiXiXiXiXiX",
"iXiXiXiXiXiXiX~ 4 P g.2 iXiXiXiXiXiXiXiXiXiXiXiXiXiXiXiXiXiXiXiXiXiXiXiXiXiXiXiXiXiXiXiXiXiXiXiXiXiX",
"iXiXiXiXiXiXR z.A d.g.3 1 @ iXiXiXiXiXiXiXiXiXiXiXiXiXiXiXiXiXiXiXiXiXiXiXiXiXiXiXiXiXiXiXiXiXiXiXiX",
"iXiXiXiXiX~ ~ ! Y B.g.# 1 # . iXiXiXiXiXiXiXiXiXiXiXiXiXiXiXiXiXiXiXiXiXiXiXiXiXiXiXiXiXiXiXiXiXiXiX",
"iXiXiXiXN.c.d.A n.V.s.# 9 % 9 9   w 9 9 iXiXiXiXiXiXiXiXiXiXiXiXiXiXiXiXiXiXiXiXiXiXiXiXiXiXiXiXiXiX",
"iXiXN.(.A.h.J x.E.D.! 2 / + k 9   i.J.P.t.l iXiXiXiXiXiXiXiXiXiXiXiXiXiXiXiXiXiXiXiXiXiXiXiXiXiXiXiX",
"iXiXD.:XV.s.c.E.>Xm.K 3 j + k &X7X=XP.2.U.~.3.h iXiXiXiXiXiXiXiXiXiXiXiXiXiXiXiXiXiXiXiXiXiXiXiXiXiX",
"iXj.A.(.Z.h.F.>XC.H K 2 k k ) l $.N 7.3Xh I.XX.XH.iXiXiXiXiXiXiXiXiXiXiXiXiXiXiXiXiXiXiXiXiXiXiXiXiX",
"iXj.D.E.k.c.A.v.H K 3 U 1.K.I.1.&.-XqX2X&.3.J.{ 5X7X_ iXiXiXiXiXiXiXiXiXiXiXiXiXiXiXiXiXiXiXiXiXiXiX",
"iXc.E.D.j.k.s.3 K 2 / 1.K.R.;XOX4X4X;X;X4.( S.j oX+X XiXiXiXiXiXiXiXiXiXiXiXiXiXiXiXiXiXiX    iXiXiX",
"iXd.B.v.g.c.J Z B q ` K.XXR.^.^.^.OX;X;X~.1.4.r XXK.+XiXiXiXiXiXiXiXiXiXiXiXiXiXiXiXiXiX* r.w   iXiX",
"iXZ z.A s.j.f.6 1 U C.@X4.h K.<.&.H.^.;X;X~.XXk oX.X~.v a.d : : iXiXiXiXiXiXiXiXiXiXiX  > ].`., iXiX",
"iX2 7 7 4 7 W H # T ^.;Xh 0 ` % M Y.R.;X;XoXXXs <X,XQ.:.=Xt.l l e = iXiXiXiXiXiXiXiX0 ].n :.].n   iX",
"iXiXB 6 & @ B 7 # / S.XXe 9 l :.W.8XK.6X<X,X~.| <X,XL.x.' &XyX5X9X Xh : iXiXiX  > e.=X7X$.; $.s   iX",
"iXiXL 4 # S d.6 . + U S.j 0 ( 8XuX=XU.qX6X4XU..X,X<X3.x.' *XqXuXeX0X.X4.$.iX; ;.7X8X9X#Xi.X O     iX",
"iXiXC 2 6 s.h.z.@ 8 6 } >.q } &.:.3.oXeX0XoX,X,X,X,Xt.*X0 *X@XyX4XOXK.H.M m $.7X9X=X}.{.i.f       iX",
"iXG H ] F j.k.G.4 8 7 t ~.} I.4.4.Q.2XuX2XU.,X,X,X^.2.tXm tX5X0XoXY.H.S.7.$.}.7X}.'.i.r.e.%.      iX",
"iXS g.c.~ j.k.(./ I P 9 1.oXOXR.R.OX6XwXXXI.XXoX,X>.].tX;.p.6X2X~.L.K.<.`.;.}.].r.e.:.e.e.m   o   iX",
"iXJ h.c.~ g.c.:X} P P # r K.,X,X<X2X6X<XL.U.!.oXXXh ].p.O.g 2.4.U.U.U.( ].+.|.r.r.m n m $.n X iXiXiX",
"iX! g.h.f.d.c.).U W P # . 5 5.!.6.l .XQ.K.I.Q.XX>.; d c d O.8., _ 5.4., ].q |.r.$.n a s f e   iXiXiX",
"iX! Z.c.c.H ! R.2 s.T .   .     .   <.I.K.I.I.1.> o.#.#.O.=.#.< b O.n y t.q |.e.M s       iXiXiXiXiX",
"iXQ (.).).c.Y [ H l. ..   . @ . : { P.W.P.I.{ + b *.O.c d -.b - O > #.8.s 0 r.;.n : o iXiXiXiXiXiXiX",
"iXiXm.).:X .4 Y s.m.} .   . j *X<X.X2.>.Q.( .     X O > * 9.z O X X p w.f ; n n w ; o iXiXiXiXiXiXiX",
"iXiXH N.N.F.T B h./.5 # @ 9 5X3X( k r 3.@X0 X X *     X * c i * X X ..*.q 2 d > ; ; o iXiXiXiXiXiXiX",
"iXiXiXf.H V.C.3 ] | 1 ~ L r 0X2._ ( <.P.U.$ O - c d u O   o X o X * ..0.D 3 > b . ; ; iXiXiXiXiXiXiX",
"iXiXiXS E ~ c.1 T C ~ l.I & 1X<X,X!.6.P.0   O b *.#.x p > X X - u x 8.O.b.B O X.u = , iXiXiXiXiXiXiX",
"iXiXiXiXiXZ s.! 8 f.k.n.C & $ r ( r & @ + * y O.o.9.8.o.a a - u x #._., D # X c x O ; , iXiXiXiXiXiX",
"iXiXiXiXiXiXA s.E W m.M.I 4 @ @ # 2 # 4 # ; X.d o...w.w.X.p p @.#.y.-.  X o o z ..* : i ; iXiXiXiXiX",
"iXiXiXiXiXiXiXiXS E G.v.R 8 @ V I L 8 L iX$ =.O @.X.z #.w.q.=.'.%X9.        o p ..O d f , iXiXiXiXiX",
"iXiXiXiXiXiXiXiXiXiX .^ 8 4 1 A J Z I iXiXiXq.> , -.c p z @.9.u.*.X         - x b - s s n f iXiXiXiX",
"iXiXiXiXiXiXiXiXiXiXiXiX1 # iXiXiXiXiXiXiXiXq.X.; d 9.#.b o.y O O o o X   O a c v ; M n n g iXiXiXiX",
"iXiXiXiXiXiXiXiXiXiXiXiXiXiXiXiXiXiXiXiXiXiX*.=.O.H.m q.8.*.o.z d a > o X - z o.< s :.:.m , iXiXiXiX",
"iXiXiXiXiXiXiXiXiXiXiXiXiXiXiXiXiXiXiXiXiXiXiX, 4XY.>.&.q.y.*.@.X.x p p < p ..b s e.p.i.%., iXiXiXiX",
"iXiXiXiXiXiXiXiXiXiXiXiXiXiXiXiXiXiXiXiXiXiXiX9 5XJ.L.,.$ 9.w.#.#.o.z z p x #.d ].5X&Xi.;.w o X   iX",
"iXiXiXiXiXiXiXiXiXiXiXiXiXiXiXiXiXiXiXiXiXiXiXiX` { | $ iX= u.8.#.#.b x o.=.o.g &X8X=X#X$.o       iX",
"iXiXiXiXiXiXiXiXiXiXiXiXiXiXiXiXiXiXiXiXiXiXiXiXiXiXiXiXiXiXs '.*.#.#.9.q.#.iXiXi.8X&Xe.X , f *   iX",
"iXiXiXiXiXiXiXiXiXiXiXiXiXiXiXiXiXiXiXiXiXiXiXiXiXiXiXiXiXiXiX9._.9.y.'.v iXiXiXv m a * $.}.r., o iX",
"iXiXiXiXiXiXiXiXiXiXiXiXiXiXiXiXiXiXiXiXiXiXiXiXiXiXiXiXiXiXiX0 u.u.9.s iXiXiXiXiX*   a w m w ; iXiX",
"iXiXiXiXiXiXiXiXiXiXiXiXiXiXiXiXiXiXiXiXiXiXiXiXiXiXiXiXiXiXiXiX. . iXiXiXiXiXiXiX: ; : : > iXiXiXiX",
"iXiXiXiXiXiXiXiXiXiXiXiXiXiXiXiXiXiXiXiXiXiXiXiXiXiXiXiXiXiXiXiXiXiXiXiXiXiXiXiXiXiXiXiXiXiXiXiXiXiX",
"iXiXiXiXiXiXiXiXiXiXiXiXiXiXiXiXiXiXiXiXiXiXiXiXiXiXiXiXiXiXiXiXiXiXiXiXiXiXiXiXiXiXiXiXiXiXiXiXiXiX",
"iXiXiXiXiXiXiXiXiXiXiXiXiXiXiXiXiXiXiXiXiXiXiXiXiXiXiXiXiXiXiXiXiXiXiXiXiXiXiXiXiXiXiXiXiXiXiXiXiXiX",
"iXiXiXiXiXiXiXiXiXiXiXiXiXiXiXiXiXiXiXiXiXiXiXiXiXiXiXiXiXiXiXiXiXiXiXiXiXiXiXiXiXiXiXiXiXiXiXiXiXiX"
};
