/* XPM */
static char *_0324d05d2b64592de5fedfa488f73a2sQJZJJ7C59HrH8Xy[] = {
/* columns rows colors chars-per-pixel */
"50 50 222 2 ",
"   c None",
".  c #030303",
"X  c #0A0503",
"o  c #060708",
"O  c #070809",
"+  c #0B0B0D",
"@  c #0F0906",
"#  c #140A05",
"$  c #1C0C06",
"%  c #120C0B",
"&  c #190D0A",
"*  c #110704",
"=  c #1E120C",
"-  c #0D0E11",
";  c #190F10",
":  c #0F1115",
">  c #131314",
",  c #1C1512",
"<  c #13151A",
"1  c #1C1B1C",
"2  c #161B1F",
"3  c #230E07",
"4  c #290E09",
"5  c #360E0A",
"6  c #2D140A",
"7  c #26130A",
"8  c #33140A",
"9  c #3C140B",
"0  c #3D1A0A",
"q  c #241915",
"w  c #231D1B",
"e  c #291A17",
"r  c #351916",
"t  c #1A211A",
"y  c #2C211D",
"u  c #35241E",
"i  c #3F261C",
"p  c #1B1E25",
"a  c #171B22",
"s  c #221E22",
"d  c #1D222A",
"f  c #1B2027",
"g  c #232323",
"h  c #23252C",
"j  c #2C2B2C",
"k  c #2B2525",
"l  c #342621",
"z  c #362924",
"x  c #3C2B24",
"c  c #3A2D2A",
"v  c #222631",
"b  c #242934",
"n  c #292E3A",
"m  c #2B2D34",
"M  c #2D313D",
"N  c #323232",
"B  c #3B3A3A",
"V  c #373336",
"C  c #37312D",
"Z  c #44150A",
"A  c #421A0B",
"S  c #4B1B0D",
"D  c #4B170C",
"F  c #541A0C",
"G  c #5D1D0D",
"H  c #530D10",
"J  c #5B1E16",
"K  c #471E11",
"L  c #631D0E",
"P  c #6B1E10",
"I  c #741F11",
"U  c #4B200C",
"Y  c #5B240E",
"T  c #50220B",
"R  c #442A1E",
"E  c #5B2616",
"W  c #55311F",
"Q  c #64270F",
"!  c #76230F",
"~  c #6B2212",
"^  c #652215",
"/  c #7A2313",
"(  c #792814",
")  c #75321A",
"_  c #482C21",
"`  c #47352C",
"'  c #523629",
"]  c #483B36",
"[  c #523D33",
"{  c #5C2322",
"}  c #783826",
"|  c #6E3924",
" . c #56443D",
".. c #5C4339",
"X. c #4F423B",
"o. c #6F4836",
"O. c #2E3341",
"+. c #313643",
"@. c #363B48",
"#. c #393C48",
"$. c #413942",
"%. c #3B404E",
"&. c #3E4452",
"*. c #494949",
"=. c #44444A",
"-. c #594C47",
";. c #414654",
":. c #474C5B",
">. c #4D525F",
",. c #525252",
"<. c #59595A",
"1. c #644E44",
"2. c #684C42",
"3. c #6A5249",
"4. c #76584B",
"5. c #695B55",
"6. c #745D53",
"7. c #7A5D52",
"8. c #7A6359",
"9. c #7C6358",
"0. c #6A615C",
"q. c #4D5261",
"w. c #565A67",
"e. c #515769",
"r. c #5D606E",
"t. c #5F6475",
"y. c #626262",
"u. c #6C6C6C",
"i. c #756664",
"p. c #646A79",
"a. c #656A7A",
"s. c #747474",
"d. c #7C7A78",
"f. c #737078",
"g. c #8A2615",
"h. c #8D2A19",
"j. c #852814",
"k. c #982616",
"l. c #992B1A",
"z. c #962A18",
"x. c #9A321E",
"c. c #93321C",
"v. c #85331F",
"b. c #861E21",
"n. c #9A3824",
"m. c #883B24",
"M. c #A1131A",
"N. c #98442E",
"B. c #994D36",
"V. c #86402A",
"C. c #A64A35",
"Z. c #AB543C",
"A. c #A3432C",
"S. c #8E5A46",
"D. c #AA5841",
"F. c #B15C45",
"G. c #866659",
"H. c #B5654D",
"J. c #B66B52",
"K. c #AB6C51",
"L. c #886E63",
"P. c #8C7368",
"I. c #937365",
"U. c #947669",
"Y. c #94796B",
"T. c #9B7B6D",
"R. c #987C72",
"E. c #8A726A",
"W. c #BB7C62",
"Q. c #A57D6A",
"!. c #C07C62",
"~. c #9C8071",
"^. c #A38274",
"/. c #AB8B7C",
"(. c #A88779",
"). c #B08A7B",
"_. c #BD896E",
"`. c #C6876B",
"'. c #C89578",
"]. c #717789",
"[. c #827F82",
"{. c #7C8292",
"}. c #8A8A8A",
"|. c #858484",
" X c #8F9090",
".X c #9C9C9C",
"XX c gray57",
"oX c #968B85",
"OX c #AD9182",
"+X c #B49382",
"@X c #BC9B8B",
"#X c #B99687",
"$X c #AE9D94",
"%X c #B29688",
"&X c #9FA09F",
"*X c #B4A298",
"=X c #9A9FB2",
"-X c #A9A8A8",
";X c #B5AAA7",
":X c #B7B6B7",
">X c #BCB4AE",
",X c #C19C8B",
"<X c #D39F81",
"1X c #D6A486",
"2X c #C5A492",
"3X c #CAAA98",
"4X c #C9B3A4",
"5X c #D6BAA8",
"6X c #C2B9B3",
"7X c #CDAFA0",
"8X c #D8C5B9",
"9X c #E4CBB9",
"0X c #C6C6C6",
"qX c #D7D6D6",
"wX c #D3CDC9",
"eX c #E9D7C9",
"rX c #EEDED3",
"tX c #F0DECE",
"yX c #F1E2D7",
"uX c #EBE2DE",
"iX c #E9E9E8",
"pX c #F7F1ED",
/* pixels */
"                                                                                                    ",
"                                          ^ / j.P G K       4 Z h.x.l.l.                            ",
"                                      L B.`.Z.k.l.z.L D S A Z v.D.!.H.D.H.C.                        ",
"                                  G g.C.'.'.N.x.x.n.| 8 6 6 9 H n.H.!.`.<X`.                        ",
"                                  ! L C.'.'.x.j.( / G 8 $ = 6 g.k.l.n.D.C.F.D.                      ",
"                                Z ( A.J.o.N.~ h.k.k.z.h.G # 0 c.x.n.x.l.I l.x.(                     ",
"                              F k.c.S.W 8 E ( n.n.n.l.l.h.Z ~ / P b.F.J.l.P h.( Q                   ",
"                              g.! 3 0 Z Y | Q.'.'.`.K.v.8 8 ~ 9 D 5 m.1X`.h.D ( v.(                 ",
"                            Q ! A W ) h.g.L 6 x ..` 6 # @ $ $ 7 9 I G S.1X!.n.E S 8 *               ",
"                            ! P j.S [ _.D.c.g.~ Y S A 0 # R ' i e 3 I L C.H.A.Z.h.Y A               ",
"                          o.K.B.c.( 3 q [ o.^ Y Y Y 0 r R 7.(.S.| _ 9 P P I g.k.k.k.L               ",
"                          ) m.V.N.c.j.$ X X X & # 7 u ..G.@X@X#XI.4.R 4 8 5 $ $ 8 8                 ",
"                        3 A Q S S T U # X . X . u 4.(.3.u y u 9.).I.4.R l x q 3 3                   ",
"                        $ 6 8 8 = = u q X X X = I.@X .e e q q u Q.(.I.x # @ % 3 *                   ",
"                          3 # $ + 4XrX8Xl * X 9.,X,XY.2.` _ [ I.).@XY.' x x q X                     ",
"                          F Z # z 3X5.6X;XX . /.2XQ.7.-.qX<.* 2.).#X7.x -Xw q                       ",
"                          Q F # c 3X' ` 4X> . 8.3X^.7.<.pX|.C ..).7X-.-.0X. o                       ",
"                          S S 6 z /.` z /. .. c 5X#X^.4.6XqXE.I.#X3X>XC >Xs.t                       ",
"                          T 0 $ , 8.3.z 6.T.3.OX9X9X9X@XT.I.R.+X,X,XrX0.Y.E.w                       ",
"                            U 6 @ Y.Y.6.1.T.U.^.2XtXpXtXeX9X,X,X,X@X5X6X5.R.,                       ",
"                              $ * q R.@X^.U.I.U.U.OX8XeXeX3X,X,X).7.-.k R.8.                        ",
"                            ; > + . % w ` Y.T.T.^.U.Y.@X3X2X,X(.3.` 4.R./.c                         ",
"                      :.y.r.:.M p + + O .  .T.~./.+X2X2XR.(.+X).G.7.P.OX8.                          ",
"                  q , :.+.< - h #.M > O X @ 4.+X,X,X2X2XOX] k _ l z  .OXl                           ",
"                X.5X4X#.: 1 ;.@.@.;.n - o V < 1.+X2X2X2X2X3X2X,X+X*X8XL.                            ",
"                 .P.P.L.h >.+.M e.&.d . o ;.#.: k 1.).3X3X2X3X).P.$XwX                              ",
"                X.U.1.B w.n d t.q.b a . O #.&.h }.}.5.s.5.Y.^.(.$XoX]                               ",
"                & 1.-.r.%.f ;.t.@.p - o < n ;.n d.iXiX-Xb.g.<.j                                     ",
"                  % r.q.O.v ].O.d < . - + h #.s #.,.+.r L { 6X].                                    ",
"                % r.p.;.+.%.e.p p o o n w.q.>.#.k E.iX*X>X&Xi.s                                     ",
"              g a.t.&.@.f w.q.f < o . v v O.;.>.5.9XwX+XiXpXc ;                                     ",
"          g w.].q.&.&.b + a.{.@.a : o + + - < p 8.5XrXuXpX5Xc w                                     ",
"        X ].a.;.;.;.O.v - ;.=X;.b p O o o O +.] R.Q.2X4XyXwXu                                       ",
"        O a.w.;.#.#.b a O o w.a.#.v < O o < #.6.R.T.E.%XeXoX&                                       ",
"          w.p.;.O.v d < o . . >.].:.O.O.d #.M 7.T.I.I.E.OXl                                         ",
"          s }.e.b v p - . . . . s #.e.:.].:.s 1 ` 3.G.L.8.=                                         ",
"            j r.+.v a o . . . X H M.H Z j k i.}.[.[.5.V *.                                          ",
"              ;.:.b d : + o . . 3 5 5 ; < e r r $.,.*.$.                                            ",
"                @.&.O.d f : + O + O < h V u. X XXX.X.X*.<                                           ",
"                g v M @.O.b h d n +.n < j ,.y.u.f.}.0X0X,..                                         ",
"            j s.:X|.g t b M M O.b 2 + > f N B *.u.u..XwX0X>                                         ",
"        > : B qXqX0Xy.j > : - + % + > % > , g N B r.|.:XqXy.                                        ",
"        > . y -X-X-X[.<.N g g 1 > 1 > + o o . t N <.d..XqX:Xt                                       ",
"        1 t + y.&Xs.s.,.N h j y 1           . g B y.y.XX-X:X}..                                     ",
"        1 g *.. *.,.=.B V N t :             . j *.y.y.s.s.,.N t %                                   ",
"        > B .X1 O t 1 g g j                   t N B =.j . > ,.}.u..                                 ",
"          t u.j . .                           . o . . . - *.}.[.1 .                                 ",
"          > 1 - . o                               O . . o k j 1 .                                   ",
"            O . . O                               . . . . . .                                       ",
"                                                                                                    "
};
