/* XPM */
static char *bWFuNQ__[] = {
/* columns rows colors chars-per-pixel */
"49 49 230 2 ",
"   c #030404",
".  c #0A0403",
"X  c #060709",
"o  c #070809",
"O  c #0B0B0C",
"+  c #090907",
"@  c #130704",
"#  c #140A06",
"$  c #1C0B06",
"%  c #120C0B",
"&  c #190C09",
"*  c #1C110D",
"=  c #16100E",
"-  c #0D0E12",
";  c #0E1015",
":  c #0F1218",
">  c #131315",
",  c #13151B",
"<  c #16181F",
"1  c #1B1B1B",
"2  c #1D1816",
"3  c #100F10",
"4  c #220D06",
"5  c #270E09",
"6  c #2C130A",
"7  c #281209",
"8  c #33130A",
"9  c #3B1409",
"0  c #291815",
"q  c #371C15",
"w  c #300E08",
"e  c #1D201D",
"r  c #2D211D",
"t  c #20201B",
"y  c #33231D",
"u  c #161A22",
"i  c #1A1C24",
"p  c #1B1F29",
"a  c #191623",
"s  c #1E222C",
"d  c #1D2027",
"f  c #232323",
"g  c #2B2623",
"h  c #21242C",
"j  c #2A2A2B",
"k  c #292928",
"l  c #352A25",
"z  c #3D322C",
"x  c #222531",
"c  c #252934",
"v  c #292E3B",
"b  c #282D37",
"n  c #2C313E",
"m  c #343333",
"M  c #3C3C3C",
"N  c #3A3535",
"B  c #312F33",
"V  c #291F2C",
"C  c #42150B",
"Z  c #4B160B",
"A  c #441A0B",
"S  c #4B1C0C",
"D  c #5B1B0D",
"F  c #521B0C",
"G  c #4B1D15",
"H  c #581812",
"J  c #4A0E0E",
"K  c #641C0E",
"L  c #6B1A0E",
"P  c #661812",
"I  c #731112",
"U  c #57250D",
"Y  c #492719",
"T  c #67240E",
"R  c #662414",
"E  c #772815",
"W  c #772911",
"Q  c #442E28",
"!  c #57252A",
"~  c #44332D",
"^  c #4D352A",
"/  c #5A3526",
"(  c #483935",
")  c #543B34",
"_  c #743725",
"`  c #6A312A",
"'  c #52433C",
"]  c #5A453D",
"[  c #48423B",
"{  c #714C3D",
"}  c #333645",
"|  c #393D4A",
" . c #333949",
".. c #343949",
"X. c #453F4A",
"o. c #3C414D",
"O. c #3D4456",
"+. c #454545",
"@. c #4C4748",
"#. c #5C4B42",
"$. c #554845",
"%. c #414757",
"&. c #545454",
"*. c #5D5D5D",
"=. c #5E5952",
"-. c #525152",
";. c #634B42",
":. c #694D4A",
">. c #695349",
",. c #79594C",
"<. c #695D54",
"1. c #775D53",
"2. c #5E605F",
"3. c #786459",
"4. c #6A625B",
"5. c #464C61",
"6. c #4D5366",
"7. c #585C67",
"8. c #535A71",
"9. c #646364",
"0. c #6C6C6C",
"q. c #676766",
"w. c #776863",
"e. c #787878",
"r. c #6D6D76",
"t. c #8B1317",
"y. c #AD161C",
"u. c #842A14",
"i. c #892A18",
"p. c #9A2C16",
"a. c #992C1A",
"s. c #942914",
"d. c #87321B",
"f. c #94331C",
"g. c #9D321A",
"h. c #AA1F24",
"j. c #883723",
"k. c #9C3724",
"l. c #8A3034",
"z. c #AE3630",
"x. c #C11922",
"c. c #CB222A",
"v. c #CC3038",
"b. c #9C422B",
"n. c #904D36",
"m. c #A64A34",
"M. c #A35038",
"N. c #933C41",
"B. c #E43B44",
"V. c #AD5741",
"C. c #B15D45",
"Z. c #B5484D",
"A. c #87675A",
"S. c #916B5D",
"D. c #B6755A",
"F. c #B06D53",
"G. c #886E62",
"H. c #8C7367",
"J. c #937366",
"K. c #95796D",
"L. c #9A7B6C",
"P. c #977668",
"I. c #9A7E70",
"U. c #8D7B70",
"Y. c #A37C6E",
"T. c #BC7C61",
"R. c #A17C75",
"E. c #885A46",
"W. c #E76168",
"Q. c #998679",
"!. c #A48475",
"~. c #A98C7D",
"^. c #A68779",
"/. c #B38C7C",
"(. c #BB8468",
"). c #C4886A",
"_. c #CB9576",
"`. c #C88E70",
"'. c #73798C",
"]. c #686F83",
"[. c #88888A",
"{. c #918A86",
"}. c #9C9C9C",
"|. c #969595",
" X c #868C98",
".X c #A99285",
"XX c #B49282",
"oX c #B99383",
"OX c #BD9B8B",
"+X c #B89888",
"@X c #A69994",
"#X c #B59789",
"$X c #BAA397",
"%X c #8F96AC",
"&X c #A3A3A3",
"*X c #ABACAC",
"=X c #A5A7A9",
"-X c #B5ADA8",
";X c #B3B3B3",
":X c #BBBBBB",
">X c #B8B4B6",
",X c #B7B2AF",
"<X c #C09C8B",
"1X c #C5A492",
"2X c #C9AA98",
"3X c #D2B19E",
"4X c #C8A896",
"5X c #D7BAA9",
"6X c #C9B5A9",
"7X c #D8C7BC",
"8X c #E9D3BD",
"9X c #E0C7B9",
"0X c #BCC0C0",
"qX c #C2C3C3",
"wX c #CACBCC",
"eX c #CAC8C7",
"rX c #D6D6D6",
"tX c #DFCFC6",
"yX c #ECD8C7",
"uX c #F3DBC5",
"iX c #E6DBD0",
"pX c #F4E6D9",
"aX c #EEE2D9",
"sX c #E4E4E4",
"dX c #EAEAEA",
"fX c #EDE8E1",
"gX c #F5EDE5",
"hX c #F8F3EE",
"jX c None",
"kX c black",
/* pixels */
"jXjXjXjXjXjXjXjXkXkXkXkXkXkXkXkXkXkXkXkXjXjXjXjXjXjXjXjXjXjXjXjXjXjXjXjXjXjXjXjXjXjXjXjXjXjXjXjXjX",
"jXjXjXjXjXjXjXjXkXkXkXkXg.m.M.W U A kXkXjXU T u.u.u.i.d.jXjXjXjXjXjXjXjXjXjXjXjXjXjXjXjXjXjXjXjXjX",
"jXjXjXjXjXjXjXjXkXkXkXk.C.).).m.g.i.E U A Z i.p.a.k.D.C.b.E jXjXjXjXjXjXjXjXjXjXjXjXjXjXjXjXjXjXjX",
"jXjXjXjXjXjXjXjXkXkXk.C.T.).C.m.K U A 6 $ D s.p.p.p.C._.`.j.D jXjXjXjXjXjXjXjXjXjXjXjXjXjXjXjXjXjX",
"jXjXjXjXjXjXjXjXjXd.M.D.a.k.a.a.g.E 7 * $ Z i.p.i.j.m.)._.b.K A jXjXjXjXjXjXjXjXjXjXjXjXjXjXjXjXjX",
"jXjXjXjXjXjXjXjXT n.).k.D j.k.g.a.d.G $ $ K W g.M.n.a.j.(.F.s.u.Z kXjXjXjXjXjXjXjXjXjXjXjXjXjXjXjX",
"jXjXjXjXjXjXjXjXE m.` _ Y D.k.P K E E 5 C E F.T.`.).m.w 4 q L s.s.kXjXjXjXjXjXjXjXjXjXjXjXjXjXjXjX",
"jXjXjXjXjXjX$ 4 D R _ V.`.(.q C Z 5 Y 8 C d.D.(.F.E.Y H C 9 D P W W jXjXjXjXjXjXjXjXjXjXjXjXjXjXjX",
"jXjXjXjXjXjX4 6 U d.C.).`./ L P Z F 6 $ @ 4 w $ 8 D E a.a.k._ i.U T jXjXjXjXjXjXkXkXkXkXkXkXkXkXjX",
"jXjXjXjXjXjXS u.k.V.j.E d.D D . & Y { P.,.) $ D i.f.b.m.V.F./ i.s.j.W jXjXjXjXjXkXkXkXkXkXkXkXkXjX",
"jXjXjXjXjX9 U T R ! w w Z L @ & ^ ,.+X1X1XL.>.q 9 ` n.{ y @ F p.b.M.D._ jXjXjXjXkXkXkXkXkXkXkXkXjX",
"jXjXjXjXjXjXA 8 5 & @ @ 9 7 0 / { !.J.1.3.Y.L.A.y . % . @ 8 u.d./ y A S jXjXjXjXkXkXkXkXkXkXkXkXjX",
"jXjXjXjXjXjXjXA S 8 & # # * ' A.Y.;.* % * & 0 R./.y @   @ 6 8 9 C K 8 6 6 kXkXkXkXkXkXkXkXkXkXkXjX",
"jXjXjXjXjXjXjXjX  @ 0 r y y P./.Y.A.] y Q >.1.G.2XJ.# . $ z Q.Q.7 4 $ 5 5 kXkXkXkXkXkXkXkXkXkXkXjX",
"jXjXjXjXjXjXjXjX+ % Q r $.z J././.A.0 & {.{.{ !.4X<Xr . 2 6X7X$X<.@ & 6 kXkXkXkXkXkXkXkXkXkXkXkXjX",
"jXjXjXjXjXjXjXjXjX0 0   e.eX3.+XoXA.* = *XhX~ /.3X2X2   ' 6Xz >.U.4 Z kXkXkXkXkXkXkXkXkXkXkXkXkXjX",
"kXkXkXkXkXkXkXkXjXjXg B ;XwX@.5X<XS.) |.sX@X1._.3X<X=   3.Q.r ,.{ 6 A U jXjXjXjXjXjXjXjXkXkXkXkXkX",
"kXkXkXkXkXkXkXkXjXjX] .X,X<.@X5X<X/.A.1.L.^.$X5X5XOX~ r I.G.z A.l 7 A S jXjXjXjXjXjXjXjXkXkXkXkXkX",
"kXkXkXkXkXkXkXkXjXjX] ~.^.( tX2X<X<XoXOX1X7XaXyX3X~.P.I.G.#.K.Q.$ 6 q A jXjXjXjXjXjXjXjXkXkXkXkXkX",
"kXkXkXkXkXkXkXkXjXjX( .XQ.( J.oX<X<X1X5XiXhXaX3X.XJ.J.K.J.2X$X~ # 7 $ : , - a jXjXjXjXjXkXkXkXkXkX",
"kXkXkXkXkXkXkXkXjXjXg ~.+XQ.( r q G.OX3X5X5X1X.X!.P.L.L.G.<.z   o o.6.5.8.'.%X].| jXkXkXkXkXkXkXkX",
"kXkXkXkXkXkXkXkXjXjXjXG.+X+X!.A.A.XX1XOX~.OXOXXX!.L.P.I.~ X   - 5.].O. .v x 6.].].8.} i kXkXkXkXkX",
"kXkXkXkXkXkXkXkXkXkXjXl <.~.] ( ) $.z l ;.OX1X+XXX^.!.>.. s   , } o. .c s u x 5.5.6.].'.'.kXkXkXkX",
"kXkXkXkXkXkXkXkXkXkXkXkXg ^..XK.1.A.H.OX1X1X1X1XoX!.#.- - | u - s O.c s p , : s s x O.5. X XkXkXkX",
"kXkXkXkXkXkXkXw.M M kXkXkX' 7X7XL.L.^.1X1X1X<XR.] k  XO < o.7.  i x p i i   O ; : u i %. X[ [ kXkX",
"kXkXkXkXkXkX-XgXgXfX=.kXkXkX=.7X4XXX<X1X+XH.:.9.|.sX0X: d s '.; O ; - , O X   O : o < 6.&.S.3XQ.+ ",
"kXkXkXkXkX$X7XQ.6X=.Q.m kXkX  , j ( ~ V g :.t.N *XdXwXu d < o.      X O , u h - +   + i ] ~.8XuX$.",
"kXkXkXkXN pXfX4.e 9.iX3.kXkX> s x } X % >X@Xy.Z.q ;X;Xi d s d         - u n n x < O   ^ P.9XuXuX<.",
"kXkXkXkXQ.yX7XiX>.@X9X#.%.d u X %.| < , U.R.I c.Z.2 > i u b ;   X o X     O v } d p @.J.4XhXuX9X[ ",
"kXkXkXkX8XgX7XH.#.w.H.k i n O X o.d , , } :.I t.` +.&.s u c n %.h , o o X   O } b ( Y.oXuXgXpXw.kX",
"kXkXkXkX8X7X4Xw.^.3.Q.1 . 5.,   u v n - O = 5 t.G qX0Xd u p < c , , ; - - X   - X :.G.:.3X8XQ.t kX",
"kXkXkXkX<X4X<.' 1X~.' * o 7.:       s p - X.( t.x.w.*Xj i u i v > u u , - : > o X z ;.0 J.2Xj kXkX",
"kXkXkXkXkX^.w.<.L.( 0   : 8.O X   ; O.s , M 7.H y.x.Z.z.l.N.! x : p a a , , , > - O > ) ] g jXjXkX",
"kXkXkXkXkXkXkX+ f %     } O.; , - | ..u u 0 [.0 I y.v.v.v.v.B.W.` p a a < < < < , ; < O   jXjXjXkX",
"kXkXkXkXkXkXkXd  .o X x O., u p i c p , u - =X0.w J P P I I t.c.W.! x p i i u , , a f jXjXjXjXjXkX",
"kXkXkXkXkXkXkXkX5.O.5.v , i s s a X s - O : e.wX9.N r 0 5 J P I h.z.} v c c x i < p O   jXjXjXjXkX",
"kXkXkXkXkXkXkXkXjX; X , x x p p kX- x O   - m dXwXq.@.g 5 V Q G H N.X.%.| | v x c i > O 0.f jXjXkX",
"kXkXkXkXkXkXkXkXjXjXjXjXjXjXjXjXkXkXs u O ; 3 @.N 0 0 H D ~ M = a V h h v } v x h e.:Xf [.-.jXjXkX",
"kXkXkXkXkXkXkXkXjXjXjXjXjXjXjXjXkXkX- ..j m o.$.X.:.X.X.N k f 1 , > 1 f r.=X&X&X7XwXqX&.2.[.> jXkX",
"kXkXkXkXkXkXkXkXjXjXjXjXjXjXjXjXkXkX0 [.qXrXdXrX6X>X|.9.N h f i > , g k 9.{.&X}.=X;X}.*.e 0.j jXkX",
"kXkXkXkXkXkXkXkXjXjXjXjXjXjXjXjXkXB ;XsXdXsXrX:X*X|.&.@.j f f 1 e d m N -.&.*.*.7.0.&.f + M m kXkX",
"kXkXkXkXkXkXkXkXjXjXjXjXe M jXjX0.qXdXdXrX&X|.9.&.-.-.M 1 > > f j M m B j M +.M +.2.+.e 3 > j kXkX",
"kXkXkXkXkXkXkXkXjXjXjX  [.qX2.9.dXdXqX7X;X|.e.-.@.M d > > 1 j N m e d t f f 1 2 1 j f >     j 3 kX",
"kXkXkXkXkXkXkXkXjXjXjX  o.;X-.f wXsX;X=X|.[.&.B e > e k t B m jXkXkXO o X 2 e > 1 > > +   + k O kX",
"kXkXkXkXkXkXkXkXkXkXkX+ + *X&.3 q.:X*X}.e.+.k +.j kXkXkXjXjXjXjXkXkXkXkXjXjXjXjXjXjXjXjX    3 jXkX",
"kXkXkXkXkXkXkXkXkXkXkXkX  j e.M + k 0.2.j g o.m kXkXkXkXjXjXjXjXkXkXkXkXjXjXjXjXjXjXjXjXjXjXjXjXkX",
"kXkXkXkXkXkXkXkXkXkXkXkXkX+ j m 1   o e t f 1 kXkXkXkXkXjXjXjXjXkXkXkXkXjXjXjXjXjXjXjXjXjXjXjXjXkX",
"kXkXkXkXkXkXkXkXkXkXkXkXkXkXo e f f X     + kXkXkXkXkXkXjXjXjXjXkXkXkXkXjXjXjXjXjXjXjXjXjXjXjXjXkX",
"kXkXkXkXkXkXkXkXkXkXkXkXkXkXkX    O + jXjXjXjXjXjXjXjXjXjXjXjXjXkXkXkXkXkXkXkXkXkXkXkXkXkXkXkXkXkX"
};
