/* XPM */
static char *bWFuOA__[] = {
/* columns rows colors chars-per-pixel */
"49 49 220 2 ",
"   c #030303",
".  c #0A0503",
"X  c #060708",
"o  c #070809",
"O  c #0B0B0C",
"+  c #0F0906",
"@  c #140A05",
"#  c #1C0C06",
"$  c #130C0B",
"%  c #150A07",
"&  c #1D120C",
"*  c #0D0E11",
"=  c #190E10",
"-  c #0F1115",
";  c #131314",
":  c #1C1412",
">  c #13151A",
",  c #1C1C1C",
"<  c #161B1F",
"1  c #230E06",
"2  c #290E09",
"3  c #360E0A",
"4  c #2D130A",
"5  c #26130A",
"6  c #33140A",
"7  c #3C140B",
"8  c #3D1A0A",
"9  c #251A15",
"0  c #261A18",
"q  c #351916",
"w  c #192119",
"e  c #2C211D",
"r  c #35241E",
"t  c #3F261C",
"y  c #1B1E25",
"u  c #171B22",
"i  c #211E21",
"p  c #1D222A",
"a  c #1B2027",
"s  c #242424",
"d  c #23252C",
"f  c #2C2B2C",
"g  c #2B2525",
"h  c #342621",
"j  c #362924",
"k  c #3C2B24",
"l  c #3A2D2A",
"z  c #222631",
"x  c #242934",
"c  c #292E3A",
"v  c #2B2D34",
"b  c #2D313D",
"n  c #323232",
"m  c #3B3A3A",
"M  c #373336",
"N  c #37312D",
"B  c #44150A",
"V  c #421A0B",
"C  c #4B1B0C",
"Z  c #4B160C",
"A  c #541A0C",
"S  c #5C1C0D",
"D  c #530D10",
"F  c #5A1E16",
"G  c #471E11",
"H  c #621C0E",
"J  c #6B1D10",
"K  c #741E10",
"L  c #4B200C",
"P  c #5B240E",
"I  c #50220A",
"U  c #442A1E",
"Y  c #5B2616",
"T  c #55311F",
"R  c #64260F",
"E  c #75230F",
"W  c #6B2212",
"Q  c #652215",
"!  c #7A2312",
"~  c #792814",
"^  c #753119",
"/  c #482C21",
"(  c #47352C",
")  c #523629",
"_  c #483B36",
"`  c #523D33",
"'  c #5C2322",
"]  c #783826",
"[  c #6E3924",
"{  c #56443D",
"}  c #5C4339",
"|  c #4F423B",
" . c #6F4836",
".. c #2E3341",
"X. c #313643",
"o. c #363B48",
"O. c #393C48",
"+. c #413942",
"@. c #3B404E",
"#. c #3E4452",
"$. c #4A4A4A",
"%. c #44444A",
"&. c #594C47",
"*. c #414654",
"=. c #474C5B",
"-. c #4D525F",
";. c #535353",
":. c #59595A",
">. c #644E44",
",. c #684C42",
"<. c #6A5249",
"1. c #76584B",
"2. c #695B55",
"3. c #745D53",
"4. c #7A5D52",
"5. c #7A6359",
"6. c #7C6358",
"7. c #6A615C",
"8. c #4D5261",
"9. c #555967",
"0. c #515769",
"q. c #5D606E",
"w. c #5F6475",
"e. c #626262",
"r. c #6C6C6C",
"t. c #756664",
"y. c #646A79",
"u. c #676B7A",
"i. c #747474",
"p. c #7C7A78",
"a. c #757075",
"s. c #8A2615",
"d. c #8D2A19",
"f. c #852814",
"g. c #982615",
"h. c #992C1A",
"j. c #962A18",
"k. c #9B321E",
"l. c #93321C",
"z. c #85331F",
"x. c #861E21",
"c. c #9A3824",
"v. c #883B24",
"b. c #A1131A",
"n. c #98442E",
"m. c #994D36",
"M. c #86402A",
"N. c #A64A34",
"B. c #AB543C",
"V. c #A3432C",
"C. c #8E5A46",
"Z. c #AA5841",
"A. c #B15C45",
"S. c #866659",
"D. c #B5654C",
"F. c #B66B52",
"G. c #AB6C51",
"H. c #886E62",
"J. c #8C7368",
"K. c #937365",
"L. c #947669",
"P. c #94796B",
"I. c #9B7B6D",
"U. c #987C72",
"Y. c #8A726A",
"T. c #BB7C62",
"R. c #A57D6A",
"E. c #C07C62",
"W. c #9C8071",
"Q. c #A38274",
"!. c #AB8B7C",
"~. c #A88779",
"^. c #B08A7B",
"/. c #BD896E",
"(. c #C6876B",
"). c #C89578",
"_. c #717789",
"`. c #827F82",
"'. c #7B8192",
"]. c #8A8A8A",
"[. c #858484",
"{. c #8F9090",
"}. c #9C9C9C",
"|. c gray57",
" X c #958A84",
".X c #AD9182",
"XX c #B49382",
"oX c #BC9B8B",
"OX c #B99687",
"+X c #AE9D94",
"@X c #B29688",
"#X c #9FA09F",
"$X c #B4A298",
"%X c #9A9FB2",
"&X c #A9A8A8",
"*X c #B5AAA7",
"=X c #B7B6B7",
"-X c #BCB4AE",
";X c #C19C8B",
":X c #D39F81",
">X c #D6A486",
",X c #C5A492",
"<X c #CAAA98",
"1X c #C9B3A4",
"2X c #D6BAA8",
"3X c #C2B9B3",
"4X c #CDAFA0",
"5X c #D8C5B9",
"6X c #E4CBB9",
"7X c #C8C7C6",
"8X c #D7D6D6",
"9X c #D5CFCB",
"0X c #E9D7C9",
"qX c #EEDED3",
"wX c #F0DECE",
"eX c #EFE2D9",
"rX c #E9E9E8",
"tX c #F7F1ED",
"yX c None",
"uX c black",
/* pixels */
"yXyXyXyXyXyXyXyXuXuXuXuXuXuXyXyXyXyXyXyXyXyXyXyXyXyXyXyXyXyXyXyXyXyXyXyXyXyXyXyXyXyXyXyXyXyXyXyXyX",
"yXyXyXyXyXyXyXyXuXuXuXuXuXuXh.h.h.d.B 2 yXyXyXV S W f.! Q yXyXyXyXyXyXyXyXyXyXyXyXyXyXyXyXyXyXyXyX",
"yXyXyXyXyXyXyXyXuXuXuXuXN.D.B.F.E.Z.z.B V G Z J h.h.g.Z.(.m.H yXyXyXyXyXyXyXyXyXyXyXyXyXyXyXyXyXyX",
"yXyXyXyXyXyXyXyXuXuXuXuX(.>X(.E.D.v.A 7 4 4 3 [ c.c.j.c.).).N.f.S yXyXyXyXyXyXyXyXyXyXyXyXyXyXyXyX",
"yXyXyXyXyXyXyXyXyXyXyXN.A.V.B.c.h.g.s.4 & & 6 A ! ! f.c.).).B.H E yXyXyXyXyXyXyXyXyXyXyXyXyXyXyXyX",
"yXyXyXyXyXyXyXyXyXyX~ k.h.s.g.c.k.k.d.V # A d.j.h.h.s.W c. .F.V.~ B yXyXyXyXyXyXyXyXyXyXyXyXyXyXyX",
"yXyXyXyXyXyXyXyXyXR ~ j.J h.F.A.s.J ! W B d.h.h.h.c.c.~ T 4 T m.l.g.A yXyXyXyXyXyXyXyXyXyXyXyXyXyX",
"yXyXyXyXyXyXyXyX~ z.! C x.(.>Xv.3 Z 7 J 6 6 z.F./.:X).R.[ P 8 8 1 f.s.yXyXyXyXyXyXyXyXyXyXyXyXyXyX",
"yXyXyXyXyXyXyX+ 6 L Y n.T.>XC.S K B 1 # # . % 4 / } U 4 S f.h.] T V E P yXyXyXyXyXyXyXyXyXyXyXyXyX",
"yXyXyXyXyXyXyXV S d.B.N.D.n.J K 1 9 t ) / @ 8 8 C P E s.l.Z.T.` L f.W E yXyXyXyXyXyXyXyXyXyXyXyXyX",
"yXyXyXyXyXyXyXH g.g.g.s.! K K 7 U  .C.~.S.U 0 8 P P P T  .` : 1 ~ k.m.G. .yXyXyXyXyXyXyXyXyXyXyXyX",
"yXyXyXyXyXyXyXyX3 3 # % 4 4 2 U ,.K.OXoXXXS. .r 9 % # . + . # ~ l.n.M.v.^ yXyXyXyXyXyXyXyXyXyXyXyX",
"yXyXyXyXyXyXyXyXyX1 1 0 k h k 4.K.^.6.h i k >.~.1.r .   . . @ C I C C R V 1 yXyXyXyXyXyXyXyXyXyXyX",
"yXyXyXyXyXyXyXyXyX. # @ @ % / S.^.R.r 9 5 9 q { OXK.9 . . . : r : & 4 6 4 # yXyXyXyXyXyXyXyXyXyXyX",
"yXyXyXyXyXyXyXyXyXyX+ 9 k j ) I.;X^.K.) ( _ ,.P.OX;X6.  + j 5XqX1X$ % @ 1 yXyXyXyXyXyXyXyXyXyXyXyX",
"yXyXyXyXyXyXyXyXyXyXyX9 , &Xl 4.XX^.<.% :.8X| C.Q.,X!.  . *X3X2.<Xr @ B A yXyXyXyXyXyXyXyXyXyXyXyX",
"yXyXyXyXyXyXyXyXyXyXyX    7X&.&.4X^.` _ `.tX2.S.I.<Xt.. : 1X( ( ,X( @ I H yXyXyXyXyXyXyXyXyXyXyXyX",
"yXyXyXyXyXyXyXyXyXyXyXw r.=XN -X<XOXH.Y.9X3X3.U.;X2Xj . { !.j ( !.j 2 L C yXyXyXyXyXyXyXyXyXyXyXyX",
"yXyXyXyXyXyXyXyXyXyXuXe J.P.7.eX;X;XXXU.K.I.$X2X6X6X^.<.I.2.j <.5.: # 8 I yXyXyXyXyXyXyXyXyXyXyXyX",
"yXyXyXyXyXyXyXyXyXyXuX: I.2.-X2X;X;X;X;X6XqXqXtXwX<XR.P.I.>.1.U.P.@ 6 C yXyXyXyXyXyXyXyXyXyXyXyXyX",
"yXyXyXyXyXyXyXyXyXyXyXyXt.U.h &.4.^.;X;X4X6X0X5X.XL.K.K.P.Q.@XW.9 + # yXyXyXyXyXyXyXyXyXyXyXyXyXyX",
"yXyXyXyXyXyXyXyXyXyXyXyXl ~.I.3.( <.R.;X,X4XoXI.I.Q.I.I.I.( 0 O   $ * = yXyXyXyXyXyXyXyXyXyXyXyXyX",
"yXyXyXyXyXyXyXyXyXyXyXyXyX3.XXJ.S.S..XOX~.U.,X,XXX~.W.I.{ . o O O y X.=.q.q.=.yXyXyXyXyXyXyXyXyXyX",
"yXyXyXyXyXyXyXyXyXyXyXyXyXg .X&.h r k i ` .X,X,X;X;XXX1.+ X o - b O.d * > X.=.: 0 yXyXyXyXyXyXyXyX",
"yXyXyXyXyXyXyXyXuXuXuXuXuXuXH.5XoXXX;X,X<X,X,X,X,XXX>.> M X * b #.o.o.#., - O.1X2X_ yXyXyXyXyXyXyX",
"yXyXyXyXyXyXyXyXuXuXuXuXuXuXuX7X+XP.!.<X,X,X<X~.,.g ; o.*.X   p #.0...X.-.d Y.Y.J.&.yXyXyXyXyXyXyX",
"yXyXyXyXyXyXyXyXuXuXuXuXuXuXuX_  X+X~.Q.P.5.t.2.].].p #.O.o   < x -.w.p c 9.m >.P.{ yXyXyXyXyXyXyX",
"yXyXyXyXyXyXyXyXuXuXuXuXuXuXuXuXuXuXf ;.x.x.*XtXrXp.c *.b > X O p @.w.*.p @.q.&.} % yXyXyXyXyXyXyX",
"yXyXyXyXyXyXyXyXuXuXuXuXuXuXuXuXuXuXa.=X' F i M ;.O.d O.d O O   - a X.w.x X.8.9.; yXyXyXyXyXyXyXyX",
"yXyXyXyXyXyXyXyXuXuXuXuXuXuXuXuXuXuXx t.$X*X*XrXp.g O.=.8.9.c o X a a q.@.o.*.y.9.& yXyXyXyXyXyXyX",
"yXyXyXyXyXyXyXyXuXuXuXuXuXuXuXuXuXuX: N tXrX@X5X6X2.8.#...z p   X - a -.9.y o.*.y.u.i yXyXyXyXyXyX",
"yXyXyXyXyXyXyXyXuXuXuXuXuXuXuXuXuXuX: l 5XtXeXwX2X4.i > * O * o - u @.'.u.O x @.@.8.'.9.0 yXyXyXyX",
"yXyXyXyXyXyXyXyXyXyXyXyXyXyXyXyXyXyXyXe 9XeX4XoX~.U.+.b o X o X u x =.%X*.* p ..#.#.*._.u.. yXyXyX",
"yXyXyXyXyXyXyXyXyXyXyXyXyXyXyXyXyXyXyX= ~.0X@XJ.P.R.5.%.> o X > z O._.0.X o y x o.#.*.9.u.. yXyXyX",
"yXyXyXyXyXyXyXyXyXyXyXyXyXyXyXyXyXyXyXyXh .XJ.J.H.P.6.n =.y x ..=._.=.    X > p z ..#.y.9.yXyXyXyX",
"yXyXyXyXyXyXyXyXyXyXyXyXyXyXyXyXyXyXyXyX& 5.S.5.<.( , , 8.w.=.0.+.y         * y z x 0.'.s yXyXyXyX",
"yXyXyXyXyXyXyXyXyXyXyXyXyXyXyXyXyXyXyXyXyX$.N e.`.].].t.i v q D b.D .       X u p X.q.f yXyXyXyXyX",
"yXyXyXyXyXyXyXyXyXyXyXyXyXyXyXyXyXyXyXyXyXyXm $.;.+.q q q > = 3 3 2 X X X O > y x =.*.yXyXyXyXyXyX",
"yXyXyXyXyXyXyXyXyXyXyXyXyXyXyXyXyXyXyXyXyX; $.}.+X{.{.{.r.n z > O O X o - y p ..#.o.yXyXyXyXyXyXyX",
"yXyXyXyXyXyXyXyXyXyXyXyXyXyXyXyXyXyXyXyX  ;.7X7X].r.r.e.;.v : c X.c z i x ..o...f d yXyXyXyXyXyXyX",
"yXyXyXyXyXyXyXyXyXyXyXyXyXyXyXyXyXyXyXyX; 7X9X}.r.r.$.m n , ; O < x b b b x < g ].&Xi.f yXyXyXyXyX",
"yXyXyXyXyXyXyXyXyXyXyXyXyXyXyXyXyXyXyXyXe.8X=X'.q.m n s : ; ; ; - $ O - ; ; g e.7X8X8Xm O ; yXyXyX",
"yXyXyXyXyXyXyXyXyXyXyXyXyXyXyXyXyXyXyXi =X9X}.i.:.N i   X X O O > ; w g s n :.p.&X=X&Xs X ; yXyXyX",
"yXyXyXyXyXyXyXyXyXyXyXyXyXyXyXyXyXyX  [.7X#X|.r.e.m s   yXyXyXyXyX, w f g n ;.i.i.#Xe.* , : yXyXyX",
"yXyXyXyXyXyXyXyXyXyXyXyXyXyXyXyXyXO , n $.i.i.e.e.$.f X yXyXyXyXyXyX; , n n m %.;.$.  $.s ; uXuXyX",
"yXyXyXyXyXyXyXyXyXyXyXyXyXyXyXyX  r.].:.;   f %.m f w uXyXyXyXyXyXyXyXyXf g a , w X , #Xm ; uXuXyX",
"yXyXyXyXyXyXyXyXyXyXyXyXyXyXyXyX  , `.].$.$     X X   uXyXyXyXyXyXyXyXyXyXyXyXyX.   f r.a uXuXuXyX",
"yXyXyXyXyXyXyXyXyXyXyXyXyXyXyXyXyX  w n s X     O uXuXuXyXyXyXyXyXyXyXyXyXyXyXyX    ; , ; uXuXuXyX",
"yXyXyXyXyXyXyXyXyXyXyXyXyXyXyXyXyXyXyX            yXyXyXyXyXyXyXyXyXyXyXyXyXyXyXO     X yXyXyXyXyX"
};
