/* XPM */
static char *bWFuOQ__[] = {
/* columns rows colors chars-per-pixel */
"49 49 230 2 ",
"   c #030404",
".  c #0A0403",
"X  c #060609",
"o  c #070809",
"O  c #0B0B0C",
"+  c #090907",
"@  c #130704",
"#  c #140A06",
"$  c #1C0B06",
"%  c #120C0B",
"&  c #190D09",
"*  c #1C110D",
"=  c #16100E",
"-  c #0D0E12",
";  c #0E1015",
":  c #0F1218",
">  c #131315",
",  c #13151B",
"<  c #16181F",
"1  c #1B1B1B",
"2  c #1D1816",
"3  c #100F10",
"4  c #220D06",
"5  c #270E09",
"6  c #2C130A",
"7  c #281209",
"8  c #33130A",
"9  c #3B1409",
"0  c #291815",
"q  c #371C15",
"w  c #300E08",
"e  c #1D201D",
"r  c #2D211D",
"t  c #20201B",
"y  c #33231D",
"u  c #161A22",
"i  c #1A1C24",
"p  c #1B1F29",
"a  c #191623",
"s  c #1E222C",
"d  c #1D2027",
"f  c #232323",
"g  c #2B2623",
"h  c #21242C",
"j  c #2A2A2B",
"k  c #292928",
"l  c #352A25",
"z  c #3D322C",
"x  c #222531",
"c  c #252934",
"v  c #292E3B",
"b  c #282D37",
"n  c #2C313E",
"m  c #343333",
"M  c #3C3C3C",
"N  c #3A3535",
"B  c #312F33",
"V  c #291F2C",
"C  c #42150B",
"Z  c #4B160B",
"A  c #441A0B",
"S  c #4B1C0C",
"D  c #5B1B0D",
"F  c #521B0C",
"G  c #4B1D15",
"H  c #581812",
"J  c #4A0E0E",
"K  c #641C0D",
"L  c #6B1A0E",
"P  c #661812",
"I  c #731112",
"U  c #57250D",
"Y  c #492719",
"T  c #67240E",
"R  c #662414",
"E  c #772815",
"W  c #772911",
"Q  c #442E28",
"!  c #57252A",
"~  c #44332D",
"^  c #4D352A",
"/  c #5A3526",
"(  c #483935",
")  c #543B34",
"_  c #743725",
"`  c #6A312A",
"'  c #52433C",
"]  c #5A453D",
"[  c #48423B",
"{  c #714C3D",
"}  c #333645",
"|  c #393D4A",
" . c #333949",
".. c #343949",
"X. c #453F4A",
"o. c #3C414D",
"O. c #3D4456",
"+. c #454545",
"@. c #4C4748",
"#. c #5C4B42",
"$. c #554845",
"%. c #414757",
"&. c #545454",
"*. c #5D5D5D",
"=. c #5E5952",
"-. c #525152",
";. c #634B42",
":. c #694D4A",
">. c #695349",
",. c #79594C",
"<. c #695D54",
"1. c #775D53",
"2. c #5E605F",
"3. c #786459",
"4. c #6A625B",
"5. c #464C61",
"6. c #4D5366",
"7. c #585C67",
"8. c #535A71",
"9. c #646364",
"0. c #6C6C6C",
"q. c #676766",
"w. c #776863",
"e. c #787878",
"r. c #6D6D76",
"t. c #8B1317",
"y. c #AD161C",
"u. c #842A14",
"i. c #892A18",
"p. c #9A2C16",
"a. c #992C1A",
"s. c #942914",
"d. c #87321B",
"f. c #94331C",
"g. c #9D321A",
"h. c #AA1F24",
"j. c #883723",
"k. c #9C3724",
"l. c #8A3034",
"z. c #AE3630",
"x. c #C11922",
"c. c #CB222A",
"v. c #CC3038",
"b. c #9C422B",
"n. c #904D36",
"m. c #A64A34",
"M. c #A35038",
"N. c #933C41",
"B. c #E43B44",
"V. c #AD5741",
"C. c #B15D45",
"Z. c #B5484D",
"A. c #87675A",
"S. c #916B5D",
"D. c #B6755A",
"F. c #B06D53",
"G. c #886E62",
"H. c #8C7367",
"J. c #937366",
"K. c #95796D",
"L. c #9A7B6C",
"P. c #977668",
"I. c #9A7E70",
"U. c #8D7B70",
"Y. c #A37C6E",
"T. c #BC7C61",
"R. c #A17C75",
"E. c #885A46",
"W. c #E76168",
"Q. c #998679",
"!. c #A48475",
"~. c #A98C7D",
"^. c #A68779",
"/. c #B38C7C",
"(. c #BB8468",
"). c #C4886A",
"_. c #CB9576",
"`. c #C88E70",
"'. c #73798C",
"]. c #686F83",
"[. c #88888A",
"{. c #918A86",
"}. c #9C9C9C",
"|. c #969595",
" X c #868C98",
".X c #A99285",
"XX c #B49282",
"oX c #B99383",
"OX c #BD9B8B",
"+X c #B89888",
"@X c #A69994",
"#X c #B59789",
"$X c #BAA397",
"%X c #8F96AC",
"&X c #A3A3A3",
"*X c #ABACAC",
"=X c #A5A7A9",
"-X c #B5ADA8",
";X c #B3B3B3",
":X c #BBBBBB",
">X c #B8B4B6",
",X c #B7B2AF",
"<X c #C09C8B",
"1X c #C5A492",
"2X c #C9AA98",
"3X c #D2B19E",
"4X c #C8A896",
"5X c #D7BAA9",
"6X c #C9B5A9",
"7X c #D8C7BC",
"8X c #E9D3BD",
"9X c #E0C7B9",
"0X c #BCC0C0",
"qX c #C2C3C3",
"wX c #CACBCC",
"eX c #CAC8C7",
"rX c #D6D6D6",
"tX c #DFCFC6",
"yX c #ECD8C7",
"uX c #F3DBC5",
"iX c #E6DBD0",
"pX c #F4E6D9",
"aX c #EEE2D9",
"sX c #E4E4E4",
"dX c #EAEAEA",
"fX c #EDE8E1",
"gX c #F5EDE5",
"hX c #F8F3EE",
"jX c None",
"kX c black",
/* pixels */
"jXjXjXjXjXjXjXjXjXjXjXjXjXjXjXjXjXjXjXjXjXjXjXjXjXjXjXjXjXjXjXjXjXjXjXjXjXjXjXjXjXjXjXjXjXjXjXjXjX",
"jXjXjXjXjXjXjXjXjXjXjXjXjXjXjXjXjXjXjXjX( <.$.+ jXjXjXjXjXjXjXjXjXjXjXjXjXjXjXjXjXjXjXjXjXjXjXjXjX",
"jXjXjXjXjX+ O jXjXjXjXjXjXjXjXjXkXkXt w.9XuXuXQ.jXjXjXjXjXjXjXjXjXjXjXjXjXjXjXjXjXjXjXjXjXjXjXjXjX",
"jXjXjXjX; j j j m j > jXjXjXjXjXkXz Q.pXuXuX8X3X( jXjXjXjXjXjXjXjXjXjXjXjXjXjXjXjXjXjXjXjXjXjXjXjX",
"kXkXkXkX      > M 0.[.&.f jXjXjXg 2X8XgXhX9X^.S.+. XkXkXjXjXjXjXjXjXjXjXjXjXjXjXjXjXjXjXjXjXjXjXjX",
"kXkXkXkX      3 o e 2.[.0.jXjX  ] H.3XuX1XP.#.-. X X'.kXjXjXjXjXjXjXjXjXjXjXjXjXjXjXjXjXjXjXjXjXjX",
"kXkXkXkXkX  2 1 d *.&.d +   jX% ' r >.oXP.~ 1 6.O.5.'.u jXjXjXjXjXjXjXjXjXjXjXjXjXjXjXjXjXjXjXjXjX",
"kXkXkXkXkX2 t o.&.}.7X:X> o h < > ] S.Y.] . o u p 5.r. .jXjXjXjXjXjXjXjXjXjXjXjXjXjXjXjXjXjXjXjXjX",
"kXkXkXkXjX2 j 2.0.;XwXe.i s , , o B >.( d o   O a s 6.8.kXkXkXkXjXjXjXjXjXjXjXjXjXjXjXjXjXjXjXjXjX",
"kXkXkXkXjX, 1 +.2.*X0Xj b , , , - X X c s < + : : s 5.].| kXkXkXjXjXjXjXjXjXjXjXjXjXjXjXjXjXjXjXjX",
"kXkXkXkXjX2 2 M *.&X&Xx x i < < , X ;  .} s : o : s 5.].].kXkXkXjXjXjXjXjXjXjXjXjXjXjXjXjXjXjXjXjX",
"kXkXkXkXjXe < +.*.}.&Xn n h < < , ;   - v v s   O : x 5.%Xa kXkXjXjXjXjXjXjXjXjXjXjXjXjXjXjXjXjXjX",
"kXkXkXkXkX2 t M &.[.&Xn o.b i u , > o   o } <   X , i x '.; kXkXjXjXjXjXjXjXjXjXjXjXjXjXjXjXjXjXjX",
"kXkXkXkXkXo k k &.q.0.v | b a u , - - o   u , o u d s v 8.a kXkXjXjXjX5 6 jXjXjXjXjXjXjXjXjXjXjXjX",
"kXkXkXkXkX+ d B m f f s O.v p a , , - +   - O : d s x  .5.> G S F jX7 7 w S { jXjXjXjXjXjXjXjXjXjX",
"kXkXkXkXkX3 t m m j 1 k X...x i a , , o X   X ; s c  .O.6.# A A A Z $ $ 8 S D.W jXjXjXjXjXjXjXjXjX",
"jXjXjXjXjXjXt o.f 2 > j ` v.! p p u < , X     ; x o.O.r.| 6 6 7 8 4 # $ T q M.j.T W jXjXjXjXjXjXjX",
"jXjXjXjXjXjXm j 1 > , 1 ! h.W.` ; , > h +     O i x n 6.o # $ l ] U.4.6 C / k.s.U W s.Z jXjXjXjXjX",
"jXjXjXjXjXjXN f 2 1 a 3 G I c.W.V v b %.      O   ; : ;   z ^.A.,.>.-XU.9 d.f.u.s.T s.u.A jXkXkXjX",
"jXjXjXjXjXm j > f k a } ! P t.B.! p , v ; d o.'.8.<     l $XQ.z 0 z 7XQ.8 u.U / _ D L s.K U kXkXjX",
"jXjXjXjXjXm 1 > f k k N V J I c.N.i a b v s u x o.| f   <.2X#.G.~.6X6Xz w 9 $ F.k.9 q F.k.l.E kXjX",
"jXjXjXjXjXf > 2 k m N K 5 0 I v.N.i p u u d d d , - + ~ S.J.G.U.3.' 2 # @ @ y M.a.C & T._.`.b.kXjX",
"jXjXjXjXjXj > } @.2.@.H g 5 I v.N.k i s i d < , - 3 >.Q.L.K.I.r   . . .   . >.m.a.H w d.`._.C.d.jX",
"jXjXjXjXjX1 f -.&.|.@.0 +.V I v.Z.*X0X&.> *XwX0X[.] !.P.K.J.P.~ % 0 r # . $ n.b.E G M.f.m.C.D.i.jX",
"jXjXjXjXjX> M &.|.;X;.0 q.N J y.x.A.qXX.< >XhXsXj Q.!.!.J.G.~.<X<X4X<XS.y $ ` f.K E.).n.d.p.k.u.jX",
"jXjXjXjXj 1 @.&.=X:X) ~ wX9.5 P y.x.! ! Z.y *X X] oXoX!.!.~.2X9X3X3X4X2X/.y 9 u.9 P.`.M.s.s.a.u.jX",
"jXjXjXB +.j &.q.>XrX$.@.dXwXr.w P t.t.t.c.v.N q.!.1XoXXXXX3X8X3XoX/./.G.Y.S.0 D 4 T.T.a.p.p.p.u.jX",
"jXjX1 [ j -.e.|.sXdXX.3 B e.*X[.7.~ & I I h.i.:.<X1X1XOX$XaXpX1X1.~ ;.1.0 I.>.4 w D.F.E u.s.i.T jX",
"jX  f j +.[.|.}.dXrXB - - ; - 0 N M = :.R.@X:.J.4X4XOX1X5XhX7X~.@XhX[.:.& Y.P.) 4 j.E K S D Z U jX",
"jX  f j e.|.;XrXdXqXB -   - u , a : O } e.>Xg OX1X1X;.~.3XyX<XQ.sX-X{.~ * 3.1X,.@ C C 4 $ $ A jXjX",
"jX  e *.}.&X0XdXsX[.} < o : , a p p 3 u , + r 1X4XOXl OX3X5XOX1.}.& % q # 1.1XP.$ 8 5 $ * 7 U jXjX",
"    o e.*X;XwXdX;X1 - s x s p ..%.h v , < + N 1X!.H.z 1XOX1XoXA.( 2 0 ] * J.OX{ 6 G E G 7 Z W jXjX",
"O f   j :XsXsXqXm kXkXkX3 + x o.;   b d o. .( XXQ.3.] /.S.OX<X!.J.A.A.A.;.!.,.Y Z w E j.E F i.A jX",
"  f 1 + q.wXdX0.kXkXkXkXjX< i ;     u o.%.s j $XP.3.' A.y OX<X<X<X_./.Y.Y.{ ^ $ Z Z P g.a.K f.U jX",
"  e m M ; k 9.kXkXkXkXkXi s d ,         + s , 7X7XK.~ A.r oX4X7X5X+XoXoXA.) & . K C P g.g.m.M._ jX",
"jX  j e.&.-.2.kXkXkXkXkXp x u ; O : , ; < ;   >.7XXX] !.' J.tX|.@.1.S.J.) 0 @ H K 9 k.k.s.C.).M.jX",
"jXjXo j =X;XeXM jXjXjXjXx p , O.7.8.6.b h kXkXkX' Q..X#XL.~ [ <.rXeX~ l * 7 L P / (.D.j.g.).).b.jX",
"jXjXjX  3 M [.e jXjXjXjXx : O.} ; + + d @.kXkXkXjXg <.#X+XQ.^.,X*Xe.@.y # 9 Z d._.).Q D a.T.C.a.jX",
"jXjXjXjX      kXjXjXjXjX, v x     = t g #.w.m kXjXjXl G..X~.~..Xl   0 r # @ w E ).M.j.k.F.F.k.kXjX",
"jXjXjXjXkXkXkXkXjXjXjXjXX O.    r ' Q.H.7XiXQ.=.jXjXjXjXr ( $.] l 0 ~ 0 & @ w j.C._ _ ).M.k.kXkXjX",
"jXjXjXjXjXjXjXjXjXjXjXjX: O.O O ( ~.3.H.@X4.=.fXM jXjXjXjXjXjXjXjX0 % + w $ / C.a.R M.n.d.jXjXjXjX",
"jXjXjXjXjXjXjXjXjXjXjXjXjX5. .p K.4XQ.] >.e 6XgXM jXjXjXjXjXjXjXjXkX+   S 5 T k.G D E T jXjXjXjXjX",
"jXjXjXjXjXjXjXjXjXjXjXjXjXjXi X <.] w.G.yX2.Q.gX3.kXjXjXjXjXjXjXjXjXjXjXA 8 T W 8 4 jXjXjXjXjXjXjX",
"jXjXjXjXjXjXjXjXjXjXjXjXjXjXjXjX3.<.6X7X7XfX7X-XkXkXjXjXjXjXjXjXjXjXjXjXjXZ U S 4 $ jXjXjXjXjXjXjX",
"jXjXjXjXjXjXjXjXjXjXjXjXjXjXjXjX~.1X5XpXyXpX$XkXkXkXkXkXjXjXjXjXjXjXjXjXjXjX9 kXjXjXjXjXjXjXjXjXjX",
"jXjXjXjXjXjXjXjXjXjXjXjXjXjXjXjXkX4X8X8XQ.N kXkXkXkXkXkXjXjXjXjXjXjXjXjXjXjXkXkXjXjXjXjXjXjXjXjXjX",
"jXjXjXjXjXjXjXjXjXjXjXjXjXjXjXjXkXkXkXkXkXkXkXkXkXkXkXkXjXjXjXjXjXjXjXjXjXjXjXjXjXjXjXjXjXjXjXjXjX",
"jXjXjXjXjXjXjXjXjXjXjXjXjXjXjXjXkXkXkXkXkXkXkXkXkXkXkXkXjXjXjXjXjXjXjXjXjXjXjXjXjXjXjXjXjXjXjXjXjX",
"jXjXjXjXjXjXjXjXjXjXjXjXjXjXjXjXjXjXjXjXjXjXjXjXjXjXjXjXjXjXjXjXjXjXjXjXjXjXjXjXjXjXjXjXjXjXjXjXjX"
};
