/* XPM */
static char *result[] = {
/* columns rows colors chars-per-pixel */
"50 50 215 2 ",
"   c #010100",
".  c #0C0A04",
"X  c #090704",
"o  c #120E05",
"O  c #1A1509",
"+  c #181307",
"@  c #211907",
"#  c #291F0A",
"$  c #251C09",
"%  c #2D230B",
"&  c #33270B",
"*  c #3B2D0D",
"=  c #372A0C",
"-  c #3F3011",
";  c #47350F",
":  c #4A3812",
">  c #533E11",
",  c #554014",
"<  c #5D4513",
"1  c #5C5A1C",
"2  c #644B16",
"3  c #6A4E13",
"4  c #604611",
"5  c #6C5116",
"6  c #755615",
"7  c #7B5A15",
"8  c #7A5A18",
"9  c #815F19",
"0  c #856319",
"q  c #8A6619",
"w  c #8E691B",
"e  c #836117",
"r  c #926D1C",
"t  c #9B731D",
"y  c #97701D",
"u  c #A0771D",
"i  c #A3791E",
"p  c #A97D1F",
"a  c #8C6B21",
"s  c #9A7521",
"d  c #997829",
"f  c #8E7330",
"g  c #957732",
"h  c #8F7326",
"j  c #A37B22",
"k  c #AA7E20",
"l  c #A07F2F",
"z  c #788374",
"x  c #9A812F",
"c  c #AC8122",
"v  c #A9832B",
"b  c #B38523",
"n  c #BC8C24",
"m  c #B68B2A",
"M  c #BC922C",
"N  c #A88739",
"B  c #BC9333",
"V  c #B68E34",
"C  c #C4952C",
"Z  c #CC9B2C",
"A  c #C69528",
"S  c #D19E2D",
"D  c #C49934",
"F  c #C99C33",
"G  c #D09F30",
"H  c #C18F24",
"J  c #D7A32E",
"K  c #CDA134",
"L  c #CDA438",
"P  c #D3A434",
"I  c #D5A539",
"U  c #D9AC3C",
"Y  c #D9A934",
"T  c #DCB13B",
"R  c #E3AE35",
"E  c #EAB435",
"W  c #E5B43A",
"Q  c #ECBA3C",
"!  c #E8B73A",
"~  c #F2BE3C",
"^  c #F0BB37",
"/  c #E1A92F",
"(  c #DAC13C",
")  c #F8C43C",
"_  c #9C9742",
"`  c #B2984F",
"'  c #B9AE74",
"]  c #B1AD7A",
"[  c #BAB57B",
"{  c #BAB076",
"}  c #BEB367",
"|  c #ABA955",
" . c #C29E46",
".. c #C6A349",
"X. c #DAAE42",
"o. c #DCB54D",
"O. c #E3BA44",
"+. c #E8B945",
"@. c #F2BD42",
"#. c #DCC048",
"$. c #EBC649",
"%. c #F5C545",
"&. c #FAC641",
"*. c #FCCB45",
"=. c #F3C54D",
"-. c #F5CC4A",
";. c #FDCD4A",
":. c #F7C847",
">. c #F5D24C",
",. c #FED34B",
"<. c #FFDA4E",
"1. c #FBD545",
"2. c #F4CB52",
"3. c #FBCC53",
"4. c #FDD552",
"5. c #FEDC53",
"6. c #FEDC5B",
"7. c #F5D256",
"8. c #EACC5D",
"9. c #FFE255",
"0. c #FFE559",
"q. c #FEEB5C",
"w. c #FAE856",
"e. c #FFF35D",
"r. c #F7E655",
"t. c #DBCC6F",
"y. c #D9CC74",
"u. c #E8CB64",
"i. c #FBD963",
"p. c #EED979",
"a. c #FED975",
"s. c #FFED63",
"d. c #FFEC6D",
"f. c #FFE468",
"g. c #FFF363",
"h. c #FFF96B",
"j. c #FDF669",
"k. c #FEEA76",
"l. c #FFFB74",
"z. c #FFFC7A",
"x. c #FFF07A",
"c. c #4B728D",
"v. c #4B7391",
"b. c #547996",
"n. c #507FA0",
"m. c #2A7ED4",
"M. c #2F7ECC",
"N. c #026EE5",
"B. c #0374EC",
"V. c #0676F1",
"C. c #2D88D8",
"Z. c #3381C9",
"A. c #1386F3",
"S. c #178DF4",
"D. c #128DFF",
"F. c #1494FF",
"G. c #1798FF",
"H. c #1997FA",
"J. c #0E92FF",
"K. c #2791ED",
"L. c #1EA1FE",
"P. c #24A4FE",
"I. c #29A4FE",
"U. c #25ADFF",
"Y. c #2CA9FF",
"T. c #26B2FF",
"R. c #2BB6FF",
"E. c #2EB9FF",
"W. c #31BCFF",
"Q. c #33B7FE",
"!. c #38A7EA",
"~. c #57A9DE",
"^. c #32C2FF",
"/. c #38C6FF",
"(. c #3CCCFF",
"). c #3FD1FE",
"_. c #66D4DE",
"`. c #41D4FF",
"'. c #56DEFF",
"]. c #44CCFF",
"[. c #5DE2FF",
"{. c #4FE3FE",
"}. c #64E6FF",
"|. c #7DF8FF",
" X c #819A94",
".X c #BBBF8C",
"XX c #CFC982",
"oX c #F5DA8D",
"OX c #FEED88",
"+X c #FFFD86",
"@X c #FFFA8B",
"#X c #FFFD95",
"$X c #FFFF9C",
"%X c #FFF29B",
"&X c #FBE899",
"*X c #FFFDA1",
"=X c #FEFEAE",
"-X c #FFECB6",
";X c #FFFDB4",
":X c #FFFBB8",
">X c #8CFFFF",
",X c #85FFFF",
"<X c #93FFFF",
"1X c #ACFFFE",
"2X c #FFFFC4",
"3X c #FFFECD",
"4X c #FEF4C6",
"5X c #FEFCD2",
"6X c #FFFEDA",
"7X c #FCF7D5",
"8X c #FFFEEB",
"9X c #FEFEE6",
"0X c #FFFFF3",
"qX c #FFFFFB",
"wX c None",
/* pixels */
"wXwXwXwXwXwXwXwXwXwXwXwXwXwXwXwXwXwXwXwXwXwXwXwXwXwXwXwXwXwXwXwXwXwXwXwXwXwXwXwXwXwXwXwXwXwXwXwXwXwX",
"wXwXwXwXwXwXwXwXwXwXwXwXwXwXwXwXwXwXwXwXwXwXX     wXwXwXwXwXwXwXwXwXwXwXwXwXwXwXwXwXwXwXwXwXwXwXwXwX",
"wXwXwXwXwXwXwXwXwXwXwXwXwXwXwXwXwXwX    X . O O O X X           wXwXwXwXwXwXwXwXwXwXwXwXwXwXwXwXwXwX",
"wXwXwXwXwXwXwXwXwXwXwXwXwXwXwX    . 1 _ | } y.y.XX.X] ` f a 2 % X     wXwXwXwXwXwXwXwXwXwXwXwXwXwXwX",
"wXwXwXwXwXwXwXwXwXwXwXwXwX    + x r.j.+X#X*X=X;X2X6X6X6X7X&XU A n 2 o     wXwXwXwXwXwXwXwXwXwXwXwXwX",
"wXwXwXwXwXwXwXwXwXwXwXwX  O h w.h.l.l.g.g.g.g.g.j.l.#X:X6X0X9XoXX.A n 3 @   wXwXwXwXwXwXwXwXwXwXwXwX",
"wXwXwXwXwXwXwXwXwXwX    , ( e.g.g.e.w.:.! U L Y Q >.w.g.l.*X8XqX7X8.H H c :     wXwXwXwXwXwXwXwXwXwX",
"wXwXwXwXwXwXwXwXwXwX  1 >.e.e.9.>.X.B ` x 6 3 3 3 7 t L >.q.z.2X0X0Xp.C H n 2 o   wXwXwXwXwXwXwXwXwX",
"wXwXwXwXwXwXwXwX    h 1.q.w.-.U  .` g v V D D F D B d 0 0 M >.j.$X0X8XoXn b b 9 X   wXwXwXwXwXwXwXwX",
"wXwXwXwXwXwXwXwX  2 1.e.5.$...` l v T :.4.4.4.5.5.5.3.+.B q y $.e.+X8X9Xp.n b b 8 X   wXwXwXwXwXwXwX",
"wXwXwXwXwXwXwX  : ) 9.<.o. .N v U ;.5.0.0.0.0.q.q.q.q.0.4.$.V w L e.#X9X3Xo.c k c 2 X   wXwXwXwXwXwX",
"wXwXwXwXwXwX  O Y <.9.T ..d M =.5.9.0.0.w.0.w.w.q.q.q.q.q.q.5.X.y U q.$X9X=XD k p p &   wXwXwXwXwXwX",
"wXwXwXwXwXwX  r 1.9.U w x B ;.5.5.9.0.0.0.0.0.0.0.0.q.q.q.q.q.0.O.s O.g.;X5Xp.c i i t +   wXwXwXwXwX",
"wXwXwXwXwX  # ) 9.$.w 0 F >.5.5.9.9.0.9.0.0.9.0.0.0.0.q.s.q.q.q.0.+.j -.l.:X;XX.i u u 3   wXwXwXwXwX",
"wXwXwXwXwX  M 1.<.m 7 b -.5.5.9.9.5.5.9.5.0.0.0.0.0.0.0.0.0.q.q.q.q.U D w.#X:Xp.p t t w @   wXwXwXwX",
"wXwXwXwX  ; ^ 5.T q t O.5.5.5.5.5.5.5.5.5.5.5.5.6.5.6.0.6.0.q.q.q.q.5.m ! h.=X#XC y y y >   wXwXwXwX",
"wXwXwXwX  w 1.<.j q K ,.5.5.5.5.7.u.u.u.u.u.u.u.t.t.t.t.t.i.0.q.q.q.0.=.m w.+X$X7.r r r w X   wXwXwX",
"wXwXwX  + G 5.! w j %.5.5.5.4..X_.'.'.'.'.[.[.[.[.[.}.}.].~.t.0.0.s.q.6.F $.h.#Xz.v w w w -   wXwXwX",
"wXwXwX  % ) <.F r C ,.<.<.5.8.!.|.>X>X,X,X>X>X>X>X<X<X1X|.P. X6.0.0.q.q.$.Y q.+Xz.L q q q 5   wXwXwX",
"wXwXwX  6 :.5.c i +.5.<.<.4.[ H.(.(.(.).).).`.).`.`.`.{.R.V.b.7.0.0.q.0.6.G w.z.z.#.q e 0 6 o   wXwX",
"wXwXwX  Z 1.1.t b ;.5.<.<.,.[ S.E.E.E.E.^.^.^.^.^././.`.I.B.v.7.0.0.0.q.9.L >.h.l.>.r 9 7 7 #   wXwX",
"wXwXwXX Y <.O.t F ,.<.<.<.5.[ S.T.E.E.E.W.E.E.^.^.^.^.).U.B.v.2.9.0.0.0.0.O.! g.l.7.h 7 7 7 &   wXwX",
"wXwX  O R <.I c +.,.,.<.<.,.[ S.T.E.R.R.E.W.W.^.^.^.^.).Y.B.v.2.6.0.9.0.0.>.J q.l.7.s 7 7 7 -   wXwX",
"wXwX  * E <.D b @.,.,.<.<.,.{ S.T.E.R.E.E.E.W.W.W.E.^.).Y.B.v.2.0.9.0.0.0.6.Z q.j.>.s 7 7 7 ;   wXwX",
"wXwX  : Q 9.M M %.,.,.<.,.,.{ S.T.E.E.T.R.E.R.W.W.W.^.(.I.B.v.=.5.0.0.0.9.6.A w.j.*.j 7 7 7 >   wXwX",
"wXwX  < ^ 9.Z F ;.,.,.4.<.,.' S.T.T.T.E.R.R.E.Q.E.W.W.(.P.B.v.=.5.9.0.9.0.9.Z 9.j.@.j 7 7 7 ,   wXwX",
"wXwX  < Q 0.F G ;.,.,.,.,.,.{ S.U.T.T.R.R.R.R.R.E.E.E./.P.B.v.=.5.9.9.0.0.6.Z 9.s.Q t 7 7 7 > X wXwX",
"wXwX  ; E 9.U I ;.,.,.,.,.,.{ A.U.U.Y.U.T.R.R.T.E.R.E.(.P.B.v.2.5.9.5.9.9.5.J 0.s.R y 7 7 7 >   wXwX",
"wXwX  % / 5.$.U ;.,.,.1.,.,.{ A.U.T.T.U.T.T.R.R.R.R.R./.P.B.v.=.5.5.5.9.9.5.J 0.4.Y w 7 7 7 ;   wXwX",
"wXwXwXo S 1.7.O.,.;.,.,.,.1.' A.L.U.U.T.U.T.T.R.R.R.R./.P.B.c.=.5.5.9.9.5.>.W q.=.Z q 7 7 7 =   wXwX",
"wXwXwXX A ;.k.+.6.;.,.1.,.;.{ A.L.T.U.U.U.U.T.T.R.T.R./.P.B.v.$.4.5.9.9.5.Q *.0.W C e 7 7 7 &   wXwX",
"wXwXwX  p %.g.2.j.;.;.*.,.,.{ S.L.L.T.L.T.U.U.Y.Y.T.R./.G.B.v.+.5.5.5.5.5.W <.5.P b 7 7 7 6 @   wXwX",
"wXwXwX  > ^ 5.i.k.6.,.,.;.,.} V.F.D.H.F.F.G.F.F.G.G.G.I.D.N.c.@.4.5.5.5.,.W 5.>.Z t 7 7 7 3 . wXwXwX",
"wXwXwX  @ J ,.d.i.k.;.;.,.*.+.Z.I.Y.I.I.I.I.P.P.I.Y.Y.I.I.S.z @.6.4.4.5.-.%.0.! M r 7 7 7 4   wXwXwX",
"wXwXwX  . t &.d.f.OX4.;.;.,.*.` n.Z.Z.Z.C.C.C.C.C.C.C.K.m.b. .;.4.5.5.4.E 1.5.J b 7 7 7 7 $   wXwXwX",
"wXwXwXwX  2 E 5.@Xk.a.;.;.,.;.@.` x g g g g f f f f f f g V +.4.5.5.4.:.^ 9.$.n y 7 7 7 6 X wXwXwXwX",
"wXwXwXwX  @ n *.x.+X*Xi.;.;.,.*.) R U I I I I P I I K F I +.;.4.4.4.,.E 4.4.G c e 7 7 7 =   wXwXwXwX",
"wXwXwXwXwX  6 R ,.#X+X-X;.;.;.;.*.*.;.;.*.*.;.*.;.>.;.;.;.;.4.<.,.4.) *.9.! b t 7 7 7 3 o   wXwXwXwX",
"wXwXwXwXwX  o b ) f.$X$X&X*.;.*.,.*.,.*.;.,.*.,.1.,.,.,.,.,.,.,.,.&.Q <.>.A c 7 7 7 6 ;   wXwXwXwXwX",
"wXwXwXwXwXwX  > S ;.k.;X3X-X;.;.;.;.*.,.,.;.,.*.,.,.,.5.4.,.4.,.&.~ 5.<.Y c w 7 7 7 2 X   wXwXwXwXwX",
"wXwXwXwXwXwX  X 0 Y ;.OX3X6X-X4.*.;.;.;.;.;.,.,.;.,.1.,.,.,.,.*.) 5.<.W c t 7 7 7 6 O   wXwXwXwXwXwX",
"wXwXwXwXwXwXwX  o y R ,.OX5X6X4XoX;.*.*.;.;.;.;.,.,.;.;.;.;.) ) <.<.! c t 0 7 7 7 &   wXwXwXwXwXwXwX",
"wXwXwXwXwXwXwXwX  # i R ,.d.3X3X5X4Xa.;.*.*.;.;.;.;.,.,.,.) <.9.<.! b i a 7 7 7 *   wXwXwXwXwXwXwXwX",
"wXwXwXwXwXwXwXwXwX  = t Y &.6.%X:X3X2X;XOXk.i.i.6.<.<.<.<.9.5.*.Y p s r 7 7 7 *     wXwXwXwXwXwXwXwX",
"wXwXwXwXwXwXwXwXwXwX  @ q H Q ;.6.x.*X;X$Xl.s.q.q.s.g.0.5.1.@.C i j h 7 7 7 #     wXwXwXwXwXwXwXwXwX",
"wXwXwXwXwXwXwXwXwXwXwX  o 6 i S ^ *.,.5.q.d.d.s.0.<.1.*.Q G c j s 0 7 6 , +   wXwXwXwXwXwXwXwXwXwXwX",
"wXwXwXwXwXwXwXwXwXwXwXwX    & 6 p n S R ~ &.) &.~ W G n k j j a 9 7 < % X   wXwXwXwXwXwXwXwXwXwXwXwX",
"wXwXwXwXwXwXwXwXwXwXwXwXwXwX    $ 6 w y u p p p i s t s d h 8 3 , O       wXwXwXwXwXwXwXwXwXwXwXwXwX",
"wXwXwXwXwXwXwXwXwXwXwXwXwXwXwXwX    . & : : , , > , , ; = % + X     wXwXwXwXwXwXwXwXwXwXwXwXwXwXwXwX",
"wXwXwXwXwXwXwXwXwXwXwXwXwXwXwXwXwXwX            X             wXwXwXwXwXwXwXwXwXwXwXwXwXwXwXwXwXwXwX"
};
